<svg width="245" height="316" fill="none" xmlns="http://www.w3.org/2000/svg"><path d="M3.91 0H245v165.469H3.91V0z" fill="#EA4033"/><path fill-rule="evenodd" clip-rule="evenodd" d="M46.915 156.245l24.604.104 26.655-.104v-52.899l-5.069-12.283 52.227 65.182 27.68.104 27.679-.104V9.12h-52.284v55.947l4.578 11.375s-13.942-16.632-28.174-34.24L99.199 9.12H46.915v147.125z" fill="#fff"/><path d="M15.49 316c-2.97 0-5.872-.385-8.705-1.155S1.691 313.101 0 311.923l3.29-6.456c1.645 1.087 3.61 1.971 5.894 2.65 2.33.634 4.615.952 6.854.952 5.117 0 7.676-1.337 7.676-4.01 0-1.268-.663-2.152-1.988-2.65-1.28-.498-3.358-.974-6.237-1.427-3.015-.453-5.483-.974-7.402-1.563-1.873-.589-3.518-1.608-4.934-3.058-1.371-1.495-2.056-3.557-2.056-6.184 0-3.443 1.439-6.184 4.317-8.223 2.925-2.084 6.854-3.126 11.789-3.126 2.513 0 5.026.295 7.539.884 2.513.543 4.569 1.291 6.168 2.242l-3.29 6.456c-3.107-1.812-6.602-2.718-10.486-2.718-2.513 0-4.432.385-5.757 1.155-1.28.725-1.919 1.699-1.919 2.922 0 1.359.685 2.333 2.056 2.922 1.417.544 3.587 1.065 6.511 1.563 2.924.453 5.323.974 7.197 1.563a11.035 11.035 0 014.797 2.99c1.37 1.405 2.056 3.398 2.056 5.98 0 3.398-1.485 6.116-4.455 8.155-2.97 2.039-7.013 3.058-12.13 3.058zm58.369-18.416c0 .589-.046 1.427-.137 2.514H45.005c.502 2.673 1.804 4.803 3.906 6.388 2.148 1.541 4.798 2.311 7.95 2.311 4.021 0 7.334-1.314 9.938-3.942l4.592 5.233c-1.645 1.948-3.724 3.42-6.237 4.417-2.513.997-5.345 1.495-8.498 1.495-4.02 0-7.562-.793-10.623-2.378-3.062-1.586-5.438-3.783-7.128-6.592-1.645-2.854-2.468-6.071-2.468-9.65 0-3.534.8-6.705 2.4-9.514 1.644-2.854 3.906-5.074 6.784-6.659 2.879-1.586 6.123-2.379 9.733-2.379 3.564 0 6.74.793 9.526 2.379 2.833 1.54 5.026 3.737 6.58 6.591 1.6 2.809 2.399 6.071 2.399 9.786zm-18.505-11.96c-2.742 0-5.072.815-6.991 2.446-1.873 1.586-3.016 3.715-3.427 6.388h20.767c-.366-2.628-1.485-4.757-3.359-6.388-1.873-1.631-4.203-2.446-6.99-2.446zm34.89-1.087c2.467-3.806 6.808-5.709 13.022-5.709v8.087a10.962 10.962 0 00-1.988-.204c-3.335 0-5.94.974-7.813 2.922-1.873 1.903-2.81 4.667-2.81 8.291v17.6h-8.567v-36.288h8.156v5.301zm55.896-5.301l-15.695 36.288h-8.841l-15.695-36.288h8.91l11.377 26.91 11.72-26.91h8.224zm5.355 0h8.567v36.288h-8.567v-36.288zM188.098 316c-3.793 0-7.197-.793-10.212-2.378-3.016-1.586-5.369-3.783-7.059-6.592-1.691-2.854-2.536-6.071-2.536-9.65 0-3.579.845-6.773 2.536-9.582 1.69-2.808 4.02-5.006 6.99-6.591 3.016-1.586 6.443-2.379 10.281-2.379 3.609 0 6.762.725 9.458 2.175 2.741 1.45 4.797 3.534 6.168 6.252l-6.579 3.805c-1.051-1.676-2.376-2.922-3.975-3.737-1.554-.861-3.267-1.291-5.141-1.291-3.198 0-5.848 1.042-7.95 3.126-2.102 2.038-3.153 4.779-3.153 8.222 0 3.443 1.028 6.207 3.084 8.291 2.102 2.038 4.775 3.058 8.019 3.058 1.874 0 3.587-.408 5.141-1.223 1.599-.861 2.924-2.13 3.975-3.806l6.579 3.806c-1.416 2.718-3.495 4.824-6.237 6.319-2.695 1.45-5.825 2.175-9.389 2.175zM245 297.584c0 .589-.046 1.427-.137 2.514h-28.717c.503 2.673 1.805 4.803 3.907 6.388 2.147 1.541 4.797 2.311 7.95 2.311 4.021 0 7.333-1.314 9.938-3.942l4.592 5.233c-1.645 1.948-3.724 3.42-6.237 4.417-2.513.997-5.346 1.495-8.499 1.495-4.021 0-7.562-.793-10.623-2.378-3.061-1.586-5.437-3.783-7.128-6.592-1.645-2.854-2.467-6.071-2.467-9.65 0-3.534.799-6.705 2.399-9.514 1.645-2.854 3.906-5.074 6.785-6.659 2.878-1.586 6.122-2.379 9.732-2.379 3.564 0 6.74.793 9.527 2.379 2.833 1.54 5.026 3.737 6.579 6.591 1.599 2.809 2.399 6.071 2.399 9.786zm-18.505-11.96c-2.741 0-5.072.815-6.991 2.446-1.873 1.586-3.015 3.715-3.427 6.388h20.767c-.365-2.628-1.485-4.757-3.358-6.388-1.874-1.631-4.204-2.446-6.991-2.446zM3.91 185.012h12.866v76.317H3.91v-76.317zm50.752 20.777c8.098 0 14.274 1.954 18.528 5.862 4.323 3.84 6.485 9.669 6.485 17.485v32.193H67.529v-6.685c-1.579 2.4-3.843 4.251-6.794 5.554-2.882 1.234-6.382 1.851-10.5 1.851-4.116 0-7.719-.685-10.807-2.057-3.088-1.44-5.49-3.394-7.205-5.862-1.647-2.537-2.47-5.383-2.47-8.537 0-4.937 1.818-8.88 5.455-11.828 3.705-3.017 9.504-4.526 17.395-4.526h14.205v-.823c0-3.839-1.166-6.788-3.5-8.845-2.264-2.057-5.66-3.085-10.19-3.085-3.088 0-6.142.479-9.161 1.439-2.95.96-5.455 2.298-7.514 4.012l-5.044-9.36c2.882-2.194 6.348-3.874 10.396-5.04 4.05-1.165 8.338-1.748 12.867-1.748zm-1.75 46.901c3.225 0 6.073-.72 8.544-2.16 2.539-1.509 4.323-3.634 5.352-6.377v-6.377H53.53c-7.411 0-11.117 2.434-11.117 7.303 0 2.331.926 4.182 2.78 5.554 1.852 1.371 4.425 2.057 7.72 2.057zm60.26 9.359c-4.461 0-8.818-.582-13.073-1.748-4.255-1.166-7.651-2.64-10.19-4.423l4.94-9.771c2.47 1.646 5.422 2.983 8.853 4.011 3.499.96 6.931 1.44 10.293 1.44 7.686 0 11.529-2.022 11.529-6.068 0-1.92-.995-3.257-2.986-4.011-1.921-.754-5.043-1.474-9.366-2.16-4.53-.686-8.235-1.474-11.117-2.366-2.814-.891-5.284-2.434-7.411-4.628-2.06-2.263-3.088-5.383-3.088-9.36 0-5.211 2.161-9.359 6.484-12.445 4.392-3.154 10.294-4.731 17.705-4.731 3.774 0 7.548.445 11.323 1.337 3.774.823 6.862 1.954 9.264 3.394l-4.941 9.771c-4.667-2.743-9.916-4.114-15.749-4.114-3.774 0-6.656.583-8.646 1.748-1.922 1.098-2.883 2.572-2.883 4.423 0 2.057 1.03 3.531 3.088 4.423 2.128.823 5.387 1.611 9.779 2.365 4.392.686 7.995 1.475 10.808 2.366 2.814.891 5.215 2.4 7.205 4.526 2.059 2.125 3.088 5.142 3.088 9.051 0 5.142-2.23 9.256-6.69 12.342-4.461 3.086-10.534 4.628-18.219 4.628zm87.662-27.873c0 .892-.068 2.16-.205 3.806H157.5c.754 4.045 2.71 7.268 5.867 9.668 3.225 2.331 7.205 3.497 11.94 3.497 6.039 0 11.014-1.988 14.925-5.965l6.897 7.919c-2.471 2.949-5.593 5.177-9.367 6.686-3.774 1.508-8.029 2.262-12.764 2.262-6.039 0-11.357-1.2-15.954-3.599-4.598-2.4-8.166-5.726-10.705-9.977-2.471-4.32-3.706-9.188-3.706-14.605 0-5.349 1.201-10.148 3.603-14.4 2.47-4.32 5.867-7.679 10.19-10.079 4.323-2.4 9.195-3.6 14.616-3.6 5.353 0 10.122 1.2 14.308 3.6 4.255 2.331 7.549 5.657 9.882 9.976 2.402 4.252 3.602 9.189 3.602 14.811zm-27.792-18.102c-4.117 0-7.617 1.234-10.499 3.703-2.813 2.4-4.529 5.622-5.146 9.668h31.188c-.549-3.977-2.23-7.2-5.043-9.668-2.814-2.469-6.314-3.703-10.5-3.703zm52.401-1.646c3.705-5.759 10.224-8.639 19.557-8.639v12.239c-1.098-.205-2.093-.308-2.985-.308-5.009 0-8.921 1.474-11.734 4.422-2.814 2.88-4.221 7.063-4.221 12.549v26.638h-12.866v-54.923h12.249v8.022z" fill="#000"/></svg>