<svg width="451" height="83" fill="none" xmlns="http://www.w3.org/2000/svg"><path d="M44.373 80.96c-1.15-.266-2.214-.444-3.365-.622a11.568 11.568 0 01-2.392-.533c-.088 0-.177-.089-.354-.089-.886-.177-1.771-.444-2.657-.622l-2.657-.8c-.532-.089-1.063-.355-1.506-.533a22.012 22.012 0 01-2.568-.977c-.974-.445-1.86-.8-2.834-1.245-.798-.355-1.506-.71-2.303-1.066-1.24-.711-2.569-1.333-3.809-2.133-.531-.355-1.151-.711-1.683-1.155-.531-.356-1.063-.623-1.594-.978-.797-.622-1.594-1.155-2.391-1.866-1.417-1.155-2.835-2.4-4.075-3.733-.53-.533-.974-1.066-1.417-1.6-.265-.355-.62-.621-.885-.977-1.329-1.955-2.746-3.821-3.897-5.865-1.417-2.755-2.657-5.6-3.277-8.62-.266-1.067-.443-2.222-.443-3.289.088-.444 0-.977 0-1.51a.97.97 0 00-.089.444.19.19 0 01-.177.177v-4.354c.177 0 .266-.089.266-.267 0-.355.088-.71 0-1.066 0-.267.088-.622.088-.889 0 0 .089-.089 0-.089.089-.622.177-1.333.266-1.955.443-2.4 1.24-4.71 2.303-6.932.708-1.6 1.505-3.11 2.48-4.532 1.151-1.777 2.391-3.466 3.897-5.066.885-.888 1.683-1.777 2.568-2.666.266.178.266 0 .266-.178.177 0 .177-.088.177-.177.177-.178.266-.356.443-.444.797-.623 1.594-1.334 2.391-1.956 1.063-.8 2.126-1.688 3.277-2.4a56.542 56.542 0 013.898-2.31c3.188-1.777 6.554-3.199 10.008-4.354a92.772 92.772 0 016.643-1.867c3.188-.71 6.288-1.244 9.565-1.51 0 .088.089 0 .089 0 .443-.09.886-.09 1.328-.178h1.86c.177 0 .355 0 .443-.178h5.669c0 .178.088.178.265.178h1.772c1.328.089 2.745.178 4.074.355 0 .09.089.09.089 0 .974.09 1.948.267 2.834.445 1.771.266 3.454.622 5.137 1.066 1.948.444 3.897 1.067 5.846 1.689 3.01.977 5.934 2.31 8.768 3.732 1.506.8 3.011 1.6 4.428 2.577 1.24.889 2.48 1.689 3.72 2.578a28.97 28.97 0 013.1 2.666 31.574 31.574 0 014.074 4.354 41.353 41.353 0 013.189 4.533c.886 1.422 1.683 2.932 2.303 4.532.531 1.333 1.063 2.755 1.417 4.088.266 1.066.531 2.222.708 3.377.178 1.067.266 2.133.355 3.2v2.399c0 1.333-.177 2.577-.355 3.91-.177 1.422-.531 2.755-.974 4.177-.266.977-.62 1.866-.974 2.755-.797 2.133-1.86 4.088-3.1 5.954a39.027 39.027 0 01-3.366 4.444c-.797.8-1.505 1.688-2.302 2.488-1.063 1.067-2.215 2.044-3.366 3.022-1.506 1.244-3.011 2.31-4.694 3.377-.886.533-1.772 1.155-2.746 1.6-.974.533-1.86 1.066-2.834 1.51a69.37 69.37 0 01-2.48 1.067 37.286 37.286 0 01-3.986 1.6c-.974.355-2.037.621-3.011.977-1.152.355-2.303.622-3.543.977-1.063.267-2.126.534-3.1.711-1.771.267-3.454.622-5.226.8-.885.089-1.683.178-2.568.267-.797.089-1.594.088-2.48.177-1.86.178-3.632.09-5.491.178h-.089c-.177-.089-.354-.089-.443-.089-1.86-.089-3.631-.178-5.403-.355-.885-.09-1.86-.178-2.745-.356h-.177c0-.088-.089-.088-.178 0zm-26.04-21.595c0 .089.09.089 0 0l.09.089a.68.68 0 00.177.444c.088.09.177 0 .177-.089.088 0 .088.09.177.09.709.621 1.417 1.332 2.214 1.865 1.506 1.156 3.012 2.222 4.694 3.11 1.949 1.156 4.075 2.134 6.112 3.023 2.745 1.155 5.58 1.955 8.414 2.666 1.86.444 3.808.8 5.668 1.066 0 .089.089.089.089 0 1.24.178 2.48.267 3.72.444 0 .09.088.09.088 0 .355 0 .709 0 1.063.09.089.088.089.088.177 0h.178c3.188.088 6.377 0 9.565-.445 1.949-.267 3.897-.711 5.757-1.422 3.1-1.066 6.023-2.488 8.503-4.71 1.948-1.777 3.365-3.822 4.163-6.399.531-1.688.708-3.377.354-5.065a8.992 8.992 0 00-2.037-4.355c-1.063-1.244-2.303-2.31-3.632-3.11-1.328-.89-2.834-1.6-4.251-2.222-2.569-1.067-5.137-1.778-7.883-2.4-.974-.266-2.037-.444-3.011-.622v-.177c1.948-.09 3.897.088 5.846.088.354 0 .708 0 1.062.09 0 .088.089.088.089 0 .709.088 1.417.088 2.126.177.797.089 1.682.089 2.48.267 0 .089.088.089.088 0 .797.089 1.683.177 2.48.355 1.594.267 3.189.533 4.694.889l2.392.533c1.948.533 3.808 1.067 5.668 1.778 2.303.888 4.517 1.866 6.554 3.288a32.868 32.868 0 012.835 2.044c.531.444 1.062.977 1.594 1.51.354.356.354.267.62-.088.088-.09.088-.178.088-.267 1.418-2.577 2.392-5.421 2.746-8.354v-.799c.266-1.511.177-2.933-.089-4.355-.354-2.31-.885-4.621-1.948-6.754-.354-.711-.62-1.422-1.063-2.133-.531-.978-1.151-1.866-1.771-2.755-.709-.978-1.506-1.866-2.303-2.755a32.819 32.819 0 00-2.48-2.488c-1.063-.89-2.126-1.867-3.366-2.578-.885-.622-1.771-1.155-2.657-1.688-.708-.444-1.594-.8-2.303-1.245-1.151-.622-2.391-1.155-3.631-1.688-1.24-.533-2.569-.977-3.809-1.51-.885-.356-1.86-.534-2.834-.89-.531-.177-1.063-.266-1.683-.355L68.2 11.02a34.054 34.054 0 00-4.34-.8c-1.063-.178-2.037-.267-3.1-.355-1.417-.178-2.834-.178-4.252-.267-1.24-.089-2.48-.089-3.72.089a49.29 49.29 0 00-5.225.8 26.427 26.427 0 00-7.263 2.666c-1.505.8-2.923 1.777-4.251 2.843-.089 0-.266 0-.354.09l-.886.888c-.089.09-.089.178-.089.356a333.8 333.8 0 01-.265.266c-.709.8-1.329 1.6-1.772 2.578-.885 1.866-1.417 3.732-1.417 5.776 0 1.6.354 3.022 1.151 4.355.532.977 1.24 1.777 2.038 2.577.177.444.443.8.885.8 0 .089.089.088.178.088.177.09.354.267.53.356 1.33 1.067 2.835 1.778 4.34 2.489.886.444 1.86.8 2.746 1.066 1.683.622 3.366 1.155 5.138 1.51 1.24.267 2.39.534 3.63.712.267 0 .532.088.798.177-.088.09-.089.09-.177.09-3.366.088-6.731 0-10.097-.445-1.24-.178-2.48-.267-3.72-.444-2.303-.356-4.694-.711-6.997-1.334-.886-.266-1.86-.444-2.746-.71-1.948-.534-3.808-1.245-5.58-2.044-1.948-.8-3.808-1.867-5.49-3.022-1.507-1.066-2.924-2.133-4.075-3.555-.531-.622-.531-.622-.886.089 0 0 0 .089-.088.089-.975 1.51-1.683 3.11-2.303 4.799a24.464 24.464 0 00-.797 3.466c-.355 2.133-.355 4.265-.178 6.31.09.71.178 1.421.355 2.044.354 1.51.886 3.11 1.594 4.532.886 1.955 2.037 3.732 3.366 5.42.531.623 1.063 1.245 1.594 1.956 0 .355.177.444.531.533.443.356.797.8 1.24 1.156 0 .355.089.355.089.355z" fill="#0258A0"/><path d="M50.044.178C49.956.089 49.956 0 49.867 0h2.48c-.088.178-.266.178-.443.178h-1.86zM.09 37.682h.266c.088.355 0 .71 0 1.066 0 .178-.089.267-.266.267v-1.333zM59.959.178h-1.772c-.177 0-.265 0-.265-.178h2.126c.088.178-.09.089-.09.178zM.09 43.367c.088 0 .177-.088.177-.177 0-.09 0-.267.089-.445 0 .534.088.978 0 1.511H.09v-.889zm370.314-1.777c0 1.422-.177 2.933-.532 4.355-.265 1.067-.531 2.133-.885 3.11-.532 1.334-1.063 2.578-1.86 3.822-.709 1.155-1.506 2.31-2.48 3.2-.443.355-.797.8-1.152 1.155a11.519 11.519 0 01-2.037 1.6c-1.24.888-2.568 1.51-3.897 2.132-.531.267-1.151.444-1.771.622-.532.178-.974.267-1.506.445-.708.266-1.417.355-2.126.444-.62.089-1.151.089-1.771.178-1.151.177-2.391.089-3.543.089-.885-.09-1.683-.09-2.568-.267h-.089c-.531 0-.974-.09-1.506-.267-.708-.178-1.505-.355-2.214-.622a21.295 21.295 0 01-5.314-2.666c-.886-.622-1.683-1.244-2.391-2.044-1.063-1.155-2.037-2.4-2.835-3.821-.442-.8-.885-1.511-1.24-2.31-.442-.978-.885-2.045-1.062-3.111-.178-.711-.355-1.422-.443-2.133-.266-1.6-.355-3.2-.266-4.888.089-1.333.266-2.577.62-3.91.266-1.067.531-2.044.974-3.022.355-.8.709-1.688 1.152-2.488.443-.8.885-1.511 1.417-2.311.885-1.155 1.948-2.133 3.011-3.2.797-.799 1.683-1.332 2.657-1.865.797-.445 1.595-.89 2.48-1.245.975-.355 1.949-.71 2.923-.977 1.24-.356 2.569-.534 3.809-.711.62-.09 1.151-.089 1.771-.089 2.391-.089 4.783.089 7.174.622a21.029 21.029 0 016.466 2.4c.708.355 1.328.8 1.948 1.332.974.711 1.683 1.511 2.569 2.311.62.622 1.063 1.333 1.594 2.044.531.8.974 1.6 1.329 2.488.531 1.245.974 2.578 1.239 4 .355 1.51.443 3.11.532 4.71-.177.355-.177.622-.177.888zm-36.225-1.6c-.089 2.311.177 4.622.708 6.933.177.8.443 1.6.709 2.4 1.063 2.843 2.657 5.331 4.96 7.375 1.417 1.245 3.1 2.133 4.871 2.755 1.152.356 2.303.622 3.454.711 2.392.178 4.606 0 6.82-1.066 1.594-.8 2.834-1.777 3.897-3.2a12.631 12.631 0 002.037-3.91c.443-1.333.798-2.666.975-3.999.177-1.155.265-2.222.354-3.377.088-1.777 0-3.644-.177-5.421-.089-.889-.354-1.777-.62-2.666-.354-1.333-.709-2.666-1.329-3.91-.708-1.422-1.505-2.844-2.657-4.088-1.24-1.333-2.657-2.578-4.34-3.466-1.151-.622-2.48-.978-3.72-1.333a11.757 11.757 0 00-2.48-.267c-1.328 0-2.657.089-3.897.445-.797.177-1.594.444-2.303.8-.974.444-1.859.977-2.657 1.777-.974.888-1.771 1.866-2.391 3.021-.709 1.244-1.151 2.666-1.594 4.088a16.066 16.066 0 00-.532 2.844c-.088 1.155-.088 2.4-.088 3.555zm64.564 21.952c-1.683 0-3.278-.09-4.96 0-1.152.089-2.392 0-3.543.088-.177 0-.354 0-.532-.177-.177-.09-.177-.178-.177-.356s.089-.266.266-.266c.266-.09.443-.09.709-.09.62 0 1.151 0 1.771-.088.709-.178 1.24-.533 1.594-1.155.089-.09.089-.178.089-.267.088-.8.354-1.6.354-2.4 0-1.6.089-3.11.089-4.71 0-1.422 0-2.843.088-4.177.089-2.31 0-4.62.089-6.931.088-1.156 0-2.222.088-3.377.089-1.245 0-2.489.089-3.733.088-2.222 0-4.443.088-6.665.089-1.866.001-3.733.089-5.599 0-.356.177-.622.266-.889.088-.266.443-.355.708-.177.177.088.266.177.355.266.797.8 1.682 1.6 2.391 2.489.886 1.066 1.948 1.955 2.834 3.021.266.356.62.622.886.889.177.178.354.266.354.533 0 .178.177.267.266.355 1.771 1.6 3.366 3.378 5.048 5.066 1.24 1.244 2.48 2.4 3.632 3.733 2.303 2.577 4.871 4.887 7.262 7.465.178.178.266.266.355.444.088.178.177.267.354.444 1.24 1.156 2.391 2.4 3.631 3.644.266.267.443.711.797.978.443.266.709.71 1.063 1.066.178.178.266.267.355.444.088.09.177.178.354.178s.266-.089.266-.266V50.21c0-.89 0-1.778-.089-2.666-.177-2.578-.089-5.155-.177-7.732-.089-2.133-.177-4.177-.177-6.31 0-1.777-.089-3.555-.089-5.332 0-.977-.088-1.866-.177-2.844-.089-.533-.266-1.155-.531-1.6-.443-.621-1.152-.977-1.949-1.066-.62-.089-1.24-.089-1.86-.089-.266 0-.531 0-.797-.177-.089-.09-.177-.178-.177-.267 0-.178.088-.267.266-.356.265 0 .531-.177.797-.177h3.365c.709 0 1.417.089 2.037.089 1.24.088 2.569 0 3.809-.09 1.063-.088 2.037 0 3.1 0 .177 0 .354.09.531.09.355.088.355.355.089.533-.177.177-.443.178-.62.178-.531 0-.974 0-1.506.088-.62.09-1.24.356-1.594.978a4.142 4.142 0 00-.531 2.044c0 1.333-.089 2.577-.178 3.91-.088 3.377 0 6.666-.088 10.043-.177 3.91-.089 7.909-.177 11.82 0 1.421-.089 2.754-.089 4.176 0 1.777-.088 3.555-.088 5.332 0 .445-.089.8-.178 1.244-.088.534-.442.711-.974.445-.266-.09-.443-.267-.62-.445l-.797-.8c-5.757-5.42-11.248-11.108-16.828-16.707-1.86-1.866-3.72-3.732-5.403-5.688-.886-.888-1.771-1.777-2.569-2.755-.708-.888-1.505-1.6-2.214-2.488-.265-.355-.62-.71-.974-1.066l-.266-.267c-.177-.089-.354 0-.354.178v.178c.177 1.066 0 2.132.177 3.199v.622c0 1.422 0 2.933.089 4.355 0 1.422.088 2.932.177 4.354v3.022c.088 1.333.088 2.666.177 3.999.089 1.066 0 2.133 0 3.11 0 1.156.177 2.31.443 3.377.177.534.354 1.067.708 1.511.266.356.62.533 1.063.622.709.178 1.417.267 2.126.178.266 0 .62 0 .886.178.088.088.265.089.265.266 0 .178-.088.267-.265.356-.178.089-.266.089-.443.089h-.886c-1.328.177-2.568.178-3.808.089zM205.219 20.973c1.683 0 3.632.089 5.492.355 1.417.178 2.923.356 4.34.711.885.178 1.771.267 2.657.445.708.088.797.444.708.977-.177 1.245-.177 2.578-.265 3.822-.089 1.066 0 2.133-.089 3.11 0 .711 0 1.333-.177 2.044v.178c-.089.178-.266.444-.443.355-.177 0-.354-.177-.354-.444-.089-.533-.089-.978-.177-1.51a3.58 3.58 0 00-.266-1.334c-.177-.444-.266-1.066-.62-1.422-.62-.8-1.151-1.6-2.037-2.133-1.329-.888-2.834-1.422-4.34-1.866-2.569-.71-5.137-.8-7.794-.622-1.417.089-2.923.355-4.252.889-2.125.8-3.808 2.133-5.137 3.91-.62.8-1.151 1.6-1.594 2.488-.443.889-.708 1.689-.974 2.666-.354 1.422-.62 2.755-.709 4.177-.177 1.6-.177 3.2-.088 4.8.088 1.688.354 3.287.886 4.887.442 1.333 1.062 2.577 1.682 3.822.266.533.709.977.975 1.421.354.711.974 1.245 1.505 1.778.62.71 1.329 1.333 2.126 1.955.886.71 1.771 1.244 2.746 1.777.708.356 1.417.711 2.214.978 1.683.533 3.366.8 5.137.71 1.063 0 2.126 0 3.1-.088 1.506-.178 3.1-.444 4.428-1.333 1.152-.711 2.037-1.689 2.746-2.844a8.538 8.538 0 001.063-2.844c.088-.355.177-.444.443-.444.265 0 .354.266.354.533 0 .711-.089 1.333-.177 2.044-.177 1.333-.354 2.666-.62 4-.089.444-.177.8-.266 1.243-.177.623-.531 1.156-1.24 1.422-.62.267-1.24.534-1.948.622l-1.063.267c-1.329.178-2.657.355-4.074.444-.709 0-1.418.09-2.038.09-.708.088-1.417 0-2.125 0-1.152-.09-2.303-.09-3.454-.267-1.24-.178-2.48-.445-3.72-.711-.532-.09-1.063-.356-1.595-.356-.62-.444-1.505-.355-2.125-.888-.266-.178-.62-.356-.886-.356a.677.677 0 01-.443-.178c-.62-.533-1.417-.888-2.126-1.244-.354-.178-.62-.533-.974-.71-.443-.356-.885-.623-1.328-.978a2.067 2.067 0 01-.62-.622 1.073 1.073 0 00-.443-.445c-.709-.533-1.24-1.244-1.683-2.044 0-.089-.089-.178-.177-.178-.443-.266-.62-.71-.886-1.155-.354-.622-.62-1.422-1.063-2.044-.177-.266-.265-.533-.354-.8-.266-.889-.531-1.688-.797-2.577-.089-.267-.089-.533-.177-.889-.177-.888-.266-1.866-.355-2.755-.177-1.6-.177-3.288.089-4.887.089-.89.266-1.778.532-2.578.177-.533.265-1.155.531-1.688v-.089c.177-1.066.797-2.044 1.328-2.933.355-.622.709-1.155 1.152-1.777.708-1.067 1.594-1.955 2.48-2.844.531-.533 1.24-.977 1.86-1.51 1.151-.978 2.568-1.6 3.897-2.222.62-.267 1.328-.445 2.037-.711.797-.267 1.683-.445 2.48-.622.797-.178 1.506-.267 2.303-.356 1.417-.533 3.011-.622 4.782-.622zm83.521 3.557c-.797.178-1.594.089-2.48.089-2.125.089-4.162.089-6.288.178-.797 0-1.594.088-2.303.177-.62.09-1.24.356-1.771.711l-.266.267c-.354.71-.886 1.333-1.063 2.222 0 .177-.088.266-.177.444-.088.178-.266.267-.443.178-.177-.09-.265-.178-.265-.356 0-.444 0-.977.088-1.422l.532-2.666c.177-.8.354-1.6.442-2.31.089-.267.178-.534.266-.712.177-.266.266-.355.532-.177.974.533 2.037.533 3.099.622 2.835.266 5.669.178 8.503.178h17.448c.886 0 1.772-.09 2.658-.178.442-.089.797-.089 1.239-.178.178-.089.355-.089.621-.089.265 0 .442.09.442.356s.089.533 0 .889c-.088.8 0 1.6-.088 2.31-.089 1.067-.089 2.133-.089 3.2 0 .266-.088.621-.088.888 0 .089-.089.267-.177.267-.178 0-.355.089-.443-.178-.089-.089-.178-.267-.178-.356v-.71c-.088-.711-.265-1.422-.885-1.956-.355-.266-.709-.444-1.152-.622-.974-.444-2.125-.622-3.188-.71-1.506-.09-3.012 0-4.517-.09-.974-.088-1.949 0-3.011-.088-.62 0-.532 0-.532.533v26.128c0 1.155 0 2.221.089 3.377.088 1.155 0 2.31.177 3.465.088.623.088 1.245.443 1.778.354.622.797 1.155 1.682 1.155.798.089 1.506.178 2.303.178.443 0 .886.089 1.329.444-.177.356-.532.445-.886.445h-1.24c-2.834-.09-5.668-.178-8.503-.09-1.594 0-3.188.09-4.694.09h-.974c-.089 0-.266 0-.354-.09-.178-.088-.355-.088-.355-.355 0-.178.177-.266.355-.355a.958.958 0 01.442-.09c.62 0 1.241-.088 1.861-.177.531-.089 1.062-.622 1.239-1.155.443-1.511.532-3.11.532-4.71 0-.711.177-1.51.088-2.222-.088-.71 0-1.51 0-2.222V24.974c.089-.177.089-.266 0-.444zM136.754 57.767c0-1.778.177-3.555.266-5.333 0-.266.088-.533.177-.8.088-.177.177-.355.354-.266.177 0 .354.089.354.356 0 .266.089.533.089.71 0 .711.177 1.422.354 2.133.177.622.354 1.244.709 1.867.354.8.974 1.421 1.505 2.044a6.142 6.142 0 003.632 1.777c1.417.267 2.834.267 4.251-.089 1.063-.266 2.037-.622 2.834-1.422.62-.533 1.24-1.155 1.595-1.955.531-1.066.708-2.133.62-3.377-.089-.444-.089-.889-.178-1.333 0-.355-.177-.622-.265-.889-.355-.8-.709-1.688-1.329-2.31-.797-.978-1.771-1.867-2.746-2.755-.531-.445-1.062-.8-1.594-1.245-.885-.71-1.771-1.332-2.657-2.043-.974-.8-1.948-1.511-2.746-2.489-.354-.444-.797-.889-1.151-1.333-.354-.444-.709-.977-1.063-1.51-.354-.623-.708-1.245-.974-1.956-.62-1.51-.974-3.021-.886-4.71 0-1.777.443-3.466 1.506-4.977 1.063-1.51 2.391-2.755 4.074-3.554 1.329-.622 2.746-.978 4.163-1.244 1.771-.267 3.543-.178 5.314-.09.709.09 1.506.178 2.214.356.797.178 1.595.267 2.392.622.354.09.354.267.354.622-.089 1.067-.089 2.133-.089 3.11-.088.89 0 1.778 0 2.578 0 .444 0 .889-.088 1.333 0 .178-.089.267-.089.444-.088.178-.177.267-.354.267s-.266-.089-.354-.267c-.089-.178-.089-.355-.089-.533 0-.977-.354-1.866-.797-2.755-.708-1.155-1.594-2.133-2.834-2.666-.974-.444-1.949-.711-3.012-.711-1.417-.089-2.834.178-4.162.711-.355.178-.62.444-.975.622-.974.711-1.594 1.777-1.86 2.933-.177.889-.177 1.866.089 2.755.354 1.244.974 2.222 1.86 3.11l1.329 1.333c.885.889 1.86 1.6 2.834 2.31.62.445 1.328.89 1.771 1.511.177.178.443.267.709.445 1.328 1.155 2.745 2.31 3.897 3.644a12.14 12.14 0 011.328 1.866 8.932 8.932 0 011.063 2.044c.354.71.532 1.51.709 2.31.177 1.067.265 2.044.177 3.111-.089 1.866-.62 3.555-1.594 5.154-.443.623-.886 1.245-1.417 1.867-1.24 1.244-2.746 2.221-4.429 2.755-2.214.8-4.428 1.066-6.731.977-1.152 0-2.303-.089-3.455-.355-1.062-.178-2.125-.445-3.099-.889-.089 0-.178-.089-.266-.089-.797-.178-1.152-.8-1.152-1.6-.088-.71-.088-1.422-.088-2.133zM250.29 39.635v11.998c0 2.221.089 4.354.177 6.576 0 .533.089.978.355 1.51a1.928 1.928 0 001.594 1.245c.886.089 1.771.267 2.657.178.266 0 .531 0 .797.089.089.088.266.089.266.266 0 .178-.177.267-.266.356-.266.178-.62.089-.886.089-1.328 0-2.657 0-4.074-.09a91.818 91.818 0 00-6.997 0c-1.151 0-2.303.09-3.543.09-.354 0-.708.088-1.063-.178-.088-.09-.177-.178-.177-.267 0-.177.089-.266.266-.266.177 0 .443-.09.62-.09.531 0 1.063-.088 1.594-.088.797-.089 1.417-.444 1.595-1.244.088-.445.265-.978.265-1.422.177-2.577.266-5.243.266-7.82v-22.13c0-1.244 0-2.488-.266-3.732-.088-.71-.443-1.333-1.063-1.688-.265-.178-.62-.267-.974-.267-.443 0-.886-.089-1.417-.089-.266 0-.531-.089-.709-.089-.177 0-.354-.089-.354-.355 0-.178.089-.267.266-.356.266-.088.443-.089.708-.089 1.063 0 2.126-.088 3.278 0 1.417.09 2.834.178 4.162.178 1.152 0 2.215-.089 3.366-.178 1.063-.088 2.214 0 3.277 0 .177 0 .354.09.532.178.265.178.265.445-.089.533-.266.09-.531.09-.797.09-.532 0-1.063.088-1.506.177-.974.178-1.506.889-1.683 1.777-.088.8-.177 1.6-.177 2.4-.088 4.177 0 8.265 0 12.708zm188.132-16.616c0-.8.177-1.6.531-2.311.177-.444.532-.8.797-1.244.443-.8 1.24-1.244 1.949-1.689.708-.355 1.506-.622 2.303-.71.708-.09 1.417 0 2.125.177.62.178 1.24.444 1.86.8.089.089.178.089.266.177.266.356.532.534.797.8.886.8 1.329 1.778 1.594 2.844.089.356.266.622.178.978 0 .267 0 .622-.178.889-.088.177-.088.444-.088.622-.266.977-.797 1.955-1.417 2.755-.532.622-1.24.977-1.949 1.333-1.24.533-2.48.71-3.72.444-1.063-.267-1.948-.622-2.745-1.333-.886-.711-1.417-1.6-1.772-2.577-.443-.711-.531-1.333-.531-1.955zm1.417 0c-.089.8.177 1.688.62 2.4.531.888 1.24 1.51 2.126 1.954.797.356 1.594.356 2.391.356 1.683-.09 2.746-.978 3.543-2.31.886-1.512.886-3.111.177-4.711-.443-1.066-1.24-1.866-2.391-2.31-.975-.445-1.949-.445-2.923-.267-.709.177-1.417.444-1.949.889-1.063 1.155-1.683 2.399-1.594 3.999zM44.367 80.96c.09-.178.179-.089.179 0 0 .09-.09.18-.179 0zM64.135.627h-.096c.096-.097.096-.097.096 0zM16.567 57.588a37.195 37.195 0 01-1.594-1.955c-1.329-1.688-2.48-3.466-3.366-5.42-.709-1.423-1.151-2.933-1.594-4.533-.178-.711-.266-1.422-.355-2.044a21.46 21.46 0 01.178-6.31 24.46 24.46 0 01.797-3.466c.62-1.688 1.24-3.288 2.303-4.799 0 0 0-.089.088-.089.354-.622.443-.622.886-.088 1.151 1.421 2.568 2.488 4.074 3.554 1.683 1.244 3.543 2.222 5.491 3.022 1.86.8 3.72 1.422 5.58 2.044.886.267 1.86.444 2.746.71 2.303.623 4.605.978 6.997 1.334 1.24.178 2.48.266 3.72.444 3.365.356 6.731.445 10.097.445.088 0 .088 0 .177-.09-.266-.088-.532-.088-.797-.177-1.24-.178-2.392-.444-3.632-.71-1.771-.445-3.454-.89-5.137-1.512-.974-.355-1.86-.622-2.745-1.066-1.506-.711-3.012-1.51-4.34-2.488-.177-.09-.266-.267-.532-.356 0-.089-.088-.089-.177-.089-.266-.355-.62-.622-.886-.8-.797-.8-1.417-1.6-2.037-2.577-.797-1.333-1.151-2.844-1.151-4.355 0-2.044.531-3.999 1.417-5.776.443-.978 1.151-1.777 1.772-2.577l.265-.267 1.329-1.333c1.328-1.155 2.745-2.044 4.251-2.844 2.303-1.244 4.783-2.044 7.263-2.666a49.307 49.307 0 015.225-.8c1.24-.177 2.48-.089 3.72-.089 1.417.09 2.835.09 4.252.267 1.063.089 2.037.178 3.1.356 1.417.177 2.922.444 4.34.8l2.125.532c.532.09 1.152.178 1.683.356.974.267 1.86.533 2.834.889 1.24.444 2.569.889 3.809 1.51 1.24.534 2.48 1.067 3.631 1.689.797.444 1.595.8 2.303 1.244.886.534 1.771 1.155 2.657 1.689 1.151.8 2.214 1.688 3.366 2.577.885.71 1.683 1.6 2.48 2.488.797.889 1.594 1.778 2.302 2.755.71.889 1.24 1.778 1.772 2.755l1.063 2.133c1.063 2.133 1.594 4.444 1.948 6.754.177 1.422.266 2.933.089 4.355v.8c-.354 2.932-1.24 5.776-2.746 8.353 0 .09-.088.178-.088.267-.266.355-.266.444-.62.089-.532-.533-1.063-.978-1.595-1.51-.885-.8-1.86-1.423-2.834-2.045-2.037-1.333-4.251-2.4-6.554-3.288a46.263 46.263 0 00-5.668-1.777l-2.392-.534c-1.594-.355-3.188-.622-4.694-.888-.797-.09-1.683-.267-2.48-.356h-.089c-.797-.178-1.682-.178-2.48-.267-.708-.088-1.417-.088-2.125-.177 0 0-.089-.089-.089 0-.354-.089-.708-.09-1.063-.09-1.948 0-3.897-.177-5.845-.088a2.92 2.92 0 00-1.24 0c.443 0 .797.178 1.151.178.974.178 2.037.444 3.012.622 2.657.622 5.314 1.333 7.882 2.4 1.506.621 2.923 1.332 4.252 2.221 1.328.889 2.568 1.866 3.631 3.11 1.063 1.334 1.771 2.756 2.037 4.355.266 1.689.089 3.466-.354 5.066-.709 2.577-2.214 4.62-4.163 6.398-2.48 2.222-5.403 3.644-8.503 4.71-1.86.623-3.808 1.067-5.757 1.422-3.188.445-6.377.534-9.565.445h-.177c-.089-.09-.089-.09-.178 0-.354 0-.708 0-1.062-.09 0 0-.089-.088-.089 0-1.24-.177-2.48-.266-3.72-.444 0 0-.088-.088-.088 0a58.065 58.065 0 01-5.669-1.066 71.068 71.068 0 01-8.414-2.666c-2.126-.889-4.163-1.866-6.111-3.022-1.683-.888-3.189-1.955-4.695-3.11a49.072 49.072 0 01-2.214-1.866c-.088-.09-.088-.09-.177-.09-.088-.177-.266-.266-.443-.355 0-.088 0-.088-.088-.088 0-.09 0-.09-.089-.09-.443-.355-.797-.8-1.24-1.155 0-.533-.088-.71-.354-.8z" fill="#fff"/><path d="M36.227 15.91l-1.329 1.332c0-.089 0-.267.089-.355l.886-.89c.088-.088.177-.088.354-.088zM34.54 32.882c.353.267.62.534.885.8-.443-.089-.709-.355-.886-.8zm24.443 8.531c-.442 0-.797-.177-1.151-.177a2.916 2.916 0 011.24 0s0 .088-.089.177zm-42.42 16.175c.265.088.354.266.53.533-.353-.089-.53-.267-.53-.533zm1.951 1.866c.177.089.265.178.442.355 0 .09-.088.178-.177.09-.265-.09-.354-.267-.265-.445zm-6.474-43.81c.088-.09.178-.18.267-.18 0 .18-.09.27-.268.18zm.269-.268c0-.09.089-.179.178-.179 0 .09 0 .269-.178.18zm38.894 56.786c.09-.09.09-.09.179 0h-.179zm-15.687-38.48c.089 0 .178 0 .178.09-.09.089-.178 0-.178-.09zM.438 36.798v-.096c.095 0 .095.096 0 .096zm65.542 4.616h.096c0 .096-.095.096-.095 0zM18.246 59.277c.096 0 .096 0 0 0 0 .096.096.096 0 0zm.09.087c.096 0 .096 0 0 0 0 .096.096.096 0 0zM48.633.355c.095 0 .095 0 0 0 .095.096.095.096 0 0zM46.23 71.63h.096c-.096.097-.096.097-.096 0z" fill="#fff"/><path d="M439.841 23.017c-.088-1.6.532-2.843 1.594-3.91.532-.533 1.24-.8 1.949-.889.974-.177 2.037-.177 2.923.267 1.063.445 1.86 1.244 2.391 2.31.709 1.6.709 3.2-.177 4.71-.797 1.334-1.86 2.311-3.543 2.311-.797 0-1.683 0-2.391-.355-.886-.444-1.594-1.066-2.126-1.955-.443-.8-.708-1.6-.62-2.489zm7.529 3.022c-.178-.267-.266-.533-.266-.711-.177-.8-.177-1.6-1.063-2.044-.177-.089-.177-.267 0-.355.089-.09.266-.09.354-.178.975-.622.886-1.955-.177-2.489-.443-.266-.974-.266-1.505-.355-.709 0-1.418 0-2.126.178-.443.089-.443.089-.443.444v4.533c0 .977 0 .977.974.888.266 0 .355-.089.355-.266v-1.156c0-1.066 0-1.066 1.062-.888h.178c.354.088.531.266.708.533.177.444.266.889.354 1.333.177.355.178.444.62.444.266.09.532.089.975.089z" fill="#FEFEFF"/><path d="M447.362 26.04h-.974c-.354 0-.443-.09-.62-.445-.177-.444-.177-.889-.354-1.333-.177-.267-.354-.444-.709-.533h-.177c-1.063-.089-1.063-.089-1.063.889v1.155c0 .267-.088.267-.354.267-.974.088-.974.088-.974-.89v-4.53c0-.445 0-.445.443-.445.708-.177 1.417-.178 2.125-.178.532 0 1.063.09 1.506.356 1.063.533 1.151 1.777.177 2.488-.088.09-.266.09-.354.178-.177.089-.177.267 0 .355.797.445.885 1.245 1.063 2.044 0 .09.088.356.265.622zm-3.808-4.177v.71c0 .178.088.267.177.267.443 0 .974 0 1.417-.178.62-.266.62-.977.089-1.333-.355-.266-.709-.355-1.152-.266-.531.089-.531.089-.531.533v.267z" fill="#fff"/><path d="M443.551 21.862v-.356c0-.533 0-.533.531-.533.443 0 .797.089 1.152.267.531.355.531 1.066-.089 1.333-.443.266-.886.266-1.417.177-.177 0-.177-.089-.177-.266a.766.766 0 000-.622z" fill="#FEFEFF"/></svg>