<svg width="488" height="182" fill="none" xmlns="http://www.w3.org/2000/svg"><path fill="#fff" d="M0 0h488v182H0z"/><path fill="#EA4033" d="M42 33h169v116H42z"/><path fill-rule="evenodd" clip-rule="evenodd" d="M73 90.464v51.464l17.28.072 18.72-.072V104.92l-3.56-8.594 36.68 45.602 19.44.072 19.44-.072V39h-36.72v39.14l3.215 7.957s-9.792-11.635-19.787-23.953L109.72 39H73v51.464z" fill="#fff"/><path d="M397.616 77.173v.75h16.066v45.827h18.965V77.923h14.103V58.25h-49.134v18.923zM237.25 123v.75h22.146l-.005-.754-.134-23.273v-.09l-.023-.089-.479-1.903 18.181 25.791.224.318h22.988V98.012c.219-9.432.107-19.611.039-25.757a496.271 496.271 0 01-.039-4.528V58.25h-22.409v24.718l-1.068-1.386a1217.732 1217.732 0 00-6.708-8.603l-10.72-14.426-.225-.303H237.25V123zm96.061-24.462v.75h39.311v2.586l-.06-.167h-39.251v22.043h60.707V81.954h-38.555l.054-3.783v0l.016-1.094.869 1.978.197.448h37.419V58.25h-60.707v40.288zm-28.681 24.46l-.002.752h22.004l.005-.744.235-31.605v-.011l-.235-32.395-.005-.745h-21.901v33.145l-.101 31.603z" stroke="#000" stroke-width="1.5"/><path d="M244.053 137.113h-4.089l.013 7.08H238v-8.725h6.065l-.012 1.645zm5.377 5.21h-3.99l-.761 1.87h-2.038l3.831-8.725h1.964l3.843 8.725h-2.087l-.762-1.87zm-.626-1.533l-1.362-3.34-1.363 3.34h2.725zm8.334-5.322c.762 0 1.421.129 1.977.386.565.258.999.623 1.302 1.097.302.474.454 1.035.454 1.683 0 .64-.152 1.2-.454 1.682-.303.474-.737.84-1.302 1.097-.556.25-1.215.374-1.977.374h-1.731v2.406h-1.989v-8.725h3.72zm-.11 4.674c.597 0 1.052-.129 1.363-.386.311-.266.466-.64.466-1.122 0-.491-.155-.864-.466-1.122-.311-.266-.766-.399-1.363-.399h-1.621v3.029h1.621zm10.543 2.181h-3.991l-.761 1.87h-2.038l3.831-8.725h1.964l3.843 8.725h-2.087l-.761-1.87zm-.627-1.533l-1.362-3.34-1.363 3.34h2.725zm12.497-5.322v8.725h-1.989v-3.577h-3.905v3.577h-1.988v-8.725h1.988v3.44h3.905v-3.44h1.989zm8.721 1.645h-2.75v7.08h-1.964v-7.08h-2.738v-1.645h7.452v1.645zm1.249-1.645h1.977v5.683l4.1-5.683h1.866v8.725h-1.964v-5.671l-4.101 5.671h-1.878v-8.725zm16.946 0v8.725h-1.964v-2.319h-1.817l-1.523 2.319h-2.099l1.792-2.63c-.581-.241-1.027-.603-1.338-1.085-.311-.49-.466-1.076-.466-1.757 0-.673.151-1.251.454-1.733.303-.49.732-.864 1.289-1.121.557-.266 1.211-.399 1.964-.399h3.708zm-3.659 1.645c-.564 0-.998.133-1.301.399-.295.266-.442.661-.442 1.184 0 .507.143.897.43 1.172.286.274.708.411 1.264.411h1.744v-3.166h-1.695zm13.39 7.229c-.892 0-1.699-.195-2.419-.586a4.376 4.376 0 01-1.682-1.607c-.401-.69-.601-1.463-.601-2.319 0-.856.2-1.624.601-2.306a4.359 4.359 0 011.682-1.62c.72-.39 1.527-.586 2.419-.586.892 0 1.694.196 2.406.586a4.359 4.359 0 011.682 1.62c.409.682.614 1.45.614 2.306 0 .856-.205 1.629-.614 2.319a4.376 4.376 0 01-1.682 1.607c-.712.391-1.514.586-2.406.586zm0-1.72a2.73 2.73 0 001.375-.349 2.53 2.53 0 00.957-.997c.238-.424.356-.906.356-1.446 0-.54-.118-1.022-.356-1.446a2.444 2.444 0 00-.957-.984 2.66 2.66 0 00-1.375-.362c-.508 0-.966.121-1.375.362-.41.232-.733.561-.97.984a2.994 2.994 0 00-.344 1.446c0 .54.115 1.022.344 1.446.237.424.56.756.97.997.409.233.867.349 1.375.349zm12.683-5.509h-2.751v7.08h-1.964v-7.08h-2.738v-1.645h7.453v1.645zm8.442-1.645v8.725h-1.965v-7.08h-2.946l-.062 1.82c-.04 1.238-.139 2.243-.294 3.016-.156.765-.418 1.355-.786 1.77-.36.407-.868.611-1.522.611a4.38 4.38 0 01-.982-.137l.122-1.708a1.2 1.2 0 00.356.05c.475 0 .807-.283.995-.848.188-.573.307-1.466.356-2.679l.123-3.54h6.605zm2.146 0h1.977v5.683l4.1-5.683h1.867v8.725h-1.965v-5.671l-4.1 5.671h-1.879v-8.725zm16.903 0v8.725h-1.964v-3.141c-.745.274-1.437.411-2.075.411-1.154 0-2.038-.278-2.652-.835-.614-.565-.921-1.375-.921-2.43v-2.73h1.964v2.505c0 .598.156 1.051.467 1.359.319.299.777.448 1.375.448.655 0 1.269-.128 1.842-.386v-3.926h1.964zm10.018 0v8.725h-1.988v-3.577h-3.905v3.577h-1.989v-8.725h1.989v3.44h3.905v-3.44h1.988zm6.254 8.874c-.892 0-1.698-.195-2.418-.586a4.376 4.376 0 01-1.682-1.607c-.401-.69-.602-1.463-.602-2.319 0-.856.201-1.624.602-2.306a4.359 4.359 0 011.682-1.62c.72-.39 1.526-.586 2.418-.586.892 0 1.695.196 2.407.586a4.365 4.365 0 011.682 1.62c.409.682.613 1.45.613 2.306 0 .856-.204 1.629-.613 2.319a4.383 4.383 0 01-1.682 1.607c-.712.391-1.515.586-2.407.586zm0-1.72c.508 0 .966-.116 1.375-.349.41-.241.729-.573.958-.997.237-.424.356-.906.356-1.446 0-.54-.119-1.022-.356-1.446a2.44 2.44 0 00-.958-.984 2.657 2.657 0 00-1.375-.362 2.66 2.66 0 00-1.375.362 2.535 2.535 0 00-.97.984 2.994 2.994 0 00-.343 1.446c0 .54.114 1.022.343 1.446.238.424.561.756.97.997a2.73 2.73 0 001.375.349zm6.235-7.154h1.976v5.683l4.101-5.683h1.866v8.725h-1.964v-5.671l-4.101 5.671h-1.878v-8.725zm3.965-.561c-1.571 0-2.365-.636-2.382-1.907h1.363c.017.607.356.91 1.019.91.328 0 .577-.075.749-.224.172-.158.262-.387.27-.686h1.363c-.008.623-.209 1.097-.602 1.421-.393.324-.986.486-1.78.486zm13.658 9.435c-.875 0-1.669-.191-2.381-.573a4.41 4.41 0 01-1.67-1.608c-.401-.69-.602-1.467-.602-2.331 0-.864.201-1.637.602-2.318a4.28 4.28 0 011.67-1.608c.712-.39 1.51-.586 2.394-.586.745 0 1.416.133 2.013.399a4.042 4.042 0 011.523 1.147l-1.277 1.196c-.581-.681-1.302-1.022-2.161-1.022-.532 0-1.007.121-1.424.362a2.498 2.498 0 00-.982.984c-.23.424-.344.906-.344 1.446 0 .54.114 1.022.344 1.446.237.424.564.756.982.997a2.87 2.87 0 001.424.349c.859 0 1.58-.345 2.161-1.034l1.277 1.196a3.98 3.98 0 01-1.523 1.159c-.605.266-1.281.399-2.026.399zm13.505-1.795V146h-1.841v-1.807h-6.065V146h-1.842l.012-3.453h.344c.516-.016.88-.398 1.093-1.146.213-.748.344-1.816.393-3.203l.098-2.73h6.605v7.079h1.203zm-6.151-4.163c-.041 1.039-.127 1.912-.257 2.618-.131.698-.332 1.213-.602 1.545h3.843v-5.434h-2.947l-.037 1.271zm14.144 4.188v1.621h-6.654v-8.725h6.495v1.62h-4.518v1.895h3.99v1.57h-3.99v2.019h4.677zm9.268-7.104v8.725h-1.964v-7.08h-2.947l-.061 1.82c-.041 1.238-.14 2.243-.295 3.016-.156.765-.417 1.355-.786 1.77-.36.407-.867.611-1.522.611a4.38 4.38 0 01-.982-.137l.122-1.708c.107.033.226.05.356.05.475 0 .807-.283.995-.848.188-.573.307-1.466.356-2.679l.123-3.54h6.605zm5.473 5.21h-1.375v3.515h-1.976v-8.725h1.976v3.527h1.425l2.259-3.527h2.099l-2.812 4.213 2.898 4.512h-2.259l-2.235-3.515zm5.426-5.21h1.976v5.683l4.101-5.683H446v8.725h-1.964v-5.671l-4.101 5.671h-1.878v-8.725z" fill="#000"/></svg>