<svg width="141" height="30" viewBox="0 0 141 30" fill="none" xmlns="http://www.w3.org/2000/svg">
<g clip-path="url(#clip0_603_309)">
<rect width="141" height="30" fill="white"/>
<path d="M-0.120117 15.0355V30.052H55.9039H111.928V18.2599V6.46775H113.244H114.56V18.2599V30.052H127.72H140.88V15.0355V0.0189323H74.7979H8.71588V11.074V22.1292H12.3819H16.0479V23.0504V23.9717H11.0659H6.08388V11.9953V0.0189323H2.98188H-0.120117V15.0355ZM78.8399 6.2835C81.2463 6.67043 83.6903 8.19972 84.9123 10.0791C85.9087 11.6452 86.2283 12.8613 86.2283 15.0355C86.2283 18.0388 85.4199 20.1024 83.4835 21.9633C79.4603 25.8326 72.0719 24.6534 69.5339 19.7339C68.4623 17.6703 68.1615 14.3537 68.8571 12.198C69.9663 8.6972 73.2563 6.2835 77.1479 6.11767C77.4111 6.11767 78.1631 6.19137 78.8399 6.2835ZM132.175 6.67043C132.777 6.8731 133.585 7.24161 133.98 7.49956C134.676 7.94177 134.695 7.96019 134.394 8.45767C133.661 9.65531 133.755 9.63688 132.288 8.9183C130.483 8.03389 128.566 7.88649 126.592 8.4761C125.426 8.82618 125.05 9.04728 124.148 9.93169C122.625 11.4241 122.193 12.5849 122.193 15.1276C122.193 16.7122 122.268 17.2649 122.625 18.1125C123.189 19.5128 124.618 21.0421 125.99 21.7054C126.949 22.166 127.25 22.2213 129.036 22.2213C130.859 22.2213 131.104 22.1844 132.251 21.6501L133.473 21.0789L133.98 21.8344C134.563 22.7003 134.507 22.7925 133.021 23.4374C130.239 24.635 126.648 24.5429 123.885 23.1978C120.989 21.7791 119.26 18.8311 119.26 15.2934C119.26 12.6402 120.087 10.6687 121.911 8.89988C124.467 6.4309 128.735 5.50964 132.175 6.67043ZM138.097 6.41248C138.774 7.02051 138.304 8.31027 137.402 8.31027C136.744 8.31027 136.311 7.86806 136.311 7.20476C136.311 6.2098 137.345 5.74917 138.097 6.41248ZM22.0639 12.6033C22.0639 19.1443 22.1391 19.8444 23.0039 21.0237C24.3199 22.8293 27.8731 22.9399 29.4523 21.2263C30.6179 19.955 30.7119 19.347 30.7119 12.5112V6.46775H31.9339H33.1747L33.1183 13.1377L33.0619 19.826L32.4227 20.9868C31.1631 23.2531 29.3959 24.2112 26.3879 24.2296C23.1167 24.2481 21.3495 23.3637 20.1839 21.1342L19.5259 19.8629L19.4695 13.1745L19.4131 6.46775H20.7479H22.0639V12.6033ZM50.4519 7.38901V8.31027H47.6319H44.8119V16.141V23.9717H43.4959H42.1799V16.141V8.31027H39.2659H36.3519V7.38901V6.46775H43.4019H50.4519V7.38901ZM61.0927 6.74413C62.3335 7.09421 63.4991 8.08917 63.8939 9.1394C64.1383 9.76586 64.1947 10.337 64.1383 11.4978C64.0443 13.3035 63.5743 14.28 62.2207 15.4408L61.3747 16.1594L63.4615 19.8444C64.5895 21.8528 65.5671 23.6216 65.6235 23.7322C65.6987 23.9164 65.3603 23.9717 64.3075 23.9717H62.8787L60.9423 20.3788L59.0059 16.8043L57.7463 16.7859H56.4679V20.3788V23.9717H55.1519H53.8359V15.2197V6.46775H56.9943C59.2315 6.46775 60.4347 6.54145 61.0927 6.74413ZM93.1467 6.81783C93.2971 7.00208 95.5343 9.63688 98.1099 12.677C100.704 15.6988 103.148 18.61 103.562 19.1443L104.314 20.1208L104.37 13.3035L104.408 6.46775H105.442H106.476V15.2197V23.9717H105.461H104.427L100.027 18.7574C97.6211 15.9015 95.1019 12.8797 94.4251 12.0506L93.2219 10.5397L93.1655 17.2649L93.1279 23.9717H91.9999H90.8719V15.2197V6.46775H91.8871C92.6579 6.46775 92.9587 6.54145 93.1467 6.81783Z" fill="#EC1540"/>
<path d="M75.3992 8.38396C75.0044 8.53137 74.3652 8.86302 73.9516 9.1394C70.7932 11.2767 70.436 17.5413 73.3124 20.6367C74.3652 21.7791 75.2676 22.1844 77.11 22.2766C78.5576 22.3503 78.7456 22.3318 79.8924 21.7607C81.2836 21.0974 82.1296 20.1392 82.8252 18.4441C83.1824 17.5966 83.2388 17.0622 83.2388 15.1276C83.2576 13.1561 83.1824 12.677 82.8252 11.7926C81.8852 9.48948 80.1556 8.29184 77.6176 8.18129C76.64 8.14444 75.8692 8.21814 75.3992 8.38396Z" fill="#EC1540"/>
<path d="M137.816 7.05736C137.853 7.88649 137.853 7.88649 138.079 7.53642C138.21 7.31531 138.192 7.09421 138.06 6.83626C137.797 6.33878 137.778 6.3572 137.816 7.05736Z" fill="#EC1540"/>
<path d="M136.65 6.87313C136.575 7.05738 136.575 7.35218 136.65 7.51801C136.801 7.83124 136.801 7.83124 136.876 7.51801C136.932 7.35218 136.932 7.05738 136.876 6.87313C136.801 6.57832 136.801 6.57832 136.65 6.87313Z" fill="#EC1540"/>
<path d="M56.4678 11.6268V14.9434H57.3702C58.6298 14.9434 59.5698 14.6486 60.3218 14.0037C61.1302 13.3035 61.4122 12.4375 61.3182 10.9635C61.2618 9.93171 61.1678 9.69218 60.679 9.21312C60.021 8.58667 59.1186 8.32871 57.5582 8.31029H56.4678V11.6268Z" fill="#EC1540"/>
<path d="M6.17773 11.9953V23.8795H11.0657L15.9537 23.8979L11.1221 23.8427L6.27173 23.7874L6.21533 11.94L6.17773 0.111019V11.9953Z" fill="#ECC1C1"/>
<path d="M19.9394 6.59669C20.2778 6.63354 20.8794 6.63354 21.2554 6.59669C21.6502 6.55984 21.387 6.52299 20.6538 6.52299C19.9394 6.52299 19.6198 6.55984 19.9394 6.59669Z" fill="#ECC1C1"/>
<path d="M31.4256 6.59669C31.7452 6.63354 32.3092 6.63354 32.6476 6.59669C32.9672 6.55984 32.704 6.52299 32.0272 6.52299C31.3504 6.52299 31.0872 6.55984 31.4256 6.59669Z" fill="#ECC1C1"/>
<path d="M39.9802 6.59669C41.9354 6.63354 45.0562 6.63354 46.9362 6.59669C48.8162 6.57827 47.237 6.55984 43.4018 6.55984C39.5854 6.55984 38.0438 6.57827 39.9802 6.59669Z" fill="#ECC1C1"/>
<path d="M55.3023 6.59669C56.0355 6.63354 57.2763 6.63354 58.0283 6.59669C58.7615 6.57827 58.1599 6.54142 56.6559 6.54142C55.1519 6.54142 54.5503 6.57827 55.3023 6.59669Z" fill="#ECC1C1"/>
<path d="M90.9658 6.68882C90.9094 6.8178 90.8906 10.7424 90.9094 15.4039L90.9658 23.8795L91.9058 23.898L92.8458 23.9164L91.9622 23.8427L91.0598 23.769V15.2197V6.6704L91.9622 6.59669L92.8458 6.54142L91.9434 6.50457C91.3794 6.48615 91.0222 6.55984 90.9658 6.68882Z" fill="#ECC1C1"/>
<path d="M104.935 6.59675C105.273 6.6336 105.781 6.6336 106.063 6.59675C106.345 6.5599 106.063 6.52305 105.442 6.52305C104.822 6.52305 104.596 6.5599 104.935 6.59675Z" fill="#ECC1C1"/>
<path d="M112.623 6.59669C112.961 6.63354 113.563 6.63354 113.939 6.59669C114.334 6.55984 114.071 6.52299 113.337 6.52299C112.623 6.52299 112.303 6.55984 112.623 6.59669Z" fill="#ECC1C1"/>
<path d="M136.97 7.20476C136.97 7.55484 137.008 7.70224 137.064 7.51799C137.102 7.35216 137.102 7.05736 137.064 6.87311C137.008 6.70728 136.97 6.85468 136.97 7.20476Z" fill="#ECC1C1"/>
<path d="M71.1885 14.9433C71.1885 15.4961 71.2263 15.7356 71.2642 15.4408C71.3021 15.1644 71.3021 14.7222 71.2642 14.4274C71.2263 14.151 71.1885 14.3906 71.1885 14.9433Z" fill="#ECC1C1"/>
<path d="M56.9755 16.7306C57.3139 16.7675 57.9155 16.7675 58.2915 16.7306C58.6863 16.6938 58.4231 16.6569 57.6899 16.6569C56.9755 16.6569 56.6559 16.6938 56.9755 16.7306Z" fill="#ECC1C1"/>
<path d="M42.6874 23.9164C43.0258 23.9532 43.6274 23.9532 44.0034 23.9164C44.3982 23.8795 44.135 23.8427 43.4018 23.8427C42.6874 23.8427 42.3678 23.8795 42.6874 23.9164Z" fill="#ECC1C1"/>
<path d="M54.5312 23.9164C54.8696 23.9532 55.4712 23.9532 55.8472 23.9164C56.242 23.8795 55.9788 23.8427 55.2456 23.8427C54.5312 23.8427 54.2116 23.8795 54.5312 23.9164Z" fill="#ECC1C1"/>
<path d="M63.5556 23.9164C63.894 23.9532 64.4956 23.9532 64.8716 23.9164C65.2664 23.8795 65.0032 23.8427 64.27 23.8427C63.5556 23.8427 63.236 23.8795 63.5556 23.9164Z" fill="#ECC1C1"/>
<path d="M105.028 23.9164C105.31 23.9532 105.761 23.9532 106.062 23.9164C106.344 23.8795 106.1 23.8427 105.536 23.8427C104.972 23.8427 104.727 23.8795 105.028 23.9164Z" fill="#ECC1C1"/>
<path d="M137.402 6.8178C137.74 6.94677 137.74 6.9652 137.421 7.14945C137.139 7.31528 137.12 7.35213 137.364 7.44425C137.533 7.49953 137.703 7.42583 137.759 7.26C137.909 6.8915 137.74 6.65197 137.345 6.6704C137.082 6.6704 137.101 6.70725 137.402 6.8178Z" fill="white"/>
</g>
<defs>
<clipPath id="clip0_603_309">
<rect width="141" height="30" fill="white"/>
</clipPath>
</defs>
</svg>
