<svg width="60" height="60" viewBox="0 0 60 60" fill="none" xmlns="http://www.w3.org/2000/svg">
<circle cx="30" cy="30" r="30" fill="#EA4033"/>
<path fill-rule="evenodd" clip-rule="evenodd" d="M17.8329 19.444V19.5662C17.8655 19.7129 17.8655 19.8637 17.8125 20.0063V20.1285C17.8276 20.439 17.9624 20.7108 18.0959 20.9799L18.1263 21.0412C18.1561 21.101 18.1864 21.1606 18.2166 21.2201L18.2166 21.2202C18.3676 21.5176 18.5181 21.8141 18.6234 22.1333C18.7089 22.3859 18.6967 22.6263 18.5989 22.8667C18.4767 23.1683 18.3504 23.4698 18.1996 23.7591L18.1721 23.8114C18.0057 24.1278 17.8395 24.4437 17.8125 24.8144V24.9367C17.8451 25.0712 17.8451 25.2097 17.8125 25.3442V25.4664C17.8573 25.7965 17.9103 26.1224 18.1181 26.3995C18.33 26.6807 18.5826 26.9089 18.8719 27.1085C19.0091 27.2027 19.149 27.2916 19.2885 27.3802C19.493 27.5101 19.6969 27.6396 19.8906 27.7849C20.0943 27.9357 20.2125 28.119 20.2573 28.3717C20.3065 28.6294 20.3301 28.8898 20.3537 29.1498C20.3711 29.342 20.3885 29.534 20.4162 29.7245C20.5018 30.3235 20.673 30.8817 21.1212 31.3136C21.5816 31.7537 22.1399 31.9778 22.7633 32.0512C23.0933 32.0919 23.0933 32.1001 22.9955 32.4138C22.7882 33.073 22.5718 33.7292 22.3555 34.3852L22.3555 34.3853L22.3554 34.3854L22.3554 34.3855L22.3554 34.3855C22.2148 34.812 22.0742 35.2384 21.9361 35.6654C21.7079 36.3663 21.4787 37.0661 21.2495 37.7659L21.2492 37.7669C21.0201 38.4664 20.791 39.1659 20.5629 39.8665L20.3524 40.5106L20.3523 40.5107L20.3523 40.5107C19.8149 42.1542 19.2773 43.7983 18.7619 45.4488C18.7364 45.5321 18.7105 45.6151 18.6845 45.6982C18.5529 46.1198 18.4212 46.5419 18.3463 46.9809C18.2852 47.3232 18.3952 47.5351 18.6967 47.7062C18.9208 47.8326 19.1653 47.8815 19.4179 47.8978C20.1025 47.9385 20.7137 47.7429 21.2801 47.3599C21.4996 47.2123 21.7107 47.0531 21.9218 46.8939C22.1771 46.7014 22.4323 46.5089 22.7022 46.3371C23.1708 46.0397 23.3012 46.0764 23.5212 46.5857C23.6488 46.8809 23.7592 47.1835 23.8697 47.4861C24.0062 47.8601 24.1428 48.2342 24.3117 48.5945C24.5806 49.1609 25.0085 49.5969 25.5178 49.9473C25.8071 50.147 26.1494 50.1389 26.4794 50.0574C26.7007 50.0005 26.7675 49.8209 26.8339 49.6425C26.8531 49.5909 26.8722 49.5394 26.8951 49.491C26.8991 49.4808 26.9022 49.4716 26.9052 49.4625C26.9083 49.4533 26.9114 49.4441 26.9154 49.4339C27.342 48.31 27.7209 47.1671 28.0995 46.0251L28.0996 46.0251C28.2165 45.6724 28.3334 45.3199 28.4516 44.968C28.8442 43.801 29.2305 42.6309 29.616 41.4631L29.6161 41.463L29.6161 41.4629L29.78 40.9667C29.8533 40.7466 29.9389 40.5307 30.0285 40.3106C30.1589 40.6651 30.2771 41.0196 30.3912 41.3741C30.6923 42.3068 30.9869 43.2411 31.2816 44.1755L31.2816 44.1756L31.2817 44.1757C31.7645 45.707 32.2474 47.2382 32.7586 48.7616C32.7776 48.8169 32.7965 48.8723 32.8153 48.9276L32.8153 48.9277C32.9257 49.2519 33.0362 49.5765 33.1824 49.8862C33.2761 50.0818 33.4024 50.2203 33.6306 50.2448H33.9566C34.0139 50.2233 34.0745 50.2128 34.1354 50.2023H34.1354C34.2129 50.1889 34.291 50.1754 34.364 50.1389C34.8245 49.9107 35.2034 49.5928 35.4764 49.1528C35.7752 48.677 35.9526 48.1482 36.1294 47.6212L36.1295 47.6212L36.1488 47.5636C36.2506 47.2621 36.3566 46.9606 36.5114 46.6794C36.6581 46.4105 36.76 46.3779 37.037 46.5124C37.0819 46.5327 37.1226 46.5572 37.1634 46.5816C37.5011 46.7768 37.8043 47.0169 38.108 47.2573L38.1861 47.3191C38.4795 47.5514 38.781 47.7714 39.1111 47.9507C39.555 48.1883 40.0325 48.1839 40.5149 48.1795L40.5821 48.1789C41.2177 48.1708 41.6374 47.6696 41.5111 47.0421C41.4296 46.6427 41.3277 46.2475 41.2177 45.8563C40.7613 44.2305 40.2765 42.6088 39.7793 40.9952C39.1396 38.9171 38.4876 36.8471 37.8275 34.7771C37.7565 34.5558 37.6845 34.3344 37.6124 34.1129L37.6123 34.1127L37.6123 34.1127C37.4363 33.5719 37.26 33.0306 37.0982 32.4872C36.9857 32.1135 36.992 32.1122 37.3672 32.0381L37.3834 32.0349C38.0109 31.9085 38.5773 31.6641 38.997 31.1588C39.3352 30.7513 39.4737 30.2664 39.5471 29.7571C39.5748 29.5664 39.5934 29.3744 39.6119 29.1824C39.6398 28.8944 39.6677 28.6064 39.7264 28.3228C39.7671 28.1272 39.8608 27.9764 40.0157 27.846C40.1848 27.7065 40.3698 27.5881 40.5544 27.47L40.5545 27.4699C40.6501 27.4088 40.7456 27.3477 40.8388 27.2837C41.507 26.8274 42.1019 26.318 42.1875 25.4338V25.3931V25.393V25.393C42.1751 25.1164 42.174 25.0915 42.1842 25.0727L42.1875 25.0671V24.9856C42.159 24.6107 42.0571 24.2562 41.8941 23.918C41.78 23.6776 41.6537 23.4453 41.5152 23.2212C41.2462 22.7934 41.2462 22.3492 41.4133 21.8929C41.4948 21.6688 41.6089 21.461 41.723 21.2532L41.723 21.2531C41.9634 20.809 42.1834 20.3608 42.1671 19.8351V19.5743C42.1671 19.3625 42.1468 19.1547 42.0693 18.955C41.886 18.466 41.5681 18.0911 41.1403 17.8018C40.8762 17.6246 40.6026 17.457 40.3306 17.2905L40.2276 17.2273C39.8649 17.0073 39.7019 16.6935 39.6693 16.2738C39.6367 15.8663 39.6041 15.463 39.5512 15.0596C39.4452 14.2487 39.0418 13.6253 38.3532 13.1933C37.9711 12.9541 37.5342 12.9122 37.0979 12.8703L37.0248 12.8633C36.9363 12.855 36.8477 12.8477 36.7592 12.8405L36.7592 12.8405L36.7592 12.8405C36.4567 12.8157 36.1548 12.7909 35.8554 12.7247C35.672 12.6881 35.5335 12.6025 35.4153 12.4558C35.2443 12.2401 35.0972 12.0075 34.9496 11.7743C34.8686 11.6462 34.7875 11.518 34.7022 11.3923C34.3029 10.8015 33.8262 10.341 33.0601 10.3125H32.2044C31.9559 10.3451 31.7236 10.4266 31.4995 10.5407C31.1735 10.7077 30.8475 10.8667 30.5134 11.0174C30.1793 11.1723 29.837 11.2171 29.4907 11.0663C29.3317 10.9971 29.1728 10.9237 29.0139 10.8422C28.9409 10.8051 28.8685 10.7667 28.7962 10.7283L28.7962 10.7283C28.4322 10.5353 28.0697 10.3431 27.6448 10.3125H27.5633C27.4818 10.3451 27.4003 10.3451 27.3188 10.3125H26.8299L26.7765 10.3227C26.5627 10.3635 26.3532 10.4034 26.1575 10.5162C25.8153 10.7118 25.5626 10.9848 25.3467 11.3027C25.2534 11.4396 25.1673 11.581 25.0813 11.7223L25.0813 11.7223C24.9343 11.9636 24.7875 12.2048 24.6051 12.4232C24.4787 12.578 24.328 12.6677 24.1324 12.7125C23.7928 12.7913 23.446 12.823 23.0992 12.8547L23.0992 12.8547C22.9258 12.8705 22.7524 12.8864 22.5799 12.9081C21.4757 13.0507 20.7056 13.7556 20.4733 14.8477C20.3967 15.2197 20.3756 15.5949 20.3545 15.9705L20.347 16.1027C20.3185 16.6079 20.1432 17.0113 19.6706 17.2477C19.5076 17.3292 19.3527 17.427 19.1979 17.5248C18.7089 17.8263 18.277 18.1889 18.0122 18.7227C17.9241 18.8928 17.8949 19.0742 17.8655 19.2568L17.8655 19.2568C17.8554 19.3192 17.8453 19.3817 17.8329 19.444ZM32.3075 32.9448L32.3075 32.9448C32.428 32.9992 32.5519 33.0551 32.6818 33.0656C32.8855 33.0493 33.0281 32.9393 33.1667 32.8049C33.3247 32.6401 33.4328 32.4449 33.5413 32.2489L33.5413 32.2489C33.5643 32.2073 33.5873 32.1657 33.6108 32.1244C34.1039 31.2687 34.8088 30.6941 35.803 30.5434C36.0844 30.5009 36.3674 30.4844 36.65 30.4679L36.65 30.4679C36.8012 30.459 36.9523 30.4502 37.1029 30.4374C37.653 30.3926 37.9545 30.1074 38.0115 29.5573C38.0319 29.3644 38.0481 29.1706 38.0643 28.9768C38.0837 28.7448 38.1031 28.5128 38.1297 28.2819C38.2234 27.4588 38.5983 26.8028 39.3114 26.3627C39.4321 26.2884 39.5545 26.2175 39.677 26.1466L39.6771 26.1465C39.8234 26.0618 39.97 25.9769 40.1141 25.886C40.6927 25.5192 40.7823 25.2055 40.4727 24.5902C40.4034 24.4537 40.329 24.3213 40.2547 24.1888C40.1803 24.0564 40.1059 23.924 40.0367 23.7875C39.5803 22.8951 39.5925 22.0028 40.0285 21.1104C40.0906 20.985 40.1548 20.8604 40.219 20.7357L40.219 20.7357L40.2191 20.7356C40.3531 20.4755 40.4874 20.2149 40.6031 19.945C40.6927 19.7372 40.6601 19.562 40.5256 19.3949C40.3952 19.2319 40.2363 19.1056 40.0652 18.9956C39.9457 18.917 39.8255 18.8411 39.7057 18.7654L39.7056 18.7653C39.5273 18.6526 39.3499 18.5405 39.1769 18.4211C38.6105 18.034 38.2682 17.5083 38.1541 16.8238C38.1104 16.5573 38.088 16.2899 38.0656 16.0229C38.0422 15.7428 38.0188 15.4632 37.9708 15.1857C37.8934 14.7416 37.767 14.599 37.3188 14.5053C37.0469 14.4464 36.773 14.43 36.4985 14.4135C36.374 14.406 36.2495 14.3985 36.1249 14.3871C35.1144 14.2934 34.3198 13.8533 33.8023 12.9569C33.7519 12.8716 33.7044 12.7855 33.657 12.6997C33.5934 12.5846 33.5301 12.4699 33.4601 12.3579C33.1137 11.8037 32.7674 11.6937 32.1725 11.9626C31.9666 12.0567 31.7693 12.1657 31.5728 12.2742L31.5728 12.2742L31.5727 12.2742L31.5726 12.2742C31.4969 12.3161 31.4212 12.3578 31.3453 12.3986C30.5752 12.8143 29.7887 12.855 28.9738 12.5331C28.6188 12.3934 28.2805 12.2205 27.9409 12.047L27.9409 12.047C27.805 11.9775 27.6688 11.908 27.5313 11.8404C27.3521 11.7508 27.1972 11.7671 27.0301 11.8567C26.8672 11.9463 26.7408 12.0767 26.639 12.2316C26.5249 12.4068 26.4189 12.5901 26.3171 12.7735C25.7588 13.8003 24.9031 14.3464 23.7296 14.3993L23.67 14.402H23.67C23.3313 14.4172 22.9928 14.4324 22.658 14.5093C22.2464 14.6071 22.1038 14.766 22.0345 15.1776C21.9693 15.5728 21.9449 15.9722 21.9204 16.3715L21.9204 16.3715C21.8512 17.3942 21.4111 18.1684 20.4698 18.6289C20.2906 18.7145 20.1194 18.8082 19.9483 18.906C19.3493 19.2442 19.2108 19.7168 19.5367 20.324C19.5973 20.436 19.6596 20.5472 19.722 20.6587L19.722 20.6587C19.7981 20.7946 19.8744 20.9309 19.9483 21.0696C20.4209 21.9702 20.4169 22.8748 19.9768 23.7834C19.9346 23.8706 19.8922 23.9575 19.8499 24.0444L19.8498 24.0445L19.8498 24.0446L19.8498 24.0446L19.8497 24.0447C19.708 24.3354 19.5666 24.6254 19.4349 24.9203C19.2963 25.234 19.3411 25.4052 19.5897 25.6456C19.7364 25.7882 19.9075 25.8982 20.0827 26.0001C20.1504 26.0397 20.2194 26.0786 20.2886 26.1177L20.2887 26.1177L20.2887 26.1177C20.3904 26.1751 20.4927 26.2328 20.5921 26.2934C21.2766 26.7009 21.7086 27.2836 21.8471 28.0782C21.9182 28.501 21.9458 28.9269 21.9734 29.3505L21.9856 29.5369C22.0182 30.034 22.4257 30.466 22.8658 30.4619C23.037 30.4619 23.2092 30.4772 23.3815 30.4926L23.3815 30.4926C23.5414 30.5068 23.7012 30.521 23.86 30.523C24.8339 30.5393 25.5551 30.9794 26.0604 31.7984C26.1441 31.9347 26.2231 32.0728 26.302 32.2105L26.302 32.2105L26.302 32.2106L26.302 32.2106C26.3882 32.3612 26.4741 32.5113 26.5656 32.6582C26.8142 33.0575 27.0709 33.1471 27.5313 33.033C27.7432 32.9801 27.9388 32.8863 28.1263 32.7804C28.2892 32.6867 28.4563 32.593 28.6234 32.5033C29.4424 32.0755 30.2777 32.0184 31.1293 32.3933C31.3514 32.4888 31.5693 32.5942 31.7872 32.6995L31.7872 32.6995L31.7873 32.6995C31.9411 32.7738 32.0948 32.8481 32.2499 32.9189C32.269 32.9274 32.2882 32.9361 32.3075 32.9448ZM34.2189 48.0525L34.0291 47.4702C33.8061 46.786 33.5875 46.1153 33.3713 45.4447L33.064 44.4857L33.0639 44.4854C31.9559 41.0284 30.8486 37.5734 29.7856 34.1047C29.6796 33.7543 29.81 33.6117 30.1808 33.6932C30.4761 33.7597 30.7405 33.8942 31.0062 34.0293C31.1145 34.0844 31.2231 34.1395 31.334 34.1903C31.6844 34.3492 32.043 34.4918 32.4219 34.5692C32.9476 34.6752 33.4121 34.5611 33.8318 34.2229C34.1944 33.9295 34.496 33.5831 34.7527 33.196L34.8106 33.1098C34.9005 32.9757 34.9902 32.842 35.0909 32.7112C35.3068 32.43 35.3353 32.4341 35.4698 32.7519C35.6695 33.2205 35.8284 33.7013 35.9832 34.1821C37.116 37.7475 38.2406 41.317 39.2756 44.9109C39.3705 45.243 39.4588 45.5783 39.5465 45.9111L39.5771 46.0274C39.5793 46.0367 39.5819 46.0466 39.5846 46.0567C39.6015 46.1211 39.6213 46.1964 39.5649 46.2352C39.507 46.2786 39.4393 46.2319 39.3821 46.1924L39.3612 46.1781C39.1881 46.068 39.0286 45.9376 38.8695 45.8076L38.8694 45.8076C38.7813 45.7356 38.6933 45.6637 38.6033 45.5954C38.1265 45.2369 37.6294 44.919 37.0141 44.8783C36.0484 44.8131 35.6002 45.0698 35.1927 45.8032C34.938 46.2534 34.761 46.7394 34.5848 47.2229L34.5848 47.2229C34.5553 47.304 34.5258 47.385 34.496 47.4657C34.4822 47.5013 34.469 47.5367 34.4559 47.572C34.3955 47.7349 34.3361 47.8951 34.2189 48.0525ZM25.4349 47.0566C25.5269 47.3196 25.6198 47.5854 25.7554 47.8447C25.8076 47.7895 25.8274 47.7319 25.8462 47.6772C25.8524 47.6593 25.8584 47.6418 25.8654 47.6247C26.6534 45.3658 27.3983 43.0938 28.1432 40.8214C28.4962 39.7448 28.8491 38.6681 29.2067 37.5927C29.2352 37.5112 29.2271 37.442 29.2026 37.3605C29.1347 37.1473 29.0666 36.9341 28.9984 36.7209C28.7722 36.013 28.5458 35.3046 28.3266 34.5937C28.2817 34.4552 28.2328 34.4348 28.1025 34.4756C27.6339 34.6223 27.1612 34.663 26.6804 34.5245C25.951 34.3167 25.4498 33.8318 25.079 33.1961C25.0634 33.1691 25.048 33.1419 25.0325 33.1144C24.9424 32.9551 24.8477 32.7878 24.6878 32.6175C23.4901 36.0183 22.3845 39.4285 21.2812 42.832C20.9356 43.898 20.5902 44.9633 20.2423 46.0274C20.3312 46.0644 20.383 46.0274 20.4315 45.9929C20.4364 45.9894 20.4412 45.9859 20.446 45.9826C20.6376 45.8481 20.8331 45.7096 21.0247 45.571C21.0726 45.5365 21.1205 45.5017 21.1683 45.467C21.5433 45.1948 21.918 44.9227 22.3408 44.7276C23.2739 44.2957 24.1255 44.5361 24.6919 45.3999C24.969 45.8237 25.1524 46.2882 25.3276 46.7568C25.3648 46.856 25.3998 46.9561 25.4349 47.0566Z" fill="white"/>
<path fill-rule="evenodd" clip-rule="evenodd" d="M36.4498 18.0709C34.9136 15.7564 32.7459 14.5014 29.9221 14.4851C29.1601 14.4851 28.4226 14.587 27.7014 14.8315C23.484 16.2413 21.194 20.7235 22.5957 24.9409C23.5777 27.895 25.6477 29.7042 28.7037 30.2991C30.5659 30.6618 32.3384 30.291 33.952 29.2927C36.1075 27.9561 37.4033 26.0166 37.7252 23.5025C37.9737 21.5588 37.5337 19.7008 36.4498 18.0709ZM28.9308 16.1027C25.8748 16.6731 23.7274 19.3339 23.707 22.4593C23.7152 23.2661 23.8537 24.0525 24.1471 24.8022C25.2147 27.5078 28.0833 29.5126 31.5183 28.6854C34.1831 28.0416 36.2287 25.4542 36.2653 22.61C36.2939 20.2019 35.2833 18.3112 33.2704 16.9828C31.9502 16.1149 30.467 15.8175 28.9308 16.1027Z" fill="white"/>
</svg>
