<svg width="60" height="60" viewBox="0 0 60 60" fill="none" xmlns="http://www.w3.org/2000/svg">
<circle cx="30" cy="30" r="30" fill="#EA4033"/>
<path fill-rule="evenodd" clip-rule="evenodd" d="M31.0314 15.5C31.1029 15.5 31.1294 15.5 31.1444 15.5002C32.9679 15.5271 34.0036 17.5984 32.931 19.0733C32.9221 19.0855 32.9063 19.1067 32.8633 19.1639L30.9658 21.6939L30.9468 21.7192C30.6852 22.0681 30.4612 22.3666 30.304 22.6168C30.1487 22.8637 29.9853 23.172 29.9691 23.5295C29.9417 24.1357 30.2302 24.7128 30.7316 25.0546C31.0273 25.2561 31.3721 25.3104 31.6627 25.3343C31.9572 25.3586 32.3304 25.3586 32.7665 25.3586H32.7981H42.0499C42.7622 25.3586 43.247 25.3593 43.6152 25.3918C43.9778 25.4239 44.1388 25.4815 44.2346 25.5395C44.4963 25.6981 44.6907 25.9471 44.7811 26.2395C44.8141 26.3464 44.8309 26.5166 44.7741 26.8762C44.7164 27.2413 44.5995 27.7118 44.4267 28.4028L41.4004 40.5081C41.0585 41.8757 40.9274 42.341 40.6778 42.6745C40.438 42.9947 40.1171 43.2453 39.7482 43.4002C39.3642 43.5616 38.881 43.5759 37.4713 43.5759H24.7018C24.1293 43.5759 23.7451 43.5753 23.4492 43.5511C23.1621 43.5276 23.0248 43.4858 22.9343 43.4396C22.6991 43.3198 22.5078 43.1286 22.388 42.8934C22.3418 42.8028 22.3 42.6655 22.2765 42.3784C22.2523 42.0825 22.2518 41.6983 22.2518 41.1259V27.9118C22.2518 27.2667 22.2552 27.0467 22.2965 26.8427C22.3362 26.6466 22.4019 26.4567 22.4918 26.2779C22.5854 26.092 22.7186 25.9169 23.1172 25.4096L30.8243 15.6006L30.8284 15.5954L30.8293 15.5944C30.8764 15.5352 30.9478 15.5005 31.0234 15.5L31.0248 15.5L31.0314 15.5ZM31.1665 14.0004C31.1388 14 31.0999 14 31.0407 14H31.0314L31.0144 14C30.4848 14.0032 29.9851 14.2461 29.6554 14.6605L29.6449 14.6739L21.9377 24.4829L21.8937 24.5389C21.5555 24.9691 21.3214 25.2669 21.1519 25.6037C21.002 25.9016 20.8925 26.2182 20.8263 26.545C20.7515 26.9146 20.7516 27.2935 20.7517 27.8406L20.7518 27.9118V41.1259L20.7518 41.1563V41.1563C20.7517 41.6905 20.7517 42.1363 20.7815 42.5005C20.8125 42.8804 20.8796 43.2371 21.0515 43.5743C21.3151 44.0918 21.7358 44.5125 22.2533 44.7761C22.5905 44.948 22.9472 45.0151 23.3271 45.0461C23.6913 45.0759 24.1372 45.0759 24.6713 45.0759H24.7018H37.4713L37.6337 45.0759C38.8155 45.0765 39.63 45.0769 40.3292 44.7831C40.944 44.5248 41.4788 44.1073 41.8785 43.5735C42.3331 42.9664 42.5302 42.1761 42.8163 41.0295L42.8556 40.8719L45.8819 28.7666L45.8903 28.7331C46.0526 28.0839 46.1864 27.5488 46.2557 27.1103C46.3271 26.6588 46.3461 26.2233 46.2142 25.7965C46.0154 25.1534 45.5876 24.6054 45.0118 24.2566C44.6298 24.0251 44.2027 23.938 43.7474 23.8977C43.3052 23.8586 42.7536 23.8586 42.0844 23.8586H42.0499H32.7981C32.3216 23.8586 32.0112 23.858 31.786 23.8394C31.6417 23.8275 31.5803 23.8107 31.5636 23.8058C31.5041 23.7594 31.4687 23.6886 31.4673 23.6132C31.4734 23.5969 31.4968 23.5377 31.5738 23.4151C31.6941 23.2238 31.8799 22.9751 32.1658 22.5939L34.0633 20.0639L34.0689 20.0565C34.1044 20.0091 34.1278 19.978 34.1441 19.9556C35.9318 17.4974 34.2057 14.0452 31.1665 14.0004ZM16.5 26.2518C16.5 25.8376 16.1642 25.5018 15.75 25.5018C15.3358 25.5018 15 25.8376 15 26.2518V44.3259C15 44.7402 15.3358 45.0759 15.75 45.0759C16.1642 45.0759 16.5 44.7402 16.5 44.3259L16.5 26.2518Z" fill="white"/>
<path d="M31.1444 15.5002L31.14 15.8002L31.1444 15.5002ZM31.0314 15.5V15.2L31.0313 15.2L31.0314 15.5ZM32.931 19.0733L33.1736 19.2498L33.1736 19.2498L32.931 19.0733ZM32.8633 19.1639L32.6233 18.9839V18.9839L32.8633 19.1639ZM30.9658 21.6939L31.2058 21.8739L31.2058 21.8739L30.9658 21.6939ZM30.9468 21.7192L31.1868 21.8992L31.1868 21.8992L30.9468 21.7192ZM30.304 22.6168L30.5579 22.7764L30.5579 22.7764L30.304 22.6168ZM29.9691 23.5295L29.6694 23.5159V23.5159L29.9691 23.5295ZM30.7316 25.0546L30.5627 25.3025H30.5627L30.7316 25.0546ZM31.6627 25.3343L31.6874 25.0353H31.6874L31.6627 25.3343ZM32.7665 25.3586V25.0586H32.7665L32.7665 25.3586ZM43.6152 25.3918L43.5887 25.6907H43.5887L43.6152 25.3918ZM44.2346 25.5395L44.39 25.2829V25.2829L44.2346 25.5395ZM44.7811 26.2395L44.4945 26.328V26.3281L44.7811 26.2395ZM44.7741 26.8762L45.0704 26.923L44.7741 26.8762ZM44.4267 28.4028L44.7178 28.4755L44.4267 28.4028ZM41.4004 40.5081L41.1094 40.4354L41.4004 40.5081ZM40.6778 42.6745L40.9179 42.8543H40.9179L40.6778 42.6745ZM39.7482 43.4002L39.632 43.1236L39.7482 43.4002ZM23.4492 43.5511L23.4737 43.2521H23.4737L23.4492 43.5511ZM22.9343 43.4396L23.0705 43.1723L23.0705 43.1723L22.9343 43.4396ZM22.388 42.8934L22.6553 42.7572L22.388 42.8934ZM22.2765 42.3784L21.9775 42.4028L22.2765 42.3784ZM22.2965 26.8427L22.0025 26.7832H22.0025L22.2965 26.8427ZM22.4918 26.2779L22.2239 26.1431H22.2239L22.4918 26.2779ZM23.1172 25.4096L23.3531 25.595L23.1172 25.4096ZM30.8243 15.6006L30.5885 15.4152L30.5885 15.4153L30.8243 15.6006ZM30.8284 15.5954L30.593 15.4096L30.5926 15.41L30.8284 15.5954ZM30.8293 15.5944L30.5945 15.4076L30.5938 15.4085L30.8293 15.5944ZM31.0234 15.5L31.0228 15.2L31.0216 15.2L31.0234 15.5ZM31.0248 15.5L31.0247 15.2L31.0242 15.2L31.0248 15.5ZM31.1665 14.0004L31.171 13.7004L31.1709 13.7004L31.1665 14.0004ZM31.0314 14V13.7L31.0308 13.7L31.0314 14ZM31.0144 14L31.0138 13.7L31.0126 13.7L31.0144 14ZM29.6554 14.6605L29.4206 14.4738L29.4199 14.4747L29.6554 14.6605ZM29.6449 14.6739L29.4093 14.4881L29.409 14.4885L29.6449 14.6739ZM21.9377 24.4829L22.1736 24.6683L22.1736 24.6682L21.9377 24.4829ZM21.8937 24.5389L22.1295 24.7243L22.1295 24.7243L21.8937 24.5389ZM21.1519 25.6037L20.8839 25.4689L21.1519 25.6037ZM20.8263 26.545L21.1204 26.6046H21.1204L20.8263 26.545ZM20.7517 27.8406L21.0517 27.8405V27.8405L20.7517 27.8406ZM20.7518 27.9118H21.0518V27.9118L20.7518 27.9118ZM20.7518 41.1259L21.0518 41.1259V41.1259H20.7518ZM20.7518 41.1563L20.4518 41.1563V41.1563H20.7518ZM20.7518 41.1563L21.0518 41.1563V41.1563H20.7518ZM20.7815 42.5005L21.0805 42.4761L20.7815 42.5005ZM21.0515 43.5743L21.3188 43.4381L21.3188 43.4381L21.0515 43.5743ZM22.2533 44.7761L22.1171 45.0434H22.1171L22.2533 44.7761ZM23.3271 45.0461L23.3027 45.3451H23.3027L23.3271 45.0461ZM24.6713 45.0759V44.7759H24.6713L24.6713 45.0759ZM37.4713 45.0759L37.4714 44.7759H37.4713V45.0759ZM37.6337 45.0759L37.6338 44.7759H37.6338L37.6337 45.0759ZM40.3292 44.7831L40.4454 45.0597H40.4454L40.3292 44.7831ZM41.8785 43.5735L42.1186 43.7533L41.8785 43.5735ZM42.8163 41.0295L42.5252 40.9568L42.5252 40.9569L42.8163 41.0295ZM42.8556 40.8719L42.5646 40.7992L42.5645 40.7993L42.8556 40.8719ZM45.8819 28.7666L45.5909 28.6938V28.6938L45.8819 28.7666ZM45.8903 28.7331L45.5993 28.6604V28.6604L45.8903 28.7331ZM46.2557 27.1103L46.552 27.1571V27.1571L46.2557 27.1103ZM46.2142 25.7965L45.9276 25.8851L46.2142 25.7965ZM45.0118 24.2566L45.1673 24L45.0118 24.2566ZM43.7474 23.8977L43.7209 24.1965H43.7209L43.7474 23.8977ZM42.0844 23.8586V24.1586H42.0844L42.0844 23.8586ZM31.786 23.8394L31.8106 23.5404H31.8106L31.786 23.8394ZM31.5636 23.8058L31.3793 24.0424C31.4089 24.0655 31.4425 24.0828 31.4785 24.0934L31.5636 23.8058ZM31.4673 23.6132L31.1861 23.5087C31.1731 23.5438 31.1667 23.5811 31.1674 23.6187L31.4673 23.6132ZM31.5738 23.4151L31.3199 23.2555L31.3199 23.2555L31.5738 23.4151ZM32.1658 22.5939L32.4058 22.7739V22.7739L32.1658 22.5939ZM34.0633 20.0639L33.8233 19.8839L33.8233 19.8839L34.0633 20.0639ZM34.0689 20.0565L33.8289 19.8765V19.8765L34.0689 20.0565ZM34.1441 19.9556L34.3867 20.132L34.3867 20.132L34.1441 19.9556ZM16.5 26.2518H16.2H16.2H16.5ZM15.75 45.0759V44.7759H15.75L15.75 45.0759ZM16.5 44.3259H16.8H16.8H16.5ZM31.1489 15.2003C31.131 15.2 31.1014 15.2 31.0314 15.2V15.8C31.1044 15.8 31.1278 15.8 31.14 15.8002L31.1489 15.2003ZM33.1736 19.2498C34.3892 17.5782 33.2155 15.2307 31.1489 15.2003L31.14 15.8002C32.7204 15.8235 33.6179 17.6186 32.6883 18.8969L33.1736 19.2498ZM33.1033 19.3439C33.1453 19.2879 33.1631 19.2642 33.1736 19.2498L32.6883 18.8969C32.6812 18.9067 32.6672 18.9255 32.6233 18.9839L33.1033 19.3439ZM31.2058 21.8739L33.1033 19.3439L32.6233 18.9839L30.7258 21.5139L31.2058 21.8739ZM31.1868 21.8992L31.2058 21.8739L30.7258 21.5139L30.7068 21.5392L31.1868 21.8992ZM30.5579 22.7764C30.7071 22.5391 30.9224 22.2518 31.1868 21.8992L30.7068 21.5392C30.448 21.8843 30.2153 22.1941 30.05 22.4571L30.5579 22.7764ZM30.2688 23.543C30.2813 23.2667 30.4088 23.0136 30.5579 22.7764L30.05 22.4571C29.8886 22.7138 29.6892 23.0774 29.6694 23.5159L30.2688 23.543ZM30.9006 24.8067C30.4852 24.5235 30.2461 24.0453 30.2688 23.543L29.6694 23.5159C29.6373 24.226 29.9753 24.9021 30.5627 25.3025L30.9006 24.8067ZM31.6874 25.0353C31.4082 25.0123 31.1292 24.9625 30.9006 24.8067L30.5627 25.3025C30.9254 25.5497 31.3359 25.6084 31.6381 25.6333L31.6874 25.0353ZM32.7665 25.0586C32.3258 25.0586 31.9668 25.0584 31.6874 25.0353L31.6381 25.6333C31.9477 25.6588 32.3351 25.6586 32.7665 25.6586L32.7665 25.0586ZM32.7981 25.0586H32.7665V25.6586H32.7981V25.0586ZM42.0499 25.0586H32.7981V25.6586H42.0499V25.0586ZM43.6416 25.093C43.2571 25.059 42.7565 25.0586 42.0499 25.0586V25.6586C42.7678 25.6586 43.2369 25.6595 43.5887 25.6907L43.6416 25.093ZM44.39 25.2829C44.2369 25.1901 44.0225 25.1267 43.6416 25.093L43.5887 25.6907C43.933 25.7211 44.0407 25.7728 44.0791 25.7961L44.39 25.2829ZM45.0677 26.1509C44.9557 25.7884 44.7145 25.4795 44.39 25.2829L44.0791 25.7961C44.278 25.9166 44.4258 26.1059 44.4945 26.328L45.0677 26.1509ZM45.0704 26.923C45.1301 26.5453 45.1206 26.3219 45.0677 26.1509L44.4945 26.3281C44.5077 26.3709 44.5317 26.4879 44.4778 26.8293L45.0704 26.923ZM44.7178 28.4755C44.8892 27.79 45.0102 27.3043 45.0704 26.923L44.4778 26.8293C44.4226 27.1782 44.3098 27.6335 44.1357 28.33L44.7178 28.4755ZM41.6914 40.5809L44.7178 28.4755L44.1357 28.33L41.1094 40.4354L41.6914 40.5809ZM40.9179 42.8543C41.0706 42.6503 41.1782 42.4158 41.2899 42.0717C41.4004 41.731 41.5212 41.262 41.6914 40.5809L41.1094 40.4354C40.9377 41.1218 40.822 41.5693 40.7191 41.8865C40.6173 42.2003 40.5346 42.3652 40.4376 42.4947L40.9179 42.8543ZM39.8644 43.6768C40.2825 43.5012 40.6461 43.2172 40.9179 42.8543L40.4376 42.4947C40.2298 42.7722 39.9517 42.9893 39.632 43.1236L39.8644 43.6768ZM37.4713 43.8759C38.1734 43.8759 38.6576 43.8724 39.015 43.8478C39.3759 43.823 39.6295 43.7755 39.8644 43.6768L39.632 43.1236C39.4829 43.1863 39.3029 43.2266 38.9738 43.2493C38.6411 43.2721 38.1789 43.2759 37.4713 43.2759V43.8759ZM24.7018 43.8759H37.4713V43.2759H24.7018V43.8759ZM23.4248 43.8501C23.7358 43.8755 24.1344 43.8759 24.7018 43.8759V43.2759C24.1242 43.2759 23.7545 43.275 23.4737 43.2521L23.4248 43.8501ZM22.7981 43.7069C22.9381 43.7783 23.1193 43.8252 23.4248 43.8501L23.4737 43.2521C23.2049 43.2301 23.1116 43.1933 23.0705 43.1723L22.7981 43.7069ZM22.1207 43.0296C22.2693 43.3212 22.5064 43.5583 22.7981 43.7069L23.0705 43.1723C22.8917 43.0812 22.7464 42.9359 22.6553 42.7572L22.1207 43.0296ZM21.9775 42.4028C22.0025 42.7083 22.0494 42.8896 22.1207 43.0296L22.6553 42.7572C22.6343 42.716 22.5975 42.6227 22.5755 42.354L21.9775 42.4028ZM21.9518 41.1259C21.9518 41.6932 21.9521 42.0919 21.9775 42.4028L22.5755 42.354C22.5526 42.0732 22.5518 41.7034 22.5518 41.1259H21.9518ZM21.9518 27.9118V41.1259H22.5518V27.9118H21.9518ZM22.0025 26.7832C21.9538 27.0237 21.9518 27.2797 21.9518 27.9118H22.5518C22.5518 27.2538 22.5566 27.0698 22.5905 26.9023L22.0025 26.7832ZM22.2239 26.1431C22.1219 26.3457 22.0475 26.5609 22.0025 26.7832L22.5905 26.9023C22.625 26.7323 22.6819 26.5677 22.7598 26.4128L22.2239 26.1431ZM22.8813 25.2243C22.4907 25.7214 22.3342 25.9239 22.2239 26.1431L22.7598 26.4128C22.8366 26.2601 22.9465 26.1124 23.3531 25.595L22.8813 25.2243ZM30.5885 15.4153L22.8813 25.2243L23.3531 25.595L31.0602 15.786L30.5885 15.4153ZM30.5926 15.41L30.5885 15.4152L31.0602 15.786L31.0643 15.7808L30.5926 15.41ZM30.5938 15.4085L30.593 15.4096L31.0639 15.7813L31.0648 15.7802L30.5938 15.4085ZM31.0216 15.2C30.8552 15.201 30.6981 15.2773 30.5945 15.4076L31.0641 15.7811C31.0546 15.793 31.0404 15.7999 31.0252 15.8L31.0216 15.2ZM31.0242 15.2L31.0228 15.2L31.024 15.8L31.0254 15.8L31.0242 15.2ZM31.0313 15.2L31.0247 15.2L31.0249 15.8L31.0315 15.8L31.0313 15.2ZM31.0407 14.3C31.101 14.3 31.1371 14.3 31.1621 14.3004L31.1709 13.7004C31.1404 13.7 31.0988 13.7 31.0407 13.7V14.3ZM31.0314 14.3H31.0407V13.7H31.0314V14.3ZM31.0149 14.3L31.032 14.3L31.0308 13.7L31.0138 13.7L31.0149 14.3ZM29.8902 14.8473C30.1634 14.5039 30.5774 14.3027 31.0162 14.3L31.0126 13.7C30.3922 13.7038 29.8069 13.9883 29.4206 14.4738L29.8902 14.8473ZM29.8804 14.8597L29.891 14.8463L29.4199 14.4747L29.4093 14.4881L29.8804 14.8597ZM22.1736 24.6682L29.8808 14.8592L29.409 14.4885L21.7018 24.2976L22.1736 24.6682ZM22.1295 24.7243L22.1736 24.6683L21.7018 24.2975L21.6578 24.3535L22.1295 24.7243ZM21.4199 25.7386C21.5731 25.434 21.7862 25.161 22.1295 24.7243L21.6578 24.3535C21.3248 24.7771 21.0696 25.0998 20.8839 25.4689L21.4199 25.7386ZM21.1204 26.6046C21.1813 26.3039 21.282 26.0126 21.4199 25.7386L20.8839 25.4689C20.722 25.7906 20.6038 26.1325 20.5323 26.4855L21.1204 26.6046ZM21.0517 27.8405C21.0516 27.2851 21.0527 26.9387 21.1204 26.6046L20.5323 26.4855C20.4503 26.8905 20.4516 27.3019 20.4517 27.8406L21.0517 27.8405ZM21.0518 27.9118L21.0517 27.8405L20.4517 27.8406L20.4518 27.9119L21.0518 27.9118ZM21.0518 41.1259V27.9118H20.4518V41.1259H21.0518ZM21.0518 41.1563L21.0518 41.1259L20.4518 41.1259L20.4518 41.1563L21.0518 41.1563ZM21.0518 41.1563V41.1563H20.4518V41.1563H21.0518ZM21.0805 42.4761C21.052 42.1268 21.0517 41.6948 21.0518 41.1563L20.4518 41.1563C20.4517 41.6861 20.4515 42.1458 20.4825 42.525L21.0805 42.4761ZM21.3188 43.4381C21.1721 43.1502 21.11 42.8374 21.0805 42.4761L20.4825 42.525C20.515 42.9235 20.5872 43.324 20.7842 43.7105L21.3188 43.4381ZM22.3895 44.5088C21.9285 44.2739 21.5537 43.8991 21.3188 43.4381L20.7842 43.7105C21.0766 44.2844 21.5432 44.751 22.1171 45.0434L22.3895 44.5088ZM23.3515 44.7471C22.9903 44.7176 22.6774 44.6556 22.3895 44.5088L22.1171 45.0434C22.5036 45.2404 22.9041 45.3126 23.3027 45.3451L23.3515 44.7471ZM24.6713 44.7759C24.1328 44.7759 23.7008 44.7757 23.3515 44.7471L23.3027 45.3451C23.6818 45.3761 24.1415 45.3759 24.6713 45.3759L24.6713 44.7759ZM24.7018 44.7759H24.6713V45.3759H24.7018V44.7759ZM37.4713 44.7759H24.7018V45.3759H37.4713V44.7759ZM37.6338 44.7759L37.4714 44.7759L37.4712 45.3759L37.6336 45.3759L37.6338 44.7759ZM40.213 44.5065C39.5816 44.7718 38.8362 44.7765 37.6338 44.7759L37.6335 45.3759C38.7948 45.3765 39.6784 45.382 40.4454 45.0597L40.213 44.5065ZM41.6383 43.3937C41.2706 43.8848 40.7786 44.2689 40.213 44.5065L40.4454 45.0597C41.1094 44.7808 41.6869 44.3298 42.1186 43.7533L41.6383 43.3937ZM42.5252 40.9569C42.2342 42.1234 42.0489 42.8455 41.6383 43.3937L42.1186 43.7533C42.6173 43.0874 42.8263 42.2288 43.1074 41.1021L42.5252 40.9569ZM42.5645 40.7993L42.5252 40.9568L43.1073 41.1021L43.1467 40.9446L42.5645 40.7993ZM45.5909 28.6938L42.5646 40.7992L43.1467 40.9447L46.173 28.8393L45.5909 28.6938ZM45.5993 28.6604L45.5909 28.6938L46.173 28.8393L46.1814 28.8059L45.5993 28.6604ZM45.9594 27.0635C45.8926 27.4859 45.7628 28.0064 45.5993 28.6604L46.1814 28.8059C46.3425 28.1615 46.4802 27.6117 46.552 27.1571L45.9594 27.0635ZM45.9276 25.8851C46.0397 26.248 46.0278 26.6305 45.9594 27.0635L46.552 27.1571C46.6263 26.6871 46.6525 26.1986 46.5008 25.708L45.9276 25.8851ZM44.8564 24.5132C45.3693 24.824 45.7505 25.3121 45.9276 25.8851L46.5008 25.708C46.2803 24.9946 45.8059 24.3869 45.1673 24L44.8564 24.5132ZM43.7209 24.1965C44.1576 24.2351 44.5316 24.3164 44.8564 24.5132L45.1673 24C44.7281 23.7339 44.2478 23.6408 43.7738 23.5988L43.7209 24.1965ZM42.0844 24.1586C42.7585 24.1586 43.2949 24.1588 43.7209 24.1965L43.7738 23.5988C43.3154 23.5583 42.7486 23.5586 42.0844 23.5586L42.0844 24.1586ZM42.0499 24.1586H42.0844V23.5586H42.0499V24.1586ZM32.7981 24.1586H42.0499V23.5586H32.7981V24.1586ZM31.7613 24.1384C32.0018 24.1582 32.3272 24.1586 32.7981 24.1586V23.5586C32.316 23.5586 32.0205 23.5577 31.8106 23.5404L31.7613 24.1384ZM31.4785 24.0934C31.5182 24.1052 31.6004 24.1251 31.7613 24.1384L31.8106 23.5404C31.7464 23.5351 31.7044 23.529 31.6794 23.5246C31.667 23.5224 31.6588 23.5206 31.6543 23.5195C31.652 23.519 31.6506 23.5186 31.6498 23.5184C31.6492 23.5182 31.6489 23.5181 31.6488 23.5181L31.4785 24.0934ZM31.1674 23.6187C31.1704 23.7846 31.2483 23.9404 31.3793 24.0424L31.748 23.5691C31.76 23.5784 31.767 23.5925 31.7673 23.6077L31.1674 23.6187ZM31.3199 23.2555C31.2339 23.3922 31.2006 23.4699 31.1861 23.5087L31.7486 23.7177C31.7486 23.7176 31.7487 23.7173 31.749 23.7167C31.7492 23.7159 31.7498 23.7145 31.7507 23.7124C31.7526 23.7081 31.7561 23.7005 31.7618 23.6893C31.7732 23.6666 31.7935 23.6293 31.8278 23.5748L31.3199 23.2555ZM31.9258 22.4139C31.6432 22.7907 31.4483 23.0512 31.3199 23.2555L31.8278 23.5748C31.9399 23.3965 32.1165 23.1596 32.4058 22.7739L31.9258 22.4139ZM33.8233 19.8839L31.9258 22.4139L32.4058 22.7739L34.3033 20.2439L33.8233 19.8839ZM33.8289 19.8765L33.8233 19.8839L34.3033 20.2439L34.3089 20.2365L33.8289 19.8765ZM33.9015 19.7791C33.8868 19.7993 33.8651 19.8282 33.8289 19.8765L34.3089 20.2365C34.3437 20.19 34.3687 20.1567 34.3867 20.132L33.9015 19.7791ZM31.1621 14.3004C33.9581 14.3416 35.5461 17.5176 33.9015 19.7791L34.3867 20.132C36.3174 17.4772 34.4533 13.7488 31.171 13.7004L31.1621 14.3004ZM15.75 25.8018C15.9985 25.8018 16.2 26.0032 16.2 26.2518H16.8C16.8 25.6719 16.3299 25.2018 15.75 25.2018V25.8018ZM15.3 26.2518C15.3 26.0032 15.5015 25.8018 15.75 25.8018V25.2018C15.1701 25.2018 14.7 25.6719 14.7 26.2518H15.3ZM15.3 44.3259V26.2518H14.7V44.3259H15.3ZM15.75 44.7759C15.5015 44.7759 15.3 44.5745 15.3 44.3259H14.7C14.7 44.9058 15.1701 45.3759 15.75 45.3759L15.75 44.7759ZM16.2 44.3259C16.2 44.5745 15.9985 44.7759 15.75 44.7759V45.3759C16.3299 45.3759 16.8 44.9058 16.8 44.3259H16.2ZM16.2 26.2518L16.2 44.3259H16.8L16.8 26.2518H16.2Z" fill="white"/>
</svg>
