<svg width="60" height="60" viewBox="0 0 60 60" fill="none" xmlns="http://www.w3.org/2000/svg">
<circle cx="30" cy="30" r="30" fill="#EA4033"/>
<path fill-rule="evenodd" clip-rule="evenodd" d="M28.9351 48.5321C28.8069 48.4752 28.6712 48.4668 28.5356 48.4584C28.4593 48.4537 28.383 48.449 28.3082 48.4357C26.6095 48.1353 25.0665 47.4639 23.6978 46.4179C21.554 44.7711 20.2261 42.6013 19.7217 39.9493C19.2432 37.4271 19.9792 35.0236 21.0718 32.8834C21.8136 31.6446 22.7631 30.5912 23.9463 29.7567C24.0539 29.6825 24.0947 29.6009 24.091 29.4674C24.0836 28.5957 24.0873 27.7241 24.091 26.8525C24.091 26.7338 24.0576 26.641 23.9946 26.5446C23.17 25.3038 22.3423 24.0648 21.5145 22.8256L21.5145 22.8256L21.5144 22.8255L21.5143 22.8253C19.6573 20.0453 17.7995 17.2644 15.9755 14.4604C15.638 13.9374 15.3041 13.4144 15 12.8692V12.7208C15.0445 12.4908 15.178 12.3239 15.3709 12.2015H20.2632C20.4474 12.2295 20.6331 12.2252 20.8185 12.221C20.9279 12.2185 21.0372 12.2159 21.146 12.2201H21.4538H22.0362H22.5109H22.8114H23.1044C23.1434 12.2159 23.1824 12.218 23.2212 12.2201C23.2857 12.2236 23.3497 12.227 23.4122 12.2015H23.4493C23.7349 12.1793 23.8833 12.3647 24.0354 12.5687C25.2285 14.1644 26.3865 15.7842 27.5449 17.4045L27.5453 17.4051C27.892 17.89 28.2387 18.375 28.5864 18.8594C28.6499 18.9472 28.7131 19.0353 28.7764 19.1234C29.1163 19.5967 29.4568 20.0707 29.829 20.521C29.8485 20.5471 29.8709 20.5731 29.8911 20.5966L29.8994 20.6063C29.9885 20.7065 30.0663 20.7102 30.1517 20.5915C30.3049 20.3863 30.4516 20.1778 30.5983 19.9693L30.5984 19.9692C30.6717 19.8649 30.7451 19.7607 30.8193 19.6568C31.2878 18.9896 31.7544 18.3214 32.221 17.6533L32.2216 17.6525L32.2222 17.6517L32.2229 17.6507C33.0707 16.4367 33.9184 15.2229 34.7769 14.0153C34.8974 13.8454 35.0191 13.6759 35.141 13.5063L35.141 13.5062L35.1411 13.5062L35.1411 13.5061C35.3757 13.1796 35.6107 12.8524 35.8377 12.5205C35.9824 12.3091 36.1604 12.2052 36.4089 12.2238C36.4386 12.2275 36.472 12.2312 36.4942 12.2052H36.828C36.8862 12.2319 36.9444 12.2285 37.0037 12.2249C37.035 12.2231 37.0667 12.2212 37.0988 12.2238H37.3213H37.6477H37.9519C38.0756 12.2196 38.1999 12.2217 38.3243 12.2238C38.5318 12.2273 38.7396 12.2307 38.9459 12.2052H44.5059C44.7062 12.3239 44.8323 12.4945 44.8768 12.7245V12.8729C43.8949 14.5319 42.8228 16.1352 41.7521 17.7365L41.7521 17.7366C41.4152 18.2403 41.0786 18.7438 40.7448 19.2488C39.5713 21.0213 38.3899 22.7899 37.2092 24.5573L37.2072 24.5604C36.7653 25.2219 36.3235 25.8832 35.8822 26.5446C35.8192 26.641 35.7858 26.7338 35.7858 26.8525C35.7895 27.7278 35.7895 28.6069 35.7858 29.4822C35.7858 29.6009 35.8229 29.6714 35.9193 29.7381C38.167 31.3701 39.5245 33.577 40.1477 36.2624C40.2513 36.7056 40.262 37.1591 40.2726 37.6097L40.2738 37.6608L40.2789 37.8596C40.2973 38.5547 40.3158 39.2539 40.1736 39.9344C39.417 43.5582 37.3473 46.1546 33.9794 47.6976C33.0225 48.1353 32.021 48.4357 30.9565 48.4913C30.9306 48.4913 30.9083 48.4987 30.9046 48.5284H30.5337C30.4852 48.5017 30.435 48.5052 30.3843 48.5087C30.3576 48.5106 30.3307 48.5124 30.3037 48.5099C30.2675 48.514 30.2308 48.512 30.1942 48.5099C30.1332 48.5064 30.0724 48.5029 30.0144 48.5284H29.8661C29.8028 48.5017 29.738 48.5052 29.6736 48.5087C29.6399 48.5106 29.6062 48.5124 29.573 48.5099C29.5396 48.514 29.5061 48.5119 29.4729 48.5099C29.4176 48.5064 29.3629 48.5029 29.3097 48.5284C29.1836 48.5321 29.0612 48.5321 28.9351 48.5321ZM42.9164 13.6342L42.9162 13.6343L42.9161 13.6346C42.8993 13.6608 42.8835 13.6857 42.867 13.7111C41.8205 15.2825 40.7733 16.8532 39.726 18.4241L39.725 18.4255L39.7236 18.4276L39.7218 18.4304L39.7203 18.4325C38.2529 20.6335 36.7853 22.8349 35.319 25.0387C35.2448 25.15 35.1743 25.1945 35.0408 25.1945C33.2567 25.1833 31.4727 25.1796 29.6849 25.1759H28.6908C28.6756 25.0756 28.7153 25.0276 28.7505 24.985C28.7582 24.9756 28.7658 24.9665 28.7724 24.9571C29.7851 23.5049 30.7987 22.0536 31.8123 20.6023L31.8136 20.6004C32.8266 19.15 33.8396 17.6995 34.8516 16.2481C35.0301 15.9928 35.2086 15.7379 35.387 15.483C35.8203 14.864 36.2531 14.2459 36.6839 13.6258C36.7359 13.5516 36.7767 13.4997 36.8842 13.4997C38.9131 13.5034 40.9383 13.5034 43.0005 13.5034C42.9678 13.5537 42.9414 13.5949 42.917 13.6332L42.9167 13.6336L42.9164 13.6342ZM17.0438 13.5034H16.8732C16.8941 13.5347 16.9103 13.5602 16.9244 13.5824L16.9244 13.5824L16.9244 13.5824C16.9353 13.5997 16.9451 13.6149 16.9548 13.6295L18.4805 15.9183C20.5154 18.9709 22.5494 22.0222 24.5881 25.0758C24.6437 25.1574 24.6957 25.1908 24.7958 25.1908C25.4931 25.1871 26.1904 25.1871 26.8877 25.1908C26.9767 25.1908 27.0324 25.1648 27.0843 25.0906C27.3112 24.7576 27.5414 24.4265 27.7717 24.0952L27.7717 24.0952L27.7717 24.0952C28.1852 23.5004 28.599 22.9051 28.9945 22.2977C29.1317 22.0863 29.1132 21.9453 28.9759 21.7487C27.7137 19.9533 26.437 18.1675 25.1596 16.3807L25.1594 16.3804L25.1592 16.3801C24.4998 15.4578 23.8402 14.5353 23.1823 13.611C23.1193 13.5219 23.0525 13.5034 22.9524 13.5034H17.0438ZM29.936 26.4889C30.2978 26.4889 30.6593 26.4892 31.0207 26.4894C32.1045 26.4901 33.1872 26.4908 34.272 26.4852C34.4574 26.4852 34.4945 26.5371 34.4908 26.7115C34.485 26.9553 34.4843 27.1991 34.4836 27.4429C34.4825 27.8222 34.4814 28.2016 34.4611 28.5809C34.4463 28.8368 34.4426 28.8405 34.2163 28.7478C33.2408 28.3398 32.2468 28.0059 31.1934 27.8724C29.732 27.6907 28.3003 27.8168 26.902 28.2804C26.468 28.4251 26.0452 28.5846 25.6261 28.7663C25.4554 28.8405 25.4295 28.8257 25.4183 28.6365C25.3875 28.1666 25.3887 27.6967 25.3899 27.2268C25.3904 27.0179 25.391 26.809 25.3887 26.6002C25.3887 26.4746 25.457 26.4806 25.5246 26.4864C25.5389 26.4877 25.5531 26.4889 25.5667 26.4889H28.6045H29.936ZM39.004 38.5694C39.234 33.3322 35.1355 29.0445 29.9093 29.1187C25.0615 29.0111 21.1522 32.9724 20.8851 37.5198C20.5624 42.9981 24.6424 47.0781 29.5384 47.2561C34.3973 47.4342 38.7667 43.955 39.004 38.5694Z" fill="white"/>
<path d="M15.3709 12.2051C15.2559 12.3831 15.0742 12.5129 15 12.7244C15 12.55 15 12.3794 15 12.2051C15.1224 12.2051 15.2485 12.2051 15.3709 12.2051Z" fill="#FAFAFA"/>
<path d="M44.8748 12.7244C44.8006 12.5167 44.6189 12.3832 44.5039 12.2051C44.6263 12.2051 44.8006 12.1569 44.86 12.22C44.923 12.283 44.8748 12.4536 44.8748 12.576C44.8748 12.6243 44.8748 12.6725 44.8748 12.7244Z" fill="#FBFBFB"/>
<path d="M38.9417 12.2051C38.8304 12.2793 38.7043 12.2348 38.5856 12.2385C38.3705 12.2459 38.1554 12.2385 37.9403 12.2385C37.9291 12.231 37.9254 12.2236 37.9291 12.2162C37.9328 12.2088 37.9365 12.2051 37.9403 12.2051C38.2741 12.2051 38.6079 12.2051 38.9417 12.2051Z" fill="#333334"/>
<path d="M21.1519 12.2422C20.9108 12.2422 20.6734 12.2422 20.4323 12.2422C20.373 12.2422 20.3062 12.2644 20.2617 12.2051C20.5584 12.2051 20.8552 12.2051 21.1519 12.2051C21.163 12.2125 21.1667 12.2199 21.163 12.2273C21.1593 12.2385 21.1556 12.2422 21.1519 12.2422Z" fill="#343335"/>
<path d="M22.0432 12.2348C21.8466 12.2348 21.6464 12.2348 21.4498 12.2348C21.4349 12.2274 21.4312 12.22 21.4349 12.2125C21.4386 12.2051 21.4423 12.2014 21.4461 12.2014C21.6426 12.2014 21.8429 12.2014 22.0395 12.2014C22.0506 12.2088 22.0544 12.2163 22.0506 12.2237C22.0506 12.2311 22.0469 12.2348 22.0432 12.2348Z" fill="#606163"/>
<path d="M22.0447 12.2348C22.0447 12.2237 22.041 12.2125 22.041 12.2014C22.2005 12.2014 22.3637 12.2014 22.5232 12.2014C22.5343 12.2088 22.538 12.2125 22.5343 12.22C22.5306 12.2274 22.5269 12.2311 22.5232 12.2311C22.3674 12.2348 22.2079 12.2348 22.0447 12.2348Z" fill="#787A7D"/>
<path d="M37.6432 12.2385C37.5319 12.2385 37.4207 12.2385 37.3094 12.2385C37.2983 12.231 37.2946 12.2236 37.2983 12.2162C37.302 12.2088 37.3057 12.2051 37.3094 12.2051C37.4207 12.2051 37.5319 12.2051 37.6432 12.2051C37.6543 12.2125 37.658 12.2199 37.6543 12.2273C37.6506 12.2348 37.6469 12.2385 37.6432 12.2385Z" fill="#58595B"/>
<path d="M21.4512 12.2051C21.4512 12.2162 21.4512 12.2273 21.4549 12.2385C21.3548 12.2385 21.2546 12.2422 21.1582 12.2422C21.1582 12.231 21.1582 12.2162 21.1582 12.2051C21.2509 12.2051 21.3511 12.2051 21.4512 12.2051Z" fill="#4A4A4C"/>
<path d="M22.5252 12.2348C22.5252 12.2236 22.5215 12.2125 22.5215 12.2051C22.6216 12.2051 22.7181 12.2051 22.8182 12.2051C22.8293 12.2125 22.833 12.2162 22.8293 12.2236C22.8256 12.231 22.8219 12.2348 22.8182 12.2348C22.7218 12.2348 22.6253 12.2348 22.5252 12.2348Z" fill="#939597"/>
<path d="M22.8242 12.2348C22.8242 12.2236 22.8242 12.2125 22.8242 12.2051C22.9244 12.2051 23.0208 12.2051 23.1209 12.2051C23.1321 12.2125 23.1358 12.2199 23.1321 12.2236C23.1284 12.231 23.1247 12.2348 23.1209 12.2348C23.0208 12.2348 22.9207 12.2348 22.8242 12.2348Z" fill="#AEB0B2"/>
<path d="M23.1191 12.2348C23.1191 12.2236 23.1191 12.2125 23.1191 12.2051C23.2193 12.2051 23.3157 12.2051 23.4159 12.2051C23.3231 12.2867 23.2156 12.2236 23.1191 12.2348Z" fill="#C9CACC"/>
<path d="M37.6445 12.2385C37.6445 12.2273 37.6445 12.2162 37.6445 12.2051C37.7447 12.2051 37.8411 12.2051 37.9413 12.2051C37.9413 12.2162 37.9413 12.2273 37.9413 12.2422C37.8411 12.2385 37.7447 12.2385 37.6445 12.2385Z" fill="#49494B"/>
<path d="M29.5653 48.4949C29.6654 48.506 29.773 48.4578 29.862 48.5283C29.7618 48.5283 29.6654 48.5283 29.5653 48.5283C29.5541 48.5209 29.5504 48.5134 29.5541 48.506C29.5578 48.4986 29.5615 48.4949 29.5653 48.4949Z" fill="#434244"/>
<path d="M30.0117 48.532C30.1044 48.4615 30.212 48.506 30.3122 48.4986C30.3233 48.506 30.327 48.5134 30.3233 48.5208C30.3196 48.5283 30.3159 48.532 30.3122 48.532C30.2083 48.532 30.1119 48.532 30.0117 48.532Z" fill="#424244"/>
<path d="M37.088 12.2348C37.0026 12.2237 36.9062 12.283 36.832 12.2014C36.9173 12.2014 37.0064 12.2014 37.0917 12.2014C37.1028 12.2088 37.1065 12.2163 37.1028 12.2237C37.0991 12.2348 37.0917 12.2348 37.088 12.2348Z" fill="#87898C"/>
<path d="M29.5665 48.4948C29.5665 48.506 29.5702 48.5171 29.5702 48.5282C29.4849 48.5282 29.3959 48.5282 29.3105 48.5282C29.3847 48.454 29.4812 48.5134 29.5665 48.4948Z" fill="#5F6062"/>
<path d="M37.0879 12.2348C37.0879 12.2237 37.0916 12.2125 37.0916 12.2014C37.1658 12.2014 37.24 12.2014 37.3141 12.2014C37.3141 12.2125 37.3141 12.2237 37.3104 12.2348C37.2363 12.2385 37.1621 12.2385 37.0879 12.2348Z" fill="#6D6F71"/>
<path d="M30.3086 48.5322C30.3086 48.5211 30.3086 48.5099 30.3123 48.4988C30.3865 48.5136 30.4681 48.4617 30.5311 48.5322C30.457 48.5322 30.3828 48.5322 30.3086 48.5322Z" fill="#5F6062"/>
<path fill-rule="evenodd" clip-rule="evenodd" d="M29.9414 45.2717C33.3983 45.4646 37.1111 42.2228 37.0517 38.1873C37.1519 34.6897 34.0511 31.0028 29.7708 31.0547C26.2249 31.0955 22.8162 34.3187 22.8125 38.1725C22.8088 42.2043 26.466 45.4609 29.9414 45.2717ZM35.7561 38.2727C35.8192 35.0235 33.182 32.3084 30.0478 32.3715C27.4626 32.1972 24.1541 34.2001 24.1022 38.039C24.0576 41.3735 26.5316 43.955 29.8067 44.0181C32.8259 44.0737 35.6857 41.8 35.7561 38.2727Z" fill="white"/>
<path fill-rule="evenodd" clip-rule="evenodd" d="M27.3087 40.4023C27.2325 40.7427 27.1581 41.075 27.1235 41.3883C27.1087 41.8631 27.4759 42.145 27.8913 42.0337C28.0434 41.9892 28.188 41.9187 28.329 41.8408C28.3895 41.8066 28.45 41.7724 28.5104 41.7382C28.9276 41.5023 29.3423 41.2678 29.757 41.0248C29.872 40.9544 29.9647 40.9581 30.0797 41.0211C30.4803 41.24 30.8809 41.4551 31.2851 41.6665C31.3057 41.6774 31.3263 41.6883 31.3469 41.6992C31.5861 41.8262 31.8273 41.9543 32.0937 42.0226C32.4572 42.1153 32.7836 41.8742 32.791 41.4959C32.7947 41.3549 32.7725 41.2103 32.7428 41.0731C32.6278 40.5686 32.5091 40.0642 32.3793 39.5634C32.3274 39.3483 32.3756 39.2111 32.5537 39.0701C33.0655 38.6696 33.5477 38.2393 33.9854 37.7571C34.271 37.4418 34.1189 36.9411 33.7072 36.8187C33.5866 36.7838 33.4579 36.7679 33.3327 36.7524C33.3115 36.7498 33.2904 36.7472 33.2695 36.7445C33.0186 36.711 32.7661 36.6942 32.5134 36.6775C32.2357 36.6591 31.9578 36.6407 31.682 36.5999C31.5151 36.5739 31.4075 36.5183 31.3297 36.3551C31.2569 36.2039 31.1854 36.0521 31.1138 35.9002C30.9044 35.4556 30.6948 35.0106 30.4543 34.5821C30.2132 34.1556 29.6346 34.252 29.4454 34.5488C29.3675 34.6712 29.3008 34.7936 29.234 34.9197C29.0504 35.2785 28.8981 35.6499 28.7458 36.0213C28.695 36.1451 28.6443 36.2688 28.5923 36.3922C28.5478 36.496 28.4959 36.5591 28.3698 36.5702C28.0463 36.5999 27.7229 36.6391 27.3994 36.6782C27.3186 36.688 27.2378 36.6978 27.1569 36.7074C27.098 36.7147 27.0388 36.7215 26.9796 36.7283C26.6774 36.763 26.3734 36.798 26.085 36.9003C25.7326 37.0264 25.6251 37.3899 25.8365 37.6978C25.9403 37.8498 26.0776 37.9797 26.2185 38.0984C26.6191 38.4396 27.0197 38.7771 27.4277 39.1072C27.5278 39.1925 27.5798 39.263 27.5352 39.4002C27.4839 39.5671 27.4492 39.7394 27.4144 39.9125C27.409 39.9396 27.4035 39.9666 27.398 39.9937C27.3695 40.1307 27.339 40.2672 27.3087 40.4023ZM28.8692 39.4324C28.826 39.6287 28.782 39.8282 28.7846 40.0419C28.9503 39.9847 29.094 39.9005 29.2396 39.8153C29.2732 39.7956 29.3069 39.7758 29.341 39.7563C29.7341 39.5227 30.1199 39.5227 30.513 39.7526C30.6191 39.814 30.7293 39.8712 30.8406 39.9289C30.8772 39.9479 30.914 39.967 30.9507 39.9863C31.0397 40.0345 31.0768 40.0011 31.062 39.9047C31.0548 39.8649 31.0485 39.8248 31.0422 39.7847C31.0256 39.679 31.0089 39.5729 30.9767 39.4707C30.8469 39.0702 30.9544 38.7512 31.2697 38.4804C31.4144 38.3543 31.5442 38.2134 31.674 38.0724L31.674 38.0724C31.7556 37.9797 31.7408 37.9055 31.6035 37.8795C31.4774 37.8536 31.3476 37.8462 31.2178 37.8573C30.7764 37.8944 30.4945 37.6904 30.3165 37.2972C30.2557 37.1629 30.1845 37.0338 30.1135 36.9052C30.0806 36.8455 30.0478 36.786 30.016 36.726C29.9715 36.637 29.9196 36.6444 29.8825 36.7334C29.8436 36.8243 29.8055 36.9152 29.7675 37.006C29.7295 37.0969 29.6915 37.1878 29.6525 37.2787C29.5376 37.5494 29.3373 37.7126 29.048 37.7683C28.9745 37.7816 28.9011 37.791 28.8276 37.8003C28.7787 37.8065 28.7297 37.8128 28.6808 37.8202C28.6263 37.8284 28.5712 37.8341 28.5157 37.8398C28.3711 37.8547 28.2236 37.8698 28.0762 37.9315C28.2072 38.0835 28.3568 38.2022 28.504 38.319C28.5651 38.3674 28.6257 38.4155 28.6845 38.4656C28.907 38.6585 28.9701 38.8847 28.9218 39.174C28.9071 39.2602 28.8882 39.346 28.8692 39.4324Z" fill="white"/>
</svg>
