<svg width="60" height="60" viewBox="0 0 60 60" fill="none" xmlns="http://www.w3.org/2000/svg">
<circle cx="30" cy="30" r="30" fill="#EA4033"/>
<path fill-rule="evenodd" clip-rule="evenodd" d="M30.9438 12.1877H30.7984C30.7504 12.2106 30.701 12.209 30.6502 12.2074C30.6201 12.2065 30.5895 12.2055 30.5585 12.2096H30.3695H29.7842H29.5007C29.473 12.207 29.4452 12.2084 29.4177 12.2099C29.3657 12.2125 29.3143 12.2151 29.2644 12.1914H29.01C28.9698 12.219 28.9243 12.2154 28.8785 12.2117C28.8581 12.2101 28.8375 12.2084 28.8173 12.2096C28.7436 12.2132 28.67 12.2161 28.5966 12.219C28.3735 12.2279 28.152 12.2367 27.9304 12.2641C26.6182 12.4204 25.3314 12.7075 24.081 13.1474C22.7615 13.6126 21.5111 14.2197 20.337 14.9757C18.8285 15.9463 17.5018 17.1276 16.3422 18.4907C15.4589 19.5267 14.7101 20.6535 14.0886 21.8676C13.587 22.8454 13.1762 23.8595 12.8672 24.9137C12.5619 25.9496 12.3511 27.0038 12.242 28.0797C12.2317 28.1922 12.2279 28.3053 12.2242 28.4182C12.2188 28.5827 12.2134 28.7468 12.1875 28.9085V29.1629C12.2166 29.2102 12.2166 29.2611 12.1875 29.3083V29.4901C12.2166 29.5991 12.2166 29.7082 12.1875 29.8172V30.217C12.2166 30.337 12.2166 30.4606 12.1875 30.5805V31.0894C12.21 31.262 12.217 31.4356 12.2241 31.6091C12.2306 31.7718 12.2372 31.9345 12.2566 32.0963C12.4274 33.4776 12.7364 34.8262 13.2162 36.1347C13.6742 37.3851 14.2667 38.5701 14.99 39.6861C15.9424 41.1582 17.091 42.4523 18.4178 43.59C19.4574 44.4878 20.5915 45.2475 21.8128 45.88C22.7615 46.3707 23.7502 46.7669 24.7717 47.0795C25.8621 47.4103 26.9744 47.6393 28.1122 47.752C28.2354 47.7643 28.358 47.7675 28.4802 47.7707C28.6464 47.775 28.8118 47.7793 28.9773 47.8065H29.4498C29.5203 47.7815 29.5922 47.7849 29.6637 47.7884C29.7066 47.7904 29.7493 47.7924 29.7915 47.7883H30.2059H30.4858C30.5097 47.7909 30.5335 47.789 30.5573 47.7872C30.6022 47.7838 30.6465 47.7804 30.6893 47.8065H30.9438C30.9661 47.7874 30.994 47.7878 31.0201 47.7882C31.0238 47.7883 31.0274 47.7883 31.031 47.7883C31.529 47.7811 32.0234 47.7447 32.5141 47.6757C34.7496 47.3631 36.8469 46.6506 38.8062 45.5383C40.6309 44.506 42.2157 43.1756 43.5825 41.5871C44.4294 40.6021 45.1637 39.5334 45.7743 38.3884C46.3777 37.2579 46.8539 36.0729 47.1956 34.8371C47.461 33.8665 47.6572 32.8815 47.7554 31.8782C47.7677 31.7611 47.7709 31.6433 47.7741 31.5257C47.7784 31.3659 47.7827 31.2065 47.8099 31.0494V30.5769C47.7808 30.4679 47.7808 30.3588 47.8099 30.2498V29.8499C47.7861 29.7809 47.7888 29.7104 47.7915 29.6404C47.7929 29.6034 47.7942 29.5665 47.7917 29.53C47.7942 29.5051 47.7924 29.4793 47.7906 29.4532C47.7872 29.4033 47.7837 29.3524 47.8099 29.3047V29.232C47.7808 29.1484 47.7808 29.0611 47.8099 28.9775V28.9412C47.7846 28.9007 47.7875 28.8584 47.7904 28.8168C47.7916 28.7987 47.7928 28.7807 47.7917 28.7631C47.7857 28.6664 47.7817 28.5698 47.7776 28.4732C47.7695 28.2794 47.7615 28.086 47.7372 27.8943C47.5954 26.7929 47.3737 25.7097 47.0429 24.6483C46.5631 23.118 45.887 21.6858 45.0219 20.3373C44.135 18.9596 43.0699 17.7383 41.8486 16.6442C41.0344 15.9136 40.162 15.2665 39.2278 14.6995C37.8647 13.878 36.4216 13.2491 34.8913 12.8166C33.899 12.5367 32.8921 12.344 31.8634 12.2423C31.7277 12.2293 31.5912 12.225 31.4547 12.2207C31.2841 12.2153 31.1134 12.21 30.9438 12.1877ZM45.4002 30.0095C45.4184 21.5365 38.4902 14.5974 30.0026 14.5901C21.5332 14.5828 14.6195 21.4892 14.5977 29.9804C14.5795 38.4498 21.5077 45.3889 29.9953 45.3998C38.4647 45.4071 45.3784 38.5007 45.4002 30.0095Z" fill="white"/>
<path d="M30.4014 12.2202C30.1942 12.2202 29.987 12.2202 29.7798 12.2202C29.7689 12.2129 29.7653 12.2057 29.7689 12.1984C29.7726 12.1911 29.7762 12.1875 29.7798 12.1875C29.987 12.1875 30.1906 12.1875 30.3978 12.1875C30.4087 12.1948 30.4123 12.202 30.4087 12.2093C30.4087 12.2166 30.4051 12.2202 30.4014 12.2202Z" fill="white"/>
<path d="M29.7801 47.77C29.9255 47.77 30.0745 47.77 30.2199 47.77C30.2309 47.7773 30.2345 47.7846 30.2309 47.7918C30.2272 47.7991 30.2236 47.8027 30.2199 47.8027C30.0745 47.8027 29.9292 47.8027 29.7838 47.8027C29.7728 47.7955 29.7692 47.7882 29.7728 47.7809C29.7728 47.7737 29.7765 47.77 29.7801 47.77Z" fill="white"/>
<path d="M12.1914 30.2131C12.2459 30.3331 12.2532 30.4567 12.1914 30.5766C12.1914 30.4567 12.1914 30.3331 12.1914 30.2131Z" fill="white"/>
<path d="M12.1914 29.4861C12.2532 29.5951 12.2459 29.7042 12.1914 29.8132C12.1914 29.7042 12.1914 29.5951 12.1914 29.4861Z" fill="white"/>
<path d="M47.8073 29.8498C47.7382 29.7444 47.7818 29.6281 47.7746 29.519C47.7855 29.5081 47.7964 29.5081 47.8073 29.5226C47.8073 29.6317 47.8073 29.7407 47.8073 29.8498Z" fill="white"/>
<path d="M47.808 30.5767C47.7462 30.4676 47.7571 30.3586 47.808 30.2495C47.808 30.3586 47.808 30.4676 47.808 30.5767Z" fill="white"/>
<path d="M29.7822 47.7699C29.7822 47.7808 29.7822 47.7917 29.7822 47.8026C29.6732 47.8026 29.5641 47.8026 29.4551 47.8026C29.5569 47.7227 29.6732 47.7845 29.7822 47.7699Z" fill="white"/>
<path d="M29.7807 12.1875C29.7807 12.1984 29.7807 12.2093 29.7807 12.2202C29.6826 12.2202 29.5844 12.2202 29.4899 12.2202C29.479 12.2129 29.479 12.2057 29.4826 12.1984C29.4863 12.1911 29.4899 12.1875 29.4935 12.1875C29.5881 12.1875 29.6826 12.1875 29.7807 12.1875Z" fill="white"/>
<path d="M30.2168 47.8027C30.2168 47.7918 30.2168 47.7809 30.2168 47.77C30.3149 47.77 30.4131 47.77 30.5076 47.7737C30.5185 47.7809 30.5185 47.7882 30.5149 47.7955C30.5112 47.8027 30.5076 47.8064 30.504 47.8064C30.4094 47.8027 30.3149 47.8027 30.2168 47.8027Z" fill="white"/>
<path d="M47.807 29.2317C47.7561 29.1481 47.7379 29.0609 47.807 28.9773C47.807 29.0609 47.807 29.1481 47.807 29.2317Z" fill="white"/>
<path d="M29.4896 12.1875C29.4896 12.1984 29.4896 12.2093 29.4859 12.2166C29.4132 12.2093 29.3333 12.2602 29.2715 12.1875C29.3442 12.1875 29.4169 12.1875 29.4896 12.1875Z" fill="white"/>
<path d="M30.7987 12.1875C30.7369 12.2638 30.6569 12.2093 30.5842 12.2166C30.5697 12.2093 30.566 12.2057 30.5697 12.1984C30.5733 12.1911 30.5769 12.1875 30.5806 12.1875C30.6533 12.1875 30.726 12.1875 30.7987 12.1875Z" fill="white"/>
<path d="M47.8076 29.5223C47.7966 29.5223 47.7857 29.5187 47.7748 29.5187C47.7857 29.446 47.7349 29.366 47.8076 29.3042C47.8076 29.3769 47.8076 29.4496 47.8076 29.5223Z" fill="white"/>
<path d="M30.5782 12.1875C30.5782 12.1984 30.5782 12.2093 30.5819 12.2166C30.5201 12.2166 30.4619 12.2166 30.4001 12.2202C30.4001 12.2093 30.3965 12.1984 30.3965 12.1875C30.4583 12.1875 30.5164 12.1875 30.5782 12.1875Z" fill="white"/>
<path d="M12.1914 29.1592C12.2532 29.2064 12.2423 29.2573 12.1914 29.3046C12.1914 29.2573 12.1914 29.2064 12.1914 29.1592Z" fill="white"/>
<path d="M21.0319 29.1189C21.4281 29.1189 21.7189 29.2607 21.9625 29.5079C23.0311 30.5802 24.1035 31.6489 25.1721 32.7212C25.6737 33.2228 26.1754 33.7208 26.6734 34.226C26.7788 34.3351 26.8297 34.346 26.946 34.2297C30.5664 30.602 34.1904 26.9816 37.8108 23.3576C37.909 23.2594 38.0071 23.1576 38.1089 23.0631C38.5887 22.6124 39.3157 22.616 39.7809 23.074C40.2426 23.5284 40.2571 24.2627 39.8137 24.7461C39.7773 24.7861 39.7373 24.8261 39.701 24.8624C35.7135 28.85 31.7332 32.8302 27.7493 36.8141C27.2913 37.2721 26.757 37.3812 26.2517 37.1194C26.1317 37.0576 26.0263 36.9777 25.9318 36.8832C24.0417 34.9894 22.1479 33.0956 20.2541 31.2054C19.9087 30.8601 19.7779 30.4493 19.9196 29.9768C20.0578 29.5188 20.374 29.2498 20.8356 29.1407C20.9156 29.1226 20.9956 29.1226 21.0319 29.1189Z" fill="white"/>
</svg>
