<svg width="60" height="60" viewBox="0 0 60 60" fill="none" xmlns="http://www.w3.org/2000/svg">
<circle cx="30" cy="30" r="30" fill="#EA4033"/>
<path fill-rule="evenodd" clip-rule="evenodd" d="M30.1667 14.5781C21.5573 14.5781 14.5781 21.5573 14.5781 30.1667C14.5781 33.7834 15.8091 37.1114 17.8759 39.7564C19.8699 36.5274 23.032 34.1873 26.5078 33.2017C24.3378 31.94 22.8789 29.5899 22.8789 26.8989C22.8789 22.8753 26.1407 19.6135 30.1643 19.6135C34.1879 19.6135 37.4497 22.8753 37.4497 26.8989C37.4497 29.5893 35.9914 31.9391 33.8222 33.2009C37.2992 34.1861 40.4626 36.5268 42.4571 39.7568C44.5241 37.1118 45.7552 33.7836 45.7552 30.1667C45.7552 21.5573 38.776 14.5781 30.1667 14.5781ZM41.4221 40.9517C39.0613 36.8037 34.6021 34.1895 30.1794 34.1843C30.1744 34.1843 30.1694 34.1843 30.1643 34.1843C30.1599 34.1843 30.1555 34.1843 30.1511 34.1843C25.7293 34.1903 21.2714 36.8042 18.9108 40.9513C18.926 40.9671 18.9411 40.9829 18.9563 40.9986C21.7917 43.9324 25.7657 45.7552 30.1667 45.7552C34.5676 45.7552 38.5416 43.9324 41.377 40.9986C41.3921 40.983 41.4071 40.9674 41.4221 40.9517ZM30.1785 32.6843C33.3672 32.6767 35.9497 30.0894 35.9497 26.8989C35.9497 23.7037 33.3595 21.1135 30.1643 21.1135C26.9691 21.1135 24.3789 23.7037 24.3789 26.8989C24.3789 30.0898 26.9621 32.6774 30.1514 32.6843C30.1564 32.6843 30.1614 32.6843 30.1664 32.6843C30.1704 32.6843 30.1745 32.6843 30.1785 32.6843ZM13.0781 30.1667C13.0781 20.7289 20.7289 13.0781 30.1667 13.0781C39.6044 13.0781 47.2552 20.7289 47.2552 30.1667C47.2552 34.7798 45.4263 38.9672 42.4556 42.041C39.3493 45.2551 34.9909 47.2552 30.1667 47.2552C25.3424 47.2552 20.9841 45.2551 17.8777 42.041C14.907 38.9672 13.0781 34.7798 13.0781 30.1667Z" fill="white"/>
<path d="M17.8759 39.7564L17.6395 39.9411L17.9048 40.2806L18.1311 39.914L17.8759 39.7564ZM26.5078 33.2017L26.5896 33.4903L27.2695 33.2975L26.6586 32.9423L26.5078 33.2017ZM33.8222 33.2009L33.6714 32.9416L33.0605 33.2969L33.7404 33.4895L33.8222 33.2009ZM42.4571 39.7568L42.2018 39.9144L42.4282 40.281L42.6935 39.9415L42.4571 39.7568ZM41.4221 40.9517L41.6387 41.1593L41.7935 40.9978L41.6828 40.8033L41.4221 40.9517ZM30.1794 34.1843L30.1798 33.8843L30.1788 33.8843L30.1794 34.1843ZM30.1511 34.1843L30.1517 33.8843L30.1507 33.8843L30.1511 34.1843ZM18.9108 40.9513L18.6501 40.8029L18.5394 40.9974L18.6942 41.1589L18.9108 40.9513ZM18.9563 40.9986L18.7406 41.2071L18.7406 41.2071L18.9563 40.9986ZM41.377 40.9986L41.1613 40.7901L41.1613 40.7901L41.377 40.9986ZM30.1785 32.6843L30.1782 32.9843L30.1793 32.9843L30.1785 32.6843ZM30.1514 32.6843L30.1507 32.9843L30.1517 32.9843L30.1514 32.6843ZM42.4556 42.041L42.6713 42.2495V42.2495L42.4556 42.041ZM17.8777 42.041L17.662 42.2495L17.8777 42.041ZM14.8781 30.1667C14.8781 21.723 21.723 14.8781 30.1667 14.8781V14.2781C21.3917 14.2781 14.2781 21.3917 14.2781 30.1667H14.8781ZM18.1123 39.5717C16.0852 36.9776 14.8781 33.7141 14.8781 30.1667H14.2781C14.2781 33.8526 15.5329 37.2453 17.6395 39.9411L18.1123 39.5717ZM18.1311 39.914C20.0855 36.7491 23.1857 34.4555 26.5896 33.4903L26.4259 32.913C22.8784 33.919 19.6542 36.3057 17.6206 39.5987L18.1311 39.914ZM22.5789 26.8989C22.5789 29.701 24.0984 32.1479 26.357 33.461L26.6586 32.9423C24.5772 31.7322 23.1789 29.4787 23.1789 26.8989H22.5789ZM30.1643 19.3135C25.975 19.3135 22.5789 22.7096 22.5789 26.8989H23.1789C23.1789 23.041 26.3064 19.9135 30.1643 19.9135V19.3135ZM37.7497 26.8989C37.7497 22.7096 34.3536 19.3135 30.1643 19.3135V19.9135C34.0223 19.9135 37.1497 23.041 37.1497 26.8989H37.7497ZM33.973 33.4602C36.2308 32.1469 37.7497 29.7005 37.7497 26.8989H37.1497C37.1497 29.4781 35.7521 31.7312 33.6714 32.9416L33.973 33.4602ZM33.7404 33.4895C37.1456 34.4544 40.2469 36.7485 42.2018 39.9144L42.7124 39.5992C40.6783 36.305 37.4528 33.9178 33.904 32.9123L33.7404 33.4895ZM45.4552 30.1667C45.4552 33.7143 44.248 36.9779 42.2207 39.5721L42.6935 39.9415C44.8003 37.2456 46.0552 33.8528 46.0552 30.1667H45.4552ZM30.1667 14.8781C38.6103 14.8781 45.4552 21.723 45.4552 30.1667H46.0552C46.0552 21.3917 38.9416 14.2781 30.1667 14.2781V14.8781ZM41.6828 40.8033C39.2713 36.5662 34.7153 33.8896 30.1798 33.8843L30.1791 34.4843C34.4889 34.4893 38.8512 37.0411 41.1614 41.1001L41.6828 40.8033ZM30.1643 34.4843C30.1696 34.4843 30.1748 34.4843 30.18 34.4843L30.1788 33.8843C30.174 33.8843 30.1691 33.8843 30.1643 33.8843V34.4843ZM30.1506 34.4843C30.1552 34.4843 30.1598 34.4843 30.1643 34.4843V33.8843C30.1601 33.8843 30.1559 33.8843 30.1517 33.8843L30.1506 34.4843ZM30.1507 33.8843C25.616 33.8905 21.0613 36.5668 18.6501 40.8029L19.1715 41.0997C21.4814 37.0416 25.8426 34.4902 30.1516 34.4843L30.1507 33.8843ZM19.172 40.7901C19.1571 40.7747 19.1423 40.7592 19.1274 40.7437L18.6942 41.1589C18.7097 41.175 18.7251 41.1911 18.7406 41.2071L19.172 40.7901ZM30.1667 45.4552C25.8503 45.4552 21.9532 43.6678 19.172 40.7901L18.7406 41.2071C21.6302 44.197 25.681 46.0552 30.1667 46.0552V45.4552ZM41.1613 40.7901C38.3801 43.6678 34.483 45.4552 30.1667 45.4552V46.0552C34.6523 46.0552 38.7031 44.197 41.5927 41.2071L41.1613 40.7901ZM41.2055 40.7441C41.1908 40.7595 41.1761 40.7748 41.1613 40.7901L41.5927 41.2071C41.6081 41.1912 41.6234 41.1753 41.6387 41.1593L41.2055 40.7441ZM35.6497 26.8989C35.6497 29.9239 33.2011 32.3771 30.1778 32.3843L30.1793 32.9843C33.5333 32.9763 36.2497 30.2548 36.2497 26.8989H35.6497ZM30.1643 21.4135C33.1938 21.4135 35.6497 23.8694 35.6497 26.8989H36.2497C36.2497 23.5381 33.5252 20.8135 30.1643 20.8135V21.4135ZM24.6789 26.8989C24.6789 23.8694 27.1348 21.4135 30.1643 21.4135V20.8135C26.8034 20.8135 24.0789 23.5381 24.0789 26.8989H24.6789ZM30.1521 32.3843C27.1282 32.3777 24.6789 29.9244 24.6789 26.8989H24.0789C24.0789 30.2553 26.7961 32.977 30.1507 32.9843L30.1521 32.3843ZM30.1517 32.9843C30.1567 32.9843 30.1615 32.9843 30.1664 32.9843V32.3843C30.1612 32.3843 30.1561 32.3843 30.1511 32.3843L30.1517 32.9843ZM30.1664 32.9843C30.1703 32.9843 30.1743 32.9843 30.1782 32.9843L30.1788 32.3843C30.1747 32.3843 30.1705 32.3843 30.1664 32.3843V32.9843ZM30.1667 12.7781C20.5632 12.7781 12.7781 20.5632 12.7781 30.1667H13.3781C13.3781 20.8946 20.8946 13.3781 30.1667 13.3781V12.7781ZM47.5552 30.1667C47.5552 20.5632 39.7701 12.7781 30.1667 12.7781V13.3781C39.4387 13.3781 46.9552 20.8946 46.9552 30.1667H47.5552ZM42.6713 42.2495C45.6939 39.1221 47.5552 34.8606 47.5552 30.1667H46.9552C46.9552 34.6989 45.1587 38.8124 42.2399 41.8325L42.6713 42.2495ZM30.1667 47.5552C35.0755 47.5552 39.5108 45.5197 42.6713 42.2495L42.2399 41.8325C39.1877 44.9906 34.9062 46.9552 30.1667 46.9552V47.5552ZM17.662 42.2495C20.8225 45.5197 25.2578 47.5552 30.1667 47.5552V46.9552C25.4271 46.9552 21.1456 44.9906 18.0934 41.8325L17.662 42.2495ZM12.7781 30.1667C12.7781 34.8606 14.6394 39.1221 17.662 42.2495L18.0934 41.8325C15.1746 38.8124 13.3781 34.6989 13.3781 30.1667H12.7781Z" fill="white"/>
</svg>
