<svg width="24" height="24" viewBox="0 0 24 24" fill="none" xmlns="http://www.w3.org/2000/svg">
<path fill-rule="evenodd" clip-rule="evenodd" d="M9.2 1.25H9.16669H9.16669C7.93478 1.25 6.96432 1.24999 6.18333 1.3138C5.38657 1.3789 4.7212 1.51413 4.11655 1.82222C3.1287 2.32555 2.32555 3.1287 1.82222 4.11655C1.51413 4.7212 1.3789 5.38657 1.3138 6.18334C1.24999 6.96432 1.24999 7.93478 1.25 9.16669V9.2V14.8V14.8333C1.24999 16.0652 1.24999 17.0357 1.3138 17.8167C1.3789 18.6134 1.51413 19.2788 1.82222 19.8834C2.32555 20.8713 3.1287 21.6744 4.11655 22.1778C4.7212 22.4859 5.38657 22.6211 6.18333 22.6862C6.96431 22.75 7.93477 22.75 9.16667 22.75H9.2H14.8H14.8333C16.0652 22.75 17.0357 22.75 17.8167 22.6862C18.6134 22.6211 19.2788 22.4859 19.8834 22.1778C20.8713 21.6744 21.6744 20.8713 22.1778 19.8834C22.4859 19.2788 22.6211 18.6134 22.6862 17.8167C22.75 17.0357 22.75 16.0652 22.75 14.8333V14.8V9.2V9.16667C22.75 7.93477 22.75 6.96432 22.6862 6.18334C22.6211 5.38657 22.4859 4.7212 22.1778 4.11655C21.6744 3.1287 20.8713 2.32555 19.8834 1.82222C19.2788 1.51413 18.6134 1.3789 17.8167 1.3138C17.0357 1.24999 16.0652 1.25 14.8333 1.25H14.8H9.2ZM4.79754 3.15873C5.15549 2.97634 5.60148 2.86634 6.30548 2.80882C7.01824 2.75058 7.92751 2.75 9.2 2.75H14.8C16.0725 2.75 16.9818 2.75058 17.6945 2.80882C18.3985 2.86634 18.8445 2.97634 19.2025 3.15873C19.9081 3.51825 20.4817 4.09193 20.8413 4.79754C21.0237 5.15549 21.1337 5.60148 21.1912 6.30548C21.2494 7.01824 21.25 7.92751 21.25 9.2V14.8C21.25 16.0725 21.2494 16.9818 21.1912 17.6945C21.1337 18.3985 21.0237 18.8445 20.8413 19.2025C20.4817 19.9081 19.9081 20.4817 19.2025 20.8413C18.8445 21.0237 18.3985 21.1337 17.6945 21.1912C16.9818 21.2494 16.0725 21.25 14.8 21.25H9.2C7.92751 21.25 7.01824 21.2494 6.30548 21.1912C5.60148 21.1337 5.15549 21.0237 4.79754 20.8413C4.09193 20.4817 3.51825 19.9081 3.15873 19.2025C2.97634 18.8445 2.86634 18.3985 2.80882 17.6945C2.75058 16.9818 2.75 16.0725 2.75 14.8V9.2C2.75 7.92751 2.75058 7.01824 2.80882 6.30548C2.86634 5.60148 2.97634 5.15549 3.15873 4.79754C3.51825 4.09193 4.09193 3.51825 4.79754 3.15873ZM16.8103 12.4521L16.2807 11.9221L11.9731 7.61007C11.6803 7.31703 11.2054 7.31679 10.9124 7.60954C10.6194 7.90229 10.6191 8.37716 10.9119 8.6702L13.9408 11.7022H7.13477C6.72055 11.7022 6.38477 12.038 6.38477 12.4522C6.38477 12.8664 6.72055 13.2022 7.13477 13.2022H13.9407L10.9119 16.2341C10.6191 16.5271 10.6194 17.002 10.9124 17.2947C11.2054 17.5875 11.6803 17.5872 11.9731 17.2942L16.2769 12.9861L16.2846 12.9783L16.8103 12.4521Z" fill="#EA4033"/>
<path d="M9.16669 1.25L9.16668 1.55H9.16669V1.25ZM6.18333 1.3138L6.20776 1.6128L6.18333 1.3138ZM4.11655 1.82222L3.98035 1.55491L4.11655 1.82222ZM1.82222 4.11655L1.55491 3.98035L1.82222 4.11655ZM1.3138 6.18334L1.6128 6.20777L1.3138 6.18334ZM1.25 9.16669H1.55V9.16669L1.25 9.16669ZM1.25 14.8333L1.55 14.8333V14.8333H1.25ZM1.3138 17.8167L1.0148 17.8411L1.3138 17.8167ZM1.82222 19.8834L2.08952 19.7473H2.08952L1.82222 19.8834ZM4.11655 22.1778L4.25275 21.9105H4.25275L4.11655 22.1778ZM6.18333 22.6862L6.15891 22.9852H6.15891L6.18333 22.6862ZM9.16667 22.75V22.45H9.16667L9.16667 22.75ZM14.8333 22.75L14.8333 22.45H14.8333V22.75ZM17.8167 22.6862L17.8411 22.9852L17.8167 22.6862ZM19.8834 22.1778L19.7473 21.9105H19.7473L19.8834 22.1778ZM22.1778 19.8834L21.9105 19.7473V19.7473L22.1778 19.8834ZM22.6862 17.8167L22.9852 17.8411L22.6862 17.8167ZM22.75 14.8333H22.45V14.8333L22.75 14.8333ZM22.75 9.16667L22.45 9.16667V9.16667H22.75ZM22.6862 6.18334L22.9852 6.15891V6.15891L22.6862 6.18334ZM22.1778 4.11655L21.9105 4.25275V4.25275L22.1778 4.11655ZM19.8834 1.82222L19.7473 2.08952V2.08952L19.8834 1.82222ZM17.8167 1.3138L17.8411 1.0148L17.8167 1.3138ZM14.8333 1.25V1.55H14.8333L14.8333 1.25ZM6.30548 2.80882L6.32991 3.10782L6.30548 2.80882ZM4.79754 3.15873L4.93373 3.42603V3.42603L4.79754 3.15873ZM17.6945 2.80882L17.6701 3.10782L17.6945 2.80882ZM19.2025 3.15873L19.3387 2.89142L19.2025 3.15873ZM20.8413 4.79754L21.1086 4.66134V4.66134L20.8413 4.79754ZM21.1912 6.30548L20.8922 6.32991V6.32991L21.1912 6.30548ZM21.1912 17.6945L20.8922 17.6701L21.1912 17.6945ZM20.8413 19.2025L21.1086 19.3387L20.8413 19.2025ZM19.2025 20.8413L19.3387 21.1086L19.2025 20.8413ZM17.6945 21.1912L17.6701 20.8922L17.6945 21.1912ZM6.30548 21.1912L6.32991 20.8922H6.32991L6.30548 21.1912ZM4.79754 20.8413L4.66134 21.1086H4.66134L4.79754 20.8413ZM3.15873 19.2025L2.89142 19.3387L3.15873 19.2025ZM2.80882 17.6945L2.50981 17.7189L2.80882 17.6945ZM2.80882 6.30548L2.50981 6.28105L2.80882 6.30548ZM3.15873 4.79754L3.42603 4.93373L3.15873 4.79754ZM16.2807 11.9221L16.0685 12.1341V12.1341L16.2807 11.9221ZM16.8103 12.4521L17.0225 12.6642C17.1395 12.547 17.1395 12.3572 17.0225 12.2401L16.8103 12.4521ZM11.9731 7.61007L11.7608 7.8221V7.8221L11.9731 7.61007ZM10.9119 8.6702L11.1241 8.45818L11.1241 8.45817L10.9119 8.6702ZM13.9408 11.7022V12.0022C14.0621 12.0022 14.1715 11.9291 14.2179 11.817C14.2644 11.705 14.2388 11.576 14.153 11.4901L13.9408 11.7022ZM13.9407 13.2022L14.153 13.4142C14.2387 13.3284 14.2643 13.1994 14.2179 13.0873C14.1714 12.9752 14.0621 12.9022 13.9407 12.9022V13.2022ZM10.9119 16.2341L11.1241 16.4461L10.9119 16.2341ZM11.9731 17.2942L12.1853 17.5062L11.9731 17.2942ZM16.2769 12.9861L16.4891 13.1981L16.4891 13.1981L16.2769 12.9861ZM16.2846 12.9783L16.0724 12.7663L16.0724 12.7663L16.2846 12.9783ZM9.16669 1.55H9.2V0.95H9.16669V1.55ZM9.16669 1.55H9.16669V0.95H9.16669V1.55ZM6.20776 1.6128C6.97376 1.55022 7.9301 1.55 9.16668 1.55L9.16669 0.95C7.93946 0.949995 6.95487 0.949763 6.15891 1.0148L6.20776 1.6128ZM4.25275 2.08952C4.80808 1.80656 5.42959 1.67638 6.20776 1.6128L6.15891 1.0148C5.34355 1.08141 4.63432 1.2217 3.98035 1.55491L4.25275 2.08952ZM2.08952 4.25275C2.56409 3.32135 3.32134 2.56409 4.25275 2.08952L3.98035 1.55491C2.93605 2.08701 2.08701 2.93605 1.55491 3.98035L2.08952 4.25275ZM1.6128 6.20777C1.67638 5.42959 1.80656 4.80808 2.08952 4.25275L1.55491 3.98035C1.2217 4.63432 1.08141 5.34355 1.0148 6.15891L1.6128 6.20777ZM1.55 9.16669C1.54999 7.9301 1.55022 6.97376 1.6128 6.20777L1.0148 6.15891C0.949763 6.95487 0.949995 7.93946 0.95 9.16669L1.55 9.16669ZM1.55 9.2V9.16669H0.95V9.2H1.55ZM1.55 14.8V9.2H0.95V14.8H1.55ZM1.55 14.8333V14.8H0.95V14.8333H1.55ZM1.6128 17.7922C1.55022 17.0262 1.54999 16.0699 1.55 14.8333L0.95 14.8333C0.949995 16.0605 0.949763 17.0451 1.0148 17.8411L1.6128 17.7922ZM2.08952 19.7473C1.80656 19.1919 1.67638 18.5704 1.6128 17.7922L1.0148 17.8411C1.08141 18.6565 1.2217 19.3657 1.55491 20.0196L2.08952 19.7473ZM4.25275 21.9105C3.32134 21.4359 2.56409 20.6787 2.08952 19.7473L1.55491 20.0196C2.08701 21.0639 2.93605 21.913 3.98035 22.4451L4.25275 21.9105ZM6.20777 22.3872C5.42959 22.3236 4.80808 22.1934 4.25275 21.9105L3.98035 22.4451C4.63432 22.7783 5.34355 22.9186 6.15891 22.9852L6.20777 22.3872ZM9.16667 22.45C7.93009 22.45 6.97376 22.4498 6.20776 22.3872L6.15891 22.9852C6.95487 23.0502 7.93945 23.05 9.16667 23.05L9.16667 22.45ZM9.2 22.45H9.16667V23.05H9.2V22.45ZM14.8 22.45H9.2V23.05H14.8V22.45ZM14.8333 22.45H14.8V23.05H14.8333V22.45ZM17.7922 22.3872C17.0262 22.4498 16.0699 22.45 14.8333 22.45L14.8333 23.05C16.0605 23.05 17.0451 23.0502 17.8411 22.9852L17.7922 22.3872ZM19.7473 21.9105C19.1919 22.1934 18.5704 22.3236 17.7922 22.3872L17.8411 22.9852C18.6565 22.9186 19.3657 22.7783 20.0196 22.4451L19.7473 21.9105ZM21.9105 19.7473C21.4359 20.6787 20.6787 21.4359 19.7473 21.9105L20.0196 22.4451C21.0639 21.913 21.913 21.0639 22.4451 20.0196L21.9105 19.7473ZM22.3872 17.7922C22.3236 18.5704 22.1934 19.1919 21.9105 19.7473L22.4451 20.0196C22.7783 19.3657 22.9186 18.6565 22.9852 17.8411L22.3872 17.7922ZM22.45 14.8333C22.45 16.0699 22.4498 17.0262 22.3872 17.7922L22.9852 17.8411C23.0502 17.0451 23.05 16.0605 23.05 14.8333L22.45 14.8333ZM22.45 14.8V14.8333H23.05V14.8H22.45ZM22.45 9.2V14.8H23.05V9.2H22.45ZM22.45 9.16667V9.2H23.05V9.16667H22.45ZM22.3872 6.20777C22.4498 6.97376 22.45 7.93009 22.45 9.16667L23.05 9.16667C23.05 7.93945 23.0502 6.95487 22.9852 6.15891L22.3872 6.20777ZM21.9105 4.25275C22.1934 4.80808 22.3236 5.42959 22.3872 6.20777L22.9852 6.15891C22.9186 5.34355 22.7783 4.63432 22.4451 3.98035L21.9105 4.25275ZM19.7473 2.08952C20.6787 2.56409 21.4359 3.32135 21.9105 4.25275L22.4451 3.98035C21.913 2.93605 21.0639 2.08701 20.0196 1.55491L19.7473 2.08952ZM17.7922 1.6128C18.5704 1.67638 19.1919 1.80656 19.7473 2.08952L20.0196 1.55491C19.3657 1.2217 18.6565 1.08141 17.8411 1.0148L17.7922 1.6128ZM14.8333 1.55C16.0699 1.55 17.0262 1.55022 17.7922 1.6128L17.8411 1.0148C17.0451 0.949763 16.0605 0.949995 14.8333 0.95L14.8333 1.55ZM14.8 1.55H14.8333V0.95H14.8V1.55ZM9.2 1.55H14.8V0.95H9.2V1.55ZM6.28105 2.50981C5.55855 2.56885 5.06866 2.68388 4.66134 2.89142L4.93373 3.42603C5.24231 3.2688 5.6444 3.16383 6.32991 3.10782L6.28105 2.50981ZM9.2 2.45C7.93252 2.45 7.00888 2.45035 6.28105 2.50981L6.32991 3.10782C7.02761 3.05082 7.92249 3.05 9.2 3.05V2.45ZM14.8 2.45H9.2V3.05H14.8V2.45ZM17.7189 2.50981C16.9911 2.45035 16.0675 2.45 14.8 2.45V3.05C16.0775 3.05 16.9724 3.05082 17.6701 3.10782L17.7189 2.50981ZM19.3387 2.89142C18.9313 2.68388 18.4414 2.56885 17.7189 2.50981L17.6701 3.10782C18.3556 3.16383 18.7577 3.2688 19.0663 3.42603L19.3387 2.89142ZM21.1086 4.66134C20.7203 3.89928 20.1007 3.27971 19.3387 2.89142L19.0663 3.42603C19.7154 3.75679 20.2432 4.28457 20.574 4.93373L21.1086 4.66134ZM21.4902 6.28105C21.4312 5.55855 21.3161 5.06866 21.1086 4.66134L20.574 4.93373C20.7312 5.24231 20.8362 5.6444 20.8922 6.32991L21.4902 6.28105ZM21.55 9.2C21.55 7.93252 21.5497 7.00888 21.4902 6.28105L20.8922 6.32991C20.9492 7.02761 20.95 7.92249 20.95 9.2H21.55ZM21.55 14.8V9.2H20.95V14.8H21.55ZM21.4902 17.7189C21.5497 16.9911 21.55 16.0675 21.55 14.8H20.95C20.95 16.0775 20.9492 16.9724 20.8922 17.6701L21.4902 17.7189ZM21.1086 19.3387C21.3161 18.9313 21.4312 18.4414 21.4902 17.7189L20.8922 17.6701C20.8362 18.3556 20.7312 18.7577 20.574 19.0663L21.1086 19.3387ZM19.3387 21.1086C20.1007 20.7203 20.7203 20.1007 21.1086 19.3387L20.574 19.0663C20.2432 19.7154 19.7154 20.2432 19.0663 20.574L19.3387 21.1086ZM17.7189 21.4902C18.4414 21.4312 18.9313 21.3161 19.3387 21.1086L19.0663 20.574C18.7577 20.7312 18.3556 20.8362 17.6701 20.8922L17.7189 21.4902ZM14.8 21.55C16.0675 21.55 16.9911 21.5497 17.7189 21.4902L17.6701 20.8922C16.9724 20.9492 16.0775 20.95 14.8 20.95V21.55ZM9.2 21.55H14.8V20.95H9.2V21.55ZM6.28105 21.4902C7.00888 21.5497 7.93252 21.55 9.2 21.55V20.95C7.92249 20.95 7.02761 20.9492 6.32991 20.8922L6.28105 21.4902ZM4.66134 21.1086C5.06866 21.3161 5.55855 21.4312 6.28105 21.4902L6.32991 20.8922C5.6444 20.8362 5.24231 20.7312 4.93373 20.574L4.66134 21.1086ZM2.89142 19.3387C3.27971 20.1007 3.89928 20.7203 4.66134 21.1086L4.93373 20.574C4.28457 20.2432 3.75679 19.7154 3.42603 19.0663L2.89142 19.3387ZM2.50981 17.7189C2.56885 18.4414 2.68388 18.9313 2.89142 19.3387L3.42603 19.0663C3.2688 18.7577 3.16383 18.3556 3.10782 17.6701L2.50981 17.7189ZM2.45 14.8C2.45 16.0675 2.45035 16.9911 2.50981 17.7189L3.10782 17.6701C3.05082 16.9724 3.05 16.0775 3.05 14.8H2.45ZM2.45 9.2V14.8H3.05V9.2H2.45ZM2.50981 6.28105C2.45035 7.00888 2.45 7.93252 2.45 9.2H3.05C3.05 7.92249 3.05082 7.02761 3.10782 6.32991L2.50981 6.28105ZM2.89142 4.66134C2.68388 5.06866 2.56885 5.55855 2.50981 6.28105L3.10782 6.32991C3.16383 5.6444 3.2688 5.24231 3.42603 4.93373L2.89142 4.66134ZM4.66134 2.89142C3.89928 3.27971 3.27971 3.89928 2.89142 4.66134L3.42603 4.93373C3.75679 4.28457 4.28457 3.75679 4.93373 3.42603L4.66134 2.89142ZM16.0685 12.1341L16.598 12.6642L17.0225 12.2401L16.493 11.71L16.0685 12.1341ZM11.7608 7.8221L16.0685 12.1341L16.493 11.71L12.1853 7.39805L11.7608 7.8221ZM11.1244 7.82178C11.3002 7.64613 11.5852 7.64627 11.7608 7.8221L12.1853 7.39805C11.7754 6.98779 11.1106 6.98746 10.7004 7.3973L11.1244 7.82178ZM11.1241 8.45817C10.9485 8.28235 10.9486 7.99743 11.1244 7.82178L10.7004 7.3973C10.2901 7.80715 10.2898 8.47197 10.6996 8.88223L11.1241 8.45817ZM14.153 11.4901L11.1241 8.45818L10.6996 8.88223L13.7286 11.9142L14.153 11.4901ZM7.13477 12.0022H13.9408V11.4022H7.13477V12.0022ZM6.68477 12.4522C6.68477 12.2036 6.88624 12.0022 7.13477 12.0022V11.4022C6.55487 11.4022 6.08477 11.8723 6.08477 12.4522H6.68477ZM7.13477 12.9022C6.88624 12.9022 6.68477 12.7007 6.68477 12.4522H6.08477C6.08477 13.0321 6.55487 13.5022 7.13477 13.5022V12.9022ZM13.9407 12.9022H7.13477V13.5022H13.9407V12.9022ZM11.1241 16.4461L14.153 13.4142L13.7285 12.9901L10.6996 16.022L11.1241 16.4461ZM11.1244 17.0825C10.9486 16.9068 10.9485 16.6219 11.1241 16.4461L10.6996 16.022C10.2898 16.4323 10.2901 17.0971 10.7004 17.507L11.1244 17.0825ZM11.7608 17.0822C11.5852 17.258 11.3002 17.2581 11.1244 17.0825L10.7004 17.507C11.1106 17.9168 11.7754 17.9165 12.1853 17.5062L11.7608 17.0822ZM16.0646 12.7741L11.7608 17.0822L12.1853 17.5062L16.4891 13.1981L16.0646 12.7741ZM16.0724 12.7663L16.0646 12.7741L16.4891 13.1981L16.4969 13.1904L16.0724 12.7663ZM16.598 12.2401L16.0724 12.7663L16.4968 13.1904L17.0225 12.6642L16.598 12.2401Z" fill="#EA4033"/>
</svg>
