<svg width="183" height="183" viewBox="0 0 183 183" fill="none" xmlns="http://www.w3.org/2000/svg">
<circle cx="91.5" cy="91.5" r="91.5" fill="#EA4033"/>
<path fill-rule="evenodd" clip-rule="evenodd" d="M131.697 83.1406H137.35H143.004V97.8258V115.9H148.739H155.297V97.8258V83.1406H160.26H165.223V70.1499H148.46H131.697V83.1406ZM18.8232 92.4437V115.9H26.0874H33.3515L33.257 99.2635L32.2261 95.1044L46.6599 115.9H53.8768H62.0381V98.0314C62.2415 89.1192 62.0381 79.2894 62.0381 76.3885V70.1499H54.9077H47.3209V88.8658C47.3209 88.8658 44.935 85.6772 40.9011 80.4685L33.3515 70.1499H26.0874H18.8232V92.4437ZM86.4355 84.8351V98.4131H100.271H114.104V101.461V103.864L113.164 101.215H99.7998H86.4355V108.282V115.9H106.457H128.108V101.343V87.0943H114.104H100.964L101.01 83.8467L101.055 80.599L101.849 82.4346L102.643 84.2703H115.214H128.108V77.4283V70.1499H107.488H86.4355V84.8351ZM66.3194 93.3073L66.2486 115.9H73.4655H80.6824L80.8477 93.3073L80.6824 70.1499H73.4655H66.3194V93.3073Z" fill="white"/>
</svg>
