<svg width="204" height="204" viewBox="0 0 204 204" fill="none" xmlns="http://www.w3.org/2000/svg">
<circle cx="102" cy="102" r="102" fill="#EA4033"/>
<path fill-rule="evenodd" clip-rule="evenodd" d="M130.85 163.628H134.48H138.11V172.937V184.394H141.793H146.004V172.937V163.628H149.19H152.377V155.394H141.614H130.85V163.628ZM58.377 169.525V184.394H63.0411H67.7052L67.6446 173.848L66.9826 171.212L76.2502 184.394H80.884H86.1242V173.067C86.2548 167.418 86.1242 161.187 86.1242 159.348V155.394H81.546H76.6747V167.257C76.6747 167.257 75.1427 165.236 72.5527 161.934L67.7052 155.394H63.0411H58.377V169.525ZM101.789 164.702V173.309H110.673H119.555V175.241V176.764L118.951 175.085H110.37H101.789V179.565V184.394H114.645H128.546V175.166V166.134H119.555H111.117L111.147 164.076L111.176 162.017L111.686 163.181L112.196 164.344H120.267H128.546V160.007V155.394H115.307H101.789V164.702ZM88.8731 170.073L88.8277 184.394H93.4615H98.0953L98.2014 170.073L98.0953 155.394H93.4615H88.8731V170.073Z" fill="white"/>
<path d="M106.562 13C107.481 13.3059 108.456 13.2642 109.402 13.3754C118.508 14.5155 126.709 17.8801 133.879 23.5806C143.374 31.1163 149.403 40.8348 151.923 52.6945C151.937 52.764 151.951 52.8335 151.951 52.903C152.048 54.0153 152.368 54.78 153.566 55.364C155.64 56.3789 156.698 58.3949 157.367 60.5361C158.745 64.9296 158.522 69.2118 156.225 73.2717C155.334 74.8428 154.095 76.0663 152.271 76.5668C152.201 76.5807 152.132 76.6363 152.076 76.6224C150.962 76.4556 150.753 77.1924 150.461 78.0545C145.142 93.3205 134.867 103.776 119.719 109.449C119.357 109.588 119.176 109.741 119.051 110.116C118.369 112.104 116.169 113.063 114.248 112.257C112.312 111.451 111.505 109.212 112.452 107.335C113.384 105.486 115.682 104.791 117.492 105.875C117.881 106.112 118.188 106.112 118.578 105.959C132.988 100.481 142.622 90.4425 147.314 75.7743C149.389 69.3092 149.779 62.6633 148.762 55.9479C146.089 38.1792 133.6 23.7613 116.433 18.5475C91.5116 10.984 64.8632 26.0554 58.5422 51.3041C56.6348 58.9093 56.6487 66.5146 58.6119 74.1059C58.7372 74.5647 58.6675 74.8706 58.3055 75.1903C56.0779 77.2759 53.2376 77.3037 51.0239 75.2042C49.2835 73.5497 48.3785 71.4364 47.9191 69.1284C47.1673 65.3606 47.4875 61.7039 49.381 58.2976C50.3695 56.504 51.72 55.072 53.8781 54.6827C54.2262 54.6132 54.2122 54.3629 54.254 54.1265C54.8805 50.5812 55.7994 47.1331 57.2196 43.8241C63.0672 30.1986 72.9524 20.786 86.931 15.739C90.9547 14.2791 95.1315 13.4866 99.4058 13.1529C99.5311 13.139 99.6982 13.2086 99.7539 13.0139C100.13 13.0139 100.492 13.0139 100.868 13.0139C101.146 13.1668 101.439 13.0556 101.731 13.0834C102.093 13.0417 102.469 13.1668 102.817 13.0139C103.694 13.0139 104.585 13.0139 105.462 13.0139C105.643 13.1251 105.838 13.1251 106.019 13.0139C106.186 13 106.381 13 106.562 13Z" fill="white"/>
<path d="M160.987 149.227C160.945 149.185 160.903 149.115 160.847 149.087C159.065 148.49 158.258 147.197 158.174 145.361C157.993 141.385 157.311 137.506 156.03 133.738C153.413 126.022 148.929 119.556 142.915 114.106C139.49 110.992 135.703 108.392 131.595 106.251C131.415 106.153 131.234 106.042 131.011 105.917C133.169 104.513 135.188 103.011 137.081 101.343C137.304 101.148 137.471 101.204 137.68 101.329C151.171 109.504 160.569 120.794 164.272 136.38C164.955 139.272 165.275 142.219 165.414 145.181C165.512 147.238 164.579 148.545 162.588 149.129C162.56 149.143 162.532 149.199 162.504 149.227C162.003 149.227 161.502 149.227 160.987 149.227Z" fill="white"/>
<path d="M102.803 13C102.455 13.2642 102.051 13.0834 101.675 13.1251C101.633 13.0973 101.633 13.0695 101.647 13.0417C101.661 13.0139 101.675 13 101.689 13C102.065 13 102.427 13 102.803 13Z" fill="white"/>
<path d="M101.692 13C101.692 13.0417 101.692 13.0834 101.678 13.1251C101.399 13.0834 101.093 13.2781 100.856 13C101.135 13 101.413 13 101.692 13Z" fill="white"/>
<path d="M106.009 13C105.828 13.2503 105.633 13.1807 105.452 13C105.633 13 105.828 13 106.009 13Z" fill="white"/>
<path d="M41 143.804C41.1668 143.832 41.1251 143.957 41.1112 144.068C41.0695 144.138 41.0417 144.138 41 144.082C41 143.985 41 143.887 41 143.804Z" fill="white"/>
<path d="M41 144.082C41.0417 144.082 41.0834 144.082 41.1112 144.068C41.139 144.193 41.139 144.305 41 144.36C41 144.263 41 144.166 41 144.082Z" fill="white"/>
<path fill-rule="evenodd" clip-rule="evenodd" d="M41.2237 142.011C41.0845 142.551 41.001 143.109 41.001 143.109C41.001 143.346 41.001 143.568 41.0149 143.804C41.088 143.877 41.0865 143.961 41.0849 144.046C41.0847 144.058 41.0845 144.07 41.0845 144.083C41.0845 144.095 41.0847 144.107 41.0849 144.119C41.0865 144.204 41.088 144.288 41.0149 144.361V146.446C41.3351 147.989 42.254 148.907 43.7995 149.227H45.331C47.4333 148.546 48.3105 147.072 48.2966 144.889C48.2826 143.151 48.5472 141.427 48.8674 139.717C50.4128 131.277 54.1581 123.909 59.9778 117.652C70.9212 105.89 84.7188 100.287 100.577 99.4801C107.872 99.1047 115.015 100.078 121.976 102.261C122.31 102.358 122.575 102.344 122.895 102.191C125.318 100.968 127.629 99.5496 129.801 97.9229C129.83 97.9026 129.862 97.884 129.893 97.8654C130.013 97.795 130.135 97.7234 130.135 97.5475C127.267 96.324 124.329 95.3647 121.266 94.5026C141.761 83.3381 147.107 56.6851 133.24 38.5133C120.361 21.6344 95.8153 18.6452 79.4559 32.0899C70.9908 39.0555 66.1178 48.0511 65.5887 58.9792C64.823 74.6763 71.8123 86.383 85.0808 94.5444C74.6943 97.3668 65.4634 102.261 57.6527 109.685C48.3662 118.514 42.6439 129.178 41.2237 142.011ZM103.235 30.8803C86.4306 30.8247 72.7723 44.4501 72.6887 61.3012C72.6191 78.0271 86.2775 91.7498 103.082 91.8193C119.943 91.8888 133.643 78.3051 133.727 61.4263C133.81 44.6448 120.124 30.922 103.235 30.8803Z" fill="white"/>
</svg>
