<svg width="292" height="304" fill="none" xmlns="http://www.w3.org/2000/svg"><path fill="#EA4033" d="M1 0h290v208H1z"/><path d="M52.75 193.874v.249l.249.001 29.92.126h.002l32.413-.126.249-.001v-64.972l-.018-.046-5.499-13.397 62.418 78.322.075.093.12.001 33.66.126h.002l33.66-.126.249-.001V13.75h-64.08v68.698l.018.045 4.978 12.437c-.48-.578-1.122-1.35-1.906-2.297-1.86-2.242-4.52-5.456-7.721-9.343a3289.758 3289.758 0 01-23.618-28.999l-.001-.002-31.142-40.441-.075-.098H52.75v180.124z" fill="#fff" stroke="#000" stroke-width=".5"/><path d="M224.088 242.2v.5h22.398v60.5h25.352v-60.5H291.5v-24.886h-67.412V242.2zM.5 302.7v.5h29.779v-32.11l-.047-.1-2.601-5.594 13.212 16.16 14.745 21.427.15.217H86.49l.01-.49.603-31.498v-.002c.403-17.355.733-36.183.733-41.839v-11.628H72.078l-14.62-.243-.508-.008v29.586l.024.074 2.299 7.206a1524.93 1524.93 0 01-14.147-17.671l-14.528-18.446-.147-.186-.236-.005-14.603-.307h0H.5V302.7zM134.431 273v.5h55.335l-.079 4.717a91.99 91.99 0 01-.063 2.482 51.543 51.543 0 01-.166-.446v-.001l-1.113-3.025-.12-.327h-53.794v26.3h81.06l.009-.491.475-25.575v-.004l.297-27.225.005-.505h-52.074l-.16-10.983.951 2.581.005.014.007.014 1.574 3.575.131.299h50.629v-27.4h-82.909V273zm-40.43 29.693l-.008.507h30.37v-85.457H94.584V262L94 302.693z" stroke="#4E4E4E"/></svg>