<svg width="37" height="37" fill="none" xmlns="http://www.w3.org/2000/svg"><circle cx="18.5" cy="18.5" r="18.5" fill="#fff"/><path fill-rule="evenodd" clip-rule="evenodd" d="M9.5 16.386a6.886 6.886 0 1113.773 0 6.886 6.886 0 01-13.773 0zM16.386 8a8.386 8.386 0 105.377 14.823l6.184 6.185a.75.75 0 001.06-1.061l-6.184-6.184A8.386 8.386 0 0016.386 8z" fill="#18191A"/><path d="M21.762 22.823l.354-.353a.5.5 0 00-.674-.03l.32.383zm6.185 6.185l-.354.353.354-.353zm1.06-1.061l.354-.354-.353.354zm-6.184-6.184l-.384-.321a.5.5 0 00.03.674l.354-.354zM16.386 9A7.386 7.386 0 009 16.386h1A6.386 6.386 0 0116.386 10V9zm7.387 7.386A7.386 7.386 0 0016.386 9v1a6.386 6.386 0 016.387 6.386h1zm-7.387 7.387a7.386 7.386 0 007.387-7.387h-1a6.386 6.386 0 01-6.387 6.387v1zM9 16.386a7.386 7.386 0 007.386 7.387v-1A6.386 6.386 0 0110 16.386H9zm-.5 0A7.886 7.886 0 0116.386 8.5v-1A8.886 8.886 0 007.5 16.386h1zm7.886 7.887A7.886 7.886 0 018.5 16.386h-1a8.886 8.886 0 008.886 8.887v-1zm5.056-1.834a7.852 7.852 0 01-5.056 1.834v1a8.852 8.852 0 005.697-2.066l-.641-.768zm6.858 6.215l-6.184-6.184-.707.707 6.184 6.184.707-.707zm.354 0a.25.25 0 01-.354 0l-.707.707a1.25 1.25 0 001.768 0l-.707-.707zm0-.354a.25.25 0 010 .354l.707.707a1.25 1.25 0 000-1.768l-.707.707zm-6.184-6.184l6.184 6.184.707-.707-6.184-6.184-.707.707zm1.803-5.73a7.852 7.852 0 01-1.834 5.056l.768.641a8.852 8.852 0 002.066-5.697h-1zM16.386 8.5a7.886 7.886 0 017.887 7.886h1A8.886 8.886 0 0016.386 7.5v1z" fill="#000"/></svg>