<svg width="140" height="49" fill="none" xmlns="http://www.w3.org/2000/svg"><path d="M0 2h116.5C129.479 2 140 12.521 140 25.5S129.479 49 116.5 49H0V2z" fill="#fff"/><path d="M25.579 17H47v15H25.772L25 24.212 25.579 17z" fill="#fff"/><path d="M21.896 12.124l-.146.067v5.19c0 5.757.014 6.186.267 7.752 1.097 6.759 5.52 12.711 11.365 15.26l.1-.23-.1.23a19.208 19.208 0 002.21.782c.18.05.321.09.51.07.164-.019.373-.084.724-.193l.136-.042-.074-.239.074.24c2.233-.69 4.346-1.901 6.32-3.617a23.29 23.29 0 001.9-1.93 20.435 20.435 0 001.753-2.37 21.173 21.173 0 003.1-8.32c.039-.277.07-.492.095-.707.097-.84.096-1.69.107-6.31l.013-5.403v-.161l-.146-.067-6.958-3.168-.103.228.103-.228a56.51 56.51 0 01-3.63-1.834c-.267-.144-.518-.28-.756-.405-1.084-.574-1.934-.969-2.727-.969-.824 0-1.676.386-2.76.955-.256.134-.527.28-.815.435a57.332 57.332 0 01-3.571 1.8l-6.99 3.184zm17.03 12.794L32.891 31.1l-2.927-3-2.034-2.082a1.324 1.324 0 010-1.85 1.276 1.276 0 011.824 0l.934.956 2.007 2.057.179.183.179-.183 5.131-5.257 4.04-4.14a1.275 1.275 0 011.825 0 1.35 1.35 0 010 1.886l-5.123 5.248z" fill="#00D261" stroke="#fff" stroke-width=".5"/><path d="M68.744 20.8L63.864 32h-2.048L56.92 20.8h2.256l3.728 8.64 3.76-8.64h2.08zm8.381 6.976c0 .139-.01.336-.032.592H70.39c.118.63.422 1.13.912 1.504.502.363 1.12.544 1.856.544.939 0 1.712-.31 2.32-.928l1.072 1.232c-.384.459-.87.805-1.456 1.04s-1.248.352-1.984.352c-.938 0-1.765-.187-2.48-.56A4.103 4.103 0 0168.965 30c-.384-.672-.576-1.43-.576-2.272 0-.832.187-1.579.56-2.24a4.069 4.069 0 011.584-1.568c.672-.373 1.43-.56 2.272-.56.832 0 1.574.187 2.224.56.662.363 1.174.88 1.536 1.552.374.661.56 1.43.56 2.304zm-4.32-2.816c-.64 0-1.184.192-1.632.576-.437.373-.704.875-.8 1.504h4.848c-.085-.619-.346-1.12-.784-1.504-.437-.384-.981-.576-1.632-.576zm8.145-.256c.576-.896 1.59-1.344 3.04-1.344v1.904a2.54 2.54 0 00-.464-.048c-.778 0-1.386.23-1.824.688-.437.448-.656 1.099-.656 1.952V32h-2v-8.544h1.904v1.248zm4.737-1.248h2V32h-2v-8.544zm1.008-1.408a1.3 1.3 0 01-.912-.336 1.15 1.15 0 01-.368-.864 1.1 1.1 0 01.368-.848c.245-.235.55-.352.912-.352a1.3 1.3 0 01.912.336c.245.213.368.485.368.816 0 .352-.123.65-.368.896-.235.235-.539.352-.912.352zm7.089-.416c-.843 0-1.264.459-1.264 1.376v.512h2.352v1.6h-2.288V32h-2v-6.88h-1.408v-1.6h1.408v-.544c0-.917.267-1.637.8-2.16.533-.533 1.285-.8 2.256-.8.768 0 1.37.155 1.808.464l-.56 1.504a1.91 1.91 0 00-1.104-.352zm3.712 1.824h2V32h-2v-8.544zm1.008-1.408a1.3 1.3 0 01-.912-.336 1.15 1.15 0 01-.368-.864 1.1 1.1 0 01.368-.848c.245-.235.55-.352.912-.352a1.3 1.3 0 01.912.336c.245.213.368.485.368.816 0 .352-.123.65-.368.896-.235.235-.539.352-.912.352zm11.653 5.728c0 .139-.011.336-.032.592h-6.704c.117.63.421 1.13.912 1.504.501.363 1.12.544 1.856.544.938 0 1.712-.31 2.32-.928l1.072 1.232c-.384.459-.87.805-1.456 1.04-.587.235-1.248.352-1.984.352-.939 0-1.766-.187-2.48-.56A4.098 4.098 0 01101.997 30c-.384-.672-.576-1.43-.576-2.272 0-.832.186-1.579.56-2.24a4.069 4.069 0 011.584-1.568c.672-.373 1.429-.56 2.272-.56.832 0 1.573.187 2.224.56.661.363 1.173.88 1.536 1.552.373.661.56 1.43.56 2.304zm-4.32-2.816c-.64 0-1.184.192-1.632.576-.438.373-.704.875-.8 1.504h4.848c-.086-.619-.347-1.12-.784-1.504-.438-.384-.982-.576-1.632-.576zm14.609-4.832V32h-1.92v-1.104a3.09 3.09 0 01-1.232.912 4.076 4.076 0 01-1.6.304c-.822 0-1.563-.181-2.224-.544a3.934 3.934 0 01-1.536-1.536c-.374-.672-.56-1.44-.56-2.304 0-.864.186-1.627.56-2.288a3.934 3.934 0 011.536-1.536c.661-.363 1.402-.544 2.224-.544.565 0 1.082.096 1.552.288.469.192.869.48 1.2.864v-4.384h2zM115.934 30.4c.48 0 .912-.107 1.296-.32a2.43 2.43 0 00.912-.944c.224-.405.336-.875.336-1.408 0-.533-.112-1.003-.336-1.408a2.315 2.315 0 00-.912-.928 2.524 2.524 0 00-1.296-.336c-.48 0-.912.112-1.296.336a2.315 2.315 0 00-.912.928c-.224.405-.336.875-.336 1.408 0 .533.112 1.003.336 1.408.224.405.528.72.912.944.384.213.816.32 1.296.32z" fill="#00D261"/></svg>