<svg width="141" height="30" fill="none" xmlns="http://www.w3.org/2000/svg"><g clip-path="url(#clip0_603_309)"><path fill="#fff" d="M0 0h141v30H0z"/><path d="M-.12 15.036v15.016h112.048V6.468h2.632v23.584h26.32V.019H8.716v22.11h7.332v1.843H6.084V.019H-.12v15.017zm78.96-8.752c2.406.386 4.85 1.916 6.072 3.795.997 1.566 1.316 2.782 1.316 4.957 0 3.003-.808 5.066-2.744 6.927-4.024 3.87-11.412 2.69-13.95-2.23-1.072-2.063-1.373-5.38-.677-7.535 1.11-3.5 4.4-5.915 8.29-6.08.264 0 1.016.073 1.693.165zm53.335.386c.602.203 1.41.572 1.805.83.696.442.715.46.414.958-.733 1.197-.639 1.179-2.106.46-1.805-.884-3.722-1.032-5.696-.442-1.166.35-1.542.571-2.444 1.456-1.523 1.492-1.955 2.653-1.955 5.196 0 1.584.075 2.137.432 2.985.564 1.4 1.993 2.93 3.365 3.592.959.461 1.26.516 3.046.516 1.823 0 2.068-.037 3.215-.57l1.222-.572.507.755c.583.866.527.959-.959 1.603-2.782 1.198-6.373 1.106-9.136-.24-2.896-1.418-4.625-4.366-4.625-7.904 0-2.653.827-4.624 2.651-6.393 2.556-2.47 6.824-3.39 10.264-2.23zm5.922-.258c.677.609.207 1.898-.695 1.898-.658 0-1.091-.442-1.091-1.105 0-.995 1.034-1.456 1.786-.793zM22.064 12.603c0 6.541.075 7.241.94 8.42 1.316 1.806 4.87 1.917 6.448.203 1.166-1.271 1.26-1.879 1.26-8.715V6.468h2.462l-.056 6.67-.056 6.688-.64 1.16c-1.259 2.267-3.026 3.225-6.034 3.244-3.271.018-5.039-.866-6.204-3.096l-.658-1.271-.056-6.688-.057-6.707h2.651v6.135zM50.452 7.39v.921h-5.64v15.66H42.18V8.312h-5.828V6.467h14.1v.921zm10.64-.645c1.242.35 2.407 1.345 2.802 2.395.244.627.3 1.198.244 2.359-.094 1.806-.564 2.782-1.917 3.943l-.846.718 2.087 3.685a402.115 402.115 0 012.162 3.888c.075.184-.264.24-1.316.24h-1.43l-1.936-3.593-1.936-3.575-1.26-.018h-1.278v7.186h-2.632V6.468h3.158c2.237 0 3.44.073 4.099.276zm32.055.074c.15.184 2.387 2.819 4.963 5.859 2.594 3.022 5.038 5.933 5.452 6.467l.752.977.056-6.817.038-6.836h2.068v17.504h-2.049l-4.4-5.215a868.24 868.24 0 01-5.602-6.706l-1.203-1.511-.056 6.725-.038 6.707h-2.256V6.468h1.015c.77 0 1.072.073 1.26.35z" fill="#EC1540"/><path d="M75.4 8.384a8.423 8.423 0 00-1.448.755c-3.159 2.138-3.516 8.402-.64 11.498 1.053 1.142 1.956 1.547 3.798 1.64 1.448.073 1.636.055 2.782-.516 1.392-.664 2.238-1.622 2.933-3.317.357-.847.414-1.382.414-3.316.019-1.972-.057-2.451-.414-3.335-.94-2.304-2.67-3.501-5.207-3.612-.978-.037-1.749.037-2.219.203zm62.416-1.327c.037.83.037.83.263.48.131-.222.113-.443-.019-.7-.263-.498-.282-.48-.244.22zm-1.166-.184c-.075.184-.075.48 0 .645.151.313.151.313.226 0 .056-.166.056-.46 0-.645-.075-.295-.075-.295-.226 0zm-80.182 4.754v3.316h.902c1.26 0 2.2-.294 2.952-.94.808-.7 1.09-1.566.996-3.04-.056-1.031-.15-1.27-.639-1.75-.658-.626-1.56-.884-3.12-.903h-1.091v3.317z" fill="#EC1540"/><path d="M6.178 11.995V23.88h4.888l4.888.018-4.832-.055-4.85-.056-.057-11.847L6.178.111v11.884zM19.94 6.597a7.8 7.8 0 001.315 0c.395-.037.132-.074-.601-.074-.715 0-1.034.037-.715.074zm11.486 0c.32.037.883.037 1.222 0 .32-.037.056-.074-.62-.074-.678 0-.94.037-.602.074zm8.554 0c1.955.037 5.076.037 6.956 0 1.88-.019.301-.037-3.534-.037-3.817 0-5.358.018-3.422.037zm15.322 0c.733.037 1.974.037 2.726 0 .733-.019.132-.056-1.372-.056s-2.106.037-1.354.056zm35.664.092c-.057.129-.075 4.053-.057 8.715l.057 8.476.94.018.94.018-.884-.073-.902-.074V6.67l.902-.073.884-.056-.903-.036c-.564-.019-.92.055-.977.184zm13.969-.092a5.76 5.76 0 001.128 0c.282-.037 0-.074-.621-.074-.62 0-.846.037-.507.074zm7.688 0c.338.037.94.037 1.316 0 .395-.037.132-.074-.602-.074-.714 0-1.034.037-.714.074zm24.347.608c0 .35.038.497.094.313.038-.166.038-.46 0-.645-.056-.166-.094-.018-.094.332zm-65.781 7.738c0 .553.037.793.075.498a4.53 4.53 0 000-1.014c-.038-.276-.075-.036-.075.516zM56.975 16.73c.339.037.94.037 1.316 0 .395-.036.132-.073-.601-.073-.715 0-1.034.037-.715.074zm-14.288 7.186c.339.037.94.037 1.316 0 .395-.037.132-.073-.601-.073-.715 0-1.034.037-.715.073zm11.844 0c.339.037.94.037 1.316 0 .395-.037.132-.073-.601-.073-.715 0-1.034.037-.715.073zm9.025 0c.338.037.94.037 1.316 0 .394-.037.131-.073-.602-.073-.714 0-1.034.037-.714.073zm41.472 0c.282.037.733.037 1.034 0 .282-.037.038-.073-.526-.073-.564 0-.809.037-.508.073z" fill="#ECC1C1"/><path d="M137.402 6.818c.338.129.338.147.019.331-.282.166-.301.203-.057.295.169.056.339-.018.395-.184.15-.369-.019-.608-.414-.59-.263 0-.244.037.057.148z" fill="#fff"/></g><defs><clipPath id="clip0_603_309"><path fill="#fff" d="M0 0h141v30H0z"/></clipPath></defs></svg>