<svg width="60" height="60" fill="none" xmlns="http://www.w3.org/2000/svg"><circle cx="30" cy="30" r="30" fill="#EA4033"/><path d="M23.21 15.036c.76.004 1.517.008 2.278.008l13.336.011c3.294.004 6.592.012 9.886.016.11 0 .194.036.29.095.582.37.796.892.808 1.582.047 3.112.036 6.22.032 9.331-.004 4.266.035 8.535-.036 12.8-.004.246-.04.488-.028.734.032.654-.59 1.229-1.22 1.268-.865.056-1.729.06-2.593.084-.095.003-.123-.028-.123-.12.004-.463.008-.923 0-1.387-.004-.142.075-.123.162-.123.702 0 1.4-.004 2.101.004.14 0 .175-.031.175-.174-.004-7.449-.004-14.901 0-22.35 0-.13-.028-.178-.17-.178-4.888.012-9.776.02-14.664.028-2.973.004-5.946.004-8.915.008-3.889.008-7.781.016-11.67.02-.163 0-.186.051-.186.198-.012 7.409-.028 14.821-.052 22.23 0 .19.06.218.23.218 7.675-.004 15.349-.004 23.027-.008.199 0 .27.04.258.254-.02.4-.008.805-.004 1.21 0 .118-.02.17-.159.17-3.222-.012-6.445-.016-9.668-.024-2.45-.004-4.9-.008-7.353-.02-1.856-.008-3.71-.024-5.57-.04a10.361 10.361 0 01-1.264-.067c-.488-.063-.952-.567-.987-1.063-.072-.975-.068-1.954-.08-2.929 0-.11-.004-.226-.008-.337-.027-.182-.003-.368-.011-.55V24.466c0-.063.02-.13-.02-.194v-1.586c.043-.226.008-.456.02-.682v-4.015c-.012-.1.023-.198-.02-.294v-.118a.31.31 0 000-.238v-.12c.047-.241.02-.483.031-.725.016-.253.084-.483.226-.685.322-.468.75-.738 1.336-.753 1.51-.036 3.02-.036 4.527-.036h5.891c.06.004.123-.008.186.016z" fill="#fff"/><path d="M17.105 15.036v-.032h2.418c.012.008.016.016.012.024 0 .004-.008.008-.012.008h-2.418zm6.104 0h-2.14c-.013-.008-.017-.016-.013-.02.004-.008.008-.012.012-.012h2.14v.032zm-12.205 9.24c.06.052.04.123.04.186v1.4c-.012.016-.028.016-.04 0v-1.586z" fill="#fff"/><path d="M21.067 15v.032h-1.546V15h1.546zM11.004 25.858h.04v1.347c-.012.016-.024.016-.036 0-.004-.448-.004-.896-.004-1.347z" fill="#fff"/><path d="M11.004 27.205h.036v1.23c-.012.015-.024.015-.036 0v-1.23zm.036-7.769v.912c-.012.02-.024.02-.036 0v-.912c.012-.012.02-.016.036 0z" fill="#fff"/><path d="M11.004 20.351h.036v.873c-.012.02-.024.02-.04 0 .004-.294.004-.583.004-.873zm.032 13.831v.872c-.012.016-.024.016-.032 0v-.872c.012-.02.024-.02.032 0zm0-3.766v.793c-.012.016-.024.016-.032 0v-.793c.012-.02.024-.015.032 0zm0 2.18v.793c-.012.016-.024.016-.032 0v-.793c.012-.02.024-.02.032 0z" fill="#fff"/><path d="M11.004 33.39h.032v.792h-.032v-.793zm0-12.166h.04v.792c-.012.02-.024.02-.04 0v-.792zm.032 9.192h-.032v-.753c.012-.016.024-.02.036 0-.004.254-.004.503-.004.753zm0 2.18h-.032v-.713c.012-.02.024-.016.032 0v.713z" fill="#fff"/><path d="M11.004 22.016h.04c-.02.226.047.452-.04.674v-.674zm.032 9.867h-.032v-.674h.032v.674zm0-2.22H11v-.634c.012-.016.024-.02.036 0 .004.214.004.424 0 .634z" fill="#fff"/><path d="M11.04 29.029h-.036v-.595h.036v.595zm-.004 6.897v.555h-.032v-.555c.012-.02.024-.02.032 0zm-.032-.872h.032v.436c-.012.016-.024.016-.032 0v-.436z" fill="#fff"/><path d="M11.004 35.49h.032v.436h-.032v-.436zm.032-17.24v.397c-.012.02-.02.02-.032 0v-.396c.012-.016.02-.016.032 0z" fill="#fff"/><path d="M11.004 18.647h.032v.396c-.012.02-.02.02-.032 0v-.396z" fill="#fff"/><path d="M11.004 19.043h.032v.397H11c.004-.131.004-.266.004-.397zm0-1.347c.083.083.024.182.032.277-.012.02-.02.02-.032 0v-.277z" fill="#fff"/><path d="M11.004 17.973h.032v.278h-.032v-.278zm0-.634c.067.08.06.158 0 .238v-.238zm19.414 8.213c-4.78 0-9.561 0-14.342.004-.198 0-.238-.055-.234-.242.016-.408.008-.82.004-1.228 0-.12.028-.175.155-.159.04.004.079 0 .118 0h28.645c.309 0 .265-.043.27.278.003.384-.008.765.003 1.15.004.154-.035.197-.194.197-.999-.008-1.994-.004-2.993-.004-3.81.004-7.623.004-11.432.004zm.008-4.856c-4.78 0-9.561 0-14.342.004-.186 0-.25-.04-.242-.234.016-.416.008-.832.004-1.248 0-.115.032-.159.147-.143.04.004.08 0 .119 0 9.557 0 19.11 0 28.668-.004.198 0 .274.036.262.254-.02.408-.008.816-.004 1.229 0 .11-.032.158-.147.146-.044-.004-.091 0-.139 0-4.776-.004-9.55-.004-14.326-.004zM37.206 45c-.047-.119-.04-.214-.04-.305-.055-2.002-.035-4-.043-6.002 0-.139.04-.178.175-.174a26.8 26.8 0 001.268 0c.158-.004.178.051.182.19.012.971.032 1.938.052 2.918.087 0 .13-.064.182-.103.575-.464 1.154-.924 1.72-1.396.151-.127.266-.123.42-.024.342.218.65.472.964.726.333.266.658.539 1.019.832v-.226c0-.911.004-1.823-.004-2.735 0-.13.016-.182.166-.178.436.012.872.008 1.308 0 .12 0 .155.027.155.15-.016 1.955.028 3.909-.043 5.863-.005.131.023.317-.072.365-.087.044-.198-.119-.293-.198-1.015-.813-2.006-1.653-3.053-2.426-.364-.27-.241-.274-.606-.004-1.106.816-2.14 1.716-3.23 2.553-.068.055-.144.107-.227.174zM24.363 30.416c-2.767 0-5.534 0-8.3.004-.175 0-.222-.04-.214-.214.015-.42.007-.844.003-1.268 0-.107.024-.163.143-.147.032.004.068 0 .1 0 5.517 0 11.04 0 16.557-.004.194 0 .242.048.234.238-.016.388-.012.78 0 1.17.004.174-.032.23-.222.225-2.022-.008-4.04-.004-6.061-.004h-2.24zm-.006 4.868c-2.759 0-5.522 0-8.28.004-.171 0-.243-.028-.235-.222.016-.408.012-.82.004-1.229-.004-.135.028-.19.17-.178.183.012.37.004.556.004h16.05c.254 0 .254 0 .254.265 0 .389-.008.781.004 1.17.004.162-.052.19-.198.19-2.775-.008-5.55-.004-8.325-.004z" fill="#fff"/><path fill-rule="evenodd" clip-rule="evenodd" d="M38.841 28.84a59.73 59.73 0 01-.324-.029c-.46-.063-.789.27-.991.646-.118.22-.153.46-.19.703l-.008.058a.632.632 0 01-.345.5 6.724 6.724 0 00-.627.376c-.372.258-.491.615-.436 1.05.048.377.226.699.42 1.012.056.09.06.154.009.25l-.048.088c-.128.236-.256.471-.333.732-.167.55-.048.935.412 1.288.152.114.32.205.486.296l.125.069a.643.643 0 01.337.503c.035.262.075.524.178.77a.924.924 0 00.725.598c.362.067.716.019 1.073-.03l.07-.01c.138-.016.245 0 .352.111.162.17.335.325.508.48l.114.103c.15.139.325.214.54.202.392-.024.733-.15 1.002-.444.058-.063.12-.122.183-.18.062-.059.124-.117.182-.18.075-.084.155-.1.262-.088.19.02.38.038.57.056.19.018.381.035.571.055.111.012.179-.031.262-.099.432-.357.666-.804.686-1.367.012-.242.138-.4.36-.496a2.63 2.63 0 00.615-.353c.408-.329.547-.789.396-1.292-.079-.262-.222-.492-.368-.718-.072-.106-.068-.19-.004-.3.146-.258.285-.516.368-.806.159-.546.016-.967-.448-1.3a3.243 3.243 0 00-.55-.305.596.596 0 01-.37-.515c-.02-.21-.043-.42-.106-.623-.155-.507-.492-.777-1.015-.8a10.626 10.626 0 00-.714-.008 1.021 1.021 0 01-.816-.325 2.254 2.254 0 00-.413-.337c-.428-.274-.852-.25-1.244.063-.18.144-.339.31-.495.475l-.088.092c-.071.071-.135.103-.242.091a15.89 15.89 0 00-.63-.062zm2.582 7.578c.333-.242.69-.385 1.098-.293.027 0 .054-.002.08-.003a.505.505 0 01.13.003c.214.047.297-.04.337-.25.099-.555.428-.971.868-1.3l.037-.028c.243-.183.262-.197.13-.511-.207-.492-.187-.968-.005-1.46.131-.36.123-.376-.218-.578-.424-.25-.67-.622-.796-1.086-.1-.38-.103-.38-.504-.389-.02 0-.041 0-.063-.002-.032-.002-.064-.004-.095-.002a1.493 1.493 0 01-1.158-.416.682.682 0 00-.068-.052.526.526 0 01-.086-.07c-.14-.155-.254-.155-.385.02-.285.384-.69.503-1.15.495a2.36 2.36 0 00-.311.02 4.746 4.746 0 01-.16.015c-.163.012-.254.076-.25.258.004.198-.075.373-.174.54-.203.336-.48.594-.813.796-.159.1-.178.21-.107.38.238.563.254 1.126-.04 1.677-.107.198-.095.262.12.345.538.21.832.619.97 1.162.115.444.123.444.573.413l.01-.001c.444-.032.852.055 1.197.36.164.144.246.217.333.223.088.006.181-.055.369-.179.044-.028.087-.055.13-.087z" fill="#fff"/></svg>