<svg width="60" height="60" fill="none" xmlns="http://www.w3.org/2000/svg"><circle cx="30" cy="30" r="30" fill="#EA4033"/><path d="M50.947 40.799c-.15.141-.304.279-.454.42a.204.204 0 01-.154.064c-.707-.013-1.414.035-2.117-.056-.373-.047-.587-.257-.686-.608a.781.781 0 01.236-.836.754.754 0 01.467-.188c.27-.021.54-.056.81-.064.15-.005.18-.06.18-.202.008-3.196.021-6.397.034-9.593.004-1.063 0-2.126.009-3.193 0-.124-.03-.21-.125-.295a2323.922 2323.922 0 01-5.347-4.97.374.374 0 00-.283-.108c-2.12.004-4.242.004-6.359 0-.154 0-.201.03-.201.193.017 5.982.03 11.963.038 17.945 0 .171.052.21.215.214.544.013 1.084.043 1.624.069.458.021.75.325.758.775.009.463-.304.819-.75.853-.92.073-1.842.047-2.76.043-2.656-.005-5.308-.022-7.965-.03-.312 0-.62-.257-.694-.566-.107-.458.069-.848.48-1.088.073-.043.154-.026.227-.026 2.293 0 4.585-.004 6.873.004.189 0 .231-.042.231-.231-.004-7.451-.004-14.907 0-22.358 0-.193-.042-.244-.244-.244-6.538.004-13.077.004-19.616 0-.214 0-.253.06-.253.257-.008 1.992-.025 3.985-.038 5.973-.004.325-.343.694-.66.745-.437.073-.758-.103-1.02-.441-.051-.064-.047-.133-.047-.202a313.79 313.79 0 01-.017-6.658c0-.214.017-.429.038-.643a.725.725 0 01.682-.673c.24-.021.484-.03.724-.047.124-.043.261.022.386-.034h.042c.116.047.236.013.352.021h18.832c.133-.012.27.026.402-.021h.215c.317.043.638.021.955.039.154.008.313.012.471.03.279.03.438.188.506.45.043.158.043.325.06.488.073.904-.004 1.808-.004 2.716v.3c.004.266.021.288.3.288h6.127c.253 0 .497.038.746.055.278.022.462.21.655.382.699.62 1.363 1.28 2.053 1.91.732.67 1.452 1.35 2.18 2.023.6.561 1.2 1.118 1.77 1.71a.541.541 0 01.146.368c.004.086-.026.172.021.253v.043a.45.45 0 000 .3v.085c-.047.1-.012.206-.021.309v2.04c.013.231-.026.467.021.698v.3c-.051.266-.012.536-.021.801-.009.317 0 .639 0 .956v8.441c-.026.27 0 .544-.03.814zM9 34.029c.064-.043.056-.124.094-.184.133-.227.304-.373.592-.382 1.555-.051 3.11-.038 4.666-.047 1.997-.013 3.993 0 5.994-.025.403-.005.562.26.733.518.171.248.154.527 0 .788-.129.219-.304.352-.583.369-.818.056-1.64.051-2.46.051-2.694.009-5.394-.004-8.09.022-.423.004-.655-.193-.877-.48-.022-.026-.026-.069-.069-.073v-.557z" fill="#fff"/><path d="M30.891 15.047H18.98c-.012-.008-.017-.017-.012-.026.004-.008.008-.013.012-.013h11.908c.013.01.017.018.013.026 0 .009-.005.013-.009.013zM50.943 33.43v-1.886c.013-.022.026-.022.043 0v1.885c-.017.017-.03.017-.043 0z" fill="#fff"/><path d="M50.983 31.544h-.043v-1.556c0-.068-.025-.145.043-.201v1.757zM30.89 15.047v-.039h1.372c.013.01.017.018.013.026-.005.009-.009.013-.013.013H30.89zm-11.906-.038v.038c-.373 0-.741 0-1.114-.004-.013-.009-.017-.017-.013-.026.004-.008.009-.013.013-.013.368.005.741.005 1.114.005z" fill="#fff"/><path d="M17.87 15.008v.04h-.986c-.013-.01-.018-.018-.013-.027.004-.008.008-.013.013-.013h.985zm33.07 13.793v-.9c.012-.017.025-.017.038 0v.9c-.009.022-.026.022-.038 0zm.007 9.169v-.856c.013-.021.022-.021.034 0v.857c-.012.017-.02.017-.034 0zm0 2.829v-.814c.013-.022.022-.022.034 0v.814l-.017.008-.017-.008z" fill="#fff"/><path d="M50.981 37.114h-.034V36.3c.013-.021.022-.021.034 0v.814zm-.038-3.684h.039v.813c-.013.017-.026.022-.039 0v-.814z" fill="#fff"/><path d="M50.981 36.3h-.034v-.771c.013-.022.022-.022.034 0v.77zm0 3.68h-.034v-.728c.013-.021.022-.021.034 0v.729zm-.041-11.179h.043v.686c-.09-.223-.021-.458-.042-.686z" fill="#fff"/><path d="M50.981 35.529h-.034v-.686c.013-.021.026-.021.039 0-.005.227-.005.454-.005.686zm.001-7.627h-.039c0-.227 0-.459.005-.686.013-.017.025-.017.038.004-.004.228-.004.455-.004.682zm-.035 10.068h.034v.644c-.012.021-.02.017-.034 0v-.643z" fill="#fff"/><path d="M50.947 38.614h.034v.643h-.034v-.643zm.035-3.771h-.039v-.6h.039v.6zm-16.578-19.8h-.429c-.013-.009-.021-.013-.017-.022.004-.008.009-.013.013-.013h.429c.012.01.017.018.012.022 0 .009-.004.013-.008.013z" fill="#fff"/><path d="M33.976 15.008v.035h-.428c-.013-.009-.022-.017-.018-.022.005-.008.009-.013.013-.013h.433z" fill="#fff"/><path d="M33.546 15.008v.035h-.428c-.013-.009-.022-.017-.017-.022.004-.008.008-.013.013-.013h.432zm-1.284.039v-.039h.428c.013.01.017.018.013.026-.004.009-.009.013-.013.013h-.428z" fill="#fff"/><path d="M32.69 15.047v-.039h.428v.035c-.142 0-.283 0-.428.004zm1.716-.004v-.034h.386c-.12.09-.257.021-.386.034z" fill="#fff"/><path d="M15.17 15.008c-.123.086-.256.03-.385.035v-.034h.386z" fill="#D7D8DA"/><path d="M22.363 46.536a.387.387 0 01.386 0h-.386zm-5.478-31.528v.04h-.343c-.013-.01-.017-.018-.013-.027.004-.008.009-.013.013-.013h.343z" fill="#fff"/><path d="M16.543 15.009v.034H16.2c-.013-.009-.017-.017-.013-.026.004-.008.009-.013.013-.013.111.005.227.005.343.005z" fill="#fff"/><path d="M16.199 15.009v.034h-.343c-.013-.009-.017-.017-.013-.026.005-.008.009-.013.013-.013.112.005.227.005.343.005zm-.647.034c-.116-.013-.236.06-.343-.034h.343c.013.008.017.017.013.025 0 .005-.005.009-.013.009zm27.761 31.493c.115-.068.227-.06.342 0h-.343zm7.637-19.791c.009-.099-.051-.21.034-.3v.3c-.013.021-.025.021-.034 0zm.033-.386c-.064-.099-.077-.201 0-.3v.3z" fill="#fff"/><path d="M15.55 15.043v-.034h.3v.038c-.098-.004-.196-.004-.3-.004zm35.432 12.173c-.013 0-.026 0-.039-.004v-.257c.013-.017.026-.017.039 0v.261z" fill="#fff"/><path d="M50.982 26.959h-.039v-.214h.035c.004.073.004.145.004.214zM18.62 24.607c1.74.008 3.483.008 5.223.085.21.009.415.026.57.193.231.244.394.519.265.866-.133.364-.377.582-.788.604-1.183.06-2.37.064-3.552.077-1.886.026-3.767.004-5.652-.034-.493-.009-.986-.03-1.474-.069a.759.759 0 01-.694-.6c-.086-.394.064-.75.385-.942.146-.086.313-.095.476-.103 1.744-.069 3.492-.069 5.24-.077zm-1.762 4.447h5.287c.36 0 .69.274.759.63.081.42-.056.789-.364.947-.163.086-.343.086-.523.094-1.504.069-3.012.043-4.516.043-1.727.005-3.454-.008-5.18-.017-.27 0-.545-.017-.815-.034-.754-.056-.895-.793-.66-1.221.155-.275.352-.459.72-.454 1.766.02 3.527.012 5.292.012zm-3.548 9.62c.018-.609-.012-1.204.056-1.791.039-.313.137-.575.442-.733.53-.274 1.118 0 1.23.587.064.343.072.694.076 1.045.009.536.009 1.072 0 1.603 0 .141.039.176.176.176.562.004 1.127-.035 1.688.025.403.043.682.373.699.81a.803.803 0 01-.656.831c-.36.073-.724.052-1.088.048-.613-.005-1.226.043-1.838-.047-.463-.07-.669-.296-.737-.776-.073-.596-.026-1.195-.048-1.778z" fill="#fff"/><path fill-rule="evenodd" clip-rule="evenodd" d="M42.903 46.464c.072.006.145.012.199.072h.21a.585.585 0 01.343 0h.257a.1.1 0 00.008-.016c.004-.01.008-.018.013-.018.694-.073 1.299-.364 1.847-.775 1.285-.96 1.92-2.22 1.598-3.831-.3-1.508-1.26-2.507-2.682-3.017-1.401-.5-2.657-.132-3.732.853-1.058.973-1.543 2.168-1.256 3.617.292 1.46 1.65 2.806 3.12 3.106.024.004.05.007.075.009zm.693-1.688c1.246.03 2.142-.9 2.142-2.169 0-1.307-.9-2.194-2.22-2.198-1.29.005-2.138.87-2.13 2.211.014 1.376.832 2.126 2.208 2.156zm-21.699 1.687c.075.009.149.017.21.073.086 0 .172 0 .253-.004a.736.736 0 01.386 0h.172l.012-.016c.009-.011.018-.023.026-.023a3.578 3.578 0 001.757-.728c1.311-.998 2.018-2.284 1.624-3.96-.669-2.831-3.96-4.143-6.209-2.249-1.131.956-1.71 2.164-1.465 3.672.253 1.539 1.615 2.914 3.15 3.223.027.005.056.009.084.012zm-1.534-3.847c.018 1.354.78 2.1 2.199 2.163 1.246.005 2.146-.89 2.155-2.155.009-1.298-.891-2.207-2.198-2.21-1.298-.005-2.173.865-2.155 2.202zm18.399-18.151v4.067l.004.942.004.943.002.395c.001.615.003 1.233.045 1.85.03.429.155.591.579.656.265.038.54.06.81.06 1.375.013 2.755.021 4.13.017h.54c.54.003 1.08.005 1.62-.043.818-.073.904-.176.93-.998.039-1.246.038-2.491.037-3.736 0-.525-.001-1.049.001-1.573a.357.357 0 00-.12-.279c-.951-.942-1.898-1.894-2.845-2.845a.402.402 0 00-.317-.128c-1.58.004-3.166.004-4.751.004-.284 0-.67.385-.67.668zm1.722 3.406a570.414 570.414 0 000 1.202c0 .81.001 1.617-.013 2.428 0 .133.021.18.171.18 1.633-.004 3.27-.004 4.902 0 .15.004.193-.03.193-.184a462.274 462.274 0 010-3.724.337.337 0 00-.107-.261c-.63-.622-1.256-1.247-1.877-1.877a.346.346 0 00-.279-.116h-.7c-.7.002-1.401.002-2.102-.004-.176-.004-.193.056-.193.206a214 214 0 01.005 2.15z" fill="#fff"/></svg>