<svg width="60" height="60" fill="none" xmlns="http://www.w3.org/2000/svg"><circle cx="30" cy="30" r="30" fill="#EA4033"/><path fill-rule="evenodd" clip-rule="evenodd" d="M30.081 11h-.326a1.482 1.482 0 01-.192.05 1.49 1.49 0 00-.163.04 35.36 35.36 0 01-5.03 1.53 34.813 34.813 0 01-6.156.83c-.874.04-1.752.081-2.63.053-.081 0-.163 0-.244.004-.14.008-.213.077-.22.216-.005.082-.005.163-.005.245v12.73c0 .156 0 .234-.04.274-.039.04-.118.041-.278.043-.355.007-.71.007-1.065.007-.568 0-1.137.001-1.707.026-1.074.05-1.98.919-1.984 1.988-.002.403-.007.806-.013 1.21-.009.69-.018 1.382-.008 2.073v4.311c-.01.738 0 1.477.011 2.216l.014 1.107v.039c.004.265.007.532.163.77.27.407.6.75 1.029.995.11.066.232.106.363.123.4.045.8.065 1.2.07 1.535.011 3.074.007 4.61 0 .228 0 .387.069.502.264.049.088.108.168.168.247l.089.121a16.964 16.964 0 003.225 3.462c1.054.861 2.235 1.52 3.418 2.18l.052.029c1.217.677 2.441 1.343 3.666 2.004.12.066.24.134.359.202.346.198.692.395 1.066.541h.082c.046-.022.095-.037.143-.052.061-.02.122-.038.179-.07a125.34 125.34 0 011.898-1.041l.731-.397a142.377 142.377 0 003.703-2.07c1.429-.836 2.682-1.894 3.792-3.122a16.97 16.97 0 003.989-7.744c.176-.805.33-1.618.335-2.442.001-.584.007-1.168.013-1.753.01-.918.019-1.836.011-2.754a69.16 69.16 0 010-.911V13.596c-.045-.093-.128-.09-.207-.086h-.042c-.914-.016-1.833-.044-2.747-.077-.935-.033-1.87-.082-2.8-.204a36.965 36.965 0 01-7.292-1.706 10.116 10.116 0 01-.466-.177c-.386-.152-.773-.305-1.196-.346zm-8.21 29.782a2.894 2.894 0 00-.473-.445l-.001.009a.473.473 0 01-.002.01c-.003.02-.005.032.007.038l.005.008.012.02c.015.024.03.05.049.074.906 1.257 1.996 2.33 3.294 3.16 1.456.929 2.982 1.738 4.51 2.547l.003.002.488.26c.184.097.33.093.51 0 1.018-.53 2.018-1.087 3.02-1.645l.516-.287c1.098-.608 2.135-1.29 3.066-2.139 2.012-1.833 3.241-4.103 3.829-6.74.22-.98.232-1.98.244-2.977l.001-.11c.026-2.016.025-4.03.024-6.044v-2.324l.002-.234c.002-.195.003-.388-.006-.583-.004-.139.045-.171.176-.167.298.012.6.016.898 0 .18-.012.22.04.22.22-.003 1.083-.004 2.167-.005 3.25-.002 2.168-.004 4.337-.031 6.503-.025 1.947-.453 3.793-1.237 5.565-1.213 2.739-3.131 4.866-5.691 6.397-1.38.825-2.8 1.579-4.22 2.333h-.002l-.002.002-.753.4c-.224.119-.392.11-.612-.008-.712-.38-1.42-.768-2.127-1.155a202.6 202.6 0 00-2.127-1.156 14.674 14.674 0 01-4.189-3.331c-.506-.576-1-1.164-1.383-1.837l-.006-.01c-.03-.058-.064-.121-.137-.125-.066-.004-.09.057-.102.11-.09.376-.327.666-.58.943-.066.074-.07.127-.012.209 1.281 1.873 2.85 3.457 4.817 4.617 1.293.764 2.61 1.479 3.928 2.194.696.378 1.393.756 2.085 1.141.102.057.176.057.278 0l.928-.51c1.576-.865 3.15-1.73 4.714-2.617a14.997 14.997 0 005.07-4.662c1.776-2.613 2.634-5.495 2.65-8.663.018-3.746.02-7.491.022-11.237 0-2.247.002-4.495.006-6.742 0-.147-.049-.18-.183-.184-1.192-.049-2.38-.102-3.564-.22a38.324 38.324 0 01-5.687-1.017c-.851-.218-1.685-.492-2.52-.767a86.154 86.154 0 00-1.15-.372 1.403 1.403 0 00-.915.004c-1.16.404-2.323.792-3.51 1.106a35.78 35.78 0 01-5.198.988c-1.188.134-2.382.192-3.575.25l-.576.028c-.152.008-.188.045-.188.196.006.82.005 1.644.004 2.465v.001a747.72 747.72 0 000 2.533c0 2.281.001 4.56-.008 6.836 0 .151.032.2.187.192.298-.016.6-.016.899 0 .18.012.204-.05.204-.212-.004-3.21-.004-6.422-.004-9.63v-.236c0-.235.002-.468-.005-.704-.004-.126.03-.16.156-.167.543-.029 1.086-.07 1.629-.115a39.985 39.985 0 003.878-.51 37.449 37.449 0 005.989-1.6c.42-.147.784-.143 1.204.008 3.67 1.319 7.463 2.025 11.354 2.209.208.012.269.09.269.277 0 .51 0 1.02.008 1.531.004.114-.037.135-.139.13a9.32 9.32 0 00-.385-.003h-.288c-.048-.002-.1.005-.152.01-.118.014-.235.028-.297-.043-.07-.081-.044-.266-.024-.41l.003-.023c.033-.216-.07-.257-.257-.27a42.096 42.096 0 01-3.78-.465c-2.078-.355-4.124-.853-6.112-1.543-.547-.188-1.049-.265-1.576.004a.286.286 0 01-.058.02 40.005 40.005 0 01-5.796 1.465 49.218 49.218 0 01-4.086.516c-.196.016-.253.07-.253.273.008 3.29.008 6.585.008 9.876l-.003.05c-.004.063-.008.128.044.182.302.335.502.723.608 1.16.024.106.098.147.2.126.665-.138 1.274-.404 1.719-.934.424-.51.616-1.11.62-1.789.005-.855.026-1.709.046-2.562.01-.425.02-.85.027-1.275v-.022c0-.059 0-.12.025-.178.192-.445.408-.874.747-1.229.747-.78 1.637-1.176 2.719-.894 1.143.298 1.8 1.127 2.22 2.18.013.034.012.07.01.106v.037c.011.8.025 1.597.038 2.395v.006l.039 2.355c.004.249.122.408.367.47.065.016.135.028.2.032l.132.008c.167.01.333.02.5.02.47.005.939.008 1.407.011h.001a232.99 232.99 0 012.602.025c.338.002.678.004 1.008.079 1.192.27 2.723 1.645 2.731 3.368l.009 1.333v.002c.013 1.96.026 3.924-.02 5.887l-.002.048a2.946 2.946 0 01-.06.662 3.397 3.397 0 01-.796 1.474c-.71.784-1.556 1.286-2.654 1.253-.213-.005-.427.003-.64.01-.134.005-.267.01-.4.01-1.836.02-3.672.008-5.508-.004-1.136-.008-2.272-.016-3.409-.016a.703.703 0 01-.273-.06c-.56-.225-1.025-.577-1.433-1.017zm5.59-.191h-.001c-.907 0-1.814.001-2.723-.001-.25 0-.498-.014-.747-.028l-.253-.013a.797.797 0 01-.503-.196l-.028-.024c-.17-.147-.343-.296-.482-.474-.649-.813-1.506-1.168-2.531-1.18-.04 0-.085.004-.13.008-.131.012-.268.024-.335-.061-.056-.07-.047-.194-.037-.318a1.69 1.69 0 00.008-.14v-1.52c.001-2.03.002-4.06-.008-6.089 0-.204.07-.261.249-.294 1.416-.261 2.482-1.012 3.164-2.29.31-.576.424-1.2.433-1.846l.015-.98c.01-.652.02-1.306.034-1.959.004-.253.008-.506.044-.751.078-.494.396-.825.825-1.016.474-.217 1.429-.23 1.94.375.207.245.354.498.354.85 0 1.114.026 2.229.052 3.347l.01.428c.008.388.024.776.114 1.156.037.147.086.286.18.404.457.584 1.004.972 1.8.988h.02c1.263.02 2.53.04 3.793.073.47.013.939.025 1.404.078.8.094 1.478.768 1.58 1.572.053.424.078.853.078 1.282v1.455c.001 1.454.002 2.908-.004 4.362 0 .453-.017.91-.115 1.36-.142.636-.849 1.282-1.494 1.367-.663.09-1.33.09-1.997.09h-.387c-.66.005-1.322.004-1.984.002l-.996-.002c.016-.004.016-.012.016-.016h-1.358zm-9.057-6.08l.001 1.502c0 1.002.002 2.005 0 3.009 0 .29-.015.578-.03.867l-.008.174c-.016.38-.102.482-.486.51a13.4 13.4 0 01-1.081.033c-1.543.008-3.087.016-4.63-.012a3.628 3.628 0 01-.424-.037c-.241-.033-.331-.127-.356-.372-.06-.64-.057-1.283-.054-1.925l.001-.418-.002-.692c-.008-2.537-.015-5.074.015-7.611.004-.245.02-.49.04-.735.02-.253.123-.347.372-.38.364-.05.728-.048 1.093-.046l.23.001c1.102-.003 2.204 0 3.306.005.368 0 .735.002 1.103.003.14 0 .279.014.42.028l.09.009c.204.016.33.127.347.33.024.27.049.544.049.813.004 1.645.004 3.29.004 4.94l-.003.004h.003zm-3.527 4.813h-.526c-.526-.001-1.05-.002-1.576.004-.135 0-.171-.04-.167-.171.008-.327.008-.653 0-.98-.005-.114.028-.151.147-.151 1.408.004 2.816.004 4.22 0 .12 0 .152.04.148.151-.004.327-.008.653 0 .98.004.135-.037.167-.172.167-.46-.003-.919-.002-1.38 0h-.694z" fill="#fff"/><path d="M44.809 13.576c.016 0 .032-.004.049-.004v10.406c-.013.017-.025.02-.033 0a4.885 4.885 0 01-.008-.245v-9.932c0-.074-.004-.147-.008-.225zM10.033 33.45v1.755c-.013.016-.025.016-.033 0V33.45c.012-.02.024-.017.033 0zm34.791-6.94v-1.39c.013-.02.02-.02.033 0v1.388c-.012.02-.025.02-.033 0z" fill="#fff"/><path d="M44.824 26.51h.033v1.387c-.012.02-.025.017-.033 0V26.51zm.033-1.389h-.033v-1.143h.033v1.143zM10.033 33.45H10v-1.144a.045.045 0 01.033 0v1.144zm0 3.225H10v-.858c.012-.02.024-.016.033 0v.858z" fill="#fff"/><path d="M10.033 35.817H10v-.612h.033v.612zm34.791-7.92h.033v.327h-.033v-.327zm-2.574-6.609c0 .171-.005.339 0 .51.003.102-.021.143-.136.139a21.174 21.174 0 00-1.02 0c-.11.004-.139-.037-.139-.143.004-.339.004-.678 0-1.02 0-.107.029-.143.139-.14.339.009.678.009 1.02 0 .115-.003.14.041.135.143-.008.168 0 .34 0 .51z" fill="#fff"/></svg>