<svg width="60" height="60" fill="none" xmlns="http://www.w3.org/2000/svg"><circle cx="30" cy="30" r="30" fill="#EA4033"/><path fill-rule="evenodd" clip-rule="evenodd" d="M37.125 7.428c.333-.677.3-.902-.204-1.417-.29 0-.59 0-.87-.011-.29.129-.43.386-.558.655a1157.9 1157.9 0 01-1.33 2.66 662.293 662.293 0 00-2.321 4.664c-.15.311-.344.45-.71.44a48.773 48.773 0 00-2.802 0c-.462.021-.72-.129-.923-.559a941.651 941.651 0 00-3.651-7.323c-.13-.247-.258-.473-.548-.537h-.806c-.504.419-.58.73-.279 1.32l1.68 3.373c.562 1.124 1.123 2.25 1.681 3.372.016.03.034.06.053.092.06.1.125.209.108.348h-4.67c-.205 0-.409.01-.602.053-2.212.462-3.576 2.105-3.576 4.371v23.7c0 .58.086 1.138.29 1.686.515 1.428 2.18 2.696 3.855 2.685 4.303-.04 8.607-.033 12.91-.026a3254.77 3254.77 0 004.938.006c.1.002.203.004.3-.012 1.836-.323 3.383-2.127 3.383-3.995.01-8.119.01-16.226 0-24.345 0-1.922-1.493-3.662-3.383-4.027-.61-.117-1.225-.104-1.838-.09a18.67 18.67 0 01-.846.005c-.616-.008-1.226-.005-1.838-.003l-.922.002c-.016-.133.037-.22.088-.304.018-.03.037-.061.051-.093 1.106-2.223 2.223-4.456 3.34-6.69zm-6.613 9.411c.1-.202.204-.41.31-.627-3.35 0-6.657 0-9.975.022-.57 0-1.064.247-1.482.622-.666.58-.892 1.321-.892 2.18V41.77l-.001.29c-.002.29-.004.58.012.87.097 1.385 1.17 2.438 2.545 2.438 5.735.01 11.458.01 17.193 0 1.396 0 2.545-1.16 2.545-2.524V18.746c0-1.385-1.139-2.512-2.524-2.523-.87-.005-1.74-.005-2.61-.005-.87 0-1.739 0-2.609-.006-.247 0-.354.086-.45.29a44.402 44.402 0 01-.946 1.89c-.129.236-.096.387.065.602.655.826.665 2.03.075 2.92-.59.892-1.686 1.332-2.685 1.085-1.374-.344-2.148-1.482-1.976-2.91.15-1.224 1.267-2.159 2.588-2.148.194 0 .29-.032.376-.204.142-.298.289-.591.441-.898z" fill="#fff"/><path d="M29.642 28.197h-8.516c-.355 0-.623-.14-.806-.43a.76.76 0 01.033-.87c.204-.311.504-.408.859-.397 1.686.01 3.372 0 5.058 0h11.77c.654 0 1.052.365 1.009.923-.033.473-.376.774-.892.774h-8.515zm.01 12.027h8.44c.505 0 .817.204.935.59.172.602-.226 1.106-.892 1.106H21.223c-.752 0-1.203-.6-.913-1.202.172-.365.473-.494.881-.494 2.405.01 4.822 0 7.227 0h1.235zm-5.144-6.143c.29-1.17.569-2.266.837-3.36.14-.56.57-.87 1.042-.753.505.119.752.591.601 1.16L25.345 37.7c-.128.516-.418.773-.87.773-.44 0-.708-.236-.837-.751-.558-2.202-1.117-4.403-1.665-6.615-.14-.57.097-1.042.559-1.16.537-.14.956.14 1.106.752.258 1.01.494 2.018.752 3.017.032.097.064.183.118.365zm4.296.139v-3.37c0-.57.322-.913.837-.913.505 0 .86.365.86.902 0 2.245.01 4.5 0 6.744 0 .537-.366.891-.87.891-.494-.01-.827-.343-.827-.88-.011-1.117 0-2.245 0-3.372z" fill="#fff"/><path fill-rule="evenodd" clip-rule="evenodd" d="M32.219 30.989v6.378c0 .15 0 .301.032.44a.825.825 0 001.203.58c.354-.171.462-.493.462-.859v-1.89c0-.293 0-.438.072-.51.07-.07.21-.07.486-.07a5.5 5.5 0 00.601-.032c1.15-.107 2.137-1.084 2.245-2.201.118-1.31-.634-2.47-1.837-2.792-.498-.132-1.01-.114-1.522-.096-.238.008-.476.017-.711.01-.752-.01-1.031.28-1.031 1.042zm1.697 1.482c0 .988 0 .988.924.88.504-.054.816-.419.794-.913-.021-.45-.386-.784-.87-.794-.848-.033-.848-.033-.848.827z" fill="#fff"/></svg>