<svg width="60" height="60" fill="none" xmlns="http://www.w3.org/2000/svg"><circle cx="30" cy="30" r="30" fill="#EA4033"/><path fill-rule="evenodd" clip-rule="evenodd" d="M15.677 18h2.938l.969.001c.644.002 1.286.004 1.933-.002.291 0 .397.106.468.362.723 2.673 1.464 5.346 2.205 8.019 1.28 4.623 2.567 9.236 3.864 13.86.062.228.018.325-.177.467-1.526 1.05-2.337 2.487-2.117 4.366.203 1.694 1.888 3.82 4.332 3.83 1.808.008 3.114-.892 3.996-2.436.38-.652.53-1.376.53-2.135 0-.194.026-.37.282-.44 2.17-.583 4.34-1.183 6.509-1.782h.001a128.01 128.01 0 002.973-.865c.353-.106.6-.565.494-.891a.77.77 0 00-.882-.503l-.1.023c-.47.107-.948.216-1.418.347-2.69.733-5.39 1.474-8.08 2.224-.203.053-.291.008-.388-.16-.362-.652-.91-1.146-1.518-1.57-.802-.564-1.711-.688-2.646-.723-.177-.009-.274-.026-.335-.247a845.622 845.622 0 00-1.715-6.214l-.526-1.893c-.659-2.367-1.316-4.733-1.972-7.1-.839-3.022-1.677-6.043-2.519-9.062l-.124-.45c-.238-.866-.477-1.734-.793-2.576-.141-.361-.503-.529-.847-.414-.397.132-.582.44-.503.829.238 1.085.53 2.152.838 3.22.08.273.027.335-.247.344-.983.047-1.968.045-2.954.042a91.552 91.552 0 00-2.03.01l-.098.005c-.168.006-.33.012-.493.049-.38.097-.565.37-.52.794.035.361.343.67.67.67zm14.608 23.553c-1.658-.079-3.105 1.13-2.999 2.912-.123 1.817 1.464 2.92 2.823 2.91 1.738 0 2.973-1.199 2.973-2.901 0-1.685-1.173-2.841-2.797-2.92z" fill="#fff"/><path fill-rule="evenodd" clip-rule="evenodd" d="M47.646 36.022c.185-.08.353-.185.353-.45a8.343 8.343 0 01-.044-.212c-.028-.138-.057-.284-.097-.423l-.274-1.01c-1.17-4.312-2.34-8.623-3.6-12.91-.132-.46-.511-.671-.97-.548L32.2 23.486c-.945.258-1.884.539-2.822.82l-.654.195c-.397.114-.512.353-.424.75l.096.417c.09.393.18.787.284 1.17a1438.03 1438.03 0 002.426 8.805c.083.297.165.596.246.895.282 1.032.565 2.069.927 3.075.168.476.432.608.918.485l.48-.12c.36-.09.718-.18 1.072-.277 3.644-1.006 7.278-2.011 10.913-3.026l.164-.045c.617-.17 1.237-.34 1.82-.608zm-1.59-1.087c.087-.017.19-.036.161-.218l-.053-.203a37.551 37.551 0 00-.238-.883l-1.069-3.87-.002-.01v-.002l-.002-.005a7904.07 7904.07 0 00-1.596-5.77l-.41-1.476c-.061-.23-.123-.397-.44-.282a7.353 7.353 0 01-.85.243c-.155.038-.31.075-.465.119l-5.328 1.482h-.002l-5.327 1.482c-.476.123-.476.132-.344.608l1.8 6.511c.511 1.808 1.023 3.626 1.526 5.434l.004.015c.06.204.1.344.402.241.29-.099.59-.167.891-.235.21-.047.42-.095.626-.153a1267.19 1267.19 0 007.543-2.09c1.04-.292 2.082-.61 3.122-.927a.528.528 0 01.051-.011zm-9.224-4.012a104.3 104.3 0 00-.477-1.694c.953.22.953.22 1.465-.511a.892.892 0 00.68.273c.303-.007.465-.207.64-.422.044-.053.088-.108.136-.16.05.166.095.326.14.481a363.267 363.267 0 001.007 3.426c.096.327.529.557.829.468.396-.114.635-.485.564-.855a22.198 22.198 0 00-.437-1.71 49.261 49.261 0 01-.216-.778l-.17-.656v-.001l-.002-.002-.207-.797c.15.053.238.088.326.124.345.132.697.017.91-.3.21-.318.184-.618-.124-.9a23.763 23.763 0 00-2.144-1.747c-.37-.264-.732-.185-.988.194-.08.124-.141.247-.194.38a33.982 33.982 0 00-.9 2.47 25.1 25.1 0 00-.168-.125c-.075-.055-.145-.106-.211-.157l-.429-.337h-.001v-.001c-.507-.398-1.01-.794-1.52-1.18-.37-.273-.82-.167-1.015.247-.405.865-.75 1.756-.996 2.682-.071.273-.036.494.185.68.23.193.476.246.767.158.248-.073.363-.266.485-.47.026-.043.052-.087.08-.13l.035.12.053.189c.177.604.35 1.21.525 1.817.174.607.349 1.213.525 1.818.097.335.53.582.82.502.441-.132.68-.476.6-.882a17.801 17.801 0 00-.39-1.55c-.062-.222-.125-.443-.183-.664zm-1.51 4.517c-.062-.344.177-.494.459-.609.538-.226 1.104-.379 1.667-.53l.415-.114c.479-.132.956-.27 1.433-.41 1.017-.295 2.033-.59 3.066-.825.15-.035.3-.07.45-.08a.69.69 0 01.706.521c.08.344-.053.688-.38.82-.379.16-.767.292-1.164.406-1.782.494-3.564.989-5.337 1.474-.124.035-.247.07-.38.105-.529.15-.996-.264-.935-.758z" fill="#fff"/></svg>