<svg width="60" height="60" fill="none" xmlns="http://www.w3.org/2000/svg"><circle cx="30" cy="30" r="30" fill="#EA4033"/><path fill-rule="evenodd" clip-rule="evenodd" d="M47.854 20.129v18.456c-.083.114-.205.171-.325.228a119.29 119.29 0 00-1.63.839l-.98.509c-.83.427-1.66.857-2.49 1.288h-.001l-.001.001h-.001l-.001.001c-.594.308-1.187.616-1.78.922-.997.513-1.989 1.028-2.981 1.544a437.175 437.175 0 01-6.175 3.14l-.04.02c-.146.072-.291.144-.455.173-.204.003-.377-.087-.547-.175a3.927 3.927 0 00-.146-.074l-1.108-.526c-.738-.35-1.476-.7-2.21-1.053l-1.207-.58h-.002c-.803-.386-1.606-.771-2.41-1.16-.923-.45-1.845-.894-2.765-1.336l-.001-.001-1.16-.559a437.06 437.06 0 00-2.927-1.408c-.367-.175-.733-.352-1.1-.53a91.657 91.657 0 00-2.059-.978c-.192-.09-.316-.196-.302-.423a.402.402 0 00-.007-.086.518.518 0 01-.007-.075c.003-.282-.004-.565-.01-.848-.008-.327-.016-.654-.008-.98v-7.195c0-.014 0-.029.002-.043.003-.044.007-.089-.02-.132v-8.892a.717.717 0 01.276-.173l.058-.026c.854-.391 1.705-.788 2.557-1.184a727.67 727.67 0 011.715-.797c.591-.272 1.18-.547 1.77-.822h.001l.002-.001 1.051-.49c.637-.295 1.273-.59 1.909-.887a1233.7 1233.7 0 011.908-.888c.939-.437 1.878-.875 2.817-1.316l1.686-.78c.563-.261 1.124-.522 1.686-.781a.68.68 0 01.133-.04l.038-.01c.133-.01.251.046.365.1l.022.01c.4.191.802.38 1.204.57l.82.387 1.385.654a1209.972 1209.972 0 015.978 2.827c.79.375 1.58.75 2.369 1.122.483.227.964.455 1.444.686a577.14 577.14 0 003.354 1.59l.036.015c.099.04.197.081.27.167zM29.952 45.244l-.524-.253-.006-.003c-.742-.358-1.467-.709-2.195-1.057l-6.297-3.03-6.297-3.03c-.086-.043-.14-.079-.14-.193 0-1.862-.006-3.724-.013-5.587a897.045 897.045 0 010-9.58c.002-.253.014-.508.025-.761l.014-.305c.003-.157.06-.182.21-.118.551.244 1.104.487 1.657.73.745.327 1.49.654 2.234.985a4763.4 4763.4 0 015.164 2.292h.002l.001.001c1.986.882 3.97 1.764 5.959 2.644.181.078.23.17.23.362-.01 5.57-.013 11.14-.017 16.714-.007.054-.007.103-.007.189zm6.762-18.414v-1.245c-.072-.029-.111-.006-.148.014l-.027.014-1.646.793-.004.002h-.001c-1.1.53-2.2 1.059-3.3 1.585-.1.05-.117.11-.117.206-.01 5.666-.025 11.332-.04 16.999 0 .149.025.174.16.1.859-.47 1.73-.91 2.602-1.348l.692-.35a6912.89 6912.89 0 0111.4-5.769c.1-.05.146-.1.146-.224-.005-3.636-.006-7.271-.008-10.907 0-1.817-.002-3.634-.003-5.45 0-.11 0-.165-.025-.181-.026-.017-.078.007-.184.056l-1.252.578-.006.002c-1.033.478-2.066.955-3.103 1.426-.153.07-.2.15-.2.313a2781.45 2781.45 0 01-.067 7.697c0 .103 0 .181-.12.242a963.411 963.411 0 00-4.543 2.283c-.128.064-.16.043-.16-.096-.003-.26-.01-.522-.015-.782a53.163 53.163 0 01-.017-.978c-.007-1.662-.01-3.319-.014-4.98zm-20.911-6.37l.68-.305c.457-.205.908-.408 1.361-.606l1.245-.544c.705-.308 1.41-.615 2.113-.929a.618.618 0 01.537-.003c2.284.985 4.553 1.992 6.826 3.002l.212.094c2.185.968 4.372 1.937 6.539 2.943.11.054.22.107.341.168a.505.505 0 01-.176.132 262.611 262.611 0 00-4.736 2.447c-.096.05-.167.02-.249-.015l-4.224-1.828-.008-.003a15137.6 15137.6 0 00-4.233-1.833l-3.373-1.468-2.592-1.128a2.202 2.202 0 01-.177-.082l-.086-.043zM26.3 15.618l-.154.07.03.02c.021.012.039.023.056.03l.32.15c.675.312 1.349.625 2.027.932l4.035 1.824c2.69 1.217 5.38 2.433 8.066 3.65.11.05.188.025.28-.022.95-.477 1.902-.953 2.853-1.428l.95-.474.03-.014c.034-.014.07-.029.08-.075a1889.619 1889.619 0 00-6.175-2.842c-.965-.443-1.93-.886-2.897-1.328-1.67-.764-3.338-1.528-5.006-2.297a.614.614 0 00-.551-.007c-.8.336-1.585.707-2.37 1.077-.353.166-.705.332-1.059.495-.17.08-.34.158-.515.239z" fill="#fff"/></svg>