<svg width="60" height="60" fill="none" xmlns="http://www.w3.org/2000/svg"><circle cx="30" cy="30" r="30" fill="#EA4033"/><path d="M31.434 24.878l2.45 1.609c2.041 1.34 3.062 2.009 3.416 2.856a3 3 0 010 2.314c-.354.847-1.374 1.517-3.415 2.856h0l-2.451 1.609c-2.418 1.586-3.627 2.38-4.628 2.315a3 3 0 01-2.203-1.19C24 36.448 24 35 24 32.11v-3.22c0-2.891 0-4.337.604-5.139a3 3 0 012.202-1.189c1.001-.064 2.21.729 4.628 2.315z" stroke="#fff" stroke-width="1.5"/><rect x="12.75" y="17.75" width="35.5" height="25.5" rx="2.25" stroke="#fff" stroke-width="1.5"/></svg>