<svg width="387" height="370" fill="none" xmlns="http://www.w3.org/2000/svg"><path fill-rule="evenodd" clip-rule="evenodd" d="M0 0v370h137.103V238.898l-3.909-9.712L246.494 370H387V0H250.383l-1 143.241L137 0H0z" fill="#EA4033"/><path fill-rule="evenodd" clip-rule="evenodd" d="M159.988 57.091l1.68 2.167 1.68 2.167-5.581 4.327-6.869 5.325 1.704 2.198 1.948 2.514 6.869-5.325 5.582-4.327 1.474 1.903 1.475 1.902 4.937-3.827-4.981-6.425-4.98-6.426-4.938 3.827zm-37.072-40.523l-8.915 6.91 2.158 2.785 2.159 2.784 6.294-4.937 1.275-1.62-3.615 11.658 2.144 2.766 2.425 3.129 6.791-5.265c3.448-2.547 7.123-5.521 8.226-6.376l2.371-1.838-2.119-2.733-2.254-2.908-7.113 5.514s.503-1.854 1.284-4.935l1.678-5.933-2.158-2.785L131.389 10l-8.473 6.568zm22.98 23.674l-5.16 4 4.111 5.303 4.11 5.303-1.158.898-.913.708.727-1.142-3.971-5.122-3.971-5.122-2.686 2.082-2.895 2.244 5.949 7.674 6.433 8.299 5.532-4.289 5.416-4.197-4.161-5.368-3.905-5.037 1.248-.939 1.248-.94-.462.846-.461.845 3.735 4.819 3.831 4.942 2.6-2.016 2.766-2.144-6.126-7.904-6.255-8.07-5.582 4.327zm-9.196-5.214l-8.608 6.629 2.144 2.766 2.145 2.766 8.635-6.593 8.752-6.885-2.144-2.767-2.123-2.739-8.801 6.823zm73.288 89.063l1.68 2.167 1.68 2.167-5.581 4.327-6.869 5.325 1.704 2.198 1.948 2.514 6.869-5.325 5.582-4.327 1.474 1.903 1.475 1.902 4.937-3.827-4.981-6.426-4.98-6.425-4.938 3.827zm-37.072-40.523l-8.915 6.91 2.158 2.785 2.159 2.784 6.294-4.937 1.275-1.62-3.615 11.658 2.144 2.766 2.425 3.129 6.791-5.265c3.448-2.547 7.123-5.521 8.226-6.376l2.371-1.838-2.119-2.733-2.254-2.908-7.113 5.514s.503-1.854 1.284-4.935l1.678-5.933-2.158-2.785L181.389 77l-8.473 6.568zm22.98 23.674l-5.16 4 4.111 5.303 4.11 5.303-1.158.898-.913.708.727-1.142-3.971-5.122-3.971-5.122-2.686 2.082-2.895 2.244 5.949 7.674 6.433 8.299 5.532-4.289 5.416-4.197-4.161-5.368-3.905-5.037 1.248-.939 1.248-.939-.462.845-.461.845 3.735 4.818 3.831 4.943 2.6-2.016 2.766-2.144-6.126-7.904-6.255-8.069-5.582 4.326zm-9.196-5.214l-8.608 6.628 2.144 2.767 2.145 2.766 8.635-6.593 8.752-6.885-2.144-2.767-2.123-2.739-8.801 6.823zm4.288 161.063l1.68 2.167 1.68 2.167-5.581 4.327-6.869 5.325 1.704 2.198 1.948 2.514 6.869-5.325 5.582-4.327 1.474 1.903 1.475 1.902 4.937-3.827-4.981-6.426-4.98-6.425-4.938 3.827zm-37.072-40.523l-8.915 6.91 2.158 2.785 2.159 2.784 6.294-4.937 1.275-1.621-3.615 11.659 2.144 2.766 2.425 3.129 6.791-5.265c3.448-2.547 7.123-5.521 8.226-6.376l2.371-1.838-2.119-2.733-2.254-2.908-7.113 5.514s.503-1.854 1.284-4.935l1.678-5.933-2.158-2.785-2.158-2.784-8.473 6.568zm22.98 23.674l-5.16 4 4.111 5.303 4.11 5.303-1.158.898-.913.708.727-1.142-3.971-5.122-3.971-5.122-2.686 2.082-2.895 2.244 5.949 7.674 6.433 8.299 5.532-4.289 5.416-4.197-4.161-5.368-3.905-5.037 1.248-.939 1.248-.939-.462.845-.461.845 3.735 4.818 3.831 4.943 2.6-2.016 2.766-2.144-6.126-7.904-6.255-8.069-5.582 4.326zm-9.196-5.214l-8.608 6.628 2.144 2.767 2.145 2.766 8.635-6.593 8.752-6.885-2.144-2.767-2.123-2.739-8.801 6.823zm78.288 92.063l1.68 2.167 1.68 2.167-5.581 4.327-6.869 5.325 1.704 2.198 1.948 2.514 6.869-5.325 5.582-4.327 1.474 1.903 1.475 1.902 4.937-3.827-4.981-6.426-4.98-6.425-4.938 3.827zm-37.072-40.523l-8.915 6.91 2.158 2.785 2.159 2.784 6.294-4.937 1.275-1.621-3.615 11.659 2.144 2.766 2.425 3.129 6.791-5.265c3.448-2.547 7.123-5.521 8.226-6.376l2.371-1.838-2.119-2.733-2.254-2.908-7.113 5.514s.503-1.854 1.284-4.935l1.678-5.933-2.158-2.785-2.158-2.784-8.473 6.568zm22.98 23.674l-5.16 4 4.111 5.303 4.11 5.303-1.158.898-.913.708.727-1.142-3.971-5.122-3.971-5.122-2.686 2.082-2.895 2.244 5.949 7.674 6.433 8.299 5.532-4.289 5.416-4.197-4.161-5.368-3.905-5.037 1.248-.939 1.248-.939-.462.845-.461.845 3.735 4.818 3.831 4.943 2.6-2.016 2.766-2.144-6.126-7.904-6.255-8.069-5.582 4.326zm-9.196-5.214l-8.608 6.628 2.144 2.767 2.145 2.766 8.635-6.593 8.752-6.885-2.144-2.767-2.123-2.739-8.801 6.823z" fill="#fff"/></svg>