<svg width="245" height="316" viewBox="0 0 245 316" fill="none" xmlns="http://www.w3.org/2000/svg">
<path d="M3.90957 0H245V165.469H3.90957V0Z" fill="#EA4033"/>
<path fill-rule="evenodd" clip-rule="evenodd" d="M46.9149 156.245L71.5192 156.349L98.1738 156.245V103.346L93.105 91.0627L145.332 156.245L173.012 156.349L200.691 156.245V9.12033H148.407V65.0671L152.985 76.4415C152.985 76.4415 139.043 59.8097 124.811 42.2024L99.1989 9.12033H46.9149V156.245Z" fill="white"/>
<path d="M15.4893 316C12.5194 316 9.61801 315.615 6.78515 314.845C3.95229 314.075 1.69058 313.101 0 311.923L3.28977 305.467C4.93465 306.554 6.89938 307.438 9.18394 308.117C11.5142 308.751 13.7988 309.069 16.0376 309.069C21.155 309.069 23.7138 307.732 23.7138 305.059C23.7138 303.791 23.0512 302.907 21.7262 302.409C20.4468 301.911 18.3679 301.435 15.4893 300.982C12.4737 300.529 10.0064 300.008 8.08735 299.419C6.21401 298.83 4.56912 297.811 3.1527 296.361C1.78196 294.866 1.09659 292.804 1.09659 290.177C1.09659 286.734 2.53586 283.993 5.41441 281.954C8.33865 279.87 12.2681 278.828 17.2028 278.828C19.7158 278.828 22.2288 279.123 24.7418 279.712C27.2548 280.255 29.3109 281.003 30.9101 281.954L27.6204 288.41C24.5134 286.598 21.018 285.692 17.1342 285.692C14.6212 285.692 12.7022 286.077 11.3771 286.847C10.0978 287.572 9.45809 288.546 9.45809 289.769C9.45809 291.128 10.1435 292.102 11.5142 292.691C12.9306 293.235 15.101 293.756 18.0252 294.254C20.9494 294.707 23.3482 295.228 25.2216 295.817C27.0949 296.406 28.6941 297.403 30.0191 298.807C31.3899 300.212 32.0753 302.205 32.0753 304.787C32.0753 308.185 30.5903 310.903 27.6204 312.942C24.6504 314.981 20.6068 316 15.4893 316Z" fill="black"/>
<path d="M73.8586 297.584C73.8586 298.173 73.8129 299.011 73.7216 300.098H45.0046C45.5072 302.771 46.8094 304.901 48.9112 306.486C51.0587 308.027 53.7088 308.797 56.8615 308.797C60.8823 308.797 64.1949 307.483 66.7993 304.855L71.3913 310.088C69.7464 312.036 67.6675 313.508 65.1545 314.505C62.6414 315.502 59.8086 316 56.6559 316C52.6351 316 49.094 315.207 46.0327 313.622C42.9714 312.036 40.5954 309.839 38.9048 307.03C37.26 304.176 36.4375 300.959 36.4375 297.38C36.4375 293.846 37.2371 290.675 38.8363 287.866C40.4812 285.012 42.7429 282.792 45.6215 281.207C48.5 279.621 51.7441 278.828 55.3537 278.828C58.9176 278.828 62.0932 279.621 64.8803 281.207C67.7132 282.747 69.9064 284.944 71.4599 287.798C73.0591 290.607 73.8586 293.869 73.8586 297.584ZM55.3537 285.624C52.6122 285.624 50.282 286.439 48.3629 288.07C46.4896 289.656 45.3473 291.785 44.9361 294.458H65.7028C65.3372 291.83 64.2178 289.701 62.3444 288.07C60.4711 286.439 58.1409 285.624 55.3537 285.624Z" fill="black"/>
<path d="M90.2438 284.537C92.7111 280.731 97.0518 278.828 103.266 278.828V286.915C102.535 286.779 101.872 286.711 101.278 286.711C97.9427 286.711 95.3383 287.685 93.465 289.633C91.5917 291.536 90.655 294.3 90.655 297.924V315.524H82.0879V279.236H90.2438V284.537Z" fill="black"/>
<path d="M146.14 279.236L130.445 315.524H121.604L105.909 279.236H114.819L126.196 306.146L137.916 279.236H146.14Z" fill="black"/>
<path d="M151.495 279.236H160.062V315.524H151.495V279.236Z" fill="black"/>
<path d="M188.098 316C184.305 316 180.901 315.207 177.886 313.622C174.87 312.036 172.517 309.839 170.827 307.03C169.136 304.176 168.291 300.959 168.291 297.38C168.291 293.801 169.136 290.607 170.827 287.798C172.517 284.99 174.847 282.792 177.817 281.207C180.833 279.621 184.26 278.828 188.098 278.828C191.707 278.828 194.86 279.553 197.556 281.003C200.297 282.453 202.353 284.537 203.724 287.255L197.145 291.06C196.094 289.384 194.769 288.138 193.17 287.323C191.616 286.462 189.903 286.032 188.029 286.032C184.831 286.032 182.181 287.074 180.079 289.158C177.977 291.196 176.926 293.937 176.926 297.38C176.926 300.823 177.954 303.587 180.01 305.671C182.112 307.709 184.785 308.729 188.029 308.729C189.903 308.729 191.616 308.321 193.17 307.506C194.769 306.645 196.094 305.376 197.145 303.7L203.724 307.506C202.308 310.224 200.229 312.33 197.487 313.825C194.792 315.275 191.662 316 188.098 316Z" fill="black"/>
<path d="M245 297.584C245 298.173 244.954 299.011 244.863 300.098H216.146C216.649 302.771 217.951 304.901 220.053 306.486C222.2 308.027 224.85 308.797 228.003 308.797C232.024 308.797 235.336 307.483 237.941 304.855L242.533 310.088C240.888 312.036 238.809 313.508 236.296 314.505C233.783 315.502 230.95 316 227.797 316C223.776 316 220.235 315.207 217.174 313.622C214.113 312.036 211.737 309.839 210.046 307.03C208.401 304.176 207.579 300.959 207.579 297.38C207.579 293.846 208.378 290.675 209.978 287.866C211.623 285.012 213.884 282.792 216.763 281.207C219.641 279.621 222.885 278.828 226.495 278.828C230.059 278.828 233.235 279.621 236.022 281.207C238.855 282.747 241.048 284.944 242.601 287.798C244.2 290.607 245 293.869 245 297.584ZM226.495 285.624C223.754 285.624 221.423 286.439 219.504 288.07C217.631 289.656 216.489 291.785 216.077 294.458H236.844C236.479 291.83 235.359 289.701 233.486 288.07C231.612 286.439 229.282 285.624 226.495 285.624Z" fill="black"/>
<path d="M3.90957 185.012H16.7762V261.329H3.90957V185.012Z" fill="black"/>
<path d="M54.6621 205.789C62.7595 205.789 68.9355 207.743 73.19 211.651C77.5132 215.491 79.6748 221.32 79.6748 229.136V261.329H67.5287V254.644C65.9504 257.044 63.6859 258.895 60.7351 260.198C57.853 261.432 54.3533 262.049 50.2359 262.049C46.1186 262.049 42.516 261.364 39.428 259.992C36.34 258.552 33.9382 256.598 32.2226 254.13C30.5757 251.593 29.7522 248.747 29.7522 245.593C29.7522 240.656 31.5707 236.713 35.2077 233.765C38.9133 230.748 44.7119 229.239 52.6034 229.239H66.8082V228.416C66.8082 224.577 65.6416 221.628 63.3085 219.571C61.0439 217.514 57.6471 216.486 53.1181 216.486C50.0301 216.486 46.9764 216.965 43.957 217.925C41.0063 218.885 38.5016 220.223 36.4429 221.937L31.3992 212.577C34.2813 210.383 37.7467 208.703 41.7954 207.537C45.8441 206.372 50.133 205.789 54.6621 205.789ZM52.9122 252.69C56.1374 252.69 58.9853 251.97 61.4557 250.53C63.9947 249.021 65.7789 246.896 66.8082 244.153V237.776H53.5298C46.1186 237.776 42.413 240.21 42.413 245.079C42.413 247.41 43.3394 249.261 45.1922 250.633C47.045 252.004 49.6183 252.69 52.9122 252.69Z" fill="black"/>
<path d="M113.172 262.049C108.711 262.049 104.354 261.467 100.099 260.301C95.8445 259.135 92.4477 257.661 89.9086 255.878L94.8494 246.107C97.3198 247.753 100.271 249.09 103.702 250.118C107.201 251.078 110.633 251.558 113.995 251.558C121.681 251.558 125.524 249.536 125.524 245.49C125.524 243.57 124.529 242.233 122.538 241.479C120.617 240.725 117.495 240.005 113.172 239.319C108.642 238.633 104.937 237.845 102.055 236.953C99.2412 236.062 96.7708 234.519 94.6436 232.325C92.5849 230.062 91.5556 226.942 91.5556 222.965C91.5556 217.754 93.7172 213.606 98.0404 210.52C102.432 207.366 108.334 205.789 115.745 205.789C119.519 205.789 123.293 206.234 127.068 207.126C130.842 207.949 133.93 209.08 136.332 210.52L131.391 220.291C126.724 217.548 121.475 216.177 115.642 216.177C111.868 216.177 108.986 216.76 106.996 217.925C105.074 219.023 104.113 220.497 104.113 222.348C104.113 224.405 105.143 225.879 107.201 226.771C109.329 227.594 112.588 228.382 116.98 229.136C121.372 229.822 124.975 230.611 127.788 231.502C130.602 232.393 133.003 233.902 134.993 236.028C137.052 238.153 138.081 241.17 138.081 245.079C138.081 250.221 135.851 254.335 131.391 257.421C126.93 260.507 120.857 262.049 113.172 262.049Z" fill="black"/>
<path d="M200.834 234.176C200.834 235.068 200.766 236.336 200.629 237.982H157.5C158.254 242.027 160.21 245.25 163.367 247.65C166.592 249.981 170.572 251.147 175.307 251.147C181.346 251.147 186.321 249.159 190.232 245.182L197.129 253.101C194.658 256.05 191.536 258.278 187.762 259.787C183.988 261.295 179.733 262.049 174.998 262.049C168.959 262.049 163.641 260.849 159.044 258.45C154.446 256.05 150.878 252.724 148.339 248.473C145.868 244.153 144.633 239.285 144.633 233.868C144.633 228.519 145.834 223.72 148.236 219.468C150.706 215.148 154.103 211.789 158.426 209.389C162.749 206.989 167.621 205.789 173.042 205.789C178.395 205.789 183.164 206.989 187.35 209.389C191.605 211.72 194.899 215.046 197.232 219.365C199.634 223.617 200.834 228.554 200.834 234.176ZM173.042 216.074C168.925 216.074 165.425 217.308 162.543 219.777C159.73 222.177 158.014 225.399 157.397 229.445H188.585C188.036 225.468 186.355 222.245 183.542 219.777C180.728 217.308 177.228 216.074 173.042 216.074Z" fill="black"/>
<path d="M225.443 214.428C229.148 208.669 235.667 205.789 245 205.789V218.028C243.902 217.823 242.907 217.72 242.015 217.72C237.006 217.72 233.094 219.194 230.281 222.142C227.467 225.022 226.06 229.205 226.06 234.691V261.329H213.194V206.406H225.443V214.428Z" fill="black"/>
</svg>
