<svg width="451" height="83" viewBox="0 0 451 83" fill="none" xmlns="http://www.w3.org/2000/svg">
<path d="M44.3735 80.9604C43.2221 80.6937 42.1592 80.5161 41.0078 80.3383C40.2106 80.2494 39.4136 80.0716 38.6164 79.805C38.5279 79.805 38.4393 79.7163 38.2621 79.7163C37.3764 79.5385 36.4907 79.2717 35.605 79.094C34.7193 78.8274 33.8336 78.5609 32.9479 78.2943C32.4165 78.2054 31.8851 77.9387 31.4423 77.761C30.5566 77.4943 29.6709 77.139 28.8737 76.7835C27.8995 76.3392 27.0138 75.9836 26.0396 75.5392C25.2424 75.1837 24.5338 74.8283 23.7367 74.4728C22.4967 73.7619 21.1682 73.1399 19.9282 72.34C19.3968 71.9846 18.7768 71.629 18.2454 71.1847C17.7139 70.8292 17.1825 70.5625 16.6511 70.207C15.8539 69.5849 15.0569 69.0519 14.2597 68.3409C12.8426 67.1856 11.4255 65.9415 10.1855 64.6084C9.65411 64.0752 9.21129 63.5419 8.76844 63.0087C8.50273 62.6532 8.14839 62.3866 7.88268 62.0311C6.55414 60.0759 5.13705 58.2098 3.98564 56.1658C2.56853 53.4108 1.32854 50.5668 0.708548 47.5453C0.442838 46.4788 0.265699 45.3236 0.265699 44.2571C0.354269 43.8128 0.265699 43.2796 0.265699 42.7464C0.177129 42.9241 0.177096 43.1019 0.177096 43.1907C0.177096 43.2796 0.0885698 43.3684 0 43.3684C0 41.9465 0 40.4358 0 39.0139C0.17714 39.0139 0.265699 38.925 0.265699 38.7473C0.265699 38.3918 0.354269 38.0363 0.265699 37.6809C0.265699 37.4143 0.354247 37.0588 0.354247 36.7922C0.354247 36.7922 0.442817 36.7032 0.354247 36.7032C0.442817 36.0811 0.531376 35.3702 0.619946 34.7481C1.06279 32.3486 1.85996 30.038 2.92279 27.8162C3.63135 26.2166 4.42847 24.7059 5.40274 23.284C6.55415 21.5066 7.79415 19.8179 9.29983 18.2183C10.1855 17.3296 10.9827 16.4409 11.8684 15.5522C12.1341 15.7299 12.134 15.5522 12.134 15.3745C12.3112 15.3745 12.3112 15.2857 12.3112 15.1968C12.4884 15.0191 12.5769 14.8413 12.7541 14.7525C13.5512 14.1304 14.3483 13.4194 15.1454 12.7974C16.2083 11.9975 17.2711 11.1089 18.4225 10.3979C19.6624 9.5981 20.991 8.79818 22.3196 8.08723C25.5081 6.30983 28.8738 4.88801 32.328 3.7327C34.5422 3.02174 36.7565 2.39957 38.9707 1.86635C42.1592 1.15539 45.2591 0.622218 48.5362 0.355609C48.5362 0.444479 48.6249 0.355609 48.6249 0.355609C49.0677 0.266739 49.5106 0.266783 49.9534 0.177913C50.5734 0.177913 51.1934 0.177913 51.8134 0.177913C51.9905 0.177913 52.1676 0.177739 52.2562 0C54.1162 0 55.9762 0 57.9247 0C57.9247 0.177739 58.0132 0.177913 58.1903 0.177913C58.8103 0.177913 59.3418 0.177913 59.9617 0.177913C61.2903 0.266783 62.7074 0.355565 64.0359 0.533305C64.0359 0.622174 64.1246 0.622174 64.1246 0.533305C65.0989 0.622174 66.0731 0.799914 66.9588 0.977653C68.7302 1.24426 70.4131 1.5997 72.0959 2.04405C74.0444 2.48839 75.9929 3.11061 77.9415 3.7327C80.9528 4.71027 83.8757 6.04327 86.7099 7.46518C88.2156 8.26501 89.7213 9.06475 91.1384 10.0423C92.3784 10.931 93.6183 11.731 94.8583 12.6197C95.9211 13.4195 96.984 14.3082 97.9582 15.2858C99.4639 16.6188 100.792 18.0406 102.032 19.6403C103.184 21.0622 104.247 22.5731 105.221 24.1727C106.107 25.5946 106.904 27.1053 107.524 28.7049C108.055 30.038 108.587 31.46 108.941 32.793C109.207 33.8595 109.472 35.0148 109.649 36.1701C109.827 37.2366 109.915 38.3029 110.004 39.3693C110.004 40.1691 110.004 40.9689 110.004 41.7687C110.004 43.1018 109.827 44.3461 109.649 45.6791C109.472 47.1011 109.118 48.4341 108.675 49.856C108.409 50.8335 108.055 51.7223 107.701 52.611C106.904 54.7439 105.841 56.699 104.601 58.5652C103.627 60.076 102.475 61.5868 101.235 63.0087C100.438 63.8086 99.7296 64.6973 98.9325 65.4971C97.8696 66.5636 96.7183 67.541 95.5669 68.5186C94.0612 69.7628 92.5555 70.8293 90.8726 71.8957C89.9869 72.4289 89.1013 73.051 88.127 73.4954C87.1527 74.0286 86.267 74.5618 85.2927 75.0061C84.4956 75.3616 83.6985 75.717 82.8128 76.0725C81.4843 76.6946 80.1557 77.2279 78.8272 77.6722C77.8529 78.0277 76.79 78.2942 75.8158 78.6497C74.6644 79.0051 73.513 79.2718 72.273 79.6273C71.2101 79.8939 70.1473 80.1606 69.173 80.3383C67.4016 80.6049 65.7188 80.9603 63.9474 81.138C63.0617 81.2269 62.2645 81.3158 61.3788 81.4047C60.5817 81.4936 59.7846 81.4935 58.8989 81.5824C57.039 81.7601 55.2675 81.6712 53.4076 81.7601H53.319C53.1419 81.6712 52.9647 81.6714 52.8762 81.6714C51.0162 81.5825 49.2448 81.4935 47.4734 81.3157C46.5877 81.2269 45.6135 81.1381 44.7278 80.9604C44.6392 80.9604 44.5506 80.9604 44.5506 80.9604C44.5506 80.8715 44.462 80.8715 44.3735 80.9604ZM18.3339 59.365C18.3339 59.4538 18.4225 59.4538 18.3339 59.365L18.4225 59.4539C18.4225 59.6317 18.5111 59.8094 18.5997 59.8983C18.6882 59.9872 18.7768 59.8982 18.7768 59.8093C18.8653 59.8093 18.8654 59.8983 18.954 59.8983C19.6625 60.5204 20.3711 61.2312 21.1682 61.7644C22.6739 62.9197 24.1795 63.9862 25.8624 64.8749C27.8109 66.0302 29.9366 67.0079 31.9737 67.8966C34.7194 69.0519 37.5536 69.8517 40.3878 70.5626C42.2478 71.007 44.1964 71.3624 46.0563 71.629C46.0563 71.7179 46.1449 71.7179 46.1449 71.629C47.3848 71.8068 48.6248 71.8956 49.8648 72.0734C49.8648 72.1623 49.9534 72.1623 49.9534 72.0734C50.3077 72.0734 50.6619 72.0735 51.0162 72.1623C51.1048 72.2512 51.1047 72.2512 51.1933 72.1623C51.2819 72.1623 51.2819 72.1623 51.3705 72.1623C54.559 72.2512 57.7475 72.1623 60.936 71.718C62.8845 71.4514 64.8331 71.007 66.693 70.296C69.793 69.2296 72.7159 67.8076 75.1958 65.5859C77.1444 63.8085 78.5614 61.7645 79.3586 59.1873C79.89 57.4988 80.0671 55.8103 79.7129 54.1218C79.4472 52.5221 78.7386 51.0112 77.6757 49.767C76.6129 48.5228 75.3729 47.4564 74.0444 46.6566C72.7158 45.7679 71.2101 45.0569 69.793 44.4348C67.2244 43.3684 64.656 42.6575 61.9103 42.0354C60.9361 41.7688 59.8732 41.5911 58.8989 41.4134C58.8989 41.3245 58.8989 41.3245 58.8989 41.2357C60.8475 41.1468 62.796 41.3244 64.7445 41.3244C65.0988 41.3244 65.4531 41.3245 65.8073 41.4134C65.8073 41.5022 65.896 41.5022 65.896 41.4134C66.6045 41.5022 67.313 41.5022 68.0216 41.591C68.8187 41.6799 69.7045 41.68 70.5016 41.8577C70.5016 41.9466 70.5901 41.9466 70.5901 41.8577C71.3873 41.9466 72.273 42.0354 73.0701 42.2131C74.6644 42.4797 76.2586 42.7463 77.7643 43.1018C78.5614 43.2795 79.3586 43.4574 80.1557 43.6351C82.1042 44.1683 83.9642 44.7015 85.8242 45.4125C88.127 46.3012 90.3412 47.2787 92.3783 48.7006C93.3526 49.3227 94.3269 50.0337 95.2126 50.7447C95.744 51.189 96.2754 51.7222 96.8068 52.2554C97.1611 52.6109 97.1611 52.5221 97.4268 52.1667C97.5154 52.0778 97.5154 51.9889 97.5154 51.9C98.9325 49.3228 99.9067 46.4788 100.261 43.5461V43.4574C100.261 43.1908 100.261 43.013 100.261 42.7464C100.527 41.2356 100.438 39.8138 100.172 38.3919C99.8182 36.0813 99.2868 33.7706 98.224 31.6377C97.8697 30.9267 97.6039 30.2159 97.1611 29.5049C96.6297 28.5273 96.0097 27.6386 95.3897 26.7499C94.6811 25.7723 93.884 24.8835 93.0869 23.9948C92.2898 23.1061 91.4926 22.3065 90.6069 21.5066C89.5441 20.6179 88.4813 19.6402 87.2413 18.9293C86.3556 18.3072 85.4699 17.7741 84.5842 17.2408C83.8756 16.7965 82.99 16.4409 82.2814 15.9965C81.13 15.3745 79.8899 14.8413 78.65 14.3081C77.41 13.7749 76.0815 13.3306 74.8415 12.7974C73.9558 12.4419 72.9815 12.2641 72.0072 11.9087C71.4758 11.7309 70.9445 11.6419 70.3245 11.5531C69.6159 11.3753 68.9073 11.1977 68.1988 11.02C66.7817 10.6645 65.3645 10.3978 63.8588 10.22C62.796 10.0423 61.8217 9.95349 60.7589 9.86462C59.3418 9.68688 57.9246 9.68684 56.5075 9.59797C55.2675 9.5091 54.0276 9.50918 52.7876 9.68692C51.0162 9.86466 49.2448 10.1312 47.562 10.4867C44.9934 11.0199 42.6021 11.9086 40.2993 13.1528C38.7936 13.9526 37.3764 14.9301 36.0479 15.9965C35.9593 15.9965 35.7822 15.9966 35.6936 16.0855C35.4279 16.3521 35.0736 16.7076 34.8079 16.9742C34.7193 17.0631 34.7193 17.1518 34.7193 17.3296C34.6308 17.4185 34.5423 17.5074 34.4537 17.5962C33.7451 18.3961 33.1251 19.196 32.6823 20.1736C31.7966 22.0399 31.2651 23.9061 31.2651 25.9501C31.2651 27.5498 31.6194 28.9716 32.4165 30.3046C32.948 31.2822 33.6566 32.082 34.4537 32.8818C34.6308 33.3261 34.8965 33.6817 35.3394 33.6817C35.3394 33.7706 35.4279 33.7705 35.5165 33.7705C35.6936 33.8593 35.8707 34.0372 36.0479 34.1261C37.3764 35.1925 38.8821 35.9035 40.3878 36.6145C41.2735 37.0588 42.2478 37.4143 43.1335 37.6809C44.8163 38.303 46.4992 38.8361 48.2706 39.1916C49.5105 39.4582 50.6619 39.7249 51.9019 39.9026C52.1676 39.9026 52.4333 39.9914 52.6991 40.0803C52.6105 40.1692 52.6104 40.1693 52.5219 40.1693C49.1562 40.2581 45.7906 40.1693 42.425 39.7249C41.185 39.5472 39.945 39.4583 38.705 39.2806C36.4022 38.9251 34.0108 38.5696 31.7079 37.9475C30.8222 37.6809 29.848 37.5031 28.9623 37.2365C27.0138 36.7033 25.1539 35.9923 23.3825 35.1925C21.4339 34.3926 19.5739 33.3263 17.8911 32.171C16.3854 31.1046 14.9683 30.0381 13.8169 28.6162C13.2855 27.9941 13.2855 27.994 12.9312 28.7049C12.9312 28.7049 12.9312 28.7939 12.8426 28.7939C11.8684 30.3047 11.1598 31.9043 10.5398 33.5928C10.1856 34.7481 9.91982 35.9035 9.74268 37.0588C9.3884 39.1917 9.38834 41.3244 9.56548 43.3684C9.65405 44.0794 9.74264 44.7904 9.91978 45.4125C10.2741 46.9233 10.8055 48.523 11.5141 49.9449C12.3998 51.9001 13.5511 53.6773 14.8797 55.3658C15.4111 55.9879 15.9426 56.61 16.474 57.3209C16.474 57.6764 16.6511 57.7654 17.0054 57.8542C17.4482 58.2097 17.8025 58.6541 18.2454 59.0096C18.2454 59.3651 18.3339 59.365 18.3339 59.365Z" fill="#0258A0"/>
<path d="M50.0444 0.177913C49.9558 0.0890433 49.9558 0 49.8672 0C50.6643 0 51.4615 0 52.3472 0C52.2586 0.177739 52.0815 0.177913 51.9043 0.177913C51.2843 0.177913 50.6644 0.177913 50.0444 0.177913Z" fill="white"/>
<path d="M0.0898438 37.6816C0.178414 37.6816 0.266973 37.6816 0.355542 37.6816C0.444112 38.0371 0.355542 38.3926 0.355542 38.748C0.355542 38.9258 0.266983 39.0147 0.0898438 39.0147C0.0898438 38.5703 0.0898438 38.126 0.0898438 37.6816Z" fill="white"/>
<path d="M59.9589 0.177913C59.3389 0.177913 58.8075 0.177913 58.1875 0.177913C58.0104 0.177913 57.9219 0.177739 57.9219 0C58.6304 0 59.3389 0 60.0475 0C60.136 0.177739 59.9589 0.0890433 59.9589 0.177913Z" fill="white"/>
<path d="M0.0898438 43.3674C0.178414 43.3674 0.266994 43.2786 0.266994 43.1897C0.266994 43.1008 0.266973 42.9231 0.355542 42.7454C0.355542 43.2786 0.444112 43.7229 0.355542 44.2561C0.266973 44.2561 0.178414 44.2561 0.0898438 44.2561C0.0898437 43.9895 0.0898438 43.7229 0.0898438 43.3674Z" fill="white"/>
<path d="M370.404 41.5904C370.404 43.0124 370.227 44.5233 369.872 45.9452C369.607 47.0116 369.341 48.0781 368.987 49.0556C368.455 50.3887 367.924 51.6327 367.127 52.8768C366.418 54.0322 365.621 55.1875 364.647 56.0762C364.204 56.4317 363.85 56.8761 363.495 57.2316C362.875 57.8537 362.167 58.3869 361.458 58.8313C360.218 59.72 358.89 60.342 357.561 60.9641C357.03 61.2307 356.41 61.4084 355.79 61.5861C355.258 61.7639 354.816 61.8527 354.284 62.0305C353.576 62.2971 352.867 62.3859 352.158 62.4748C351.538 62.5637 351.007 62.5636 350.387 62.6525C349.236 62.8302 347.996 62.7415 346.844 62.7415C345.959 62.6526 345.161 62.6525 344.276 62.4748H344.187C343.656 62.4748 343.213 62.3859 342.681 62.2082C341.973 62.0304 341.176 61.8527 340.467 61.5861C338.607 60.964 336.836 60.0753 335.153 58.92C334.267 58.2979 333.47 57.6758 332.762 56.876C331.699 55.7207 330.725 54.4767 329.927 53.0548C329.485 52.2549 329.042 51.5439 328.687 50.7441C328.245 49.7665 327.802 48.7001 327.625 47.6336C327.447 46.9227 327.27 46.2118 327.182 45.5008C326.916 43.9012 326.827 42.3015 326.916 40.613C327.005 39.28 327.182 38.0357 327.536 36.7026C327.802 35.6362 328.067 34.6587 328.51 33.6811C328.865 32.8813 329.219 31.9926 329.662 31.1927C330.105 30.3929 330.547 29.6819 331.079 28.882C331.964 27.7267 333.027 26.7493 334.09 25.6829C334.887 24.883 335.773 24.3497 336.747 23.8165C337.544 23.3722 338.342 22.9279 339.227 22.5724C340.202 22.2169 341.176 21.8614 342.15 21.5948C343.39 21.2393 344.719 21.0615 345.959 20.8838C346.579 20.7949 347.11 20.795 347.73 20.795C350.121 20.7061 352.513 20.8838 354.904 21.4171C357.207 21.8614 359.333 22.6612 361.37 23.8165C362.078 24.172 362.698 24.6163 363.318 25.1495C364.292 25.8605 365.001 26.6604 365.887 27.4602C366.507 28.0823 366.95 28.7933 367.481 29.5043C368.012 30.3041 368.455 31.1038 368.81 31.9925C369.341 33.2366 369.784 34.5697 370.049 35.9916C370.404 37.5024 370.492 39.1021 370.581 40.7017C370.404 41.0572 370.404 41.3238 370.404 41.5904ZM334.179 39.9907C334.09 42.3014 334.356 44.612 334.887 46.9226C335.064 47.7224 335.33 48.5222 335.596 49.3221C336.659 52.1659 338.253 54.6543 340.556 56.6983C341.973 57.9425 343.656 58.8312 345.427 59.4533C346.579 59.8088 347.73 60.0755 348.881 60.1643C351.273 60.3421 353.487 60.1642 355.701 59.0977C357.295 58.2979 358.535 57.3205 359.598 55.8985C360.484 54.7432 361.193 53.4101 361.635 51.9881C362.078 50.6551 362.433 49.3221 362.61 47.989C362.787 46.8337 362.875 45.7674 362.964 44.6121C363.052 42.8347 362.964 40.9684 362.787 39.191C362.698 38.3023 362.433 37.4136 362.167 36.5249C361.813 35.1919 361.458 33.8589 360.838 32.6147C360.13 31.1928 359.333 29.7708 358.181 28.5266C356.941 27.1936 355.524 25.9495 353.841 25.0608C352.69 24.4387 351.361 24.0832 350.121 23.7278C349.324 23.55 348.439 23.4611 347.641 23.4611C346.313 23.4611 344.984 23.55 343.744 23.9055C342.947 24.0832 342.15 24.3497 341.441 24.7052C340.467 25.1495 339.582 25.6828 338.784 26.4826C337.81 27.3713 337.013 28.349 336.393 29.5043C335.684 30.7485 335.242 32.1703 334.799 33.5922C334.533 34.5697 334.356 35.4584 334.267 36.436C334.179 37.5913 334.179 38.8354 334.179 39.9907Z" fill="white"/>
<path d="M398.743 61.9416C397.06 61.9416 395.465 61.8527 393.783 61.9416C392.631 62.0305 391.391 61.9415 390.24 62.0304C390.063 62.0304 389.886 62.0304 389.708 61.8527C389.531 61.7638 389.531 61.675 389.531 61.4973C389.531 61.3195 389.62 61.2306 389.797 61.2306C390.063 61.1417 390.24 61.1417 390.506 61.1417C391.126 61.1417 391.657 61.1418 392.277 61.0529C392.986 60.8752 393.517 60.5197 393.871 59.8976C393.96 59.8087 393.96 59.7198 393.96 59.6309C394.048 58.8311 394.314 58.0313 394.314 57.2315C394.314 55.6318 394.403 54.121 394.403 52.5213C394.403 51.0994 394.403 49.6776 394.491 48.3445C394.58 46.0339 394.491 43.7232 394.58 41.4126C394.668 40.2573 394.58 39.1908 394.668 38.0355C394.757 36.7914 394.668 35.5472 394.757 34.3031C394.845 32.0813 394.757 29.8596 394.845 27.6378C394.934 25.7716 394.846 23.9053 394.934 22.039C394.934 21.6835 395.111 21.4169 395.2 21.1503C395.288 20.8837 395.643 20.7949 395.908 20.9726C396.085 21.0615 396.174 21.1504 396.263 21.2393C397.06 22.0391 397.945 22.839 398.654 23.7277C399.54 24.7941 400.602 25.6827 401.488 26.7491C401.754 27.1046 402.108 27.3712 402.374 27.6378C402.551 27.8156 402.728 27.9045 402.728 28.1711C402.728 28.3489 402.905 28.4377 402.994 28.5265C404.765 30.1262 406.36 31.9035 408.042 33.5921C409.282 34.8362 410.522 35.9915 411.674 37.3245C413.977 39.9018 416.545 42.2125 418.936 44.7897C419.114 44.9675 419.202 45.0563 419.291 45.2341C419.379 45.4118 419.468 45.5007 419.645 45.6784C420.885 46.8337 422.036 48.0778 423.276 49.3219C423.542 49.5886 423.719 50.033 424.073 50.2996C424.516 50.5662 424.782 51.0105 425.136 51.366C425.314 51.5437 425.402 51.6326 425.491 51.8103C425.579 51.8992 425.668 51.988 425.845 51.988C426.022 51.988 426.111 51.8993 426.111 51.7216C426.111 51.1884 426.111 50.7439 426.111 50.2106C426.111 49.3219 426.111 48.4332 426.022 47.5446C425.845 44.9673 425.933 42.3902 425.845 39.8129C425.756 37.6801 425.668 35.6362 425.668 33.5033C425.668 31.7259 425.579 29.9485 425.579 28.1711C425.579 27.1936 425.491 26.3047 425.402 25.3271C425.313 24.7939 425.136 24.172 424.871 23.7277C424.428 23.1056 423.719 22.7499 422.922 22.661C422.302 22.5722 421.682 22.5723 421.062 22.5723C420.796 22.5723 420.531 22.5724 420.265 22.3946C420.176 22.3057 420.088 22.2168 420.088 22.128C420.088 21.9502 420.176 21.8612 420.354 21.7724C420.619 21.7724 420.885 21.5947 421.151 21.5947C422.302 21.5947 423.453 21.5947 424.516 21.5947C425.225 21.5947 425.933 21.6836 426.553 21.6836C427.793 21.7725 429.122 21.6835 430.362 21.5947C431.425 21.5058 432.399 21.5947 433.462 21.5947C433.639 21.5947 433.816 21.6836 433.993 21.6836C434.348 21.7725 434.348 22.039 434.082 22.2167C433.905 22.3944 433.639 22.3946 433.462 22.3946C432.931 22.3946 432.488 22.3945 431.956 22.4834C431.336 22.5722 430.716 22.8389 430.362 23.461C430.008 24.0831 429.831 24.7941 429.831 25.505C429.831 26.8381 429.742 28.0822 429.653 29.4152C429.565 32.7923 429.653 36.0805 429.565 39.4575C429.388 43.3678 429.476 47.367 429.388 51.2773C429.388 52.6992 429.299 54.0322 429.299 55.4541C429.299 57.2315 429.211 59.0089 429.211 60.7863C429.211 61.2306 429.122 61.586 429.033 62.0304C428.945 62.5636 428.591 62.7413 428.059 62.4747C427.793 62.3858 427.616 62.2081 427.439 62.0304C427.173 61.7637 426.908 61.4972 426.642 61.2306C420.885 55.8096 415.394 50.1219 409.814 44.5231C407.954 42.6568 406.094 40.7906 404.411 38.8355C403.525 37.9468 402.64 37.058 401.842 36.0805C401.134 35.1918 400.337 34.4808 399.628 33.5921C399.363 33.2366 399.008 32.8811 398.654 32.5257C398.565 32.4368 398.477 32.3479 398.388 32.259C398.211 32.1701 398.034 32.259 398.034 32.4367C398.034 32.5256 398.034 32.6146 398.034 32.6146C398.211 33.6811 398.034 34.7474 398.211 35.8138C398.211 35.9915 398.211 36.2581 398.211 36.4358C398.211 37.8578 398.211 39.3687 398.3 40.7906C398.3 42.2125 398.388 43.7232 398.477 45.1451C398.477 46.1227 398.477 47.1004 398.477 48.1668C398.565 49.4999 398.565 50.8329 398.654 52.1659C398.743 53.2324 398.654 54.2988 398.654 55.2764C398.654 56.4317 398.831 57.5868 399.097 58.6533C399.274 59.1865 399.451 59.7199 399.805 60.1642C400.071 60.5197 400.425 60.6974 400.868 60.7863C401.577 60.964 402.285 61.0528 402.994 60.964C403.26 60.964 403.614 60.9639 403.88 61.1417C403.968 61.2305 404.145 61.2306 404.145 61.4083C404.145 61.586 404.057 61.6748 403.88 61.7637C403.702 61.8526 403.614 61.8527 403.437 61.8527C403.171 61.8527 402.817 61.8527 402.551 61.8527C401.223 62.0304 399.983 62.0305 398.743 61.9416Z" fill="white"/>
<path d="M205.219 20.9729C206.902 20.9729 208.851 21.0617 210.711 21.3283C212.128 21.506 213.634 21.6838 215.051 22.0393C215.936 22.217 216.822 22.3059 217.708 22.4836C218.416 22.5725 218.505 22.9281 218.416 23.4613C218.239 24.7055 218.239 26.0386 218.151 27.2827C218.062 28.3492 218.151 29.4156 218.062 30.3932C218.062 31.1041 218.062 31.726 217.885 32.437C217.885 32.5259 217.885 32.526 217.885 32.6149C217.796 32.7927 217.619 33.0592 217.442 32.9703C217.265 32.9703 217.088 32.7926 217.088 32.526C216.999 31.9927 216.999 31.5484 216.911 31.0152C216.911 30.5709 216.822 30.1265 216.645 29.6822C216.468 29.2378 216.379 28.6156 216.025 28.2602C215.405 27.4603 214.874 26.6606 213.988 26.1274C212.659 25.2387 211.154 24.7054 209.648 24.261C207.079 23.5501 204.511 23.4613 201.854 23.639C200.437 23.7279 198.931 23.9945 197.602 24.5277C195.477 25.3275 193.794 26.6605 192.465 28.4379C191.845 29.2377 191.314 30.0376 190.871 30.9263C190.428 31.815 190.163 32.6148 189.897 33.5923C189.543 35.0143 189.277 36.3473 189.188 37.7692C189.011 39.3688 189.011 40.9686 189.1 42.5683C189.188 44.2568 189.454 45.8564 189.986 47.4561C190.428 48.7891 191.048 50.0334 191.668 51.2775C191.934 51.8108 192.377 52.255 192.643 52.6993C192.997 53.4103 193.617 53.9435 194.148 54.4767C194.768 55.1877 195.477 55.8097 196.274 56.4318C197.16 57.1428 198.045 57.676 199.02 58.2092C199.728 58.5647 200.437 58.9202 201.234 59.1869C202.917 59.7201 204.6 59.9867 206.371 59.8979C207.434 59.8979 208.497 59.8978 209.471 59.8089C210.977 59.6312 212.571 59.3646 213.899 58.4759C215.051 57.7649 215.936 56.7874 216.645 55.6321C217.176 54.7434 217.531 53.7659 217.708 52.7883C217.796 52.4328 217.885 52.3439 218.151 52.3439C218.416 52.3439 218.505 52.6104 218.505 52.877C218.505 53.588 218.416 54.2101 218.328 54.9211C218.151 56.2541 217.974 57.5872 217.708 58.9202C217.619 59.3646 217.531 59.7202 217.442 60.1645C217.265 60.7866 216.911 61.3197 216.202 61.5863C215.582 61.8529 214.962 62.1195 214.254 62.2083C213.899 62.2972 213.545 62.3861 213.191 62.475C211.862 62.6527 210.534 62.8305 209.117 62.9193C208.408 62.9193 207.699 63.0083 207.079 63.0083C206.371 63.0972 205.662 63.0083 204.954 63.0083C203.802 62.9194 202.651 62.9194 201.5 62.7416C200.26 62.5639 199.02 62.2972 197.78 62.0306C197.248 61.9418 196.717 61.6752 196.185 61.6752C195.565 61.2309 194.68 61.3198 194.06 60.7866C193.794 60.6088 193.44 60.4309 193.174 60.4309C192.997 60.4309 192.82 60.3421 192.731 60.2532C192.111 59.72 191.314 59.3646 190.605 59.0092C190.251 58.8314 189.985 58.4759 189.631 58.2982C189.188 57.9427 188.746 57.676 188.303 57.3205C188.037 57.1428 187.86 56.9651 187.683 56.6985C187.594 56.5207 187.417 56.343 187.24 56.2541C186.531 55.7209 186 55.0099 185.557 54.2101C185.557 54.1212 185.468 54.0324 185.38 54.0324C184.937 53.7658 184.76 53.3214 184.494 52.877C184.14 52.2549 183.874 51.4553 183.431 50.8332C183.254 50.5666 183.166 50.2998 183.077 50.0332C182.811 49.1445 182.546 48.3448 182.28 47.4561C182.191 47.1895 182.191 46.9229 182.103 46.5674C181.926 45.6787 181.837 44.7011 181.748 43.8124C181.571 42.2127 181.571 40.5242 181.837 38.9245C181.926 38.0358 182.103 37.1472 182.369 36.3474C182.546 35.8142 182.634 35.192 182.9 34.6587C182.9 34.6587 182.9 34.6589 182.9 34.57C183.077 33.5036 183.697 32.526 184.228 31.6373C184.583 31.0152 184.937 30.482 185.38 29.8599C186.088 28.7934 186.974 27.9048 187.86 27.0161C188.391 26.4829 189.1 26.0386 189.72 25.5053C190.871 24.5278 192.288 23.9057 193.617 23.2836C194.237 23.017 194.945 22.8392 195.654 22.5726C196.451 22.306 197.337 22.1283 198.134 21.9506C198.931 21.7728 199.64 21.6838 200.437 21.5949C201.854 21.0617 203.448 20.9729 205.219 20.9729Z" fill="white"/>
<path d="M288.74 24.5299C287.943 24.7076 287.146 24.6188 286.26 24.6188C284.135 24.7077 282.098 24.7077 279.972 24.7965C279.175 24.7965 278.378 24.8854 277.669 24.9742C277.049 25.0631 276.429 25.3297 275.898 25.6852C275.809 25.7741 275.721 25.863 275.632 25.9519C275.278 26.6628 274.746 27.2849 274.569 28.1736C274.569 28.3514 274.481 28.4402 274.392 28.618C274.304 28.7957 274.126 28.8845 273.949 28.7957C273.772 28.7068 273.684 28.6178 273.684 28.4401C273.684 27.9957 273.684 27.4626 273.772 27.0183C273.949 26.1296 274.126 25.2409 274.304 24.3522C274.481 23.5524 274.658 22.7524 274.746 22.0415C274.835 21.7749 274.924 21.5082 275.012 21.3305C275.189 21.0639 275.278 20.975 275.544 21.1528C276.518 21.686 277.581 21.686 278.643 21.7748C281.478 22.0414 284.312 21.9527 287.146 21.9527C292.992 21.9527 298.749 21.9527 304.594 21.9527C305.48 21.9527 306.366 21.8637 307.252 21.7748C307.694 21.686 308.049 21.686 308.491 21.5971C308.669 21.5083 308.846 21.5084 309.112 21.5084C309.377 21.5084 309.554 21.5972 309.554 21.8638C309.554 22.1304 309.643 22.397 309.554 22.7525C309.466 23.5523 309.554 24.3522 309.466 25.0632C309.377 26.1296 309.377 27.1959 309.377 28.2624C309.377 28.529 309.289 28.8844 309.289 29.1511C309.289 29.2399 309.2 29.4177 309.112 29.4177C308.934 29.4177 308.757 29.5066 308.669 29.24C308.58 29.1511 308.491 28.9733 308.491 28.8844C308.491 28.6178 308.491 28.3514 308.491 28.1736C308.403 27.4627 308.226 26.7515 307.606 26.2183C307.251 25.9517 306.897 25.774 306.454 25.5963C305.48 25.1519 304.329 24.9741 303.266 24.8853C301.76 24.7964 300.254 24.8854 298.749 24.7965C297.775 24.7077 296.8 24.7964 295.738 24.7076C295.118 24.7076 295.206 24.7077 295.206 25.2409C295.206 28.5291 295.206 31.8171 295.206 35.1053C295.206 40.5263 295.206 45.9474 295.206 51.3685C295.206 52.5238 295.206 53.5903 295.295 54.7456C295.383 55.9009 295.295 57.0561 295.472 58.2114C295.56 58.8335 295.56 59.4556 295.915 59.9888C296.269 60.6109 296.712 61.1441 297.597 61.1441C298.395 61.233 299.103 61.3218 299.9 61.3218C300.343 61.3218 300.786 61.4107 301.229 61.7662C301.052 62.1217 300.697 62.2105 300.343 62.2105C299.9 62.2105 299.457 62.2105 299.103 62.2105C296.269 62.1217 293.435 62.0329 290.6 62.1218C289.006 62.1218 287.412 62.2105 285.906 62.2105C285.552 62.2105 285.286 62.2105 284.932 62.2105C284.843 62.2105 284.666 62.2107 284.578 62.1218C284.4 62.0329 284.223 62.0328 284.223 61.7662C284.223 61.5884 284.4 61.4997 284.578 61.4108C284.755 61.3219 284.932 61.3218 285.02 61.3218C285.64 61.3218 286.261 61.233 286.881 61.1441C287.412 61.0553 287.943 60.522 288.12 59.9888C288.563 58.478 288.652 56.8785 288.652 55.2789C288.652 54.5679 288.829 53.7681 288.74 53.0571C288.652 52.3462 288.74 51.5463 288.74 50.8354C288.74 50.0356 288.74 49.3245 288.74 48.5247C288.74 43.2814 288.74 38.1269 288.74 32.8835C288.74 30.2174 288.74 27.6403 288.74 24.9742C288.829 24.7965 288.829 24.7076 288.74 24.5299Z" fill="white"/>
<path d="M136.754 57.7665C136.754 55.9891 136.931 54.2117 137.02 52.4343C137.02 52.1677 137.108 51.9012 137.197 51.6346C137.285 51.4569 137.374 51.2791 137.551 51.368C137.728 51.368 137.905 51.457 137.905 51.7236C137.905 51.9902 137.994 52.2566 137.994 52.4343C137.994 53.1453 138.171 53.8564 138.348 54.5673C138.525 55.1894 138.702 55.8114 139.057 56.4335C139.411 57.2333 140.031 57.8554 140.562 58.4775C141.537 59.4551 142.777 60.0772 144.194 60.2549C145.611 60.5215 147.028 60.5217 148.445 60.1662C149.508 59.8996 150.482 59.544 151.279 58.7442C151.899 58.211 152.519 57.5889 152.874 56.7891C153.405 55.7227 153.582 54.6562 153.494 53.412C153.405 52.9677 153.405 52.5233 153.316 52.079C153.316 51.7235 153.139 51.4569 153.051 51.1903C152.696 50.3904 152.342 49.5016 151.722 48.8796C150.925 47.902 149.951 47.0134 148.976 46.1247C148.445 45.6804 147.914 45.3248 147.382 44.8804C146.497 44.1695 145.611 43.5476 144.725 42.8366C143.751 42.0368 142.777 41.3258 141.979 40.3482C141.625 39.9039 141.182 39.4595 140.828 39.0152C140.474 38.5708 140.119 38.0376 139.765 37.5044C139.411 36.8823 139.057 36.2601 138.791 35.5491C138.171 34.0383 137.817 32.5277 137.905 30.8392C137.905 29.0618 138.348 27.3732 139.411 25.8624C140.474 24.3516 141.802 23.1074 143.485 22.3076C144.814 21.6855 146.231 21.3301 147.648 21.0635C149.419 20.7969 151.191 20.8857 152.962 20.9746C153.671 21.0634 154.468 21.1522 155.176 21.33C155.973 21.5077 156.771 21.5967 157.568 21.9522C157.922 22.0411 157.922 22.2188 157.922 22.5743C157.833 23.6407 157.833 24.7071 157.833 25.6847C157.745 26.5734 157.833 27.462 157.833 28.2618C157.833 28.7062 157.833 29.1505 157.745 29.5949C157.745 29.7726 157.656 29.8615 157.656 30.0392C157.568 30.217 157.479 30.3059 157.302 30.3059C157.125 30.3059 157.036 30.217 156.948 30.0392C156.859 29.8615 156.859 29.6839 156.859 29.5061C156.859 28.5286 156.505 27.6398 156.062 26.7511C155.354 25.5958 154.468 24.6182 153.228 24.085C152.254 23.6407 151.279 23.374 150.216 23.374C148.799 23.2851 147.382 23.5518 146.054 24.085C145.699 24.2627 145.434 24.5293 145.079 24.7071C144.105 25.418 143.485 26.4845 143.219 27.6398C143.042 28.5285 143.042 29.5061 143.308 30.3948C143.662 31.639 144.282 32.6166 145.168 33.5053C145.611 33.9496 146.054 34.394 146.497 34.8383C147.382 35.727 148.357 36.4378 149.331 37.1488C149.951 37.5932 150.659 38.0375 151.102 38.6595C151.279 38.8373 151.545 38.9262 151.811 39.1039C153.139 40.2592 154.556 41.4146 155.708 42.7476C156.239 43.3697 156.682 43.9919 157.036 44.614C157.479 45.2361 157.834 45.9469 158.099 46.6578C158.453 47.3688 158.631 48.1687 158.808 48.9685C158.985 50.035 159.073 51.0125 158.985 52.079C158.896 53.9452 158.365 55.6338 157.391 57.2334C156.948 57.8555 156.505 58.4775 155.974 59.0996C154.734 60.3438 153.228 61.3214 151.545 61.8546C149.331 62.6544 147.117 62.9211 144.814 62.8323C143.662 62.8323 142.511 62.7433 141.359 62.4767C140.297 62.2989 139.234 62.0323 138.26 61.588C138.171 61.588 138.082 61.4992 137.994 61.4992C137.197 61.3215 136.842 60.6994 136.842 59.8995C136.754 59.1886 136.754 58.4775 136.754 57.7665Z" fill="white"/>
<path d="M250.29 39.6353C250.29 43.4567 250.29 47.5447 250.29 51.6327C250.29 53.8544 250.379 55.9872 250.467 58.209C250.467 58.7422 250.556 59.1867 250.822 59.7199C251.087 60.4309 251.707 60.8751 252.416 60.964C253.302 61.0529 254.187 61.2306 255.073 61.1417C255.339 61.1417 255.604 61.1418 255.87 61.2307C255.959 61.3195 256.136 61.3196 256.136 61.4973C256.136 61.6751 255.959 61.7638 255.87 61.8527C255.604 62.0305 255.25 61.9417 254.984 61.9417C253.656 61.9417 252.327 61.9416 250.91 61.8527C248.607 61.7638 246.216 61.7638 243.913 61.8527C242.762 61.8527 241.61 61.9417 240.37 61.9417C240.016 61.9417 239.662 62.0304 239.307 61.7638C239.219 61.6749 239.13 61.5862 239.13 61.4973C239.13 61.3196 239.219 61.2307 239.396 61.2307C239.573 61.2307 239.839 61.1417 240.016 61.1417C240.547 61.1417 241.079 61.053 241.61 61.053C242.407 60.9641 243.027 60.6085 243.205 59.8087C243.293 59.3643 243.47 58.8312 243.47 58.3869C243.647 55.8097 243.736 53.1435 243.736 50.5663C243.736 43.1901 243.736 35.8138 243.736 28.4376C243.736 27.1935 243.736 25.9493 243.47 24.7052C243.382 23.9942 243.027 23.3722 242.407 23.0167C242.142 22.839 241.787 22.7501 241.433 22.7501C240.99 22.7501 240.547 22.6611 240.016 22.6611C239.75 22.6611 239.485 22.5724 239.307 22.5724C239.13 22.5724 238.953 22.4834 238.953 22.2168C238.953 22.039 239.042 21.9502 239.219 21.8614C239.485 21.7725 239.662 21.7724 239.927 21.7724C240.99 21.7724 242.053 21.6835 243.205 21.7724C244.622 21.8613 246.039 21.9503 247.367 21.9503C248.519 21.9503 249.582 21.8613 250.733 21.7724C251.796 21.6835 252.947 21.7724 254.01 21.7724C254.187 21.7724 254.364 21.8615 254.542 21.9503C254.807 22.1281 254.807 22.3945 254.453 22.4834C254.187 22.5723 253.922 22.5724 253.656 22.5724C253.124 22.5724 252.593 22.6612 252.15 22.7501C251.176 22.9278 250.644 23.6388 250.467 24.5275C250.379 25.3273 250.29 26.1271 250.29 26.9269C250.202 31.1038 250.29 35.1918 250.29 39.6353Z" fill="white"/>
<path d="M438.422 23.0186C438.422 22.2188 438.599 21.4189 438.953 20.7079C439.13 20.2636 439.485 19.9082 439.75 19.4639C440.193 18.664 440.99 18.2195 441.699 17.7752C442.407 17.4197 443.205 17.1533 444.002 17.0644C444.71 16.9755 445.419 17.0644 446.127 17.2421C446.747 17.4198 447.367 17.6864 447.987 18.0418C448.076 18.1307 448.165 18.1307 448.253 18.2195C448.519 18.575 448.785 18.7529 449.05 19.0195C449.936 19.8193 450.379 20.7969 450.644 21.8633C450.733 22.2188 450.91 22.4855 450.822 22.8409C450.822 23.1075 450.822 23.463 450.644 23.7296C450.556 23.9074 450.556 24.1739 450.556 24.3517C450.29 25.3292 449.759 26.3067 449.139 27.1065C448.607 27.7286 447.899 28.0841 447.19 28.4396C445.95 28.9728 444.71 29.1505 443.47 28.8839C442.407 28.6173 441.522 28.2618 440.725 27.5509C439.839 26.8399 439.308 25.9513 438.953 24.9737C438.51 24.2628 438.422 23.6407 438.422 23.0186ZM439.839 23.0186C439.75 23.8185 440.016 24.7071 440.459 25.4181C440.99 26.3068 441.699 26.9288 442.585 27.3732C443.382 27.7286 444.179 27.7288 444.976 27.7288C446.659 27.6399 447.722 26.7511 448.519 25.4181C449.405 23.9073 449.405 22.3076 448.696 20.7079C448.253 19.6415 447.456 18.8418 446.305 18.3975C445.33 17.9531 444.356 17.9531 443.382 18.1308C442.673 18.3085 441.965 18.5752 441.433 19.0195C440.37 20.1748 439.75 21.419 439.839 23.0186Z" fill="white"/>
<path d="M44.3672 80.9609C44.4565 80.7817 44.5457 80.8713 44.5457 80.9609C44.5457 81.0505 44.4565 81.1401 44.3672 80.9609Z" fill="white"/>
<path d="M64.135 0.626555H64.0391C64.1349 0.530406 64.135 0.530406 64.135 0.626555Z" fill="white"/>
<path d="M16.5668 57.5884C16.0354 56.9663 15.504 56.3443 14.9726 55.6333C13.6441 53.9448 12.4926 52.1673 11.6069 50.2122C10.8984 48.7903 10.4555 47.2796 10.0126 45.68C9.83547 44.969 9.74699 44.258 9.65842 43.6359C9.39271 41.503 9.48123 39.3701 9.83551 37.3261C10.0127 36.1708 10.2784 35.0156 10.6327 33.8602C11.2527 32.1717 11.8726 30.5722 12.9355 29.0614C12.9355 29.0614 12.9354 28.9724 13.024 28.9724C13.3783 28.3503 13.4669 28.3502 13.9097 28.8835C15.0611 30.3054 16.4782 31.3718 17.9839 32.4382C19.6667 33.6824 21.5268 34.6601 23.4753 35.4599C25.3353 36.2598 27.1952 36.8819 29.0551 37.504C29.9408 37.7706 30.9152 37.9482 31.8009 38.2148C34.1037 38.8369 36.4064 39.1923 38.7978 39.5478C40.0378 39.7256 41.2778 39.8144 42.5178 39.9922C45.8835 40.3476 49.2491 40.4365 52.6148 40.4365C52.7034 40.4365 52.7033 40.4366 52.7919 40.3478C52.5262 40.2589 52.2604 40.2589 51.9947 40.1701C50.7548 39.9923 49.6034 39.7257 48.3634 39.4591C46.592 39.0147 44.9091 38.5704 43.2263 37.9483C42.252 37.5929 41.3664 37.3261 40.4807 36.8817C38.975 36.1708 37.4693 35.3711 36.1407 34.3936C35.9636 34.3047 35.875 34.1268 35.6093 34.0379C35.6093 33.9491 35.5208 33.9492 35.4322 33.9492C35.1665 33.5937 34.8122 33.327 34.5465 33.1492C33.7494 32.3494 33.1294 31.5497 32.5094 30.5721C31.7122 29.2391 31.358 27.7282 31.358 26.2174C31.358 24.1734 31.8894 22.2182 32.7751 20.4408C33.218 19.4633 33.9265 18.6635 34.5465 17.8637C34.6351 17.7748 34.7236 17.6859 34.8122 17.5971C35.255 17.1527 35.6979 16.7084 36.1407 16.264C37.4693 15.1087 38.8864 14.22 40.3921 13.4202C42.6949 12.176 45.1748 11.3762 47.6548 10.7541C49.3376 10.3987 51.109 10.1321 52.8804 9.95439C54.1204 9.77665 55.3605 9.86544 56.6004 9.86544C58.0175 9.95431 59.4346 9.95435 60.8517 10.1321C61.9146 10.221 62.8888 10.3097 63.9517 10.4875C65.3688 10.6652 66.8745 10.932 68.2916 11.2874C69.0002 11.4652 69.7087 11.6428 70.4173 11.8205C70.9487 11.9094 71.5687 11.9984 72.1002 12.1761C73.0744 12.4427 73.9601 12.7094 74.9343 13.0648C76.1743 13.5092 77.5029 13.9535 78.7429 14.5756C79.9829 15.1088 81.2228 15.6419 82.3742 16.264C83.1714 16.7084 83.9685 17.064 84.677 17.5083C85.5627 18.0415 86.4484 18.6635 87.3341 19.1968C88.4855 19.9966 89.5484 20.8852 90.6998 21.7739C91.5855 22.4848 92.3826 23.3736 93.1797 24.2623C93.9768 25.151 94.7739 26.0398 95.4825 27.0173C96.1911 27.906 96.7225 28.7946 97.2539 29.7722C97.6082 30.4831 97.9625 31.1942 98.3168 31.9052C99.3796 34.038 99.911 36.3485 100.265 38.6591C100.442 40.081 100.531 41.592 100.354 43.0139C100.354 43.2805 100.354 43.4583 100.354 43.7249V43.8136C99.9996 46.7463 99.1139 49.5903 97.6082 52.1675C97.6082 52.2564 97.5197 52.3451 97.5197 52.4339C97.2539 52.7894 97.254 52.8784 96.8997 52.5229C96.3683 51.9897 95.8368 51.5454 95.3054 51.0121C94.4197 50.2123 93.4455 49.5902 92.4712 48.9681C90.4341 47.635 88.2198 46.5687 85.917 45.68C84.0571 44.969 82.1085 44.3469 80.2485 43.9026C79.4514 43.7248 78.6543 43.547 77.8572 43.3693C76.2629 43.0138 74.6686 42.7472 73.163 42.4806C72.3658 42.3917 71.4801 42.214 70.6829 42.1252H70.5944C69.7973 41.9474 68.9116 41.9474 68.1145 41.8585C67.406 41.7696 66.6974 41.7697 65.9888 41.6808C65.9888 41.6808 65.9003 41.592 65.9003 41.6808C65.546 41.592 65.1916 41.5919 64.8374 41.5919C62.8888 41.5919 60.9403 41.4143 58.9918 41.5031C58.5489 41.4143 58.1946 41.4143 57.7518 41.5031C58.1946 41.5031 58.5489 41.6808 58.9032 41.6808C59.8775 41.8586 60.9403 42.1251 61.9146 42.3029C64.5717 42.925 67.2287 43.6359 69.7972 44.7023C71.3029 45.3244 72.7201 46.0354 74.0487 46.924C75.3772 47.8127 76.6171 48.7903 77.68 50.0345C78.7428 51.3675 79.4514 52.7896 79.7171 54.3892C79.9828 56.0778 79.8057 57.8551 79.3628 59.4548C78.6543 62.032 77.1486 64.0759 75.2001 65.8533C72.7201 68.0751 69.7973 69.497 66.6973 70.5635C64.8373 71.1856 62.8888 71.6298 60.9403 71.9852C57.7518 72.4296 54.5633 72.5185 51.3748 72.4296C51.2862 72.4296 51.2862 72.4296 51.1976 72.4296C51.109 72.3407 51.1091 72.3407 51.0205 72.4296C50.6662 72.4296 50.312 72.4297 49.9577 72.3409C49.9577 72.3409 49.869 72.252 49.869 72.3409C48.6291 72.1631 47.3891 72.0742 46.1491 71.8965C46.1491 71.8965 46.0606 71.8076 46.0606 71.8965C44.1121 71.6299 42.2521 71.2745 40.3921 70.8301C37.5579 70.1192 34.7236 69.2305 31.978 68.164C29.8523 67.2753 27.8152 66.2976 25.8666 65.1423C24.1838 64.2536 22.6782 63.1872 21.1725 62.0319C20.3754 61.4098 19.6668 60.7878 18.9582 60.1658C18.8697 60.0769 18.8696 60.0768 18.781 60.0768C18.6925 59.8991 18.5153 59.8103 18.3382 59.7214C18.3382 59.6325 18.3382 59.6325 18.2496 59.6325C18.2496 59.5436 18.2497 59.5435 18.1611 59.5435C17.7183 59.188 17.3639 58.7438 16.9211 58.3884C16.9211 57.8551 16.8325 57.6773 16.5668 57.5884Z" fill="white"/>
<path d="M36.227 15.9092C35.7841 16.3535 35.3413 16.7979 34.8984 17.2422C34.8984 17.1534 34.8984 16.9755 34.987 16.8866C35.2527 16.62 35.607 16.2645 35.8727 15.9979C35.9613 15.909 36.0498 15.9092 36.227 15.9092Z" fill="white"/>
<path d="M34.5391 32.8823C34.8933 33.1489 35.1591 33.4157 35.4248 33.6823C34.9819 33.5934 34.7162 33.3267 34.5391 32.8823Z" fill="white"/>
<path d="M58.9835 41.4133C58.5406 41.4133 58.1863 41.2356 57.832 41.2356C58.2749 41.1467 58.6292 41.1467 59.072 41.2356C59.072 41.2356 59.0721 41.3244 58.9835 41.4133Z" fill="white"/>
<path d="M16.5625 57.5876C16.8282 57.6765 16.9168 57.8543 17.0939 58.121C16.7396 58.0321 16.5625 57.8543 16.5625 57.5876Z" fill="white"/>
<path d="M18.5137 59.4539C18.6908 59.5427 18.7794 59.6315 18.9565 59.8092C18.9565 59.8981 18.8679 59.9871 18.7793 59.8982C18.5136 59.8093 18.4251 59.6316 18.5137 59.4539Z" fill="white"/>
<path d="M12.0391 15.6436C12.1284 15.554 12.2178 15.4644 12.3072 15.4644C12.3072 15.6437 12.2178 15.7333 12.0391 15.6436Z" fill="white"/>
<path d="M12.3086 15.3762C12.3086 15.2866 12.3979 15.197 12.4872 15.197C12.4872 15.2866 12.4872 15.4658 12.3086 15.3762Z" fill="white"/>
<path d="M51.2031 72.1624C51.2924 72.0728 51.2925 72.0728 51.3818 72.1624C51.2925 72.1624 51.2924 72.1624 51.2031 72.1624Z" fill="white"/>
<path d="M35.5156 33.6816C35.6049 33.6816 35.6942 33.6815 35.6942 33.7711C35.6049 33.8607 35.5156 33.7712 35.5156 33.6816Z" fill="white"/>
<path d="M0.4375 36.7981V36.7019C0.533324 36.7019 0.533324 36.7981 0.4375 36.7981Z" fill="white"/>
<path d="M65.9805 41.4141H66.0763C66.0763 41.5102 65.9805 41.5102 65.9805 41.4141Z" fill="white"/>
<path d="M18.2461 59.2766C18.3417 59.2766 18.3417 59.2766 18.2461 59.2766C18.2461 59.3726 18.3417 59.3726 18.2461 59.2766Z" fill="white"/>
<path d="M18.3359 59.3638C18.4316 59.3638 18.4316 59.3638 18.3359 59.3638C18.3359 59.4597 18.4316 59.4597 18.3359 59.3638Z" fill="white"/>
<path d="M48.6328 0.354736C48.7285 0.354736 48.7285 0.354736 48.6328 0.354736C48.7285 0.450716 48.7285 0.450716 48.6328 0.354736Z" fill="white"/>
<path d="M46.2305 71.6306C46.3263 71.6306 46.3263 71.6306 46.3263 71.6306C46.2304 71.7268 46.2305 71.7268 46.2305 71.6306Z" fill="white"/>
<path d="M439.841 23.0175C439.753 21.4179 440.373 20.1736 441.435 19.1071C441.967 18.5739 442.675 18.3073 443.384 18.2185C444.358 18.0407 445.421 18.0408 446.307 18.4851C447.37 18.9295 448.167 19.7294 448.698 20.7958C449.407 22.3955 449.407 23.9952 448.521 25.5059C447.724 26.839 446.661 27.8164 444.978 27.8164C444.181 27.8164 443.295 27.8165 442.587 27.461C441.701 27.0167 440.993 26.3946 440.461 25.5059C440.018 24.7061 439.753 23.9062 439.841 23.0175ZM447.37 26.039C447.192 25.7724 447.104 25.5058 447.104 25.328C446.927 24.5282 446.927 23.7285 446.041 23.2842C445.864 23.1953 445.864 23.0175 446.041 22.9286C446.13 22.8397 446.307 22.8398 446.395 22.7509C447.37 22.1288 447.281 20.7957 446.218 20.2625C445.775 19.9959 445.244 19.996 444.713 19.9071C444.004 19.9071 443.295 19.9071 442.587 20.0848C442.144 20.1737 442.144 20.1737 442.144 20.5291C442.144 22.0399 442.144 23.5508 442.144 25.0616C442.144 26.0392 442.144 26.0392 443.118 25.9503C443.384 25.9503 443.473 25.8614 443.473 25.6836C443.473 25.3282 443.473 24.9726 443.473 24.5283C443.473 23.4618 443.473 23.4618 444.535 23.6396C444.624 23.6396 444.624 23.6396 444.713 23.6396C445.067 23.7285 445.244 23.9063 445.421 24.1729C445.598 24.6172 445.687 25.0616 445.775 25.5059C445.952 25.8614 445.953 25.9503 446.395 25.9503C446.661 26.0392 446.927 26.039 447.37 26.039Z" fill="#FEFEFF"/>
<path d="M447.362 26.0395C446.92 26.0395 446.654 26.0395 446.388 26.0395C446.034 26.0395 445.945 25.9506 445.768 25.5952C445.591 25.1508 445.591 24.7065 445.414 24.2621C445.237 23.9955 445.06 23.8179 444.705 23.729C444.617 23.729 444.617 23.729 444.528 23.729C443.465 23.6402 443.465 23.6402 443.465 24.6177C443.465 24.9732 443.465 25.3285 443.465 25.7729C443.465 26.0395 443.377 26.0395 443.111 26.0395C442.137 26.1284 442.137 26.1284 442.137 25.1508C442.137 23.64 442.137 22.1294 442.137 20.6186C442.137 20.1743 442.137 20.1743 442.58 20.1743C443.288 19.9965 443.997 19.9963 444.705 19.9963C445.237 19.9963 445.768 20.0853 446.211 20.3519C447.274 20.8852 447.362 22.1294 446.388 22.8403C446.3 22.9292 446.122 22.9292 446.034 23.018C445.857 23.1069 445.857 23.2846 446.034 23.3734C446.831 23.8178 446.919 24.6176 447.097 25.4175C447.097 25.5063 447.185 25.7729 447.362 26.0395ZM443.554 21.8627C443.554 22.1293 443.554 22.3071 443.554 22.5737C443.554 22.7514 443.642 22.8403 443.731 22.8403C444.174 22.8403 444.705 22.8402 445.148 22.6624C445.768 22.3958 445.768 21.6849 445.237 21.3294C444.882 21.0628 444.528 20.9741 444.085 21.0629C443.554 21.1518 443.554 21.1517 443.554 21.596C443.554 21.596 443.554 21.6849 443.554 21.8627Z" fill="white"/>
<path d="M443.551 21.8616C443.551 21.7727 443.551 21.5951 443.551 21.5062C443.551 20.973 443.551 20.9729 444.082 20.9729C444.525 20.9729 444.879 21.0618 445.234 21.2396C445.765 21.595 445.765 22.306 445.145 22.5726C444.702 22.8392 444.259 22.8392 443.728 22.7503C443.551 22.7503 443.551 22.6614 443.551 22.4836C443.639 22.3059 443.639 22.0393 443.551 21.8616Z" fill="#FEFEFF"/>
</svg>
