<svg width="488" height="182" viewBox="0 0 488 182" fill="none" xmlns="http://www.w3.org/2000/svg">
<rect width="488" height="182" fill="white"/>
<rect x="42" y="33" width="169" height="116" fill="#EA4033"/>
<path fill-rule="evenodd" clip-rule="evenodd" d="M73 90.4639V141.928L90.28 142L109 141.928V104.92L105.44 96.3264L142.12 141.928L161.56 142L181 141.928V103.562V52.8848V39H161.56H144.28V78.14L147.495 86.0975C147.495 86.0975 137.703 74.462 127.708 62.144L109.72 39H90.28H73V90.4639Z" fill="white"/>
<path d="M397.616 77.1728V77.9228H398.366H406.399H413.682V97.716V123V123.75H414.432H422.58H431.897H432.647V123V97.716V77.9228H438.949H446H446.75V77.1728V59V58.25H446H422.183H398.366H397.616V59V77.1728ZM237.25 123V123.75H238H248.321H258.641H259.396L259.391 122.996L259.257 99.7229L259.257 99.6322L259.234 99.5442L258.755 97.6406L276.936 123.432L277.16 123.75H277.549H287.803H299.398H300.148V123V98.0123C300.367 88.5796 300.255 78.4008 300.187 72.2549C300.165 70.2728 300.148 68.7102 300.148 67.7273V59V58.25H299.398H289.268H278.489H277.739V59V82.9684C277.432 82.5696 277.075 82.1065 276.671 81.5825C275.107 79.5564 272.827 76.6207 269.963 72.9792L259.243 58.5527L259.018 58.25H258.641H248.321H238H237.25V59V90.187V123ZM333.311 98.5376V99.2876H334.061H353.718H372.622V101.874L372.562 101.707H372.035H353.049H334.061H333.311V102.457V112.343V123V123.75H334.061H362.507H393.268H394.018V123V102.636V82.7037V81.9537H393.268H373.372H355.463L355.517 78.1712V78.1711L355.533 77.0774L356.402 79.0549L356.599 79.5031H357.089H374.949H393.268H394.018V78.7531V69.1818V59V58.25H393.268H363.972H334.061H333.311V59V79.5432V98.5376ZM304.63 122.998L304.628 123.75H305.38H315.634H325.887H326.632L326.637 123.006L326.872 91.4006L326.872 91.3896L326.637 58.9946L326.632 58.25H325.887H315.634H305.481H304.731V59V91.3927V91.3951L304.63 122.998Z" stroke="black" stroke-width="1.5"/>
<path d="M244.053 137.113H239.964L239.977 144.193H238V135.468H244.065L244.053 137.113Z" fill="black"/>
<path d="M249.43 142.323H245.44L244.679 144.193H242.641L246.472 135.468H248.436L252.279 144.193H250.192L249.43 142.323ZM248.804 140.79L247.442 137.45L246.079 140.79H248.804Z" fill="black"/>
<path d="M257.138 135.468C257.9 135.468 258.559 135.597 259.115 135.854C259.68 136.112 260.114 136.477 260.417 136.951C260.719 137.425 260.871 137.986 260.871 138.634C260.871 139.274 260.719 139.834 260.417 140.316C260.114 140.79 259.68 141.156 259.115 141.413C258.559 141.663 257.9 141.787 257.138 141.787H255.407V144.193H253.418V135.468H257.138ZM257.028 140.142C257.625 140.142 258.08 140.013 258.391 139.756C258.702 139.49 258.857 139.116 258.857 138.634C258.857 138.143 258.702 137.77 258.391 137.512C258.08 137.246 257.625 137.113 257.028 137.113H255.407V140.142H257.028Z" fill="black"/>
<path d="M267.571 142.323H263.58L262.819 144.193H260.781L264.612 135.468H266.576L270.419 144.193H268.332L267.571 142.323ZM266.944 140.79L265.582 137.45L264.219 140.79H266.944Z" fill="black"/>
<path d="M279.441 135.468V144.193H277.452V140.616H273.547V144.193H271.559V135.468H273.547V138.908H277.452V135.468H279.441Z" fill="black"/>
<path d="M288.162 137.113H285.412V144.193H283.448V137.113H280.71V135.468H288.162V137.113Z" fill="black"/>
<path d="M289.411 135.468H291.388V141.151L295.488 135.468H297.354V144.193H295.39V138.522L291.289 144.193H289.411V135.468Z" fill="black"/>
<path d="M306.357 135.468V144.193H304.393V141.874H302.576L301.053 144.193H298.954L300.746 141.563C300.165 141.322 299.719 140.96 299.408 140.478C299.097 139.988 298.942 139.402 298.942 138.721C298.942 138.048 299.093 137.47 299.396 136.988C299.699 136.498 300.128 136.124 300.685 135.867C301.242 135.601 301.896 135.468 302.649 135.468H306.357ZM302.698 137.113C302.134 137.113 301.7 137.246 301.397 137.512C301.102 137.778 300.955 138.173 300.955 138.696C300.955 139.203 301.098 139.593 301.385 139.868C301.671 140.142 302.093 140.279 302.649 140.279H304.393V137.113H302.698Z" fill="black"/>
<path d="M316.088 144.342C315.196 144.342 314.389 144.147 313.669 143.756C312.957 143.366 312.396 142.83 311.987 142.149C311.586 141.459 311.386 140.686 311.386 139.83C311.386 138.974 311.586 138.206 311.987 137.524C312.396 136.835 312.957 136.295 313.669 135.904C314.389 135.514 315.196 135.318 316.088 135.318C316.98 135.318 317.782 135.514 318.494 135.904C319.206 136.295 319.767 136.835 320.176 137.524C320.585 138.206 320.79 138.974 320.79 139.83C320.79 140.686 320.585 141.459 320.176 142.149C319.767 142.83 319.206 143.366 318.494 143.756C317.782 144.147 316.98 144.342 316.088 144.342ZM316.088 142.622C316.595 142.622 317.054 142.506 317.463 142.273C317.872 142.032 318.191 141.7 318.42 141.276C318.658 140.852 318.776 140.37 318.776 139.83C318.776 139.29 318.658 138.808 318.42 138.384C318.191 137.961 317.872 137.632 317.463 137.4C317.054 137.159 316.595 137.038 316.088 137.038C315.58 137.038 315.122 137.159 314.713 137.4C314.303 137.632 313.98 137.961 313.743 138.384C313.514 138.808 313.399 139.29 313.399 139.83C313.399 140.37 313.514 140.852 313.743 141.276C313.98 141.7 314.303 142.032 314.713 142.273C315.122 142.506 315.58 142.622 316.088 142.622Z" fill="black"/>
<path d="M328.771 137.113H326.02V144.193H324.056V137.113H321.318V135.468H328.771V137.113Z" fill="black"/>
<path d="M337.213 135.468V144.193H335.248V137.113H332.302L332.24 138.933C332.2 140.171 332.101 141.176 331.946 141.949C331.79 142.714 331.528 143.304 331.16 143.719C330.8 144.126 330.292 144.33 329.638 144.33C329.368 144.33 329.04 144.284 328.656 144.193L328.778 142.485C328.885 142.518 329.003 142.535 329.134 142.535C329.609 142.535 329.941 142.252 330.129 141.687C330.317 141.114 330.436 140.221 330.485 139.008L330.608 135.468H337.213Z" fill="black"/>
<path d="M339.359 135.468H341.336V141.151L345.436 135.468H347.303V144.193H345.338V138.522L341.238 144.193H339.359V135.468Z" fill="black"/>
<path d="M356.262 135.468V144.193H354.298V141.052C353.553 141.326 352.861 141.463 352.223 141.463C351.069 141.463 350.185 141.185 349.571 140.628C348.957 140.063 348.65 139.253 348.65 138.198V135.468H350.614V137.973C350.614 138.571 350.77 139.024 351.081 139.332C351.4 139.631 351.858 139.78 352.456 139.78C353.111 139.78 353.725 139.652 354.298 139.394V135.468H356.262Z" fill="black"/>
<path d="M366.28 135.468V144.193H364.292V140.616H360.387V144.193H358.398V135.468H360.387V138.908H364.292V135.468H366.28Z" fill="black"/>
<path d="M372.534 144.342C371.642 144.342 370.836 144.147 370.116 143.756C369.404 143.366 368.843 142.83 368.434 142.149C368.033 141.459 367.832 140.686 367.832 139.83C367.832 138.974 368.033 138.206 368.434 137.524C368.843 136.835 369.404 136.295 370.116 135.904C370.836 135.514 371.642 135.318 372.534 135.318C373.426 135.318 374.229 135.514 374.941 135.904C375.653 136.295 376.213 136.835 376.623 137.524C377.032 138.206 377.236 138.974 377.236 139.83C377.236 140.686 377.032 141.459 376.623 142.149C376.213 142.83 375.653 143.366 374.941 143.756C374.229 144.147 373.426 144.342 372.534 144.342ZM372.534 142.622C373.042 142.622 373.5 142.506 373.909 142.273C374.319 142.032 374.638 141.7 374.867 141.276C375.104 140.852 375.223 140.37 375.223 139.83C375.223 139.29 375.104 138.808 374.867 138.384C374.638 137.961 374.319 137.632 373.909 137.4C373.5 137.159 373.042 137.038 372.534 137.038C372.027 137.038 371.568 137.159 371.159 137.4C370.75 137.632 370.427 137.961 370.189 138.384C369.96 138.808 369.846 139.29 369.846 139.83C369.846 140.37 369.96 140.852 370.189 141.276C370.427 141.7 370.75 142.032 371.159 142.273C371.568 142.506 372.027 142.622 372.534 142.622Z" fill="black"/>
<path d="M378.769 135.468H380.745V141.151L384.846 135.468H386.712V144.193H384.748V138.522L380.647 144.193H378.769V135.468ZM382.734 134.907C381.163 134.907 380.369 134.271 380.352 133H381.715C381.732 133.607 382.071 133.91 382.734 133.91C383.062 133.91 383.311 133.835 383.483 133.686C383.655 133.528 383.745 133.299 383.753 133H385.116C385.108 133.623 384.907 134.097 384.514 134.421C384.121 134.745 383.528 134.907 382.734 134.907Z" fill="black"/>
<path d="M396.392 144.342C395.517 144.342 394.723 144.151 394.011 143.769C393.307 143.378 392.75 142.842 392.341 142.161C391.94 141.471 391.739 140.694 391.739 139.83C391.739 138.966 391.94 138.193 392.341 137.512C392.75 136.822 393.307 136.286 394.011 135.904C394.723 135.514 395.521 135.318 396.405 135.318C397.15 135.318 397.821 135.451 398.418 135.717C399.024 135.983 399.531 136.365 399.941 136.864L398.664 138.06C398.083 137.379 397.362 137.038 396.503 137.038C395.971 137.038 395.496 137.159 395.079 137.4C394.661 137.632 394.334 137.961 394.097 138.384C393.867 138.808 393.753 139.29 393.753 139.83C393.753 140.37 393.867 140.852 394.097 141.276C394.334 141.7 394.661 142.032 395.079 142.273C395.496 142.506 395.971 142.622 396.503 142.622C397.362 142.622 398.083 142.277 398.664 141.588L399.941 142.784C399.531 143.291 399.024 143.678 398.418 143.943C397.813 144.209 397.137 144.342 396.392 144.342Z" fill="black"/>
<path d="M409.897 142.547V146H408.056V144.193H401.991V146H400.149L400.161 142.547H400.505C401.021 142.531 401.385 142.149 401.598 141.401C401.811 140.653 401.942 139.585 401.991 138.198L402.089 135.468H408.694V142.547H409.897ZM403.746 138.384C403.705 139.423 403.619 140.296 403.489 141.002C403.358 141.7 403.157 142.215 402.887 142.547H406.73V137.113H403.783L403.746 138.384Z" fill="black"/>
<path d="M417.89 142.572V144.193H411.236V135.468H417.731V137.088H413.213V138.983H417.203V140.553H413.213V142.572H417.89Z" fill="black"/>
<path d="M427.158 135.468V144.193H425.194V137.113H422.247L422.186 138.933C422.145 140.171 422.046 141.176 421.891 141.949C421.735 142.714 421.474 143.304 421.105 143.719C420.745 144.126 420.238 144.33 419.583 144.33C419.313 144.33 418.985 144.284 418.601 144.193L418.723 142.485C418.83 142.518 418.949 142.535 419.079 142.535C419.554 142.535 419.886 142.252 420.074 141.687C420.262 141.114 420.381 140.221 420.43 139.008L420.553 135.468H427.158Z" fill="black"/>
<path d="M432.631 140.678H431.256V144.193H429.28V135.468H431.256V138.995H432.681L434.94 135.468H437.039L434.227 139.681L437.125 144.193H434.866L432.631 140.678Z" fill="black"/>
<path d="M438.057 135.468H440.033V141.151L444.134 135.468H446V144.193H444.036V138.522L439.935 144.193H438.057V135.468Z" fill="black"/>
</svg>
