<svg width="317" height="41" viewBox="0 0 317 41" fill="none" xmlns="http://www.w3.org/2000/svg">
<path d="M44.7952 25.5122C41.7314 29.2781 35.3396 31.8771 27.9442 31.8771C17.5377 31.8771 9.13864 26.7322 9.13864 20.4204C9.13864 14.1086 17.5906 8.96371 27.9442 8.96371C35.0755 8.96371 41.3088 11.4036 44.4783 14.9573L51.0285 9.0698C46.0102 3.60667 37.5582 0.0529785 27.8913 0.0529785C12.5194 0.0529785 0 9.22893 0 20.5265C0 31.824 12.4666 41 27.8913 41C37.928 41 46.7497 37.075 51.6624 31.2406" fill="#939598"/>
<path d="M137.398 9.12291V40.5757H128.524V9.12291H113.363V0.212158H152.559V9.12291" fill="#939598"/>
<path d="M60.4297 18.7762V0.212158H69.4099V18.8292C69.4099 26.0957 75.3262 32.0362 82.5632 32.0362C89.8001 32.0362 95.7165 26.1488 95.7165 18.8292V0.212158H104.591V18.7762C104.591 31.0285 94.7128 40.947 82.5103 40.947C70.3079 40.947 60.4297 31.0285 60.4297 18.7762Z" fill="#B2C891"/>
<path d="M165.656 0.15918C163.173 0.15918 161.219 2.17472 161.219 4.61456V36.0674C161.219 38.5602 163.226 40.5227 165.656 40.5227H199.094V31.612H170.146V24.8759H198.883V15.9121H170.146V9.06993H199.041V0.15918" fill="#939598"/>
<path d="M243.574 29.9146C252.607 27.74 258.999 22.0647 258.999 15.4347C258.999 6.89522 248.381 0 235.281 0C222.18 0 211.562 6.89522 211.562 15.4347V40.5757H220.49V15.4347C220.49 11.934 227.146 9.06987 235.281 9.06987C243.469 9.06987 250.072 11.934 250.072 15.4347C250.072 18.9353 243.416 21.7995 235.281 21.7995C233.432 21.7995 231.689 21.6934 230.051 21.4282C229.84 21.3752 229.681 21.4282 229.47 21.4282C226.987 21.4282 224.98 23.4437 224.98 25.9366C224.98 27.2626 225.561 28.4826 226.512 29.2782L243.416 40.5757H259.422" fill="#939598"/>
<path d="M277.063 33.097L272.467 40.5757H262.008L285.779 2.01552C286.571 0.795595 287.945 0 289.477 0C291.008 0 292.382 0.795595 293.174 2.01552L316.945 40.5757H306.486L301.89 33.097M282.609 24.1333H296.449L289.529 12.8887L282.609 24.1333Z" fill="#939598"/>
<path d="M312.615 0.530396C315.045 0.530396 316.999 2.49287 316.999 4.93272C316.999 7.37257 315.045 9.33506 312.615 9.33506C310.185 9.33506 308.23 7.37257 308.23 4.93272C308.23 2.49287 310.185 0.530396 312.615 0.530396ZM312.615 8.8577C314.781 8.8577 316.524 7.10737 316.524 4.93272C316.524 2.75807 314.781 1.00775 312.615 1.00775C310.449 1.00775 308.706 2.75807 308.706 4.93272C308.706 7.10737 310.449 8.8577 312.615 8.8577ZM310.925 2.33376H312.932C313.935 2.33376 314.622 2.652 314.622 3.76585C314.622 4.66753 314.094 5.03881 313.302 5.14489L314.886 7.5317H314.358L312.773 5.14489H311.4V7.5317H310.925V2.33376ZM311.4 4.77361H312.509C313.46 4.77361 314.147 4.66753 314.147 3.76585C314.147 2.97024 313.619 2.70504 312.932 2.70504H311.4V4.77361Z" fill="#939598"/>
</svg>
