<svg width="72" height="40" fill="none" xmlns="http://www.w3.org/2000/svg"><path d="M.017 24.007c0-3.77.017-7.539-.017-11.308-.008-.93.333-1.586 1.032-2.166.785-.64 1.51-1.347 2.26-2.038C4.426 7.446 5.543 6.38 6.703 5.357c1.168-1.032 2.294-2.132 3.48-3.147.596-.512 1.142-1.083 1.722-1.62.4-.367.887-.572 1.433-.58 3.64-.009 7.29-.017 10.932 0 .75 0 1.51.008 2.26.017 1.168.008 2.038.503 2.737 1.356.495.605.7 1.313.725 2.115.086 3.095.069 6.19.111 9.286v.316c-.025.426-.179.614-.588.631-.555.026-1.109.017-1.663 0-.265-.008-.41-.196-.418-.452-.026-2.814-.068-5.62-.068-8.434 0-1.194-.887-2.183-2.124-2.192-3.573-.008-7.137.018-10.71.035-.401 0-.453.05-.453.469 0 2.268-.025 4.536.018 6.805a2.744 2.744 0 01-2.67 2.831c-1.373.034-2.746.017-4.127.026-1.373.008-2.746.025-4.128.008-.486-.008-.69.273-.622.69.11.675.085 1.348.094 2.03.034 5.612.042 11.223.085 16.834.009.793-.06 1.595.11 2.388.163.767 1.024 1.5 1.817 1.526 1.8.06 3.599.017 5.398 0 4.98-.05 9.952-.076 14.932-.076.512 0 1.024-.026 1.484-.316.572-.358.947-.853 1.066-1.518.12-.64.069-1.279.017-1.918-.042-.589.017-1.177.026-1.766 0-.34.213-.511.503-.529.58-.025 1.16-.093 1.74.052.298.068.4.256.41.503.033 1.518.127 3.044.05 4.562-.085 1.663-.98 2.806-2.507 3.42a3.185 3.185 0 01-1.1.204c-.478.018-.947.069-1.424.06-3.326-.017-6.652-.017-9.978-.008-3.794.008-7.59 0-11.376.042C2.03 39.024.47 37.78.068 35.877c-.05-.247-.017-.503-.017-.758V24.007H.017z" fill="#0E0C17"/><path d="M42.29 23.768c0-3.692.017-7.385-.009-11.086-.009-.733.247-1.27.776-1.748 2.217-2.013 4.426-4.034 6.635-6.055.878-.801 1.748-1.62 2.635-2.422.571-.511 1.142-1.015 1.697-1.552.375-.367.861-.511 1.39-.511 3.931 0 7.862 0 11.794-.009.392 0 .793-.026 1.185-.009 1.032.035 1.85.461 2.516 1.263.605.733.793 1.56.793 2.473.025 2.959.05 5.918.085 8.877 0 .102 0 .213-.009.316-.042.366-.179.52-.554.537-.486.025-.98.025-1.467.008-.443-.017-.57-.162-.58-.63-.017-1.365-.034-2.73-.042-4.086-.009-1.398.017-2.788-.034-4.187-.043-1.014-.827-1.953-2.055-1.961-1.91-.009-3.812 0-5.723.008-1.552 0-3.112.009-4.664.018-.52 0-.563.042-.563.57 0 2.227-.009 4.452.017 6.678.008 1.143-.776 2.08-1.731 2.482-.546.23-1.1.187-1.646.196-2.413.017-4.818.017-7.214.025-.623 0-.674.052-.666.674.077 6.157.086 12.306.103 18.463 0 .64.025 1.279.042 1.919.017.793.46 1.321 1.1 1.697.376.221.785.272 1.22.272 3.744-.034 7.479-.05 11.222-.076 2.815-.017 5.629-.026 8.443-.035.469 0 .904-.102 1.305-.332.784-.452 1.032-1.194 1.066-2.03.034-.886-.052-1.782-.094-2.669-.034-.682.213-.912.904-.92.392 0 .793-.01 1.185.008.418.017.572.162.572.571.025 1.467.136 2.942.034 4.409-.111 1.68-.81 3.07-2.985 3.556-.554.128-1.109.11-1.663.11h-7.325c-4.58.01-9.168.01-13.747.044-1.365.008-2.448-.478-3.25-1.57-.468-.64-.656-1.373-.656-2.174.017-3.701.009-7.41.009-11.112h-.052zm-17.687-8.042h9.91c.349 0 .699.06.997.23.529.3.708.794.708 1.374v4.187c0 1.586-.026 3.172-.009 4.758.009 1.288-.708 1.757-1.748 1.757a7503.91 7503.91 0 00-19.563 0c-.435 0-.852-.017-1.228-.264-.494-.324-.64-.819-.64-1.373v-5.492c0-1.185.018-2.362-.008-3.548-.025-1.023.614-1.603 1.638-1.612 3.317-.025 6.634-.017 9.943-.017zm-1.868 6.158c0 .733.009 1.466-.008 2.2 0 .204.051.281.264.273.623-.035 1.262.042 1.876-.069.606-.11 1.169-.332 1.501-.887.47-.776.563-1.611.29-2.481-.188-.614-.546-1.117-1.177-1.313a4.347 4.347 0 00-1.322-.23c-.392 0-.784.016-1.176.05-.197.018-.256.06-.248.256.009.725 0 1.467 0 2.2zm-4.468-.026v1.782c0 .7 0 .691.682.674.17 0 .256-.051.256-.23 0-.333 0-.657.008-.99.017-.528.017-.511.538-.545.776-.052 1.492-.213 1.799-1.066.102-.282.068-.572.051-.853-.043-.588-.4-1.04-.963-1.143-.7-.12-1.416-.102-2.124-.094-.222 0-.264.086-.256.282.017.742.009 1.458.009 2.183zm11.205-2.49c-.29.017-.571.008-.861.051-.64.085-.64.094-.648.742v.034c-.009 1.22-.051 2.439.043 3.65.042.512.025.512.545.512.043 0 .086-.009.128 0 .205.025.282-.06.282-.273-.009-.486.008-.981-.009-1.467-.008-.205.06-.256.256-.247.375.017.742 0 1.117 0 .11 0 .205-.009.239-.145.128-.504 0-.674-.512-.674-.34 0-.793.12-.99-.051-.22-.196-.042-.657-.067-1.006v-.06c-.026-.18.042-.248.23-.239.35.008.7.034 1.057 0 .512-.043.503-.017.486-.546-.008-.145-.05-.196-.196-.213a8.033 8.033 0 00-1.1-.068z" fill="#EA4033"/><path d="M62.38 23.214c.802-.034 1.595-.145 2.397-.128.554.009 1.057.17 1.552.392 1.185.546 1.313 2.422.128 3.121-1.066.631-2.107.649-3.173 0-.622-.375-1.168-.852-1.714-1.33-.187-.17-.366-.188-.605-.11-1.237.409-2.482.81-3.727 1.176-.827.247-1.125.904-1.415 1.612-.52 1.262-1.186 2.439-2.252 3.334-.588.495-1.287.768-2.063.717-1.015-.06-2.166-.836-2.414-1.817-.136-.546.06-.99.341-1.416.418-.639 1.007-1.108 1.672-1.483.98-.555 1.961-1.092 3.01-1.527.785-.324 1.28-.938 1.544-1.722.281-.836.656-1.638 1.006-2.448.213-.494.213-1.015-.111-1.475-.614-.836-.998-1.782-1.262-2.797-.316-1.186-.154-2.294.384-3.369.597-1.202 2.02-1.424 3.027-.75.895.597 1.398 1.441 1.407 2.55.009.861-.239 1.671-.46 2.481-.162.589-.393 1.168-.555 1.757-.102.367.017.7.299.972.759.716 1.5 1.45 2.26 2.166.213.196.494.026.724.094zm-4.664-4.801c.537-.921.588-1.936.58-2.942 0-.35-.205-.665-.546-.836-.18-.094-.324-.094-.46.102-.222.333-.316.7-.359 1.092-.094.964.128 1.833.785 2.584zm-4.025 9.67a.447.447 0 00-.316 0c-.938.307-1.722.862-2.388 1.578-.102.11-.085.17.026.247.136.094.281.196.41.299.187.153.392.187.596.05.793-.536 1.467-1.176 1.672-2.174zm3.718-3.684c.827-.247 1.595-.477 2.413-.725-.503-.417-.972-.793-1.424-1.185-.162-.145-.213.009-.247.094-.248.58-.478 1.16-.742 1.816zm6.575.495c.835.512 1.049.512 1.398.034-.46.026-.904-.128-1.398-.034z" fill="#EA4033"/><path d="M22.735 21.884c0-.734.009-1.467-.008-2.2 0-.197.051-.24.247-.256.392-.026.785-.052 1.177-.052.452 0 .904.094 1.322.23.64.197.989.708 1.177 1.322.272.87.179 1.706-.29 2.482-.333.546-.896.776-1.501.887-.623.11-1.254.043-1.876.068-.214.009-.265-.068-.265-.273.026-.742.017-1.475.017-2.208zm.973.025v1.467c0 .11-.018.205.153.213.435.017.836-.068 1.228-.256a.95.95 0 00.478-.503 2.63 2.63 0 00.196-1.202c-.052-.623-.197-1.177-.896-1.382-.29-.085-.588-.042-.887-.05-.204-.01-.281.05-.273.272.017.486 0 .964 0 1.441zm-5.441-.051c0-.725.008-1.441 0-2.166 0-.196.034-.273.255-.281.708-.009 1.416-.026 2.124.093.563.094.92.555.963 1.143.017.282.052.572-.05.853-.308.853-1.024 1.015-1.8 1.066-.52.034-.529.008-.537.546-.009.332-.017.656-.009.989 0 .179-.077.23-.256.23-.682.017-.682.026-.682-.674-.008-.605-.008-1.202-.008-1.799zm.98-.912v.29c0 .503 0 .503.512.503.503 0 .878-.333.887-.793.017-.444-.29-.717-.827-.75-.572-.026-.572-.026-.572.553v.197zm10.225-1.578c.358.008.725.017 1.083.06.145.017.196.06.196.213.017.52.026.503-.486.546-.358.025-.7.008-1.057 0-.188-.009-.256.06-.23.238v.06c.025.35-.154.81.068 1.006.196.17.648.052.989.052.512 0 .64.179.512.673-.035.137-.128.145-.24.145-.374 0-.741.017-1.116 0-.197-.008-.256.043-.256.247.017.487 0 .981.008 1.467 0 .205-.068.299-.281.273-.043-.008-.085 0-.128 0-.52 0-.503 0-.546-.511-.094-1.22-.042-2.44-.042-3.65v-.035c.008-.648.008-.656.648-.741.307-.035.597-.035.878-.043zm28.244-.955c-.657-.75-.879-1.62-.776-2.584.043-.384.128-.75.358-1.092.136-.204.273-.196.46-.102.342.17.546.486.546.836 0 1.006-.05 2.02-.588 2.942zm-4.025 9.67c-.205.998-.87 1.638-1.671 2.175-.205.136-.41.11-.597-.051-.128-.111-.273-.205-.41-.299-.11-.077-.127-.136-.025-.247.674-.716 1.45-1.27 2.388-1.578a.447.447 0 01.315 0zM57.41 24.4c.264-.649.494-1.237.741-1.817.034-.085.085-.239.247-.094.452.392.921.767 1.424 1.185-.818.24-1.594.478-2.413.725zm6.574.494c.494-.094.938.068 1.398.034-.35.477-.562.469-1.398-.034z" fill="#fff"/><path d="M23.707 21.909c0-.477.009-.955-.008-1.433-.009-.213.068-.281.273-.273.298.009.597-.034.887.052.69.204.844.759.895 1.381.034.418-.043.819-.196 1.203a.98.98 0 01-.478.503 2.527 2.527 0 01-1.228.256c-.17-.009-.153-.111-.153-.214.008-.494.008-.989.008-1.475zm-4.459-.963v-.188c0-.58 0-.58.57-.554.538.025.845.307.828.75-.017.46-.392.793-.887.793-.511 0-.511 0-.511-.503v-.298z" fill="#EA4033"/></svg>