<svg width="48" height="15" fill="none" xmlns="http://www.w3.org/2000/svg"><path d="M40.815 4.26v-.1h-3.707V.1H47.9v4.06h-3.254V14.9h-3.832V4.259zM9.263 6.195l.08-.06-.08.06.18.24V.1h4.627v1.945c0 .234.004.604.009 1.071.016 1.442.041 3.818-.01 6.023h0V14.9H9.18L4.477 8.125l-.18.08.335 1.353.03 5.342H.1V.1h4.612l2.446 3.342h0l.002.002a283.038 283.038 0 011.96 2.563l.107.141.027.036.007.01.002.002h0zm21.977-.54h4.491V14.9H22.268v-4.615h8.592l.285.802.195-.033V9.166h-9.072V.1H35.73v4.43h-8.183l-.235-.542h0l-.26-.602-.192.039-.015 1.064-.015 1.065-.001.102h4.41zM15.673 7.593v0V.1h4.509l.054 7.492v.001l-.054 7.307H15.65l.022-7.307z" stroke="#fff" stroke-width=".2"/></svg>