<svg width="74" height="74" fill="none" xmlns="http://www.w3.org/2000/svg"><circle cx="37" cy="37" r="37" fill="#fff"/><path fill-rule="evenodd" clip-rule="evenodd" d="M53.489 33.395h4.556V47H63V33.395h4V28H53.489v5.395zM8 37.26V47h5.855l-.038-6.91-.416-1.726L19.218 47h6.198v-7.42c.082-3.702 0-7.784 0-8.99V28h-5.931v7.773s-.962-1.325-2.587-3.488L13.855 28H8v9.259zm27.248-3.16v5.639H46.4V42l-.38-1.1H35.249V47h16.794V35.037h-10.94l.018-1.349.019-1.349.32.763.32.762h10.262V28H35.248v6.099zm-8.107 3.518L27.113 47h5.817l.066-9.383L32.93 28h-5.79v9.617z" fill="#EA4033"/></svg>