<svg width="245" height="77" fill="none" xmlns="http://www.w3.org/2000/svg"><path d="M187.851 22.296v.5h18.769V76.5h21.404V22.796H244.5V.5h-56.649v21.796zM.5 76v.5h25.117l-.003-.503-.156-27.273v-.06l-.015-.058-1.055-4.203 22.407 31.884.15.213H73.23V46.713c.255-11.047.124-22.962.045-30.167a593.216 593.216 0 01-.046-5.319V.5H47.802v29.7a919.143 919.143 0 00-1.92-2.504c-1.827-2.374-4.49-5.815-7.838-10.083L25.516.703 25.366.5H.5V76zm112.225-28.667v.5h45.926v5.568l-.591-1.644-.119-.331h-45.216V76.5h70.169V28.278h-45.047l.069-4.817.042-3.018.393.896h0l1.319 3.01.131.3h43.093V.5h-70.169v46.834zM79.218 75.998l-.001.502h24.955l.004-.496.274-37.037v-.008L104.176.996 104.172.5H79.336v38.463l-.118 37.035z" stroke="#fff"/></svg>