<svg width="79" height="25" fill="none" xmlns="http://www.w3.org/2000/svg"><path d="M60.324 7.53v.5h5.793V24.5h7.298V8.03H78.5V.5H60.324v7.03zM.5 24v.5h8.446l-.003-.503-.047-8.13 5.956 8.422.15.211h8.637v-9.477c.079-3.394.038-7.06.014-9.268-.008-.71-.014-1.268-.014-1.619V.5h-8.54v8.44a435.34 435.34 0 00-2.392-3.057L8.844.701 8.694.5H.5V24zm35.637-8.791v.5h14.175V17.5H36.137v7h22.349V9.019H44.58V7.346h13.855l.004-.496.047-5.846L58.49.5H36.137v14.709zm-10.341 8.79l-.002.501h8.396V.5h-8.358v12.142l-.036 11.356z" stroke="#EA4033"/></svg>