<svg width="117" height="28" fill="none" xmlns="http://www.w3.org/2000/svg"><path fill-rule="evenodd" clip-rule="evenodd" d="M100.74 9.247h5.484V25h5.962V9.247H117V3h-16.26v6.247zM46 13.72V25h7.046L53 17l-.5-2 7 10h7.458v-8.593c.099-4.285 0-9.012 0-10.407V3H59.82v9s-1.157-1.533-3.113-4.038L53.046 3H46v10.72zm32.79-3.658v6.529h13.42v2.621l-.457-1.274H78.79V25H99V11.148H85.836l.022-1.562.022-1.561.385.882.385.883H99V3H78.79v7.062zm-9.756 4.074L69 25h7l.08-10.864L76 3h-6.966v11.136z" fill="#fff"/><path fill="#EA4033" d="M0 0h39v28H0z"/><path d="M6.75 25.983v.25h.249l4 .017h.002l4.333-.017h.25V17.31l-.02-.045-.158-.384 7.399 9.258.074.094H23l4.5.017h.002l4.5-.017h.255l-.006-.256-.212-8.906c.117-4.91.212-10.234.212-11.836V1.75h-9v9.418l.018.045.151.378-.404-.49a433.952 433.952 0 01-3.155-3.863l-4.162-5.39-.075-.098H6.75v24.233z" fill="#fff" stroke="#000" stroke-width=".5"/></svg>