<svg width="19" height="19" fill="none" xmlns="http://www.w3.org/2000/svg"><path fill-rule="evenodd" clip-rule="evenodd" d="M2.5 9.095a6.595 6.595 0 1113.19 0 6.595 6.595 0 01-13.19 0zM9.095 1a8.095 8.095 0 105.17 14.324l2.87 2.87a.75.75 0 101.06-1.06l-2.87-2.87A8.095 8.095 0 009.095 1z" fill="#fff"/><path d="M14.264 15.324l.354-.353-.322-.322-.351.29.32.385zm3.93 2.87l-.353-.353.354.353zm0-1.06l-.353.353.354-.353zm-2.869-2.87l-.385-.32-.29.35.322.323.353-.353zM9.095 2A7.095 7.095 0 002 9.095h1A6.095 6.095 0 019.095 3V2zm7.095 7.095A7.095 7.095 0 009.095 2v1a6.095 6.095 0 016.095 6.095h1zM9.095 16.19a7.095 7.095 0 007.095-7.095h-1a6.095 6.095 0 01-6.095 6.095v1zM2 9.095a7.095 7.095 0 007.095 7.095v-1A6.095 6.095 0 013 9.095H2zm-.5 0C1.5 4.9 4.9 1.5 9.095 1.5v-1A8.595 8.595 0 00.5 9.095h1zm7.595 7.595A7.595 7.595 0 011.5 9.095h-1a8.595 8.595 0 008.595 8.595v-1zm4.85-1.75a7.562 7.562 0 01-4.85 1.75v1c2.086 0 4-.744 5.489-1.981l-.639-.77zm3.543 2.9l-2.87-2.87-.707.708 2.87 2.87.707-.707zm.353 0a.25.25 0 01-.353 0l-.707.708a1.25 1.25 0 001.768 0l-.708-.707zm0-.353a.25.25 0 010 .354l.707.707a1.25 1.25 0 000-1.768l-.707.707zm-2.87-2.87l2.87 2.87.707-.707-2.87-2.87-.707.707zm1.719-5.522a7.561 7.561 0 01-1.75 4.85l.77.638a8.562 8.562 0 001.98-5.488h-1zM9.095 1.5c4.194 0 7.595 3.4 7.595 7.595h1A8.595 8.595 0 009.095.5v1z" fill="#fff"/></svg>