<svg width="24" height="24" fill="none" xmlns="http://www.w3.org/2000/svg"><path fill-rule="evenodd" clip-rule="evenodd" d="M11.25 6a3.75 3.75 0 017.425-.75H22a.75.75 0 010 1.5h-3.325A3.751 3.751 0 0111.25 6zM15 3.75a2.25 2.25 0 110 4.5 2.25 2.25 0 010-4.5zM2 5.25a.75.75 0 000 1.5h6a.75.75 0 000-1.5H2zm0 13.5h2.325A3.751 3.751 0 0011.75 18a3.75 3.75 0 00-7.425-.75H2a.75.75 0 000 1.5zm6 1.5a2.25 2.25 0 110-4.5 2.25 2.25 0 010 4.5zm7-3a.75.75 0 000 1.5h7a.75.75 0 000-1.5h-7z" fill="#18191A"/></svg>