<svg width="144" height="45" fill="none" xmlns="http://www.w3.org/2000/svg"><path d="M122.395 12.778v-.25h-11.122V.25h32.477v12.278h-9.763V44.75h-11.592V12.778zm-94.565 5.78l.2-.149-.2.15.45.601V.25h13.977v5.886c0 .7.012 1.809.027 3.21.047 4.327.124 11.455-.027 18.073h0V44.75H27.511L13.39 24.403l-.449.203 1.007 4.062.092 16.082H.25V.25h13.913l7.351 10.047h0l.004.005a846.875 846.875 0 015.884 7.688l.32.425.081.108.02.027.006.007.001.001h0zm65.89-1.641h13.523V44.75H66.754V30.806h25.863l.867 2.439.485-.084V27.55H66.753V.25h40.491v13.389H82.611l-.717-1.655h0l-.781-1.806-.48.096-.044 3.195-.045 3.194-.004.254h13.18zm-46.752 5.862V.25h13.628l.162 22.526v.004l-.161 21.97H46.899l.069-21.971z" stroke="#fff" stroke-width=".5"/></svg>