<svg width="60" height="60" viewBox="0 0 60 60" fill="none" xmlns="http://www.w3.org/2000/svg">
<circle cx="30" cy="30" r="30" fill="#EA4033"/>
<path d="M23.2091 15.0356C23.9702 15.0396 24.7274 15.0436 25.4885 15.0436C29.9322 15.0475 34.3798 15.0515 38.8236 15.0555C42.1177 15.0594 45.4158 15.0673 48.7099 15.0713C48.8209 15.0713 48.9042 15.107 48.9993 15.1664C49.582 15.5351 49.7961 16.0584 49.808 16.7481C49.8555 19.8599 49.8436 22.9677 49.8397 26.0795C49.8357 30.3448 49.8754 34.6141 49.804 38.8794C49.8 39.1252 49.7644 39.367 49.7763 39.6128C49.808 40.2669 49.1856 40.8417 48.5553 40.8813C47.6912 40.9368 46.827 40.9408 45.9628 40.9645C45.8677 40.9685 45.8399 40.9368 45.8399 40.8456C45.8439 40.3818 45.8479 39.922 45.8399 39.4582C45.836 39.3155 45.9153 39.3353 46.0025 39.3353C46.7041 39.3353 47.4018 39.3314 48.1034 39.3393C48.2422 39.3393 48.2778 39.3076 48.2778 39.1649C48.2739 31.7164 48.2739 24.264 48.2778 16.8155C48.2778 16.6847 48.2501 16.6371 48.1074 16.6371C43.2197 16.649 38.332 16.6569 33.4443 16.6649C30.4713 16.6688 27.4982 16.6688 24.5292 16.6728C20.6404 16.6807 16.7477 16.6886 12.859 16.6926C12.6964 16.6926 12.6727 16.7441 12.6727 16.8908C12.6608 24.2996 12.6449 31.7124 12.6211 39.1213C12.6211 39.3115 12.6806 39.3393 12.851 39.3393C20.5255 39.3353 28.1999 39.3353 35.8783 39.3314C36.0765 39.3314 36.1478 39.371 36.1359 39.5851C36.1161 39.9854 36.128 40.3898 36.132 40.7941C36.132 40.913 36.1121 40.9645 35.9734 40.9645C32.7506 40.9527 29.5278 40.9487 26.3051 40.9408C23.8553 40.9368 21.4055 40.9328 18.9517 40.9209C17.0965 40.913 15.2414 40.8972 13.3822 40.8813C12.9581 40.8773 12.5379 40.8694 12.1177 40.8139C11.6301 40.7505 11.1663 40.2471 11.1306 39.7515C11.0593 38.7764 11.0633 37.7973 11.0514 36.8221C11.0514 36.7111 11.0474 36.5962 11.0434 36.4852C11.0157 36.3028 11.0395 36.1165 11.0315 35.9342C11.0315 35.7875 11.0315 35.6408 11.0315 35.4941C11.0315 35.3475 11.0315 35.1968 11.0315 35.0502C11.0315 34.7608 11.0315 34.4754 11.0315 34.186C11.0315 33.9204 11.0315 33.6588 11.0315 33.3932C11.0315 33.1276 11.0315 32.866 11.0315 32.6004C11.0315 32.3625 11.0315 32.1247 11.0315 31.8868C11.0315 31.6609 11.0315 31.4349 11.0315 31.213C11.0315 30.9513 11.0315 30.6857 11.0315 30.4241C11.0315 30.1744 11.0315 29.9246 11.0315 29.6709C11.0315 29.4569 11.0315 29.2468 11.0315 29.0327C11.0315 28.8306 11.0315 28.6324 11.0315 28.4302C11.0315 28.0219 11.0315 27.6136 11.0315 27.2093C11.0315 26.7613 11.0315 26.3134 11.0315 25.8654C11.0315 25.3977 11.0315 24.9339 11.0315 24.4661C11.0315 24.4027 11.0514 24.3353 11.0117 24.2719C11.0117 23.7447 11.0117 23.2135 11.0117 22.6863C11.0553 22.4603 11.0196 22.2304 11.0315 22.0044C11.0315 21.7428 11.0315 21.4812 11.0315 21.2196C11.0315 20.9302 11.0315 20.6408 11.0315 20.3514C11.0315 20.0502 11.0315 19.7489 11.0315 19.4516C11.0315 19.3168 11.0315 19.182 11.0315 19.0473C11.0315 18.9164 11.0315 18.7817 11.0315 18.6509C11.0315 18.52 11.0315 18.3932 11.0315 18.2624C11.0315 18.1712 11.0315 18.08 11.0315 17.9889C11.0196 17.8898 11.0553 17.7907 11.0117 17.6955C11.0117 17.6559 11.0117 17.6162 11.0117 17.5766C11.0434 17.4973 11.0434 17.418 11.0117 17.3388C11.0117 17.2991 11.0117 17.2595 11.0117 17.2198C11.0593 16.978 11.0315 16.7362 11.0434 16.4944C11.0593 16.2407 11.1267 16.0108 11.2694 15.8086C11.5905 15.3409 12.0186 15.0713 12.6053 15.0555C14.1156 15.0198 15.6259 15.0198 17.1322 15.0198C17.929 15.0198 18.7297 15.0198 19.5265 15.0198C20.0418 15.0198 20.5611 15.0198 21.0765 15.0198C21.7266 15.0198 22.3727 15.0198 23.0228 15.0198C23.0823 15.0237 23.1457 15.0118 23.2091 15.0356Z" fill="white"/>
<path d="M17.1055 15.0357C17.1055 15.0238 17.1055 15.012 17.1055 15.004C17.9102 15.004 18.7188 15.004 19.5235 15.004C19.5354 15.012 19.5394 15.0199 19.5354 15.0278C19.5354 15.0318 19.5275 15.0357 19.5235 15.0357C18.7188 15.0357 17.9141 15.0357 17.1055 15.0357Z" fill="white"/>
<path d="M23.2087 15.0357C22.4951 15.0357 21.7816 15.0357 21.0681 15.0357C21.0562 15.0278 21.0522 15.0199 21.0562 15.0159C21.0601 15.008 21.0641 15.004 21.0681 15.004C21.7816 15.004 22.4951 15.004 23.2087 15.004C23.2087 15.012 23.2087 15.0238 23.2087 15.0357Z" fill="white"/>
<path d="M11.0039 24.276C11.0634 24.3275 11.0435 24.3989 11.0435 24.4623C11.0435 24.9301 11.0435 25.3978 11.0435 25.8616C11.0317 25.8775 11.0158 25.8775 11.0039 25.8616C11.0039 25.3304 11.0039 24.8032 11.0039 24.276Z" fill="white"/>
<path d="M21.0675 15C21.0675 15.0119 21.0675 15.0198 21.0675 15.0317C20.5521 15.0317 20.0368 15.0317 19.5215 15.0317C19.5215 15.0198 19.5215 15.0079 19.5215 15C20.0368 15 20.5521 15 21.0675 15Z" fill="white"/>
<path d="M11.0039 25.8575C11.0158 25.8575 11.0277 25.8575 11.0435 25.8575C11.0435 26.3055 11.0435 26.7574 11.0435 27.2053C11.0317 27.2212 11.0198 27.2212 11.0079 27.2053C11.0039 26.7574 11.0039 26.3094 11.0039 25.8575Z" fill="white"/>
<path d="M11.0039 27.2053C11.0158 27.2053 11.0277 27.2053 11.0396 27.2053C11.0396 27.6136 11.0396 28.0259 11.0396 28.4342C11.0277 28.45 11.0158 28.45 11.0039 28.4342C11.0039 28.0259 11.0039 27.6176 11.0039 27.2053Z" fill="white"/>
<path d="M11.0396 19.4359C11.0396 19.7411 11.0396 20.0424 11.0396 20.3476C11.0277 20.3674 11.0158 20.3674 11.0039 20.3476C11.0039 20.0424 11.0039 19.7411 11.0039 19.4359C11.0158 19.424 11.0237 19.42 11.0396 19.4359Z" fill="white"/>
<path d="M11.004 20.3514C11.0159 20.3514 11.0277 20.3514 11.0396 20.3514C11.0396 20.6408 11.0396 20.9342 11.0396 21.2235C11.0277 21.2434 11.0159 21.2434 11 21.2235C11.004 20.9302 11.004 20.6408 11.004 20.3514Z" fill="white"/>
<path d="M11.0356 34.1822C11.0356 34.4716 11.0356 34.7649 11.0356 35.0543C11.0237 35.0702 11.0118 35.0702 11.0039 35.0543C11.0039 34.7649 11.0039 34.4716 11.0039 34.1822C11.0158 34.1624 11.0277 34.1624 11.0356 34.1822Z" fill="white"/>
<path d="M11.0356 30.4164C11.0356 30.682 11.0356 30.9436 11.0356 31.2092C11.0237 31.225 11.0118 31.225 11.0039 31.2092C11.0039 30.9436 11.0039 30.682 11.0039 30.4164C11.0158 30.3966 11.0277 30.4005 11.0356 30.4164Z" fill="white"/>
<path d="M11.0356 32.5965C11.0356 32.8621 11.0356 33.1238 11.0356 33.3893C11.0237 33.4052 11.0118 33.4052 11.0039 33.3893C11.0039 33.1238 11.0039 32.8621 11.0039 32.5965C11.0158 32.5767 11.0277 32.5767 11.0356 32.5965Z" fill="white"/>
<path d="M11.0039 33.3893C11.0158 33.3893 11.0277 33.3893 11.0356 33.3893C11.0356 33.6549 11.0356 33.9165 11.0356 34.1821H11.0198H11.0039C11.0039 33.9165 11.0039 33.6509 11.0039 33.3893Z" fill="white"/>
<path d="M11.0039 21.2236C11.0158 21.2236 11.0277 21.2236 11.0435 21.2236C11.0435 21.4892 11.0435 21.7509 11.0435 22.0164C11.0317 22.0363 11.0198 22.0363 11.0039 22.0164C11.0039 21.7509 11.0039 21.4853 11.0039 21.2236Z" fill="white"/>
<path d="M11.0356 30.4162C11.0237 30.4162 11.0118 30.4162 11.0039 30.4162C11.0039 30.1665 11.0039 29.9128 11.0039 29.6631C11.0158 29.6472 11.0277 29.6433 11.0396 29.6631C11.0356 29.9168 11.0356 30.1665 11.0356 30.4162Z" fill="white"/>
<path d="M11.0356 32.5965C11.0237 32.5965 11.0118 32.5965 11.0039 32.5965C11.0039 32.3586 11.0039 32.1208 11.0039 31.8829C11.0158 31.8631 11.0277 31.8671 11.0356 31.8829C11.0356 32.1208 11.0356 32.3586 11.0356 32.5965Z" fill="white"/>
<path d="M11.0039 22.0164C11.0158 22.0164 11.0317 22.0164 11.0435 22.0164C11.0237 22.2423 11.0911 22.4683 11.0039 22.6902C11.0039 22.4643 11.0039 22.2383 11.0039 22.0164Z" fill="white"/>
<path d="M11.0356 31.883C11.0237 31.883 11.0118 31.883 11.0039 31.883C11.0039 31.657 11.0039 31.4351 11.0039 31.2091C11.0158 31.2091 11.0277 31.2091 11.0356 31.2091C11.0356 31.4351 11.0356 31.657 11.0356 31.883Z" fill="white"/>
<path d="M11.0357 29.6631C11.0238 29.6631 11.0119 29.6631 11 29.6631C11 29.453 11 29.2389 11 29.0288C11.0119 29.0129 11.0238 29.009 11.0357 29.0288C11.0396 29.2429 11.0396 29.453 11.0357 29.6631Z" fill="white"/>
<path d="M11.0396 29.0288C11.0277 29.0288 11.0158 29.0288 11.0039 29.0288C11.0039 28.8306 11.0039 28.6324 11.0039 28.4342C11.0158 28.4342 11.0277 28.4342 11.0396 28.4342C11.0396 28.6324 11.0396 28.8306 11.0396 29.0288Z" fill="white"/>
<path d="M11.0356 35.9262C11.0356 36.1126 11.0356 36.2949 11.0356 36.4812H11.0198H11.0039C11.0039 36.2949 11.0039 36.1126 11.0039 35.9262C11.0158 35.9064 11.0277 35.9064 11.0356 35.9262Z" fill="white"/>
<path d="M11.0039 35.0542C11.0158 35.0542 11.0277 35.0542 11.0356 35.0542C11.0356 35.2009 11.0356 35.3436 11.0356 35.4902C11.0237 35.5061 11.0118 35.5061 11.0039 35.4902C11.0039 35.3436 11.0039 35.1969 11.0039 35.0542Z" fill="white"/>
<path d="M11.0039 35.4904C11.0158 35.4904 11.0277 35.4904 11.0356 35.4904C11.0356 35.637 11.0356 35.7797 11.0356 35.9264H11.0198H11.0039C11.0039 35.7797 11.0039 35.6331 11.0039 35.4904Z" fill="white"/>
<path d="M11.0356 18.2507C11.0356 18.3815 11.0356 18.5163 11.0356 18.6471C11.0237 18.6669 11.0158 18.6669 11.0039 18.6471C11.0039 18.5163 11.0039 18.3815 11.0039 18.2507C11.0158 18.2348 11.0237 18.2348 11.0356 18.2507Z" fill="white"/>
<path d="M11.0039 18.647C11.0158 18.647 11.0277 18.647 11.0356 18.647C11.0356 18.7778 11.0356 18.9126 11.0356 19.0434C11.0237 19.0632 11.0158 19.0632 11.0039 19.0434C11.0039 18.9126 11.0039 18.7778 11.0039 18.647Z" fill="white"/>
<path d="M11.004 19.0433C11.0159 19.0433 11.0277 19.0433 11.0357 19.0433C11.0357 19.1741 11.0357 19.3089 11.0357 19.4397C11.0238 19.4397 11.0119 19.4397 11 19.4397C11.004 19.3089 11.004 19.1741 11.004 19.0433Z" fill="white"/>
<path d="M11.0039 17.6956C11.0872 17.7788 11.0277 17.8779 11.0356 17.973C11.0237 17.9929 11.0158 17.9929 11.0039 17.973C11.0039 17.8819 11.0039 17.7867 11.0039 17.6956Z" fill="white"/>
<path d="M11.0039 17.9731C11.0158 17.9731 11.0277 17.9731 11.0356 17.9731C11.0356 18.0643 11.0356 18.1595 11.0356 18.2506C11.0237 18.2506 11.0118 18.2506 11.0039 18.2506C11.0039 18.1595 11.0039 18.0643 11.0039 17.9731Z" fill="white"/>
<path d="M11.0039 17.3389C11.0713 17.4181 11.0634 17.4974 11.0039 17.5767C11.0039 17.4974 11.0039 17.4181 11.0039 17.3389Z" fill="white"/>
<path d="M30.4179 25.5524C25.6372 25.5524 20.8566 25.5524 16.0759 25.5563C15.8777 25.5563 15.8381 25.5008 15.8421 25.3145C15.8579 24.9062 15.85 24.494 15.846 24.0857C15.846 23.9667 15.8738 23.9112 16.0006 23.9271C16.0403 23.9311 16.0799 23.9271 16.1195 23.9271C25.669 23.9271 35.2184 23.9271 44.7638 23.9271C45.073 23.9271 45.0294 23.8835 45.0334 24.2046C45.0374 24.5891 45.0255 24.9696 45.0374 25.3542C45.0413 25.5088 45.0017 25.5524 44.8431 25.5524C43.8442 25.5444 42.8492 25.5484 41.8503 25.5484C38.0408 25.5524 34.2274 25.5524 30.4179 25.5524Z" fill="white"/>
<path d="M30.4262 20.6963C25.6456 20.6963 20.8649 20.6963 16.0843 20.7003C15.8979 20.7003 15.8345 20.6606 15.8424 20.4664C15.8583 20.0502 15.8504 19.6339 15.8464 19.2177C15.8464 19.1028 15.8781 19.0592 15.9931 19.075C16.0327 19.079 16.0724 19.075 16.112 19.075C25.6694 19.075 35.2227 19.075 44.7801 19.071C44.9783 19.071 45.0536 19.1067 45.0417 19.3247C45.0219 19.733 45.0338 20.1413 45.0377 20.5536C45.0377 20.6646 45.006 20.7122 44.8911 20.7003C44.8475 20.6963 44.7999 20.7003 44.7523 20.7003C39.9756 20.6963 35.2029 20.6963 30.4262 20.6963Z" fill="white"/>
<path d="M37.2063 45.0001C37.1587 44.8811 37.1667 44.786 37.1667 44.6948C37.1112 42.693 37.131 40.6951 37.123 38.6932C37.123 38.5545 37.1627 38.5149 37.2975 38.5188C37.7216 38.5267 38.1418 38.5307 38.566 38.5188C38.7245 38.5149 38.7443 38.5704 38.7483 38.7091C38.7602 39.6803 38.78 40.6475 38.7998 41.6266C38.8871 41.6266 38.9307 41.5632 38.9822 41.5236C39.557 41.0598 40.1357 40.5999 40.7026 40.1282C40.8532 40.0014 40.9682 40.0053 41.1228 40.1044C41.4637 40.3225 41.7729 40.5762 42.086 40.8299C42.419 41.0955 42.7441 41.369 43.1048 41.6623C43.1048 41.5632 43.1048 41.4998 43.1048 41.4364C43.1048 40.5246 43.1088 39.6129 43.1008 38.7012C43.1008 38.5704 43.1167 38.5188 43.2673 38.5228C43.7034 38.5347 44.1394 38.5307 44.5755 38.5228C44.6944 38.5228 44.7301 38.5505 44.7301 38.6734C44.7142 40.6277 44.7578 42.582 44.6865 44.5363C44.6825 44.6671 44.7103 44.8534 44.6151 44.901C44.5279 44.9446 44.4169 44.782 44.3218 44.7028C43.307 43.8901 42.316 43.0497 41.2695 42.2767C40.9048 42.0072 41.0276 42.0032 40.663 42.2728C39.557 43.0894 38.5224 43.9892 37.4322 44.8256C37.3649 44.8811 37.2895 44.9327 37.2063 45.0001Z" fill="white"/>
<path d="M24.3633 30.4162C21.5964 30.4162 18.8295 30.4162 16.0625 30.4202C15.8881 30.4202 15.8406 30.3805 15.8485 30.2061C15.8643 29.7859 15.8564 29.3618 15.8524 28.9376C15.8524 28.8306 15.8762 28.7751 15.9952 28.791C16.0269 28.7949 16.0625 28.791 16.0943 28.791C21.6122 28.791 27.1342 28.791 32.6521 28.787C32.8464 28.787 32.8939 28.8346 32.886 29.0248C32.8702 29.4133 32.8741 29.8058 32.886 30.1942C32.89 30.3686 32.8543 30.4241 32.664 30.4202C30.6424 30.4123 28.6246 30.4162 26.603 30.4162C25.8538 30.4162 25.1085 30.4162 24.3633 30.4162Z" fill="white"/>
<path d="M24.3572 35.2841C21.5982 35.2841 18.8353 35.2841 16.0763 35.288C15.9058 35.288 15.8345 35.2603 15.8424 35.066C15.8582 34.6577 15.8543 34.2455 15.8464 33.8372C15.8424 33.7024 15.8741 33.6469 16.0168 33.6588C16.1992 33.6707 16.3855 33.6628 16.5718 33.6628C21.9233 33.6628 27.2708 33.6628 32.6223 33.6628C32.876 33.6628 32.876 33.6628 32.876 33.9283C32.876 34.3168 32.868 34.7093 32.8799 35.0977C32.8839 35.2603 32.8284 35.288 32.6817 35.288C29.9069 35.2801 27.132 35.2841 24.3572 35.2841Z" fill="white"/>
<path fill-rule="evenodd" clip-rule="evenodd" d="M38.8414 28.8397C38.7407 28.831 38.6335 28.8217 38.5169 28.811C38.0571 28.7476 37.728 29.0806 37.5259 29.4571C37.4085 29.6773 37.3726 29.9178 37.3364 30.1599C37.3335 30.1793 37.3306 30.1988 37.3277 30.2182C37.296 30.4482 37.181 30.6107 36.9828 30.7177C36.7687 30.8327 36.5586 30.9556 36.3565 31.0943C35.9839 31.352 35.8649 31.7087 35.9204 32.1448C35.968 32.5214 36.1464 32.8425 36.3406 33.1556C36.3961 33.2468 36.4001 33.3102 36.3486 33.4053C36.3327 33.4349 36.3167 33.4643 36.3008 33.4938C36.1732 33.7295 36.0455 33.9652 35.968 34.2259C35.8015 34.7769 35.9204 35.1614 36.3803 35.5142C36.5323 35.6282 36.6994 35.7195 36.8656 35.8101C36.9075 35.833 36.9493 35.8558 36.9907 35.8789C37.1889 35.9899 37.296 36.1564 37.3277 36.3824C37.3634 36.644 37.403 36.9056 37.5061 37.1514C37.6408 37.4804 37.8747 37.6826 38.2315 37.75C38.5928 37.817 38.9471 37.7685 39.3043 37.7197C39.3272 37.7166 39.3502 37.7134 39.3731 37.7103C39.5119 37.6945 39.6189 37.7103 39.7259 37.8213C39.8883 37.9901 40.0613 38.1457 40.234 38.301C40.2721 38.3353 40.3103 38.3696 40.3483 38.404C40.4989 38.5428 40.6733 38.6181 40.8874 38.6062C41.2798 38.5824 41.6208 38.4556 41.8903 38.1622C41.9478 38.0988 42.0102 38.0403 42.0727 37.9819C42.1351 37.9234 42.1975 37.8649 42.255 37.8015C42.3303 37.7182 42.4096 37.7024 42.5166 37.7143C42.7069 37.7341 42.8972 37.7519 43.0875 37.7698C43.2777 37.7876 43.468 37.8055 43.6583 37.8253C43.7693 37.8372 43.8367 37.7936 43.9199 37.7262C44.352 37.3694 44.5859 36.9215 44.6057 36.3586C44.6176 36.1168 44.7444 35.9582 44.9664 35.8631C45.1844 35.7679 45.3945 35.6609 45.5808 35.5103C45.9891 35.1812 46.1279 34.7214 45.9773 34.218C45.898 33.9564 45.7553 33.7264 45.6086 33.5005C45.5372 33.3935 45.5412 33.3102 45.6046 33.1992C45.7513 32.9416 45.89 32.6839 45.9733 32.3945C46.1319 31.8475 45.9891 31.4273 45.5253 31.0943C45.3549 30.9714 45.1646 30.8763 44.9743 30.7891C44.7524 30.686 44.6334 30.5235 44.6057 30.2737C44.5859 30.0636 44.5621 29.8536 44.4987 29.6514C44.3441 29.144 44.0071 28.8744 43.4839 28.8506L43.4838 28.8506C43.246 28.8427 43.0082 28.8348 42.7703 28.8427C42.4453 28.8586 42.1797 28.7476 41.9537 28.5177C41.8308 28.3908 41.6921 28.2759 41.5415 28.1807C41.1134 27.9072 40.6892 27.931 40.2968 28.2441C40.1163 28.3879 39.9583 28.5542 39.8015 28.7192C39.7723 28.7499 39.7432 28.7806 39.714 28.811C39.6427 28.8824 39.5793 28.9141 39.4722 28.9022C39.2752 28.8772 39.0763 28.86 38.8414 28.8397ZM41.4228 36.418C41.7557 36.1762 42.1125 36.0335 42.5208 36.1247C42.5484 36.1247 42.5749 36.1233 42.6004 36.1219C42.6482 36.1193 42.6921 36.1169 42.7309 36.1247C42.945 36.1723 43.0282 36.0851 43.0678 35.875C43.167 35.32 43.496 34.9038 43.936 34.5747C43.9487 34.5651 43.961 34.5559 43.9727 34.547C44.2157 34.364 44.2348 34.3495 44.1025 34.0356C43.8963 33.5441 43.9162 33.0684 44.0985 32.5769C44.2293 32.2161 44.2214 32.2003 43.8805 31.9981C43.4563 31.7484 43.2106 31.3758 43.0837 30.912C42.9846 30.5315 42.9806 30.5314 42.5805 30.5235L42.5803 30.5235C42.5598 30.5235 42.5387 30.5222 42.5174 30.521C42.4852 30.5191 42.4527 30.5171 42.4217 30.5195C41.9738 30.5512 41.5932 30.4046 41.2642 30.1033C41.2435 30.0843 41.2197 30.0675 41.1959 30.0507C41.1651 30.029 41.1342 30.0072 41.1096 29.9804C40.9709 29.8258 40.8559 29.8258 40.7251 30.0002C40.4397 30.3847 40.0353 30.5037 39.5755 30.4957C39.4729 30.4931 39.3686 30.5044 39.2636 30.5158C39.2105 30.5216 39.1571 30.5274 39.1038 30.5314C38.9413 30.5433 38.8501 30.6067 38.8541 30.7891C38.858 30.9873 38.7787 31.1617 38.6796 31.3282C38.4775 31.6651 38.2 31.9228 37.867 32.125C37.7084 32.2241 37.6886 32.3351 37.76 32.5055C37.9978 33.0684 38.0137 33.6313 37.7203 34.1823C37.6133 34.3805 37.6252 34.4439 37.8393 34.5272C38.3784 34.7373 38.6717 35.1456 38.8104 35.6886C38.9246 36.1333 38.9332 36.1327 39.383 36.1016L39.3932 36.1009C39.8371 36.0692 40.2454 36.1564 40.5903 36.4616C40.7537 36.6053 40.836 36.6777 40.923 36.684C41.0112 36.6904 41.1044 36.629 41.2919 36.5052L41.2921 36.5052C41.3356 36.4774 41.3792 36.4497 41.4228 36.418Z" fill="white"/>
</svg>
