<svg width="60" height="60" viewBox="0 0 60 60" fill="none" xmlns="http://www.w3.org/2000/svg">
<circle cx="30" cy="30" r="30" fill="#EA4033"/>
<path d="M50.947 40.799C50.797 40.9404 50.6428 41.0775 50.4928 41.2189C50.4499 41.2618 50.4028 41.2832 50.3385 41.2832C49.6315 41.2704 48.9245 41.3175 48.2218 41.2275C47.849 41.1804 47.6348 40.9704 47.5362 40.6191C47.4463 40.2934 47.5234 40.0149 47.7719 39.7835C47.9047 39.6635 48.0633 39.6078 48.239 39.595C48.5089 39.5736 48.7789 39.5393 49.0488 39.5307C49.1988 39.5264 49.2288 39.4707 49.2288 39.3293C49.2373 36.1328 49.2502 32.9321 49.263 29.7356C49.2673 28.6729 49.263 27.6103 49.2716 26.5434C49.2716 26.4191 49.2416 26.3334 49.1473 26.2477C47.3606 24.5938 45.5781 22.9355 43.7999 21.2773C43.7142 21.1959 43.6285 21.1702 43.5171 21.1702C41.3961 21.1745 39.2751 21.1745 37.1584 21.1702C37.0041 21.1702 36.957 21.2002 36.957 21.363C36.9741 27.3446 36.987 33.3263 36.9955 39.3079C36.9955 39.4793 37.047 39.5179 37.2098 39.5221C37.754 39.535 38.2938 39.565 38.8337 39.5907C39.2922 39.6121 39.5836 39.9163 39.5922 40.3663C39.6007 40.829 39.2879 41.1847 38.8423 41.2189C37.9211 41.2918 36.9998 41.2661 36.0829 41.2618C33.4263 41.2575 30.774 41.2404 28.1174 41.2318C27.8046 41.2318 27.4961 40.9747 27.4232 40.6662C27.3161 40.2077 27.4918 39.8178 27.9031 39.5778C27.976 39.535 28.0574 39.5521 28.1302 39.5521C30.4226 39.5521 32.715 39.5478 35.0031 39.5564C35.1916 39.5564 35.2345 39.5136 35.2345 39.325C35.2302 31.8737 35.2302 24.4181 35.2345 16.9667C35.2345 16.7739 35.1916 16.7225 34.9902 16.7225C28.4516 16.7268 21.9129 16.7268 15.3742 16.7225C15.16 16.7225 15.1214 16.7825 15.1214 16.9796C15.1129 18.972 15.0957 20.9645 15.0829 22.9527C15.0786 23.2783 14.7401 23.6468 14.423 23.6982C13.986 23.7711 13.6646 23.5954 13.4032 23.2569C13.3518 23.1926 13.3561 23.1241 13.3561 23.0555C13.3304 20.836 13.3175 18.6164 13.3389 16.3969C13.3389 16.1826 13.3561 15.9684 13.3775 15.7541C13.4161 15.3771 13.6817 15.1157 14.0588 15.0814C14.2987 15.06 14.543 15.0514 14.7829 15.0343C14.9072 14.9914 15.0443 15.0557 15.1686 15C15.1814 15 15.1986 15 15.2114 15C15.3271 15.0471 15.4471 15.0129 15.5628 15.0214C15.6613 15.0214 15.7599 15.0214 15.8584 15.0214C15.9698 15.0214 16.0855 15.0214 16.1969 15.0214C16.3126 15.0214 16.4283 15.0214 16.544 15.0214C16.664 15.0214 16.7797 15.0214 16.8996 15.0214C17.2253 15.0214 17.5509 15.0214 17.8723 15.0214C18.2451 15.0214 18.6179 15.0214 18.9906 15.0214C22.9541 15.0214 26.9176 15.0214 30.8811 15.0214C31.3353 15.0214 31.7895 15.0214 32.2479 15.0214C32.3936 15.0214 32.5393 15.0214 32.6893 15.0214C32.835 15.0214 32.9764 15.0214 33.122 15.0214C33.2634 15.0214 33.4091 15.0214 33.5505 15.0214C33.6919 15.0214 33.8333 15.0214 33.9747 15.0214C34.1161 15.0214 34.2532 15.0214 34.3946 15.0214C34.5275 15.0086 34.6646 15.0471 34.7974 15C34.8703 15 34.9388 15 35.0117 15C35.3287 15.0428 35.6501 15.0214 35.9672 15.0386C36.1214 15.0471 36.28 15.0514 36.4385 15.0686C36.717 15.0986 36.8756 15.2571 36.9441 15.5185C36.987 15.677 36.987 15.8441 37.0041 16.0069C37.077 16.911 36.9998 17.8151 36.9998 18.7235C36.9998 18.8221 36.9998 18.9249 36.9998 19.0235C37.0041 19.2891 37.0213 19.3105 37.2998 19.3105C39.3436 19.3105 41.3832 19.3105 43.4271 19.3105C43.6799 19.3105 43.9241 19.3491 44.1726 19.3663C44.4512 19.3877 44.6354 19.5762 44.8282 19.7476C45.5267 20.3689 46.1908 21.0288 46.8807 21.6586C47.6134 22.3271 48.3332 23.0084 49.0616 23.6811C49.6615 24.2424 50.2614 24.7994 50.8313 25.3907C50.9341 25.4979 50.9684 25.6178 50.977 25.7592C50.9813 25.8449 50.9513 25.9306 50.9984 26.012C50.9984 26.0249 50.9984 26.042 50.9984 26.0549C50.9641 26.1534 50.9641 26.2563 50.9984 26.3548C50.9984 26.3848 50.9984 26.4105 50.9984 26.4405C50.9513 26.5391 50.9855 26.6462 50.977 26.749C50.977 26.8219 50.977 26.8947 50.977 26.9676C50.977 27.0575 50.977 27.1432 50.977 27.2332C50.977 27.456 50.977 27.6788 50.977 27.9059C50.977 28.2016 50.977 28.493 50.977 28.7886C50.9898 29.02 50.9513 29.2557 50.9984 29.487C50.9984 29.5856 50.9984 29.6884 50.9984 29.787C50.947 30.0526 50.9855 30.3226 50.977 30.5882C50.9684 30.9053 50.977 31.2267 50.977 31.5438C50.977 32.1694 50.977 32.7907 50.977 33.4162C50.977 33.6905 50.977 33.9604 50.977 34.2346C50.977 34.436 50.977 34.6374 50.977 34.8388C50.977 35.0659 50.977 35.2973 50.977 35.5244C50.977 35.7815 50.977 36.0386 50.977 36.2957C50.977 36.5656 50.977 36.8355 50.977 37.1098C50.977 37.3926 50.977 37.6797 50.977 37.9625C50.977 38.1767 50.977 38.3909 50.977 38.6095C50.977 38.8237 50.977 39.038 50.977 39.2565C50.977 39.5007 50.977 39.745 50.977 39.9849C50.9513 40.2548 50.977 40.5291 50.947 40.799Z" fill="white"/>
<path d="M9 34.029C9.06427 33.9861 9.0557 33.9047 9.09427 33.8447C9.2271 33.6177 9.39849 33.472 9.68557 33.4634C11.241 33.412 12.7964 33.4248 14.3518 33.4163C16.3485 33.4034 18.3452 33.4163 20.3463 33.3906C20.749 33.3863 20.9076 33.6519 21.079 33.909C21.2504 34.1575 21.2332 34.4361 21.079 34.6974C20.9504 34.916 20.7747 35.0488 20.4962 35.0659C19.6778 35.1216 18.8551 35.1173 18.0367 35.1173C15.3416 35.1259 12.6421 35.1131 9.94695 35.1388C9.52275 35.1431 9.29137 34.946 9.06856 34.6589C9.04713 34.6332 9.04285 34.5903 9 34.586C9 34.3975 9 34.2132 9 34.029Z" fill="white"/>
<path d="M30.8912 15.0471C26.9191 15.0471 22.9514 15.0471 18.9793 15.0471C18.9665 15.0385 18.9622 15.03 18.9665 15.0214C18.9707 15.0128 18.975 15.0085 18.9793 15.0085C22.9471 15.0085 26.9191 15.0085 30.8869 15.0085C30.8997 15.0171 30.904 15.0257 30.8997 15.0343C30.8997 15.0428 30.8954 15.0471 30.8912 15.0471Z" fill="white"/>
<path d="M50.9434 33.4291C50.9434 32.7992 50.9434 32.1736 50.9434 31.5438C50.9562 31.5224 50.9691 31.5224 50.9862 31.5438C50.9862 32.1736 50.9862 32.7992 50.9862 33.4291C50.9691 33.4462 50.9562 33.4462 50.9434 33.4291Z" fill="white"/>
<path d="M50.9831 31.5438C50.9703 31.5438 50.9531 31.5438 50.9403 31.5438C50.9403 31.0253 50.9403 30.5068 50.9403 29.9884C50.9403 29.9198 50.9146 29.8427 50.9831 29.787C50.9831 30.374 50.9831 30.9567 50.9831 31.5438Z" fill="white"/>
<path d="M30.8906 15.0471C30.8906 15.0343 30.8906 15.0214 30.8906 15.0085C31.3491 15.0085 31.8033 15.0085 32.2618 15.0085C32.2746 15.0171 32.2789 15.0257 32.2746 15.0343C32.2703 15.0428 32.2661 15.0471 32.2618 15.0471C31.8076 15.0471 31.3491 15.0471 30.8906 15.0471Z" fill="white"/>
<path d="M18.984 15.0086C18.984 15.0214 18.984 15.0343 18.984 15.0471C18.6112 15.0471 18.2427 15.0471 17.8699 15.0428C17.8571 15.0343 17.8528 15.0257 17.8571 15.0171C17.8614 15.0086 17.8656 15.0043 17.8699 15.0043C18.2384 15.0086 18.6112 15.0086 18.984 15.0086Z" fill="white"/>
<path d="M17.8691 15.0085C17.8691 15.0214 17.8691 15.0343 17.8691 15.0471C17.5392 15.0471 17.2135 15.0471 16.8836 15.0471C16.8707 15.0385 16.8665 15.03 16.8707 15.0214C16.875 15.0128 16.8793 15.0085 16.8836 15.0085C17.2092 15.0085 17.5392 15.0085 17.8691 15.0085Z" fill="white"/>
<path d="M50.9395 28.8013C50.9395 28.5014 50.9395 28.2015 50.9395 27.9015C50.9523 27.8844 50.9652 27.8844 50.978 27.9015C50.978 28.2015 50.978 28.5014 50.978 28.8013C50.9694 28.8228 50.9523 28.8228 50.9395 28.8013Z" fill="white"/>
<path d="M50.9473 37.9709C50.9473 37.6839 50.9473 37.4011 50.9473 37.114C50.9601 37.0925 50.9687 37.0925 50.9815 37.114C50.9815 37.4011 50.9815 37.6839 50.9815 37.9709C50.9687 37.9881 50.9601 37.9881 50.9473 37.9709Z" fill="white"/>
<path d="M50.9473 40.7989C50.9473 40.529 50.9473 40.2548 50.9473 39.9848C50.9601 39.9634 50.9687 39.9634 50.9815 39.9848C50.9815 40.2548 50.9815 40.529 50.9815 40.7989L50.9644 40.8075L50.9473 40.7989Z" fill="white"/>
<path d="M50.9815 37.114C50.9687 37.114 50.9558 37.114 50.9473 37.114C50.9473 36.8441 50.9473 36.5698 50.9473 36.2999C50.9601 36.2785 50.9687 36.2785 50.9815 36.2999C50.9815 36.5698 50.9815 36.8398 50.9815 37.114Z" fill="white"/>
<path d="M50.9434 33.4291C50.9562 33.4291 50.9691 33.4291 50.9819 33.4291C50.9819 33.699 50.9819 33.9733 50.9819 34.2432C50.9691 34.2603 50.9562 34.2646 50.9434 34.2432C50.9434 33.9733 50.9434 33.7033 50.9434 33.4291Z" fill="white"/>
<path d="M50.9815 36.2999C50.9687 36.2999 50.9558 36.2999 50.9473 36.2999C50.9473 36.0428 50.9473 35.7857 50.9473 35.5286C50.9601 35.5072 50.9687 35.5072 50.9815 35.5286C50.9815 35.7857 50.9815 36.0428 50.9815 36.2999Z" fill="white"/>
<path d="M50.9815 39.9806H50.9644H50.9473C50.9473 39.7363 50.9473 39.4964 50.9473 39.2522C50.9601 39.2307 50.9687 39.2307 50.9815 39.2522C50.9815 39.4964 50.9815 39.7406 50.9815 39.9806Z" fill="white"/>
<path d="M50.9406 28.8014C50.9534 28.8014 50.9663 28.8014 50.9834 28.8014C50.9834 29.0285 50.9834 29.2599 50.9834 29.487C50.8935 29.2642 50.962 29.0285 50.9406 28.8014Z" fill="white"/>
<path d="M50.9815 35.5287C50.9687 35.5287 50.9558 35.5287 50.9473 35.5287C50.9473 35.3016 50.9473 35.0702 50.9473 34.8431C50.9601 34.8217 50.973 34.8217 50.9858 34.8431C50.9815 35.0702 50.9815 35.2973 50.9815 35.5287Z" fill="white"/>
<path d="M50.9819 27.9017C50.9691 27.9017 50.9562 27.9017 50.9434 27.9017C50.9434 27.6746 50.9434 27.4432 50.9476 27.2161C50.9605 27.199 50.9734 27.199 50.9862 27.2204C50.9819 27.4475 50.9819 27.6746 50.9819 27.9017Z" fill="white"/>
<path d="M50.9473 37.9709C50.9601 37.9709 50.973 37.9709 50.9815 37.9709C50.9815 38.1852 50.9815 38.3994 50.9815 38.6137C50.9687 38.6351 50.9601 38.6308 50.9473 38.6137C50.9473 38.3994 50.9473 38.1852 50.9473 37.9709Z" fill="white"/>
<path d="M50.9473 38.6138C50.9601 38.6138 50.973 38.6138 50.9815 38.6138C50.9815 38.828 50.9815 39.0423 50.9815 39.2565H50.9644H50.9473C50.9473 39.0423 50.9473 38.828 50.9473 38.6138Z" fill="white"/>
<path d="M50.9819 34.8432C50.9691 34.8432 50.9562 34.8432 50.9434 34.8432C50.9434 34.6418 50.9434 34.4447 50.9434 34.2433C50.9562 34.2433 50.9691 34.2433 50.9819 34.2433C50.9819 34.4404 50.9819 34.6418 50.9819 34.8432Z" fill="white"/>
<path d="M34.4038 15.0428C34.2624 15.0428 34.1167 15.0428 33.9753 15.0428C33.9624 15.0343 33.9539 15.03 33.9581 15.0214C33.9624 15.0128 33.9667 15.0085 33.971 15.0085C34.1124 15.0085 34.2581 15.0085 34.3995 15.0085C34.4123 15.0171 34.4166 15.0257 34.4123 15.03C34.4123 15.0385 34.4081 15.0428 34.4038 15.0428Z" fill="white"/>
<path d="M33.976 15.0085C33.976 15.0214 33.976 15.0343 33.976 15.0428C33.8346 15.0428 33.689 15.0428 33.5476 15.0428C33.5347 15.0343 33.5261 15.0257 33.5304 15.0214C33.5347 15.0128 33.539 15.0085 33.5433 15.0085C33.689 15.0085 33.8346 15.0085 33.976 15.0085Z" fill="white"/>
<path d="M33.5463 15.0085C33.5463 15.0214 33.5463 15.0343 33.5463 15.0428C33.4049 15.0428 33.2593 15.0428 33.1179 15.0428C33.105 15.0343 33.0964 15.0257 33.1007 15.0214C33.105 15.0128 33.1093 15.0085 33.1136 15.0085C33.2593 15.0085 33.4049 15.0085 33.5463 15.0085Z" fill="white"/>
<path d="M32.2617 15.0471C32.2617 15.0343 32.2617 15.0214 32.2617 15.0085C32.4031 15.0085 32.5488 15.0085 32.6902 15.0085C32.7031 15.0171 32.7073 15.0257 32.7031 15.0343C32.6988 15.0428 32.6945 15.0471 32.6902 15.0471C32.5488 15.0471 32.4074 15.0471 32.2617 15.0471Z" fill="white"/>
<path d="M32.6895 15.0471C32.6895 15.0343 32.6895 15.0214 32.6895 15.0085C32.8309 15.0085 32.9765 15.0085 33.1179 15.0085C33.1179 15.0214 33.1179 15.0343 33.1179 15.0428C32.9765 15.0428 32.8351 15.0428 32.6895 15.0471Z" fill="white"/>
<path d="M34.4062 15.0428C34.4062 15.03 34.4062 15.0171 34.4062 15.0085C34.5348 15.0085 34.6633 15.0085 34.7919 15.0085C34.6719 15.0985 34.5348 15.03 34.4062 15.0428Z" fill="white"/>
<path d="M15.1708 15.0085C15.0465 15.0942 14.9137 15.0385 14.7852 15.0428C14.7852 15.03 14.7852 15.0171 14.7852 15.0085C14.9137 15.0085 15.0422 15.0085 15.1708 15.0085Z" fill="#D7D8DA"/>
<path d="M22.3633 46.5364C22.4918 46.4678 22.6204 46.4678 22.7489 46.5364C22.6204 46.5364 22.4918 46.5364 22.3633 46.5364Z" fill="white"/>
<path d="M16.8846 15.0085C16.8846 15.0214 16.8846 15.0343 16.8846 15.0471C16.7689 15.0471 16.6575 15.0471 16.5418 15.0471C16.529 15.0385 16.5247 15.03 16.529 15.0214C16.5332 15.0128 16.5375 15.0085 16.5418 15.0085C16.6532 15.0085 16.7689 15.0085 16.8846 15.0085Z" fill="white"/>
<path d="M16.5428 15.0086C16.5428 15.0214 16.5428 15.03 16.5428 15.0428C16.4271 15.0428 16.3157 15.0428 16.2 15.0428C16.1872 15.0343 16.1829 15.0257 16.1872 15.0171C16.1914 15.0086 16.1957 15.0043 16.2 15.0043C16.3114 15.0086 16.4271 15.0086 16.5428 15.0086Z" fill="white"/>
<path d="M16.199 15.0086C16.199 15.0214 16.199 15.0343 16.199 15.0428C16.0834 15.0428 15.9719 15.0428 15.8563 15.0428C15.8434 15.0343 15.8391 15.0257 15.8434 15.0171C15.8477 15.0086 15.852 15.0043 15.8563 15.0043C15.9677 15.0086 16.0834 15.0086 16.199 15.0086Z" fill="white"/>
<path d="M15.5518 15.0428C15.4361 15.03 15.3161 15.1028 15.209 15.0085C15.3247 15.0085 15.4361 15.0085 15.5518 15.0085C15.5646 15.0171 15.5689 15.0257 15.5646 15.0343C15.5646 15.0385 15.5603 15.0428 15.5518 15.0428Z" fill="white"/>
<path d="M43.3125 46.5364C43.4282 46.4679 43.5396 46.4764 43.6553 46.5364C43.5439 46.5364 43.4282 46.5364 43.3125 46.5364Z" fill="white"/>
<path d="M50.95 26.7448C50.9586 26.6462 50.8986 26.5348 50.9843 26.4448C50.9843 26.5434 50.9843 26.6462 50.9843 26.7448C50.9714 26.7662 50.9586 26.7662 50.95 26.7448Z" fill="white"/>
<path d="M50.9828 26.359C50.9185 26.2605 50.9057 26.1576 50.9828 26.0591C50.9828 26.1619 50.9828 26.2605 50.9828 26.359Z" fill="white"/>
<path d="M15.5508 15.0428C15.5508 15.03 15.5508 15.0171 15.5508 15.0085C15.6493 15.0085 15.7522 15.0085 15.8507 15.0085C15.8507 15.0214 15.8507 15.0343 15.8507 15.0471C15.7522 15.0428 15.6536 15.0428 15.5508 15.0428Z" fill="white"/>
<path d="M50.9819 27.2161C50.9691 27.2161 50.9562 27.2161 50.9434 27.2118C50.9434 27.1261 50.9434 27.0404 50.9434 26.9547C50.9562 26.9376 50.9691 26.9376 50.9819 26.9547C50.9819 27.0447 50.9819 27.1304 50.9819 27.2161Z" fill="white"/>
<path d="M50.9819 26.959C50.9691 26.959 50.9562 26.959 50.9434 26.959C50.9434 26.8862 50.9434 26.8176 50.9434 26.7448C50.9562 26.7448 50.9691 26.7448 50.9776 26.7448C50.9819 26.8176 50.9819 26.8904 50.9819 26.959Z" fill="white"/>
<path d="M18.6195 24.6067C20.3592 24.6153 22.1031 24.6153 23.8427 24.6924C24.0527 24.701 24.2584 24.7181 24.4126 24.8852C24.644 25.1294 24.8068 25.4037 24.6783 25.7507C24.5455 26.115 24.3012 26.3335 23.8899 26.3549C22.7073 26.4149 21.5204 26.4192 20.3377 26.432C18.4524 26.4577 16.5714 26.4363 14.686 26.3978C14.1933 26.3892 13.7005 26.3678 13.2121 26.3292C12.8564 26.3035 12.5865 26.0507 12.5179 25.7293C12.4322 25.3351 12.5822 24.9795 12.9035 24.7867C13.0492 24.701 13.2163 24.6924 13.3792 24.6838C15.1231 24.6153 16.8713 24.6153 18.6195 24.6067Z" fill="white"/>
<path d="M16.858 29.0543C18.619 29.0543 20.3844 29.0543 22.1455 29.0543C22.5054 29.0543 22.8353 29.3285 22.9039 29.6842C22.9853 30.1041 22.8482 30.4726 22.5397 30.6311C22.3769 30.7168 22.1969 30.7168 22.0169 30.7254C20.5129 30.794 19.0047 30.7682 17.5007 30.7682C15.7739 30.7725 14.0471 30.7597 12.3203 30.7511C12.0504 30.7511 11.7762 30.734 11.5062 30.7168C10.7521 30.6611 10.6107 29.9241 10.8463 29.4956C11.0006 29.2214 11.1977 29.0372 11.5662 29.0415C13.3316 29.0629 15.0926 29.0543 16.858 29.0543Z" fill="white"/>
<path d="M13.3105 38.6737C13.3277 38.0653 13.2977 37.4697 13.3662 36.8826C13.4048 36.5699 13.5034 36.3085 13.8076 36.1499C14.3389 35.8757 14.9259 36.1499 15.0373 36.737C15.1016 37.0798 15.1102 37.4311 15.1145 37.7825C15.123 38.3181 15.123 38.8537 15.1145 39.385C15.1145 39.5264 15.153 39.5607 15.2901 39.5607C15.8515 39.565 16.4171 39.5264 16.9784 39.5864C17.3811 39.6292 17.6597 39.9592 17.6768 40.3962C17.6939 40.8033 17.424 41.1461 17.0212 41.2275C16.6613 41.3003 16.2971 41.2789 15.9329 41.2746C15.3201 41.2703 14.7074 41.3175 14.0947 41.2275C13.6319 41.1589 13.4262 40.9318 13.3577 40.4519C13.2848 39.8563 13.332 39.2565 13.3105 38.6737Z" fill="white"/>
<path fill-rule="evenodd" clip-rule="evenodd" d="M42.9026 46.4637C42.9751 46.4699 43.048 46.4761 43.102 46.5364H43.312C43.4277 46.5022 43.5391 46.5022 43.6548 46.5364H43.9118C43.915 46.5317 43.9176 46.5257 43.92 46.5201C43.9242 46.5106 43.9279 46.5022 43.9333 46.5022C44.6274 46.4293 45.2316 46.1379 45.78 45.7266C47.0655 44.7668 47.6996 43.507 47.3783 41.8959C47.0783 40.3877 46.1185 39.3893 44.696 38.8794C43.2948 38.3781 42.0394 38.7466 40.9639 39.7321C39.9055 40.7048 39.4213 41.9002 39.7084 43.3485C39.9998 44.8096 41.3581 46.1551 42.8278 46.455C42.8521 46.4594 42.8774 46.4616 42.9026 46.4637ZM43.5955 44.7755C44.8424 44.8054 45.7379 43.8756 45.7379 42.6073C45.7379 41.3004 44.8381 40.4135 43.5184 40.4092C42.2287 40.4135 41.3803 41.279 41.3888 42.6202C41.4017 43.9956 42.2201 44.7455 43.5955 44.7755Z" fill="white"/>
<path fill-rule="evenodd" clip-rule="evenodd" d="M21.8968 46.463C21.9719 46.4717 22.0455 46.4802 22.1077 46.5363C22.1934 46.5363 22.2791 46.5363 22.3605 46.532C22.4891 46.4977 22.6176 46.4977 22.7462 46.532H22.9176C22.9219 46.5277 22.9261 46.522 22.9304 46.5163C22.939 46.5049 22.9476 46.4934 22.9561 46.4934C23.6117 46.412 24.1987 46.1592 24.7129 45.765C26.0241 44.7666 26.7311 43.4812 26.3369 41.8058C25.6684 38.9735 22.3777 37.6624 20.1281 39.5563C18.9969 40.5118 18.4185 41.7201 18.6627 43.2284C18.9155 44.7666 20.2781 46.1421 21.8121 46.4506C21.8402 46.4564 21.8686 46.4597 21.8968 46.463ZM20.3635 42.6156C20.3807 43.9696 21.1434 44.7152 22.5617 44.7795C23.8085 44.7838 24.7084 43.8882 24.7169 42.6242C24.7255 41.3259 23.8257 40.4175 22.5188 40.4132C21.2205 40.4089 20.3464 41.2788 20.3635 42.6156Z" fill="white"/>
<path fill-rule="evenodd" clip-rule="evenodd" d="M38.7617 24.4652V28.5315C38.7639 28.8464 38.7649 29.1603 38.766 29.4742C38.7671 29.788 38.7681 30.1019 38.7703 30.4168C38.771 30.5485 38.7714 30.6803 38.7718 30.8122C38.7734 31.4272 38.7751 32.0447 38.8174 32.6621C38.8474 33.0906 38.9717 33.2534 39.3959 33.3177C39.6615 33.3562 39.9358 33.3777 40.2057 33.3777C41.5811 33.3905 42.9609 33.3991 44.3363 33.3948C44.5163 33.3937 44.6962 33.3945 44.8762 33.3953C45.4161 33.3978 45.956 33.4002 46.4959 33.352C47.3143 33.2791 47.4 33.1763 47.4257 32.3536C47.4649 31.1083 47.4637 29.863 47.4626 28.6177C47.4622 28.0934 47.4617 27.569 47.4642 27.0447C47.4642 26.9247 47.4257 26.8476 47.3443 26.7662C46.393 25.8235 45.4461 24.8723 44.4991 23.921C44.4049 23.8268 44.3149 23.7925 44.182 23.7925C42.6011 23.7968 41.0158 23.7968 39.4306 23.7968H39.4302C39.1474 23.7968 38.7617 24.1824 38.7617 24.4652ZM40.4841 27.8707C40.4838 28.1095 40.4836 28.3484 40.4836 28.5872C40.4836 28.7494 40.4837 28.9114 40.4838 29.0733C40.4844 29.8828 40.485 30.6904 40.4707 31.5009C40.4707 31.6337 40.4921 31.6809 40.6421 31.6809C42.2746 31.6766 43.9114 31.6766 45.544 31.6809C45.6939 31.6852 45.7368 31.6509 45.7368 31.4966C45.7325 30.254 45.7325 29.0157 45.7368 27.7731C45.7368 27.666 45.7068 27.5888 45.6297 27.5117C44.9998 26.8904 44.3742 26.2648 43.7529 25.635C43.6715 25.5493 43.5901 25.5193 43.4744 25.5193C43.2409 25.5193 43.0073 25.5195 42.7738 25.5198C42.0732 25.5206 41.3727 25.5214 40.6721 25.515C40.4964 25.5107 40.4793 25.5707 40.4793 25.7207C40.4857 26.4373 40.4849 27.154 40.4841 27.8707Z" fill="white"/>
</svg>
