<svg width="60" height="60" viewBox="0 0 60 60" fill="none" xmlns="http://www.w3.org/2000/svg">
<circle cx="30" cy="30" r="30" fill="#EA4033"/>
<path fill-rule="evenodd" clip-rule="evenodd" d="M30.0814 11H29.7548C29.6926 11.0222 29.6279 11.036 29.5628 11.0498C29.5083 11.0614 29.4536 11.0731 29.3996 11.0898C27.7626 11.7267 26.0847 12.2329 24.37 12.6207C22.341 13.078 20.2876 13.3597 18.2137 13.4495C17.34 13.4903 16.4623 13.5311 15.5846 13.5026C15.5029 13.5026 15.4213 13.5026 15.3396 13.5066C15.2008 13.5148 15.1273 13.5842 15.1192 13.723C15.1151 13.8047 15.1151 13.8863 15.1151 13.968V18.128V26.6971C15.1151 26.8536 15.1151 26.9322 15.0758 26.9721C15.0362 27.0124 14.9566 27.0135 14.7966 27.0155C14.4418 27.0218 14.0869 27.022 13.7318 27.0223H13.7318H13.7318C13.1636 27.0227 12.5949 27.023 12.0247 27.0482C10.951 27.0972 10.0447 27.9667 10.0406 29.0363C10.0391 29.4394 10.0337 29.8425 10.0283 30.2456C10.0191 30.9366 10.0099 31.6276 10.0202 32.3186V33.4536V35.1968V35.8132V36.6297C10.0093 37.3676 10.0202 38.1073 10.0311 38.8463C10.0365 39.2154 10.0419 39.5844 10.0447 39.9528L10.0452 39.9918C10.0487 40.2567 10.0523 40.5238 10.208 40.7612C10.4774 41.1694 10.8081 41.5123 11.2367 41.7573C11.347 41.8226 11.4694 41.8634 11.6001 41.8798C12.0002 41.9247 12.4002 41.9451 12.8003 41.9492C14.3353 41.9614 15.8744 41.9573 17.4094 41.9492C17.638 41.9492 17.7973 42.0186 17.9116 42.2145C17.9606 42.3016 18.0204 42.3815 18.0803 42.4613C18.1103 42.5012 18.1402 42.5411 18.1688 42.582C19.0792 43.8883 20.1569 45.0355 21.3939 46.0439C22.4482 46.905 23.6294 47.5639 24.8124 48.2237L24.864 48.2525C26.0806 48.9302 27.3053 49.5956 28.5301 50.257C28.6504 50.3229 28.7696 50.3909 28.8888 50.459C29.235 50.6566 29.5814 50.8542 29.9548 51H30.0365C30.0833 50.9784 30.1317 50.9632 30.1799 50.948C30.241 50.9287 30.3019 50.9095 30.359 50.8775C30.9875 50.5234 31.6224 50.18 32.2575 49.8365C32.5012 49.7047 32.7448 49.5729 32.9881 49.4405L32.9884 49.4403C34.2294 48.7627 35.4704 48.0851 36.6909 47.3707C38.1198 46.5338 39.3731 45.4764 40.4835 44.2476C41.1898 43.4678 41.8144 42.6309 42.3615 41.7369C43.3535 40.1121 44.0638 38.3648 44.4721 36.5032C44.6476 35.6989 44.8028 34.8865 44.8069 34.0618C44.8084 33.4777 44.8143 32.8935 44.8203 32.3093C44.8295 31.3911 44.8388 30.473 44.8313 29.5548C44.8286 29.2501 44.8295 28.9473 44.8304 28.6438C44.8309 28.4919 44.8313 28.3397 44.8313 28.1872V27.8647V26.5011V25.1172V23.9659V13.5964C44.7864 13.503 44.7032 13.5064 44.6243 13.5096C44.6101 13.5101 44.596 13.5107 44.5823 13.5107C43.6678 13.4944 42.7493 13.4658 41.8348 13.4331C40.8999 13.4005 39.965 13.3515 39.0342 13.229C36.548 12.9065 34.1149 12.339 31.743 11.5226C31.5863 11.4688 31.4316 11.4076 31.2767 11.3464C30.8909 11.1938 30.5038 11.0408 30.0814 11ZM21.8716 40.7816C21.7287 40.6224 21.5818 40.4672 21.3981 40.3366C21.3976 40.3399 21.3972 40.343 21.3967 40.346C21.3961 40.3498 21.3955 40.3534 21.3949 40.3567C21.3915 40.3763 21.3896 40.3875 21.4021 40.3937L21.4074 40.4023L21.419 40.4213L21.419 40.4213C21.434 40.4462 21.4497 40.4721 21.4675 40.4958C22.3738 41.7532 23.4638 42.8269 24.762 43.6556C26.2183 44.5847 27.7444 45.3939 29.2714 46.2035L29.2745 46.2052C29.4374 46.2915 29.6002 46.3779 29.763 46.4644C29.9467 46.5623 30.0937 46.5583 30.2733 46.4644C31.2912 45.9345 32.2911 45.3779 33.2935 44.82C33.4652 44.7244 33.6369 44.6288 33.8088 44.5334C34.9069 43.9251 35.9439 43.2433 36.8747 42.3941C38.8873 40.5611 40.1162 38.2913 40.704 35.654C40.9246 34.6733 40.9362 33.6736 40.9477 32.6769L40.949 32.5677C40.9755 30.551 40.9744 28.5365 40.9732 26.5225V26.5222V26.5221V26.522C40.9728 25.7475 40.9724 24.973 40.9735 24.1986C40.9735 24.1205 40.9742 24.0427 40.9748 23.965V23.9647V23.9645C40.9765 23.7705 40.9781 23.5773 40.9694 23.3821C40.9653 23.2433 41.0143 23.2106 41.145 23.2147C41.443 23.227 41.7451 23.2311 42.0431 23.2147C42.2227 23.2025 42.2635 23.2555 42.2635 23.4352C42.2595 24.5183 42.2586 25.602 42.2576 26.6857C42.2558 28.8534 42.254 31.0217 42.2268 33.1882C42.2023 35.1355 41.7737 36.9808 40.9898 38.7526C39.7773 41.4919 37.8586 43.6189 35.2989 45.1498C33.9194 45.9747 32.4988 46.729 31.0795 47.4825L31.0772 47.4838L31.0748 47.485C30.8239 47.6183 30.573 47.7515 30.3223 47.8851C30.0978 48.0035 29.9304 47.9953 29.71 47.8769C28.9976 47.4972 28.2903 47.1094 27.583 46.7216C26.8757 46.3337 26.1684 45.9459 25.456 45.5662C23.8516 44.713 22.4595 43.5985 21.2674 42.2349C20.7612 41.6593 20.2672 41.0714 19.8835 40.3978L19.8784 40.3883C19.8473 40.3296 19.8141 40.267 19.7406 40.2631C19.6753 40.259 19.6508 40.3203 19.6385 40.3733C19.5487 40.7489 19.3119 41.0388 19.0588 41.3164C18.9935 41.3899 18.9894 41.4429 19.0466 41.5246C20.3285 43.3984 21.8961 44.9824 23.8639 46.1419C25.1569 46.9059 26.4744 47.621 27.7924 48.3364C28.4884 48.7142 29.1846 49.092 29.8773 49.4772C29.9794 49.5344 30.0529 49.5344 30.155 49.4772C30.4643 49.3072 30.7736 49.1373 31.0828 48.9676C32.6592 48.102 34.2338 47.2374 35.7969 46.3501C37.8504 45.1866 39.5405 43.6352 40.8673 41.6879C42.6432 39.0751 43.5005 36.1929 43.5169 33.0249C43.5347 29.2793 43.5366 25.5337 43.5386 21.788C43.5397 19.5406 43.5408 17.2932 43.5454 15.0457C43.5454 14.8987 43.4964 14.8661 43.3617 14.862C42.1696 14.813 40.9817 14.7599 39.7977 14.6415C37.8749 14.4456 35.9806 14.1067 34.1109 13.625C33.2598 13.4066 32.426 13.1326 31.591 12.8582C31.2084 12.7324 30.8256 12.6066 30.4407 12.486C30.1264 12.388 29.8324 12.3839 29.5263 12.4901C28.3668 12.8943 27.2033 13.2821 26.0153 13.5964C24.3048 14.0496 22.5738 14.3884 20.8184 14.5844C19.6302 14.718 18.4359 14.7759 17.2434 14.8337H17.2434L17.2434 14.8337L17.2432 14.8337C17.0509 14.843 16.8586 14.8524 16.6665 14.862C16.5154 14.8702 16.4787 14.9069 16.4787 15.058C16.4848 15.8787 16.4841 16.7017 16.4833 17.5235V17.5239V17.5243C16.483 17.7978 16.4828 18.0712 16.4828 18.3443C16.4828 18.9152 16.4829 19.486 16.4831 20.0566V20.0567C16.4838 22.3381 16.4844 24.6169 16.4746 26.893C16.4746 27.0441 16.5073 27.0931 16.6624 27.0849C16.9604 27.0686 17.2625 27.0686 17.5605 27.0849C17.7402 27.0971 17.7647 27.0359 17.7647 26.8726C17.7606 23.6638 17.7606 20.4509 17.7606 17.2421C17.7606 17.1634 17.7608 17.085 17.7611 17.0067V17.0066V17.0066V17.0065C17.7619 16.7721 17.7626 16.5387 17.7565 16.3031C17.7524 16.1766 17.7851 16.1439 17.9116 16.1357C18.4546 16.1072 18.9976 16.0663 19.5405 16.0214C20.8428 15.9194 22.1329 15.7397 23.4189 15.5111C25.4601 15.1478 27.4564 14.6048 29.4079 13.9108C29.8284 13.7638 30.1917 13.7679 30.6122 13.9189C34.2823 15.2376 38.0749 15.9439 41.9655 16.1276C42.1737 16.1398 42.235 16.2174 42.235 16.4052C42.235 16.9155 42.235 17.4258 42.2431 17.9361C42.2472 18.0504 42.2064 18.0708 42.1043 18.0667C41.976 18.0621 41.8477 18.0627 41.7194 18.0634C41.6232 18.0639 41.527 18.0644 41.4307 18.0627C41.3831 18.0614 41.3309 18.0675 41.2787 18.0735C41.161 18.0871 41.0439 18.1007 40.9817 18.03C40.9119 17.9486 40.9378 17.7641 40.9581 17.6199L40.9612 17.5973C40.9939 17.3809 40.8918 17.3401 40.704 17.3278C39.4385 17.2298 38.177 17.0747 36.9237 16.8624C34.8457 16.5072 32.8004 16.0092 30.8122 15.3192C30.2652 15.1314 29.763 15.0539 29.2364 15.3233C29.2168 15.3331 29.1972 15.3385 29.1776 15.3439C29.1645 15.3475 29.1515 15.3511 29.1384 15.356C27.2523 15.9765 25.3376 16.4746 23.3821 16.8093C22.0268 17.042 20.6632 17.2053 19.2956 17.3237C19.0996 17.3401 19.0425 17.3931 19.0425 17.5973C19.0506 20.8877 19.0506 24.1823 19.0506 27.4727C19.0506 27.4892 19.0495 27.5061 19.0484 27.5231C19.0443 27.586 19.04 27.6508 19.0915 27.7054C19.3936 28.0402 19.5936 28.428 19.6998 28.8649C19.7243 28.971 19.7977 29.0118 19.8998 28.9914C20.5652 28.8526 21.1735 28.5872 21.6185 28.0565C22.0431 27.5462 22.235 26.9461 22.2391 26.2684C22.2445 25.413 22.2645 24.5594 22.2845 23.7064C22.2944 23.2811 22.3044 22.856 22.3125 22.4309L22.3124 22.4091C22.312 22.3503 22.3116 22.2889 22.337 22.2308C22.5289 21.7859 22.7453 21.3572 23.0841 21.002C23.8312 20.2223 24.7212 19.8263 25.803 20.108C26.9461 20.406 27.6034 21.2347 28.0239 22.288C28.0361 22.3216 28.0346 22.3575 28.0331 22.394C28.033 22.3971 28.0328 22.4002 28.0327 22.4033C28.0324 22.4125 28.0321 22.4217 28.0321 22.4309C28.0444 23.2301 28.0578 24.0282 28.0711 24.8259L28.0711 24.8281L28.0712 24.8302L28.0712 24.8318C28.0844 25.6172 28.0975 26.4021 28.1096 27.187C28.1137 27.436 28.2321 27.5952 28.4771 27.6564C28.5424 27.6728 28.6118 27.685 28.6771 27.6891C28.7211 27.6916 28.7649 27.6944 28.8087 27.6971C28.9759 27.7074 29.1416 27.7177 29.3099 27.7177C29.7791 27.7223 30.2478 27.7251 30.7164 27.728L30.7171 27.728L30.7178 27.728C31.5002 27.7328 32.2822 27.7376 33.0658 27.7503C33.1499 27.752 33.2344 27.7525 33.319 27.753C33.6572 27.7549 33.9974 27.7569 34.3272 27.832C35.5193 28.1014 37.0502 29.4772 37.0584 31.2C37.0607 31.6443 37.0636 32.0888 37.0666 32.5333L37.0666 32.5348V32.5348V32.5349C37.0797 34.4958 37.0927 36.4588 37.0462 38.4219L37.0454 38.4699C37.0418 38.6912 37.0382 38.9153 36.9849 39.1323C36.8461 39.6916 36.5726 40.1814 36.1888 40.606C35.4785 41.3899 34.6334 41.892 33.5352 41.8593C33.3217 41.8543 33.1081 41.8617 32.8946 41.869C32.7611 41.8736 32.6277 41.8782 32.4942 41.8798C30.6585 41.8999 28.8229 41.8874 26.9872 41.8749C25.8508 41.8671 24.7145 41.8593 23.5781 41.8593C23.4801 41.8593 23.3944 41.8348 23.3046 41.7981C22.7453 41.5736 22.2799 41.2225 21.8716 40.7816ZM27.4605 40.5906H27.46H27.4591C26.5526 40.5915 25.6456 40.5924 24.7367 40.5897C24.4868 40.5897 24.2391 40.5761 23.9903 40.5624L23.9901 40.5623C23.9058 40.5577 23.8213 40.553 23.7365 40.5489C23.5487 40.5407 23.3814 40.4795 23.2344 40.3529L23.2064 40.3288C23.0358 40.1816 22.8634 40.0329 22.7241 39.8549C22.075 39.0425 21.2177 38.6873 20.193 38.675C20.1524 38.675 20.1082 38.679 20.0633 38.683L20.0632 38.6831C19.9317 38.6949 19.7945 38.7072 19.7276 38.622C19.6716 38.5513 19.6815 38.4275 19.6914 38.3042C19.6952 38.2566 19.699 38.2091 19.699 38.1647C19.699 37.6579 19.6991 37.1508 19.6993 36.6437V36.6434V36.6431C19.7 34.6139 19.7006 32.5832 19.6908 30.555C19.6908 30.3509 19.7602 30.2937 19.9398 30.2611C21.3565 29.9998 22.422 29.2486 23.1038 27.9708C23.414 27.3952 23.5283 26.7706 23.5365 26.1255C23.5419 25.799 23.5469 25.4724 23.5519 25.1458C23.5619 24.4926 23.5719 23.8394 23.5855 23.1862C23.5896 22.9331 23.5936 22.6799 23.6304 22.435C23.708 21.941 24.0264 21.6103 24.455 21.4185C24.9286 21.2021 25.8839 21.1898 26.3942 21.7941C26.6024 22.039 26.7494 22.2921 26.7494 22.6432C26.7494 23.758 26.7751 24.8729 26.8008 25.9905V25.9906L26.8106 26.4195C26.8188 26.8073 26.8351 27.1952 26.9249 27.5748C26.9617 27.7218 27.0107 27.8606 27.1046 27.979C27.5618 28.5628 28.1089 28.9506 28.9049 28.9669L28.9251 28.9673C30.1881 28.9876 31.455 29.0079 32.718 29.0404C33.1874 29.0527 33.6569 29.0649 34.1223 29.118C34.9225 29.2119 35.6002 29.8855 35.7022 30.6897C35.7553 31.1143 35.7798 31.543 35.7798 31.9716C35.7798 32.4565 35.7801 32.9413 35.7803 33.4262V33.4274C35.7811 34.8813 35.7818 36.3352 35.7757 37.7892C35.7757 38.2423 35.7594 38.6995 35.6614 39.1486C35.5185 39.7855 34.8123 40.4305 34.1672 40.5162C33.5037 40.6052 32.8372 40.6053 32.1704 40.6054H32.1692C32.0405 40.6054 31.9118 40.6054 31.7831 40.6061C31.1221 40.6115 30.4612 40.6097 29.7991 40.6079H29.7987C29.4671 40.607 29.1352 40.6061 28.8029 40.6061C28.8192 40.602 28.8192 40.5938 28.8192 40.5897C28.3664 40.5897 27.9135 40.5902 27.4605 40.5906ZM18.4041 34.5109C18.4041 35.0115 18.4045 35.5122 18.405 36.013V36.0133C18.4059 37.0152 18.4068 38.0177 18.4041 39.022C18.4041 39.3112 18.3899 39.6003 18.3757 39.8895L18.3757 39.8896L18.3673 40.0631C18.351 40.4427 18.2653 40.5448 17.8815 40.5734C17.5222 40.602 17.163 40.606 16.7996 40.606C15.2565 40.6142 13.7133 40.6224 12.1701 40.5938C12.0272 40.5897 11.8844 40.5775 11.7456 40.557C11.5047 40.5244 11.4149 40.4305 11.3904 40.1855C11.33 39.545 11.333 38.9016 11.336 38.26V38.26C11.3367 38.1206 11.3373 37.9814 11.3373 37.8422L11.3352 37.1502V37.1502C11.3274 34.6129 11.3196 32.0757 11.3496 29.5385C11.3536 29.2935 11.37 29.0486 11.3904 28.8036C11.4108 28.5505 11.5129 28.4566 11.7619 28.424C12.1261 28.3734 12.4903 28.3757 12.8546 28.3781C12.9312 28.3786 13.0079 28.3791 13.0846 28.3791C14.1868 28.376 15.2891 28.3798 16.3913 28.3836C16.7588 28.3849 17.1262 28.3862 17.4937 28.3872C17.6347 28.3872 17.773 28.401 17.9131 28.415L18.004 28.424C18.2081 28.4403 18.3347 28.5505 18.351 28.7546C18.3755 29.0241 18.4 29.2976 18.4 29.567C18.4041 31.2123 18.4041 32.8575 18.4041 34.5068C18.4018 34.5091 18.4008 34.5101 18.401 34.5105C18.4012 34.5109 18.4022 34.5109 18.4041 34.5109ZM14.8775 39.3242C14.7018 39.3242 14.5263 39.3239 14.351 39.3237H14.3506C13.8254 39.3229 13.3013 39.3221 12.775 39.3282C12.6403 39.3282 12.6035 39.2874 12.6076 39.1568C12.6158 38.8302 12.6158 38.5036 12.6076 38.177C12.6035 38.0627 12.6362 38.0259 12.7546 38.0259C14.163 38.03 15.5715 38.03 16.9759 38.0259C17.0942 38.0259 17.1269 38.0668 17.1228 38.177V38.177C17.1187 38.5036 17.1147 38.8302 17.1228 39.1568C17.1269 39.2915 17.0861 39.3242 16.9514 39.3242C16.4918 39.3214 16.0322 39.3224 15.5714 39.3233H15.5712L15.5692 39.3233C15.339 39.3237 15.1084 39.3242 14.8775 39.3242Z" fill="white"/>
<path d="M44.8086 13.5761C44.8249 13.5761 44.8413 13.572 44.8576 13.572C44.8576 17.0421 44.8576 20.5122 44.8576 23.9782C44.8453 23.9946 44.8331 23.9986 44.8249 23.9782C44.8208 23.8966 44.8168 23.8149 44.8168 23.7333C44.8168 20.4224 44.8168 17.1115 44.8168 13.8006C44.8168 13.7272 44.8127 13.6537 44.8086 13.5761Z" fill="white"/>
<path d="M10.0327 33.4495C10.0327 34.0333 10.0327 34.6212 10.0327 35.2049C10.0204 35.2213 10.0082 35.2213 10 35.2049C10 34.6212 10 34.0333 10 33.4495C10.0122 33.4291 10.0245 33.4332 10.0327 33.4495Z" fill="white"/>
<path d="M44.8242 26.5092C44.8242 26.0479 44.8242 25.5825 44.8242 25.1211C44.8365 25.1007 44.8446 25.1007 44.8569 25.1211C44.8569 25.5825 44.8569 26.0479 44.8569 26.5092C44.8446 26.5296 44.8324 26.5296 44.8242 26.5092Z" fill="white"/>
<path d="M44.8242 26.5092C44.8365 26.5092 44.8487 26.5092 44.8569 26.5092C44.8569 26.9705 44.8569 27.4359 44.8569 27.8972C44.8446 27.9176 44.8324 27.9135 44.8242 27.8972C44.8242 27.4359 44.8242 26.9746 44.8242 26.5092Z" fill="white"/>
<path d="M44.8569 25.1212H44.8405H44.8242C44.8242 24.7416 44.8242 24.3578 44.8242 23.9781C44.8365 23.9781 44.8487 23.9781 44.8569 23.9781C44.8569 24.3619 44.8569 24.7416 44.8569 25.1212Z" fill="white"/>
<path d="M10.0327 33.4495H10.0163H10C10 33.0698 10 32.6861 10 32.3064C10.0122 32.3023 10.0245 32.3023 10.0327 32.3064C10.0327 32.6861 10.0327 33.0657 10.0327 33.4495Z" fill="white"/>
<path d="M10.0327 36.6746H10.0163H10C10 36.3888 10 36.1031 10 35.8173C10.0122 35.7969 10.0245 35.801 10.0327 35.8173C10.0327 36.1031 10.0327 36.3888 10.0327 36.6746Z" fill="white"/>
<path d="M10.0327 35.8173H10.0163H10C10 35.6132 10 35.4091 10 35.205C10.0122 35.205 10.0245 35.205 10.0327 35.205C10.0327 35.4091 10.0327 35.6132 10.0327 35.8173Z" fill="white"/>
<path d="M44.8242 27.8973C44.8365 27.8973 44.8487 27.8973 44.8569 27.8973C44.8569 28.0076 44.8569 28.1137 44.8569 28.2239H44.8405H44.8242C44.8242 28.1178 44.8242 28.0076 44.8242 27.8973Z" fill="white"/>
<path d="M42.2492 21.2878C42.2492 21.4592 42.2451 21.6266 42.2492 21.7981C42.2533 21.9001 42.2288 21.941 42.1145 21.9369C41.7757 21.9287 41.4368 21.9287 41.0939 21.9369C40.9837 21.941 40.9551 21.9001 40.9551 21.794C40.9592 21.4552 40.9592 21.1163 40.9551 20.7734C40.9551 20.6672 40.9837 20.6305 41.0939 20.6346C41.4327 20.6427 41.7716 20.6427 42.1145 20.6346C42.2288 20.6305 42.2533 20.6754 42.2492 20.7775C42.2411 20.9448 42.2492 21.1163 42.2492 21.2878Z" fill="white"/>
</svg>
