<svg width="60" height="60" viewBox="0 0 60 60" fill="none" xmlns="http://www.w3.org/2000/svg">
<circle cx="30" cy="30" r="30" fill="#EA4033"/>
<path fill-rule="evenodd" clip-rule="evenodd" d="M37.1251 7.42799C37.458 6.75146 37.4257 6.52595 36.921 6.0105C36.6311 6.0105 36.3304 6.01049 36.0512 5.99976C35.7613 6.12862 35.6217 6.38635 35.4928 6.65481C35.0516 7.54109 34.6076 8.42736 34.1633 9.31415C33.3856 10.8664 32.6071 12.4203 31.8417 13.9785C31.6913 14.29 31.498 14.4296 31.1329 14.4188C30.1987 14.3973 29.2644 14.3866 28.3301 14.4188C27.8684 14.4403 27.6107 14.29 27.4066 13.8604C26.2039 11.412 24.9797 8.97435 23.7555 6.53669C23.6266 6.2897 23.4978 6.06419 23.2078 5.99976H22.4024C21.8977 6.41856 21.8225 6.72998 22.1232 7.3206C22.6816 8.44278 23.2427 9.56763 23.8038 10.6925C24.3649 11.8174 24.926 12.9423 25.4844 14.0645C25.4998 14.0951 25.5181 14.1258 25.537 14.1572C25.5972 14.2577 25.6619 14.3657 25.6455 14.5047H20.9742C20.7702 14.5047 20.5661 14.5155 20.3728 14.5584C18.1607 15.0202 16.7969 16.6632 16.7969 18.929V42.6291C16.7969 43.209 16.8828 43.7674 17.0868 44.3151C17.6023 45.7433 19.2668 47.0105 20.942 46.9998C25.2453 46.9607 29.5487 46.9671 33.852 46.9735C35.4656 46.9759 37.0793 46.9783 38.6929 46.9783C38.7248 46.9783 38.7573 46.9789 38.7902 46.9796C38.8902 46.9816 38.9933 46.9837 39.0902 46.9675C40.9265 46.6454 42.4729 44.8413 42.4729 42.9728C42.4836 34.8544 42.4836 26.7467 42.4729 18.6284C42.4729 16.7061 40.9802 14.9665 39.0902 14.6014C38.4802 14.4838 37.8651 14.497 37.2519 14.5101C36.9692 14.5162 36.6868 14.5222 36.4056 14.5155C35.7903 14.5083 35.1798 14.5107 34.5677 14.5131C34.261 14.5143 33.954 14.5155 33.6458 14.5155C33.6301 14.3821 33.6832 14.2946 33.7338 14.211C33.7525 14.1802 33.7709 14.15 33.7854 14.1181C34.8914 11.8953 36.0082 9.66162 37.1251 7.42799ZM30.5123 16.8391C30.6129 16.6372 30.7161 16.4297 30.8228 16.2122H30.8219C27.4718 16.2122 24.1646 16.2122 20.8466 16.2336C20.2775 16.2336 19.7835 16.4806 19.3647 16.8565C18.6989 17.4364 18.4734 18.1773 18.4734 19.0364V41.77C18.4734 41.8667 18.4727 41.9633 18.472 42.06C18.47 42.3499 18.468 42.6399 18.4841 42.9298C18.5808 44.3151 19.6546 45.3675 21.0292 45.3675C26.7636 45.3782 32.4873 45.3782 38.2217 45.3675C39.6177 45.3675 40.7667 44.2077 40.7667 42.8439V18.7465C40.7667 17.3612 39.6284 16.2336 38.2432 16.2229C37.3733 16.2175 36.5035 16.2175 35.6337 16.2175C34.7639 16.2175 33.894 16.2175 33.0242 16.2122C32.7772 16.2122 32.6698 16.2981 32.5732 16.5021C32.2725 17.1357 31.9611 17.7693 31.6282 18.3921C31.4993 18.6283 31.5315 18.7787 31.6926 18.9935C32.3477 19.8203 32.3584 21.0231 31.7678 21.9144C31.1772 22.8057 30.0818 23.2459 29.0831 22.999C27.7086 22.6553 26.9354 21.517 27.1072 20.0888C27.2576 18.8646 28.3744 17.9303 29.6952 17.9411C29.8885 17.9411 29.9852 17.9089 30.0711 17.737C30.2135 17.4393 30.3598 17.1455 30.5123 16.8391Z" fill="white"/>
<path d="M29.6416 28.1965C26.8066 28.1965 23.9609 28.1965 21.1259 28.1965C20.7715 28.1965 20.5031 28.0569 20.3205 27.767C20.1487 27.477 20.1594 27.1763 20.3527 26.8971C20.5568 26.5857 20.8574 26.4891 21.2118 26.4998C22.8978 26.5106 24.5837 26.4998 26.2697 26.4998C30.1893 26.4998 34.1196 26.4998 38.0392 26.4998C38.6943 26.4998 39.0916 26.8649 39.0486 27.4233C39.0164 27.8958 38.6728 28.1965 38.1573 28.1965C36.1599 28.1965 34.1626 28.1965 32.1759 28.1965C31.3383 28.1965 30.49 28.1965 29.6416 28.1965Z" fill="white"/>
<path d="M29.652 40.2238C32.4655 40.2238 35.279 40.2238 38.0926 40.2238C38.5973 40.2238 38.9087 40.4278 39.0268 40.8144C39.1986 41.4157 38.8013 41.9205 38.1355 41.9205C36.2563 41.9205 34.3877 41.9205 32.5085 41.9205C28.75 41.9205 24.9807 41.9205 21.2222 41.9205C20.4705 41.9205 20.0195 41.3191 20.3094 40.7177C20.4812 40.3526 20.7819 40.2238 21.19 40.2238C23.5954 40.2345 26.0116 40.2238 28.4171 40.2238C28.8251 40.2238 29.2439 40.2238 29.652 40.2238Z" fill="white"/>
<path d="M24.5078 34.0813C24.7978 32.9108 25.077 31.8154 25.3454 30.7201C25.485 30.1617 25.9146 29.8503 26.3871 29.9684C26.8918 30.0865 27.1388 30.559 26.9884 31.1282C26.4408 33.3189 25.8931 35.5095 25.3454 37.7002C25.2166 38.2157 24.9266 38.4734 24.4756 38.4734C24.0353 38.4734 23.7669 38.2371 23.638 37.7217C23.0796 35.5203 22.5212 33.3189 21.9735 31.1067C21.8339 30.5376 22.0702 30.0651 22.5319 29.9469C23.0688 29.8073 23.4876 30.0865 23.638 30.6986C23.8957 31.7081 24.132 32.7175 24.3897 33.7162C24.4219 33.8128 24.4541 33.8987 24.5078 34.0813Z" fill="white"/>
<path d="M28.8036 34.2209C28.8036 33.0933 28.8036 31.9765 28.8036 30.8489C28.8036 30.2798 29.1258 29.9362 29.6412 29.9362C30.1459 29.9362 30.5003 30.3013 30.5003 30.8382C30.5003 33.0826 30.511 35.3377 30.5003 37.582C30.5003 38.119 30.1352 38.4733 29.6305 38.4733C29.1365 38.4626 28.8036 38.1297 28.8036 37.5928C28.7929 36.476 28.8036 35.3484 28.8036 34.2209Z" fill="white"/>
<path fill-rule="evenodd" clip-rule="evenodd" d="M32.2188 30.9886V34.1994V37.3673C32.2188 37.5177 32.2188 37.668 32.251 37.8076C32.3584 38.366 32.949 38.6452 33.4537 38.3875C33.8081 38.2157 33.9155 37.8935 33.9155 37.5284V35.6384C33.9155 35.3448 33.9155 35.1999 33.9879 35.1283C34.0586 35.0585 34.1982 35.0585 34.4739 35.0585C34.6779 35.0585 34.8712 35.0478 35.0752 35.0263C36.2243 34.9189 37.2122 33.9417 37.3196 32.8249C37.4377 31.5148 36.686 30.355 35.4833 30.0329C34.9852 29.901 34.4721 29.9191 33.961 29.937C33.7229 29.9454 33.4852 29.9538 33.2497 29.947C32.498 29.9362 32.2188 30.2262 32.2188 30.9886ZM33.916 32.4705V32.4705V32.4705C33.916 33.4585 33.916 33.4585 34.8395 33.3511C35.3442 33.2974 35.6557 32.9323 35.6342 32.4383C35.6127 31.9873 35.2476 31.6544 34.7644 31.6436C33.916 31.6114 33.916 31.6114 33.916 32.4705Z" fill="white"/>
</svg>
