<svg width="60" height="60" viewBox="0 0 60 60" fill="none" xmlns="http://www.w3.org/2000/svg">
<circle cx="30" cy="30" r="30" fill="#EA4033"/>
<path fill-rule="evenodd" clip-rule="evenodd" d="M15.6769 17.9993H18.6145C18.9383 17.9993 19.2611 18.0003 19.5836 18.0012C20.2276 18.0032 20.8703 18.0051 21.5169 17.9993C21.808 17.9993 21.9139 18.1051 21.9845 18.361C22.7078 21.0339 23.4489 23.7069 24.1899 26.3799L24.1899 26.38C25.4691 31.0026 26.7571 35.6164 28.0539 40.2391C28.1156 40.4684 28.0715 40.5655 27.8774 40.7066C26.3513 41.7564 25.5396 43.1944 25.7602 45.0734C25.9631 46.7672 27.6481 48.8933 30.0917 48.9021C31.9002 48.9109 33.2058 48.0111 34.088 46.4673C34.4673 45.8145 34.6173 45.0911 34.6173 44.3324C34.6173 44.1383 34.6438 43.9619 34.8996 43.8913C37.0694 43.3092 39.2392 42.7094 41.409 42.1096L41.4101 42.1093C42.3981 41.8358 43.395 41.5447 44.3831 41.2448C44.7359 41.1389 44.9829 40.6802 44.8771 40.3538C44.7624 40.0009 44.3654 39.7627 43.9949 39.8509C43.9617 39.8585 43.9284 39.8661 43.8952 39.8736C43.4245 39.9809 42.9472 40.0896 42.4775 40.2214C39.7869 40.9536 37.0874 41.6947 34.3968 42.4445C34.1939 42.4975 34.1056 42.4534 34.0086 42.2857C33.6469 41.6329 33.0999 41.1389 32.4912 40.7155C31.6885 40.1509 30.7798 40.0274 29.8447 39.9921C29.6683 39.9832 29.5712 39.9656 29.5095 39.7451C28.9484 37.6697 28.3718 35.5996 27.7955 33.5307C27.6197 32.8997 27.444 32.2687 27.2687 31.6378C26.6103 29.2712 25.9535 26.9046 25.2969 24.5387C24.4581 21.5162 23.6197 18.4948 22.7784 15.4762C22.7366 15.3261 22.6953 15.1758 22.6539 15.0254C22.4155 14.1597 22.1766 13.2922 21.8609 12.4503C21.7198 12.0887 21.3581 11.921 21.0141 12.0357C20.6171 12.168 20.4318 12.4768 20.5112 12.865C20.7494 13.9501 21.0405 15.0175 21.3493 16.0849C21.4287 16.3584 21.3757 16.4202 21.1023 16.429C20.1194 16.476 19.1335 16.4735 18.1481 16.471C17.4707 16.4693 16.7936 16.4675 16.1179 16.4819C16.0852 16.4833 16.0526 16.4845 16.0203 16.4857C15.8523 16.4919 15.6896 16.4979 15.5269 16.5348C15.1475 16.6319 14.9623 16.9054 15.0064 17.3288C15.0417 17.6905 15.3504 17.9993 15.6769 17.9993ZM30.2855 41.5534C28.627 41.474 27.1802 42.6826 27.2861 44.4646C27.1626 46.2819 28.7505 47.3847 30.109 47.3758C31.8469 47.3758 33.082 46.1761 33.082 44.4735C33.082 42.7885 31.9087 41.6328 30.2855 41.5534Z" fill="white"/>
<path fill-rule="evenodd" clip-rule="evenodd" d="M47.6457 36.0221C47.831 35.9427 47.9986 35.8369 47.9986 35.5722C47.9834 35.5051 47.9692 35.4338 47.9546 35.3604C47.9269 35.2216 47.8979 35.0756 47.8575 34.9371C47.7661 34.6005 47.6748 34.2638 47.5835 33.9273C46.414 29.6149 45.2449 25.3042 43.9847 21.0162C43.8524 20.5575 43.473 20.3458 43.0143 20.4693C39.4062 21.475 35.798 22.4806 32.1987 23.4863C31.254 23.744 30.3151 24.0249 29.3773 24.3054C29.1591 24.3707 28.941 24.4359 28.7229 24.5008C28.326 24.6155 28.2113 24.8537 28.2995 25.2507C28.3319 25.3895 28.3636 25.5288 28.3954 25.6683C28.4849 26.0609 28.5747 26.4546 28.6788 26.8386C29.4816 29.7763 30.2844 32.714 31.1048 35.6428C31.188 35.94 31.2695 36.2385 31.351 36.5375C31.6326 37.5697 31.9156 38.607 32.2781 39.6126C32.4457 40.089 32.7104 40.2213 33.1956 40.0978C33.3558 40.0571 33.516 40.0172 33.676 39.9774C34.0357 39.8878 34.3941 39.7985 34.7482 39.7008C38.3916 38.6951 42.0262 37.6895 45.6608 36.675C45.7155 36.6599 45.7701 36.6448 45.8248 36.6298C46.4417 36.4602 47.0623 36.2895 47.6457 36.0221ZM46.0564 34.9346C46.143 34.9183 46.2466 34.8989 46.2174 34.7165L46.1644 34.5144L46.1644 34.5141C46.0907 34.2325 46.0113 33.9291 45.9263 33.6314C45.57 32.3427 45.2138 31.0518 44.8575 29.7609L44.8546 29.7505L44.8542 29.7488L44.8529 29.7444C44.4962 28.4516 44.1394 27.1588 43.7826 25.8682C43.6093 25.2345 43.4333 24.6036 43.2575 23.9739L43.2575 23.9738L43.2575 23.9737L43.2575 23.9736C43.1201 23.4813 42.9829 22.9898 42.8475 22.4982C42.7857 22.2689 42.724 22.1013 42.4064 22.2159C42.1312 22.3191 41.8449 22.3888 41.557 22.4588C41.4019 22.4965 41.2464 22.5344 41.0919 22.5776C39.3145 23.0716 37.5394 23.5656 35.7642 24.0595L35.7637 24.0597L35.7625 24.06C33.9875 24.5539 32.2124 25.0478 30.4352 25.5418C29.9588 25.6653 29.9588 25.6741 30.0911 26.1505L31.8908 32.661C32.4024 34.4694 32.9141 36.2867 33.4169 38.0952L33.4213 38.1103C33.4805 38.314 33.5214 38.4544 33.8227 38.351C34.1137 38.2523 34.4138 38.1842 34.7141 38.1161L34.7142 38.1161L34.7142 38.116C34.9238 38.0685 35.1334 38.0209 35.3401 37.9629C37.8543 37.2748 40.3685 36.5779 42.8827 35.8721C43.9237 35.581 44.9646 35.2634 46.0055 34.9459L46.0057 34.9458C46.0209 34.9413 46.0383 34.938 46.0564 34.9346ZM36.8318 30.923C36.6819 30.3672 36.5231 29.8114 36.3555 29.2292C37.3082 29.4497 37.3082 29.4497 37.8199 28.7175L37.8199 28.7175C38.014 28.9028 38.2257 28.9998 38.4992 28.991C38.8031 28.9839 38.9654 28.7843 39.1405 28.5691L39.1405 28.5691L39.1405 28.5691C39.1839 28.5157 39.2281 28.4613 39.2755 28.4087C39.3252 28.5745 39.3711 28.7345 39.4157 28.8904C39.4662 29.0664 39.5151 29.2372 39.5666 29.4056L39.5668 29.4061L39.5668 29.4064L39.5669 29.4066C39.8491 30.3767 40.1313 31.3467 40.4223 32.3168C40.5194 32.6432 40.9516 32.8726 41.2516 32.7844C41.6485 32.6697 41.8867 32.2992 41.8162 31.9286C41.7011 31.3533 41.5403 30.7864 41.3795 30.2191L41.3794 30.219L41.3794 30.2188C41.3059 29.9599 41.2325 29.7008 41.1633 29.4409C41.1066 29.222 41.0498 29.0049 40.9922 28.7846L40.9922 28.7845L40.9921 28.784L40.9914 28.7816C40.9239 28.5234 40.8552 28.2608 40.784 27.9853C40.934 28.0382 41.0222 28.0735 41.1104 28.1088C41.4545 28.2411 41.8073 28.1264 42.0191 27.8089C42.2308 27.4913 42.2043 27.1913 41.8956 26.909C41.2075 26.2827 40.5017 25.7004 39.7519 25.1623C39.3813 24.8977 39.0196 24.977 38.7638 25.3564C38.6844 25.4799 38.6227 25.6034 38.5697 25.7357C38.2433 26.5385 37.9434 27.3501 37.6699 28.2058C37.611 28.1617 37.5552 28.1205 37.5018 28.0812L37.5017 28.0812C37.4272 28.0263 37.3574 27.9749 37.2906 27.9235C37.1474 27.8113 37.0046 27.6991 36.8621 27.587L36.8609 27.5861L36.8607 27.5859L36.8606 27.5859C36.3538 27.1875 35.8501 26.7915 35.3409 26.4062C34.9704 26.1327 34.5205 26.2386 34.3264 26.6532C33.9206 27.5177 33.5766 28.4087 33.3296 29.335C33.259 29.6085 33.2943 29.829 33.5148 30.0143C33.7442 30.2084 33.9912 30.2613 34.2823 30.1731C34.5298 30.1003 34.6452 29.9074 34.7672 29.7034L34.7672 29.7034C34.793 29.6601 34.8192 29.6164 34.8469 29.5732C34.8594 29.6169 34.8708 29.6562 34.8815 29.6931L34.8815 29.6931C34.901 29.7603 34.9181 29.8193 34.9351 29.882C35.1116 30.4863 35.2858 31.0928 35.46 31.6993L35.4601 31.6995C35.6343 32.3059 35.8085 32.9123 35.9849 33.5166C36.082 33.8518 36.5142 34.0988 36.8054 34.0194C37.2465 33.8871 37.4846 33.543 37.4053 33.1372C37.3067 32.6137 37.1609 32.0988 37.0157 31.5864L37.0157 31.5864C36.953 31.3649 36.8904 31.1439 36.8318 30.923ZM35.3223 35.4398C35.2605 35.0958 35.4987 34.9458 35.781 34.8311C36.3188 34.6047 36.885 34.452 37.4477 34.3003L37.4477 34.3003C37.5865 34.2629 37.7251 34.2255 37.863 34.1871C38.3418 34.0548 38.8189 33.9161 39.2958 33.7774C40.3127 33.4818 41.3292 33.1863 42.3621 32.9521C42.5121 32.9168 42.662 32.8815 42.812 32.8727C43.1472 32.8551 43.4472 33.0844 43.5178 33.3932C43.5972 33.7372 43.4648 34.0813 43.1384 34.2136C42.7591 34.3724 42.3709 34.5047 41.9739 34.6194C40.1919 35.1134 38.4099 35.6075 36.6367 36.0927L36.6366 36.0927L36.6366 36.0927C36.5131 36.128 36.3897 36.1632 36.2574 36.1985C35.7281 36.3485 35.2605 35.9339 35.3223 35.4398Z" fill="white"/>
</svg>
