<svg width="60" height="60" viewBox="0 0 60 60" fill="none" xmlns="http://www.w3.org/2000/svg">
<circle cx="30" cy="30" r="30" fill="#EA4033"/>
<path fill-rule="evenodd" clip-rule="evenodd" d="M47.8539 20.1287V38.5853C47.7709 38.6988 47.649 38.7563 47.5287 38.8131C47.4944 38.8293 47.4602 38.8454 47.4271 38.8628C46.916 39.1205 46.4075 39.3861 45.8993 39.6516L45.8992 39.6517L45.8991 39.6517L45.8989 39.6518L45.8989 39.6518L45.8988 39.6519L45.8987 39.6519C45.5724 39.8224 45.2462 39.9928 44.9195 40.161C44.0888 40.5878 43.2593 41.0181 42.4296 41.4486L42.4291 41.4489L42.4285 41.4491L42.428 41.4494L42.4269 41.45L42.4258 41.4506L42.4247 41.4511C41.8314 41.7589 41.2381 42.0668 40.6441 42.3734C39.6483 42.8855 38.6562 43.4011 37.664 43.9168L37.6634 43.9171C35.6147 44.9806 33.5552 46.0263 31.4887 47.0578L31.4499 47.0768L31.4499 47.0769C31.3031 47.149 31.1577 47.2205 30.9943 47.2499C30.7897 47.2526 30.6174 47.163 30.4472 47.0745L30.4471 47.0745L30.4471 47.0745C30.3983 47.0491 30.3498 47.0239 30.3007 47.0009C29.9317 46.8253 29.5624 46.6502 29.1931 46.475C28.455 46.1249 27.717 45.7749 26.9821 45.4216C26.5802 45.2284 26.1783 45.0355 25.7764 44.8427L25.7738 44.8415C24.9708 44.4561 24.1678 44.0708 23.3648 43.6823C22.4412 43.2318 21.5194 42.7883 20.5993 42.3457L20.5993 42.3457L20.5988 42.3455L20.5983 42.3452L20.5979 42.345C20.2109 42.1588 19.8243 41.9728 19.438 41.7865C18.4634 41.3134 17.4888 40.8439 16.5106 40.378C16.1435 40.2031 15.7776 40.0256 15.4117 39.8481L15.4116 39.848L15.4113 39.8479L15.411 39.8478L15.411 39.8477L15.411 39.8477C14.7279 39.5163 14.0445 39.1848 13.3521 38.8699C13.1601 38.7809 13.0356 38.6742 13.0498 38.4466C13.0517 38.4197 13.0474 38.3907 13.043 38.3613C13.0393 38.3363 13.0356 38.3111 13.0356 38.2865C13.0389 38.0042 13.0322 37.7211 13.0255 37.4379C13.0179 37.1111 13.0102 36.7842 13.0178 36.4583V36.0955V35.7789V35.4588V35.1387V34.815V34.3882V33.7195V33.218V32.72V32.2185V31.6103V30.376V29.2627C13.0178 29.2486 13.0189 29.2343 13.02 29.2198C13.0233 29.176 13.0267 29.1312 13 29.0884V20.1962C13.0743 20.1101 13.1758 20.0661 13.2756 20.0229L13.2757 20.0229C13.2954 20.0143 13.315 20.0058 13.3343 19.997C14.1875 19.6056 15.0394 19.209 15.8907 18.8127C16.4627 18.5464 17.0344 18.2803 17.6062 18.0159C18.1972 17.7438 18.7868 17.4689 19.3767 17.1939L19.377 17.1937L19.3773 17.1936L19.3776 17.1935L19.3788 17.1929C19.7291 17.0296 20.0795 16.8662 20.4303 16.7034C21.067 16.4082 21.7028 16.1121 22.3386 15.816L22.3392 15.8156L22.3395 15.8155C22.975 15.5195 23.6105 15.2236 24.2469 14.9285C25.1859 14.491 26.1249 14.0535 27.0639 13.6124C27.6259 13.3528 28.1878 13.0923 28.7498 12.8318L28.7508 12.8313C29.3125 12.5709 29.8742 12.3105 30.4358 12.051C30.4776 12.0315 30.5238 12.0207 30.5692 12.0101L30.5692 12.0101L30.5693 12.0101C30.5818 12.0072 30.5943 12.0042 30.6066 12.0012C30.7401 11.9912 30.858 12.047 30.972 12.1009L30.972 12.1009L30.9943 12.1114C31.3944 12.302 31.7958 12.4913 32.1978 12.6808L32.1981 12.681C32.4713 12.8098 32.7447 12.9387 33.0181 13.0682C33.4802 13.286 33.9417 13.5042 34.4031 13.7224C35.1778 14.0887 35.9522 14.4549 36.728 14.8182C37.4216 15.1455 38.1116 15.4727 38.8016 15.7999C39.328 16.0489 39.8545 16.299 40.3809 16.5491C41.1705 16.9243 41.9601 17.2995 42.7498 17.6708C43.2335 17.8985 43.7137 18.1261 44.1939 18.3573C45.3107 18.8909 46.4276 19.4208 47.548 19.9473L47.5842 19.9622C47.6827 20.0027 47.781 20.0431 47.8539 20.1287ZM29.952 45.2437L29.4282 44.9908L29.4279 44.9906L29.4222 44.9878C28.6804 44.6295 27.9551 44.2792 27.2275 43.9312C25.1291 42.9211 23.0297 41.9111 20.9304 40.901C18.8308 39.8907 16.7313 38.8805 14.6326 37.8703C14.5472 37.8276 14.4938 37.792 14.4938 37.6782C14.4938 35.8162 14.4871 33.9538 14.4803 32.0912C14.4687 28.8978 14.4571 25.704 14.4796 22.5117C14.4821 22.2576 14.4938 22.0035 14.5054 21.7495C14.51 21.6479 14.5147 21.5462 14.5187 21.4446C14.5223 21.2881 14.5792 21.2632 14.7286 21.3272C15.2801 21.5712 15.8329 21.8138 16.3859 22.0566C17.1311 22.3836 17.8766 22.7109 18.6198 23.0417C20.3422 23.8046 22.063 24.569 23.7841 25.3336L23.7861 25.3345L23.7873 25.335L23.7878 25.3353C25.7726 26.217 27.7576 27.0988 29.7457 27.9786C29.9271 28.0569 29.9769 28.1493 29.9769 28.3414C29.9663 33.9115 29.9627 39.4816 29.9592 45.0552C29.952 45.1086 29.952 45.1584 29.952 45.2437ZM36.7136 26.8299V25.585C36.6418 25.5563 36.6025 25.5786 36.5656 25.5995C36.5569 25.6044 36.5482 25.6093 36.5393 25.6134C35.9905 25.8772 35.4416 26.1414 34.8928 26.4056L34.8888 26.4075L34.8878 26.4079C33.7879 26.9374 32.688 27.4668 31.5881 27.993C31.4886 28.0428 31.4708 28.1033 31.4708 28.1993C31.4601 33.8654 31.4459 39.5315 31.4316 45.1976C31.4316 45.347 31.4565 45.3719 31.5917 45.2972C32.4496 44.8275 33.3208 44.3889 34.193 43.9498L34.1931 43.9498L34.1931 43.9498L34.1933 43.9497C34.424 43.8336 34.6548 43.7174 34.8854 43.6006C38.6841 41.6728 42.4829 39.7521 46.2852 37.8313C46.3848 37.7815 46.431 37.7317 46.431 37.6073C46.4263 33.9715 46.4247 30.3357 46.4231 26.6999C46.4223 24.883 46.4215 23.0661 46.4203 21.2491C46.4203 21.1404 46.4203 21.0852 46.3951 21.0688C46.3693 21.052 46.3168 21.076 46.2105 21.1247C45.7934 21.3168 45.3764 21.5096 44.9591 21.7025L44.9531 21.7052L44.9528 21.7054C43.9203 22.1826 42.8868 22.6603 41.8497 23.1307C41.6968 23.2019 41.6506 23.2801 41.6506 23.4437C41.6328 26.0083 41.6079 28.5763 41.583 31.1408C41.583 31.244 41.583 31.3222 41.4621 31.3827C39.9468 32.1403 38.4316 32.9015 36.9199 33.6662C36.7919 33.7302 36.7599 33.7089 36.7599 33.5702C36.7567 33.3094 36.7507 33.0485 36.7447 32.7877C36.7373 32.4616 36.7298 32.1356 36.7278 31.8095C36.7207 30.1485 36.7172 28.491 36.7136 26.8299ZM15.8027 20.4595C16.0312 20.3575 16.2574 20.256 16.4821 20.1551C16.9396 19.9496 17.3912 19.7469 17.8444 19.5489C18.2585 19.3669 18.6736 19.1859 19.0889 19.0048L19.0893 19.0046L19.0893 19.0046C19.794 18.6973 20.4994 18.3896 21.2021 18.0763C21.3906 17.9945 21.5471 17.991 21.7392 18.0728C24.0227 19.058 26.292 20.0646 28.5648 21.0748L28.7773 21.169C30.9617 22.1371 33.1488 23.1064 35.3158 24.1124L35.3161 24.1125C35.4263 24.1658 35.5364 24.2191 35.6573 24.2796C35.6058 24.3453 35.5428 24.3789 35.4813 24.4117C35.4663 24.4197 35.4514 24.4277 35.4367 24.4361C34.3098 25.0607 33.16 25.6396 32.0096 26.2188L32.0095 26.2189C31.5878 26.4312 31.166 26.6436 30.7452 26.8583C30.6492 26.9081 30.578 26.8796 30.4962 26.8441C29.0888 26.2353 27.6804 25.6256 26.2721 25.016L26.2641 25.0125C24.8527 24.4015 23.4413 23.7906 22.0308 23.1805C20.9054 22.6901 19.7811 22.2009 18.658 21.7122C17.7933 21.3359 16.9293 20.9599 16.0659 20.584C16.0085 20.5615 15.9529 20.5338 15.8891 20.502L15.8891 20.502C15.862 20.4885 15.8335 20.4743 15.8027 20.4595ZM26.3002 15.6188C26.2496 15.6422 26.1984 15.6658 26.1465 15.6897C26.1574 15.6963 26.1672 15.7025 26.1764 15.7082C26.1973 15.7213 26.2146 15.7321 26.2318 15.7395C26.3388 15.7891 26.4458 15.8387 26.5527 15.8883C27.2275 16.2014 27.9008 16.5138 28.5794 16.8208C29.9239 17.4291 31.2688 18.0373 32.6137 18.6455C35.3035 19.862 37.9933 21.0784 40.6799 22.2949C40.7902 22.3447 40.8684 22.3198 40.9609 22.2735C41.9107 21.796 42.8625 21.3204 43.8133 20.8453C44.1301 20.687 44.4468 20.5288 44.7632 20.3706C44.7723 20.3656 44.7824 20.3614 44.7927 20.3571C44.8266 20.343 44.8626 20.328 44.8735 20.2817C44.8344 20.2675 44.7988 20.2497 44.7633 20.2319L44.7632 20.2319C43.8575 19.8157 42.9518 19.3981 42.0458 18.9803C40.9308 18.4662 39.8153 17.9519 38.6987 17.4397C37.7329 16.9966 36.7671 16.5544 35.8014 16.1122C34.1319 15.3478 32.4629 14.5837 30.7953 13.8153C30.5997 13.7228 30.4361 13.7263 30.244 13.8081C29.4438 14.1444 28.6588 14.5146 27.8739 14.8847C27.5214 15.051 27.169 15.2172 26.8152 15.3803C26.6442 15.4603 26.4753 15.5381 26.3002 15.6188Z" fill="white"/>
</svg>
