<svg width="60" height="60" viewBox="0 0 60 60" fill="none" xmlns="http://www.w3.org/2000/svg">
<circle cx="30" cy="30" r="30" fill="#EA4033"/>
<path d="M31.4336 24.8783L33.8849 26.487C35.9255 27.8261 36.9457 28.4956 37.2999 29.3428C37.6095 30.0832 37.6095 30.9168 37.2999 31.6572C36.9457 32.5044 35.9255 33.1739 33.8849 34.513L33.8849 34.513L31.4335 36.1217C29.016 37.7083 27.8072 38.5015 26.806 38.4367C25.9337 38.3801 25.1294 37.9459 24.6035 37.2477C24 36.4462 24 35.0004 24 32.1087V28.8913C24 25.9996 24 24.5538 24.6035 23.7523C25.1294 23.0541 25.9337 22.6199 26.806 22.5633C27.8072 22.4985 29.016 23.2917 31.4336 24.8783Z" stroke="white" stroke-width="1.5"/>
<rect x="12.75" y="17.75" width="35.5" height="25.5" rx="2.25" stroke="white" stroke-width="1.5"/>
</svg>
