<svg width="387" height="370" viewBox="0 0 387 370" fill="none" xmlns="http://www.w3.org/2000/svg">
<path fill-rule="evenodd" clip-rule="evenodd" d="M0 0V370H137.103V238.898L133.194 229.186L246.494 370H387V0H250.383L249.383 143.241L137 0H0Z" fill="#EA4033"/>
<path fill-rule="evenodd" clip-rule="evenodd" d="M159.988 57.0913L161.668 59.2584L163.348 61.4255L157.767 65.7519L150.898 71.0767L152.602 73.275L154.55 75.7886L161.419 70.4638L167.001 66.1374L168.475 68.0397L169.95 69.9421L174.887 66.1149L169.906 59.6895L164.926 53.2641L159.988 57.0913ZM122.916 16.568L114.001 23.4784L116.159 26.2627L118.318 29.0471L124.612 24.1096L125.887 22.4891L122.272 34.1481L124.416 36.9144L126.841 40.0426L133.632 34.7783C137.08 32.2307 140.755 29.2568 141.858 28.4021L144.229 26.5642L142.11 23.8311L139.856 20.9231L132.743 26.437C132.743 26.437 133.246 24.5831 134.027 21.5024L135.705 15.5686L133.547 12.7843L131.389 10L122.916 16.568ZM145.896 40.242L140.736 44.2423L144.847 49.5455L148.957 54.8478L147.799 55.7457L146.886 56.4536L147.613 55.3125L143.642 50.1902L139.671 45.0677L136.985 47.1497L134.09 49.3941L140.039 57.0683L146.472 65.367L152.004 61.0784L157.42 56.8806L153.259 51.5131L149.354 46.4763L150.602 45.5371L151.85 44.5976L151.388 45.4428L150.927 46.2881L154.662 51.1065L158.493 56.0486L161.093 54.0328L163.859 51.8886L157.733 43.9851L151.478 35.9156L145.896 40.242ZM136.7 35.0276L128.092 41.6565L130.236 44.4227L132.381 47.1889L141.016 40.5963L149.768 33.7105L147.624 30.9443L145.501 28.2052L136.7 35.0276Z" fill="white"/>
<path fill-rule="evenodd" clip-rule="evenodd" d="M209.988 124.091L211.668 126.258L213.348 128.425L207.767 132.752L200.898 138.077L202.602 140.275L204.55 142.789L211.419 137.464L217.001 133.137L218.475 135.04L219.95 136.942L224.887 133.115L219.906 126.689L214.926 120.264L209.988 124.091ZM172.916 83.568L164.001 90.4784L166.159 93.2627L168.318 96.0471L174.612 91.1096L175.887 89.4891L172.272 101.148L174.416 103.914L176.841 107.043L183.632 101.778C187.08 99.2307 190.755 96.2568 191.858 95.4021L194.229 93.5642L192.11 90.8311L189.856 87.9231L182.743 93.437C182.743 93.437 183.246 91.5831 184.027 88.5024L185.705 82.5686L183.547 79.7843L181.389 77L172.916 83.568ZM195.896 107.242L190.736 111.242L194.847 116.545L198.957 121.848L197.799 122.746L196.886 123.454L197.613 122.312L193.642 117.19L189.671 112.068L186.985 114.15L184.09 116.394L190.039 124.068L196.472 132.367L202.004 128.078L207.42 123.881L203.259 118.513L199.354 113.476L200.602 112.537L201.85 111.598L201.388 112.443L200.927 113.288L204.662 118.106L208.493 123.049L211.093 121.033L213.859 118.889L207.733 110.985L201.478 102.916L195.896 107.242ZM186.7 102.028L178.092 108.656L180.236 111.423L182.381 114.189L191.016 107.596L199.768 100.711L197.624 97.9443L195.501 95.2052L186.7 102.028Z" fill="white"/>
<path fill-rule="evenodd" clip-rule="evenodd" d="M190.988 263.091L192.668 265.258L194.348 267.425L188.767 271.752L181.898 277.077L183.602 279.275L185.55 281.789L192.419 276.464L198.001 272.137L199.475 274.04L200.95 275.942L205.887 272.115L200.906 265.689L195.926 259.264L190.988 263.091ZM153.916 222.568L145.001 229.478L147.159 232.263L149.318 235.047L155.612 230.11L156.887 228.489L153.272 240.148L155.416 242.914L157.841 246.043L164.632 240.778C168.08 238.231 171.755 235.257 172.858 234.402L175.229 232.564L173.11 229.831L170.856 226.923L163.743 232.437C163.743 232.437 164.246 230.583 165.027 227.502L166.705 221.569L164.547 218.784L162.389 216L153.916 222.568ZM176.896 246.242L171.736 250.242L175.847 255.545L179.957 260.848L178.799 261.746L177.886 262.454L178.613 261.312L174.642 256.19L170.671 251.068L167.985 253.15L165.09 255.394L171.039 263.068L177.472 271.367L183.004 267.078L188.42 262.881L184.259 257.513L180.354 252.476L181.602 251.537L182.85 250.598L182.388 251.443L181.927 252.288L185.662 257.106L189.493 262.049L192.093 260.033L194.859 257.889L188.733 249.985L182.478 241.916L176.896 246.242ZM167.7 241.028L159.092 247.656L161.236 250.423L163.381 253.189L172.016 246.596L180.768 239.711L178.624 236.944L176.501 234.205L167.7 241.028Z" fill="white"/>
<path fill-rule="evenodd" clip-rule="evenodd" d="M245.988 333.091L247.668 335.258L249.348 337.425L243.767 341.752L236.898 347.077L238.602 349.275L240.55 351.789L247.419 346.464L253.001 342.137L254.475 344.04L255.95 345.942L260.887 342.115L255.906 335.689L250.926 329.264L245.988 333.091ZM208.916 292.568L200.001 299.478L202.159 302.263L204.318 305.047L210.612 300.11L211.887 298.489L208.272 310.148L210.416 312.914L212.841 316.043L219.632 310.778C223.08 308.231 226.755 305.257 227.858 304.402L230.229 302.564L228.11 299.831L225.856 296.923L218.743 302.437C218.743 302.437 219.246 300.583 220.027 297.502L221.705 291.569L219.547 288.784L217.389 286L208.916 292.568ZM231.896 316.242L226.736 320.242L230.847 325.545L234.957 330.848L233.799 331.746L232.886 332.454L233.613 331.312L229.642 326.19L225.671 321.068L222.985 323.15L220.09 325.394L226.039 333.068L232.472 341.367L238.004 337.078L243.42 332.881L239.259 327.513L235.354 322.476L236.602 321.537L237.85 320.598L237.388 321.443L236.927 322.288L240.662 327.106L244.493 332.049L247.093 330.033L249.859 327.889L243.733 319.985L237.478 311.916L231.896 316.242ZM222.7 311.028L214.092 317.656L216.236 320.423L218.381 323.189L227.016 316.596L235.768 309.711L233.624 306.944L231.501 304.205L222.7 311.028Z" fill="white"/>
</svg>
