<svg width="21" height="21" viewBox="0 0 21 21" fill="none" xmlns="http://www.w3.org/2000/svg">
<path d="M0.5 19.3195V19.8195H1H4.18711H7.37421H7.87733L7.8742 19.3163L7.83537 13.0741L12.8152 19.6221L12.9653 19.8195H13.2132H16.3796H19.9603H20.4603V19.3195V12.1707C20.5278 9.46491 20.4931 6.53977 20.4723 4.78279C20.4656 4.219 20.4603 3.77549 20.4603 3.49811V1V0.5H19.9603H16.8319H13.5033H13.0033V1V7.10779C12.5282 6.53825 11.8745 5.75903 11.0723 4.81364L7.76433 0.687254L7.61421 0.5H7.37421H4.18711H1H0.5V1V9.927V19.3195Z" fill="#EA4033" stroke="black"/>
</svg>
