<svg width="72" height="40" viewBox="0 0 72 40" fill="none" xmlns="http://www.w3.org/2000/svg">
<path d="M0.0172125 24.007C0.0172125 20.2377 0.034267 16.4684 0.00015598 12.6992C-0.00837178 11.7696 0.332739 11.113 1.03202 10.5331C1.81657 9.89352 2.54143 9.18572 3.29187 8.49497C4.42606 7.44605 5.5432 6.38008 6.70298 5.35675C7.87128 4.32489 8.99694 3.22481 10.1823 2.21001C10.7792 1.69834 11.325 1.12698 11.9049 0.589734C12.3057 0.22304 12.7918 0.0183748 13.3376 0.00984701C16.9789 0.00131925 20.6288 -0.00720851 24.2702 0.00984701C25.0206 0.00984701 25.7796 0.0183745 26.53 0.0269023C27.6983 0.03543 28.5682 0.53004 29.2674 1.38282C29.762 1.98829 29.9667 2.69609 29.9923 3.4977C30.0776 6.59328 30.0605 9.68885 30.1031 12.7844C30.1031 12.8868 30.1031 12.9976 30.1031 13.1C30.0776 13.5263 29.9241 13.714 29.5147 13.731C28.9604 13.7566 28.4061 13.7481 27.8518 13.731C27.5875 13.7225 27.4425 13.5349 27.434 13.279C27.4084 10.4649 27.3657 7.65925 27.3657 4.84509C27.3657 3.6512 26.4789 2.66198 25.2423 2.65345C21.6692 2.64492 18.1046 2.67051 14.5315 2.68756C14.1307 2.68756 14.0795 2.73873 14.0795 3.15659C14.0795 5.42497 14.0539 7.69336 14.0965 9.96174C14.1307 11.5479 12.9027 12.7503 11.4274 12.793C10.0544 12.8271 8.68142 12.81 7.29992 12.8185C5.92695 12.8271 4.55398 12.8441 3.17248 12.8271C2.6864 12.8185 2.48173 13.1 2.54996 13.5178C2.66082 14.1915 2.63523 14.8652 2.64376 15.5474C2.67787 21.1587 2.6864 26.77 2.72904 32.3812C2.73757 33.1743 2.66935 33.9759 2.8399 34.769C3.00193 35.5365 3.86323 36.2699 4.65631 36.2955C6.45567 36.3552 8.25503 36.3125 10.0544 36.2955C15.0346 36.2443 20.0063 36.2187 24.9865 36.2187C25.4982 36.2187 26.0098 36.1931 26.4703 35.9032C27.0417 35.545 27.4169 35.0504 27.5363 34.3852C27.6557 33.7457 27.6045 33.1061 27.5534 32.4665C27.5107 31.8781 27.5704 31.2897 27.5789 30.7013C27.5789 30.3601 27.7921 30.1896 28.0821 30.1725C28.662 30.147 29.2418 30.0787 29.8217 30.2237C30.1202 30.2919 30.2225 30.4795 30.2311 30.7268C30.2652 32.2448 30.359 33.7712 30.2822 35.2892C30.197 36.9521 29.3015 38.0948 27.7751 38.7088C27.434 38.8453 27.0502 38.905 26.675 38.9135C26.1974 38.9305 25.7284 38.9817 25.2509 38.9732C21.925 38.9561 18.5992 38.9561 15.2734 38.9647C11.4785 38.9732 7.68367 38.9647 3.89734 39.0073C2.02976 39.0243 0.469184 37.7793 0.0683796 35.8776C0.0172131 35.6303 0.0513231 35.3745 0.0513231 35.1186C0.0513231 31.4176 0.0513231 27.708 0.0513231 24.007C0.0427953 24.007 0.0257403 24.007 0.0172125 24.007Z" fill="#0E0C17"/>
<path d="M42.2895 23.7681C42.2895 20.0756 42.3066 16.3831 42.281 12.682C42.2724 11.9486 42.5283 11.4114 43.057 10.9338C45.2742 8.92129 47.4829 6.90021 49.6916 4.87913C50.57 4.07752 51.4398 3.25885 52.3267 2.45724C52.898 1.94558 53.4694 1.44244 54.0237 0.90519C54.3989 0.538497 54.885 0.393525 55.4137 0.393525C59.345 0.393525 63.2763 0.393524 67.2076 0.384997C67.5999 0.384997 68.0007 0.359413 68.393 0.376468C69.4248 0.410579 70.2435 0.836968 70.9087 1.63858C71.5141 2.37196 71.7017 3.19916 71.7017 4.11163C71.7273 7.07076 71.7529 10.0299 71.787 12.989C71.787 13.0914 71.787 13.2022 71.7785 13.3046C71.7359 13.6712 71.5994 13.8247 71.2242 13.8418C70.7381 13.8674 70.2435 13.8674 69.7574 13.8503C69.314 13.8333 69.1861 13.6883 69.1775 13.2193C69.1605 11.8548 69.1434 10.4904 69.1349 9.13448C69.1264 7.73593 69.1519 6.3459 69.1008 4.94735C69.0581 3.93254 68.2736 2.99449 67.0456 2.98596C65.1354 2.97744 63.2337 2.98596 61.3235 2.99449C59.7714 2.99449 58.2108 3.00302 56.6588 3.01155C56.1386 3.01155 56.0959 3.05419 56.0959 3.58291C56.0959 5.80865 56.0874 8.0344 56.113 10.2601C56.1215 11.4029 55.337 12.3409 54.3819 12.7417C53.8361 12.972 53.2818 12.9293 52.736 12.9379C50.3226 12.9549 47.9178 12.9549 45.5215 12.9634C44.899 12.9634 44.8478 13.0146 44.8564 13.6371C44.9331 19.7942 44.9416 25.9427 44.9587 32.0997C44.9587 32.7393 44.9843 33.3789 45.0013 34.0185C45.0184 34.8116 45.4618 35.3403 46.1014 35.7155C46.4766 35.9372 46.886 35.9884 47.3209 35.9884C51.0646 35.9543 54.7997 35.9372 58.5434 35.9117C61.3576 35.8946 64.1717 35.8861 66.9859 35.8775C67.4549 35.8775 67.8898 35.7752 68.2906 35.545C69.0752 35.093 69.3225 34.3511 69.3566 33.5153C69.3907 32.6285 69.3054 31.733 69.2628 30.8462C69.2287 30.1639 69.476 29.9337 70.1667 29.9252C70.559 29.9252 70.9598 29.9166 71.3521 29.9337C71.77 29.9507 71.9235 30.0957 71.9235 30.505C71.949 31.9718 72.0599 33.4471 71.9576 34.9139C71.8467 36.5939 71.1474 37.9839 68.9729 38.47C68.4186 38.5979 67.8643 38.5808 67.3099 38.5808C64.871 38.5808 62.4321 38.5808 59.9846 38.5808C55.4052 38.5894 50.8173 38.5894 46.2378 38.6235C44.8734 38.632 43.7904 38.1459 42.9888 37.0544C42.5197 36.4148 42.3321 35.6814 42.3321 34.8798C42.3492 31.1787 42.3407 27.4692 42.3407 23.7681C42.3236 23.7681 42.3066 23.7681 42.2895 23.7681Z" fill="#EA4033"/>
<path d="M24.6029 15.7265C27.9032 15.7265 31.2119 15.7265 34.5122 15.7265C34.8618 15.7265 35.2115 15.7862 35.5099 15.9567C36.0386 16.2552 36.2177 16.7498 36.2177 17.3297C36.2177 18.7282 36.2177 20.1183 36.2177 21.5168C36.2177 23.103 36.1921 24.6891 36.2092 26.2753C36.2177 27.563 35.5014 28.032 34.461 28.032C27.9373 28.0235 21.4221 28.0235 14.8983 28.032C14.4634 28.032 14.0456 28.015 13.6703 27.7677C13.1757 27.4436 13.0308 26.949 13.0308 26.3947C13.0308 24.5612 13.0308 22.7363 13.0308 20.9028C13.0308 19.7175 13.0478 18.5406 13.0222 17.3553C12.9966 16.3319 13.6362 15.752 14.6596 15.7435C17.9769 15.7179 21.2942 15.7265 24.6029 15.7265ZM22.7353 21.8835C22.7353 22.6169 22.7439 23.3503 22.7268 24.0837C22.7268 24.2883 22.778 24.3651 22.9912 24.3566C23.6137 24.3224 24.2533 24.3992 24.8673 24.2883C25.4728 24.1775 26.0356 23.9558 26.3682 23.4014C26.8372 22.6254 26.931 21.7897 26.6581 20.9199C26.4705 20.3059 26.1123 19.8027 25.4813 19.6066C25.0549 19.4701 24.6115 19.3763 24.1595 19.3763C23.7672 19.3763 23.3749 19.3934 22.9826 19.4275C22.7865 19.4446 22.7268 19.4872 22.7353 19.6833C22.7439 20.4082 22.7353 21.1501 22.7353 21.8835ZM18.2668 21.8579C18.2668 22.4549 18.2668 23.0518 18.2668 23.6402C18.2668 24.3395 18.2668 24.331 18.949 24.3139C19.1196 24.3139 19.2048 24.2628 19.2048 24.0837C19.2048 23.7511 19.2048 23.427 19.2134 23.0944C19.2304 22.5657 19.2304 22.5828 19.7506 22.5487C20.5267 22.4975 21.243 22.3355 21.55 21.4827C21.6523 21.2013 21.6182 20.9113 21.6012 20.6299C21.5585 20.0415 21.2003 19.5895 20.6375 19.4872C19.9382 19.3678 19.2219 19.3849 18.5141 19.3934C18.2924 19.3934 18.2497 19.4787 18.2583 19.6748C18.2753 20.4167 18.2668 21.1331 18.2668 21.8579ZM29.4723 19.3678C29.1823 19.3849 28.9009 19.3763 28.611 19.419C27.9714 19.5043 27.9714 19.5128 27.9629 20.1609C27.9629 20.1694 27.9629 20.178 27.9629 20.195C27.9543 21.4145 27.9117 22.6339 28.0055 23.8449C28.0481 24.3566 28.0311 24.3566 28.5513 24.3566C28.5939 24.3566 28.6366 24.348 28.6792 24.3566C28.8839 24.3821 28.9606 24.2969 28.9606 24.0837C28.9521 23.5976 28.9691 23.103 28.9521 22.6169C28.9436 22.4122 29.0118 22.3611 29.2079 22.3696C29.5831 22.3866 29.9498 22.3696 30.3251 22.3696C30.4359 22.3696 30.5297 22.3611 30.5638 22.2246C30.6917 21.7215 30.5638 21.5509 30.0522 21.5509C29.7111 21.5509 29.2591 21.6703 29.0629 21.4998C28.8412 21.3036 29.0203 20.8431 28.9947 20.4935C28.9947 20.4764 28.9947 20.4508 28.9947 20.4338C28.9691 20.2547 29.0374 20.1865 29.225 20.195C29.5746 20.2035 29.9242 20.2291 30.2824 20.195C30.7941 20.1524 30.7855 20.178 30.7685 19.6492C30.76 19.5043 30.7173 19.4531 30.5724 19.436C30.1971 19.3849 29.839 19.3678 29.4723 19.3678Z" fill="#EA4033"/>
<path d="M62.3805 23.214C63.1821 23.1799 63.9752 23.069 64.7768 23.0861C65.3311 23.0946 65.8342 23.2566 66.3288 23.4783C67.5142 24.0241 67.6421 25.9002 66.4567 26.5995C65.3908 27.2305 64.3504 27.2476 63.2844 26.5995C62.6619 26.2243 62.1161 25.7467 61.5703 25.2692C61.3827 25.0986 61.2036 25.0815 60.9649 25.1583C59.7283 25.5676 58.4833 25.9684 57.2382 26.3351C56.411 26.5824 56.1126 27.2391 55.8226 27.9469C55.3024 29.209 54.6373 30.3858 53.5713 31.2812C52.9829 31.7758 52.2836 32.0487 51.5076 31.9976C50.4928 31.9379 49.3415 31.1618 49.0942 30.1811C48.9578 29.6354 49.1539 29.1919 49.4353 28.7655C49.8532 28.126 50.4416 27.6569 51.1068 27.2817C52.0875 26.7274 53.0681 26.1902 54.1171 25.7552C54.9016 25.4312 55.3962 24.8172 55.6606 24.0326C55.942 23.1969 56.3172 22.3953 56.6669 21.5852C56.8801 21.0906 56.8801 20.5704 56.556 20.1099C55.942 19.2741 55.5583 18.3276 55.2939 17.3128C54.9784 16.1274 55.1404 15.0188 55.6776 13.9443C56.2746 12.7419 57.6987 12.5202 58.705 13.1938C59.6004 13.7908 60.1035 14.635 60.1121 15.7436C60.1206 16.605 59.8733 17.4151 59.6516 18.2252C59.4896 18.8136 59.2593 19.3935 59.0973 19.9819C58.9949 20.3486 59.1143 20.6812 59.3957 20.9541C60.1547 21.6704 60.8966 22.4038 61.6556 23.1202C61.8688 23.3163 62.1502 23.1457 62.3805 23.214ZM57.7158 18.4128C58.253 17.4918 58.3042 16.477 58.2957 15.4708C58.2957 15.1211 58.091 14.8056 57.7499 14.635C57.5708 14.5412 57.4258 14.5412 57.2894 14.7374C57.0677 15.07 56.9739 15.4366 56.9312 15.8289C56.8374 16.7926 57.0591 17.6624 57.7158 18.4128ZM53.6907 28.0833C53.5798 28.0407 53.4775 28.0492 53.3751 28.0833C52.4371 28.3903 51.6525 28.9446 50.9874 29.661C50.885 29.7718 50.9021 29.8315 51.013 29.9083C51.1494 30.0021 51.2944 30.1044 51.4223 30.2067C51.6099 30.3602 51.8146 30.3943 52.0192 30.2579C52.8123 29.7206 53.486 29.0811 53.6907 28.0833ZM57.4088 24.3993C58.236 24.152 59.0035 23.9218 59.8221 23.6745C59.319 23.2566 58.85 22.8814 58.398 22.4891C58.236 22.3441 58.1848 22.4976 58.1507 22.5829C57.9034 23.1628 57.6731 23.7427 57.4088 24.3993ZM63.9837 24.8939C64.8194 25.4056 65.0326 25.4056 65.3822 24.928C64.9217 24.9536 64.4783 24.8001 63.9837 24.8939Z" fill="#EA4033"/>
<path d="M22.7353 21.8836C22.7353 21.1502 22.7438 20.4169 22.7268 19.6835C22.7268 19.4873 22.778 19.4447 22.9741 19.4276C23.3664 19.402 23.7586 19.3765 24.1509 19.3765C24.6029 19.3765 25.0549 19.4703 25.4727 19.6067C26.1123 19.8029 26.4619 20.3145 26.6496 20.9285C26.9224 21.7983 26.8286 22.6341 26.3596 23.4101C26.027 23.9559 25.4642 24.1861 24.8587 24.297C24.2362 24.4078 23.6051 24.3396 22.9826 24.3652C22.7694 24.3737 22.7183 24.297 22.7183 24.0923C22.7438 23.3504 22.7353 22.617 22.7353 21.8836ZM23.7075 21.9092C23.7075 22.3953 23.7075 22.8899 23.7075 23.376C23.7075 23.4868 23.6904 23.5807 23.861 23.5892C24.2959 23.6062 24.6967 23.521 25.089 23.3333C25.3022 23.231 25.4727 23.0605 25.5665 22.8302C25.72 22.4465 25.7968 22.0457 25.7627 21.6278C25.7115 21.0053 25.5665 20.451 24.8673 20.2463C24.5773 20.161 24.2788 20.2037 23.9804 20.1951C23.7757 20.1866 23.699 20.2463 23.7075 20.468C23.7245 20.9541 23.7075 21.4317 23.7075 21.9092Z" fill="white"/>
<path d="M18.2666 21.8581C18.2666 21.1332 18.2751 20.4169 18.2666 19.692C18.2666 19.4959 18.3007 19.4191 18.5224 19.4106C19.2302 19.4021 19.938 19.385 20.6458 19.5044C21.2087 19.5982 21.5668 20.0587 21.6095 20.6471C21.6265 20.9286 21.6607 21.2185 21.5583 21.4999C21.2513 22.3527 20.535 22.5147 19.759 22.5659C19.2388 22.6 19.2302 22.5744 19.2217 23.1117C19.2132 23.4442 19.2047 23.7683 19.2132 24.1009C19.2132 24.28 19.1364 24.3311 18.9574 24.3311C18.2751 24.3482 18.2751 24.3567 18.2751 23.6574C18.2666 23.052 18.2666 22.455 18.2666 21.8581ZM19.2473 20.9456C19.2473 21.0394 19.2473 21.1332 19.2473 21.2356C19.2473 21.7387 19.2473 21.7387 19.759 21.7387C20.2621 21.7387 20.6373 21.4061 20.6458 20.9456C20.6629 20.5022 20.3559 20.2293 19.8187 20.1952C19.2473 20.1696 19.2473 20.1696 19.2473 20.7495C19.2473 20.8177 19.2473 20.8859 19.2473 20.9456Z" fill="white"/>
<path d="M29.472 19.3679C29.8302 19.3764 30.1969 19.385 30.5551 19.4276C30.7 19.4447 30.7512 19.4873 30.7512 19.6408C30.7683 20.161 30.7768 20.1439 30.2651 20.1866C29.907 20.2122 29.5658 20.1951 29.2077 20.1866C29.0201 20.1781 28.9518 20.2463 28.9774 20.4254C28.9774 20.4424 28.9774 20.468 28.9774 20.4851C29.003 20.8347 28.8239 21.2952 29.0456 21.4913C29.2418 21.6619 29.6938 21.5425 30.0349 21.5425C30.5465 21.5425 30.6745 21.7216 30.5465 22.2162C30.5124 22.3526 30.4186 22.3612 30.3078 22.3612C29.9325 22.3612 29.5658 22.3782 29.1906 22.3612C28.9945 22.3526 28.9348 22.4038 28.9348 22.6085C28.9518 23.0946 28.9348 23.5892 28.9433 24.0752C28.9433 24.2799 28.8751 24.3737 28.6619 24.3481C28.6193 24.3396 28.5766 24.3481 28.534 24.3481C28.0138 24.3481 28.0308 24.3481 27.9882 23.8365C27.8944 22.617 27.9456 21.3975 27.9456 20.1866C27.9456 20.1781 27.9456 20.1695 27.9456 20.1525C27.9541 19.5044 27.9541 19.4958 28.5937 19.4106C28.9007 19.3764 29.1906 19.3764 29.472 19.3679Z" fill="white"/>
<path d="M57.7159 18.4127C57.0592 17.6622 56.8375 16.7924 56.9398 15.8288C56.9825 15.445 57.0677 15.0783 57.298 14.7372C57.4344 14.5325 57.5709 14.5411 57.7585 14.6349C58.0996 14.8054 58.3043 15.121 58.3043 15.4706C58.3043 16.4769 58.2531 17.4917 57.7159 18.4127Z" fill="white"/>
<path d="M53.6912 28.0833C53.4865 29.0811 52.8213 29.7206 52.0197 30.2579C51.8151 30.3943 51.6104 30.3688 51.4228 30.2067C51.2949 30.0959 51.1499 30.0021 51.0135 29.9083C50.9026 29.8315 50.8855 29.7718 50.9879 29.6609C51.6616 28.9446 52.4376 28.3903 53.3756 28.0833C53.478 28.0492 53.5803 28.0407 53.6912 28.0833Z" fill="white"/>
<path d="M57.4092 24.3992C57.6735 23.7511 57.9038 23.1627 58.1511 22.5828C58.1852 22.4975 58.2364 22.344 58.3984 22.489C58.8504 22.8813 59.3194 23.2565 59.8225 23.6744C59.0039 23.9131 58.2278 24.1519 57.4092 24.3992Z" fill="white"/>
<path d="M63.9839 24.8939C64.4785 24.8001 64.9219 24.9621 65.3824 24.928C65.0328 25.4055 64.8196 25.397 63.9839 24.8939Z" fill="white"/>
<path d="M23.7074 21.909C23.7074 21.4315 23.7159 20.9539 23.6989 20.4764C23.6903 20.2632 23.7671 20.195 23.9718 20.2035C24.2702 20.212 24.5687 20.1694 24.8587 20.2547C25.5494 20.4593 25.7029 21.0136 25.7541 21.6361C25.7882 22.054 25.7114 22.4548 25.5579 22.8386C25.4641 23.0603 25.3021 23.2308 25.0804 23.3417C24.6966 23.5293 24.2873 23.6146 23.8524 23.5975C23.6818 23.589 23.6989 23.4867 23.6989 23.3843C23.7074 22.8897 23.7074 22.3951 23.7074 21.909Z" fill="#EA4033"/>
<path d="M19.2476 20.9456C19.2476 20.8859 19.2476 20.8177 19.2476 20.758C19.2476 20.1781 19.2476 20.1781 19.8189 20.2037C20.3562 20.2293 20.6632 20.5107 20.6461 20.9541C20.6291 21.4146 20.2538 21.7472 19.7592 21.7472C19.2476 21.7472 19.2476 21.7472 19.2476 21.2441C19.2476 21.1417 19.2476 21.0394 19.2476 20.9456Z" fill="#EA4033"/>
</svg>
