<svg width="36" height="51" viewBox="0 0 36 51" fill="none" xmlns="http://www.w3.org/2000/svg">
<path fill-rule="evenodd" clip-rule="evenodd" d="M2.75152 0.190955C2.42607 0.291992 1.99688 0.472458 1.79785 0.591958C1.24924 0.921139 0.588209 1.66907 0.277911 2.31171L0 2.8874V20.997V39.1067L0.34206 39.7813C0.765821 40.617 1.5913 41.3788 2.42942 41.7073L3.02985 41.9428L10.4739 41.9714L17.9179 42V41.6775C17.9179 41.4428 17.7972 41.222 17.4739 40.8653C17.2296 40.5957 16.872 40.1921 16.6791 39.9681C16.4409 39.6916 16.1893 39.5244 15.8955 39.4472C15.6033 39.3705 13.5284 39.3287 9.50746 39.3186C3.02661 39.3021 3.24904 39.3223 2.86791 38.7155C2.66909 38.3988 2.66491 38.0424 2.6646 20.9845L2.66418 3.5768L2.90291 3.2321C3.03925 3.0351 3.29679 2.83546 3.50366 2.76628C4.02625 2.59159 30.9765 2.59159 31.4902 2.76628C31.686 2.83293 31.9446 3.01623 32.0648 3.17377L32.2836 3.46025V20.9262C32.2836 30.5325 32.2453 38.5098 32.1985 38.6533C32.1234 38.8838 32.2149 39.0293 32.9821 39.8986L33.8507 40.883L34.1496 40.5506C34.3139 40.3678 34.5725 39.9672 34.7242 39.6603L35 39.1024V20.9949V2.8874L34.7218 2.31141C34.389 1.62251 33.7396 0.912516 33.1198 0.5598C32.0903 -0.0259291 32.7035 -0.00422038 17.3997 0.00176473C4.12781 0.0069383 3.31027 0.0174883 2.75152 0.190955ZM10.2017 10.0462C8.90003 10.5524 8.44095 12.1758 9.31439 13.1836C9.46379 13.3561 9.76625 13.5863 9.9866 13.6955C10.3726 13.8867 10.6465 13.8939 17.5 13.8939C24.2735 13.8939 24.6313 13.8848 25.0004 13.7018C26.4519 12.9826 26.4704 10.9113 25.0321 10.1738L24.5716 9.93766L17.5097 9.94405C13.346 9.9479 10.3468 9.9898 10.2017 10.0462ZM6.89552 19.6699C6.24536 19.9306 6.07046 20.7979 6.57018 21.2831L6.84799 21.5528H17.5114H28.1748L28.427 21.2682C28.769 20.8822 28.769 20.2961 28.427 19.9101L28.1748 19.6254L17.6397 19.6057C11.8454 19.5949 7.01045 19.6238 6.89552 19.6699ZM6.87546 25.1551C6.26866 25.3923 6.09836 26.3028 6.57436 26.7652L6.84778 27.0307L10.088 27.0602L13.3284 27.0898L13.8453 26.5408C14.1294 26.2388 14.6684 25.7979 15.043 25.5609C15.4174 25.3241 15.7239 25.1128 15.7239 25.0915C15.7239 25.0085 7.09142 25.0706 6.87546 25.1551ZM6.77861 30.7243C6.16606 31.0868 6.10567 31.8583 6.6547 32.3069L6.96375 32.5594H9.34761H11.7314L11.8432 31.9434C11.9046 31.6046 12.0271 31.1867 12.1155 31.0148C12.2038 30.8428 12.2761 30.6636 12.2761 30.6163C12.2761 30.5691 11.1126 30.5307 9.6903 30.5309C7.33307 30.5312 7.07564 30.5484 6.77861 30.7243Z" fill="white"/>
<path fill-rule="evenodd" clip-rule="evenodd" d="M19.0307 24.1445C18.6758 24.2998 18.356 24.6243 17.7768 25.4173C17.3507 26.0003 17.053 26.1938 16.2066 26.4373C14.7576 26.8544 14.4511 27.2591 14.3575 28.8784C14.2864 30.1094 14.2922 30.0924 13.5808 31.1295C13.0773 31.8634 12.9194 32.3564 13.037 32.8259C13.0762 32.982 13.3887 33.5178 13.7316 34.0167L14.355 34.9237L14.3556 35.8183C14.3566 37.4761 14.6931 37.9828 16.0749 38.4074C17.0754 38.7148 17.3679 38.9193 18.007 39.7577C18.7072 40.6764 19.0881 40.9078 19.8188 40.8584C20.1366 40.8369 20.763 40.7084 21.211 40.5728L22.0253 40.3264L22.8396 40.5716C24.5823 41.0965 25.0877 40.9689 25.9876 39.7766C26.6427 38.9087 26.9407 38.6987 27.9313 38.4071C28.7292 38.1721 29.2372 37.8054 29.4472 37.313C29.5274 37.1251 29.5925 36.6009 29.5952 36.1243C29.6007 35.0853 29.7192 34.7411 30.386 33.8257C30.8799 33.1474 30.904 33.083 30.904 32.4405C30.904 31.8005 30.8786 31.732 30.3994 31.074C29.6943 30.1057 29.5905 29.8123 29.5905 28.7858C29.5905 27.3445 29.2584 26.8913 27.898 26.4764C26.9401 26.1841 26.5762 25.9234 25.9765 25.1C25.4426 24.3669 24.8704 23.9981 24.2701 24C24.0468 24.0007 23.4958 24.1165 23.0458 24.2574C22.5956 24.3982 22.1128 24.5134 21.9728 24.5134C21.8327 24.5134 21.3499 24.3982 20.8997 24.2574C19.9839 23.9708 19.4956 23.9413 19.0307 24.1445ZM23.2336 26.4179C25.4901 26.8805 27.3202 28.5204 28.0328 30.7184C28.3112 31.5768 28.3314 33.1766 28.0749 34.0363C27.4067 36.2754 25.5555 38.001 23.3251 38.4641C19.9827 39.1579 16.7226 37.1101 15.8662 33.7789C15.7399 33.2876 15.7091 32.8497 15.7504 32.1317C15.8461 30.4675 16.4902 29.1156 17.739 27.9582C19.2282 26.578 21.25 26.0112 23.2336 26.4179ZM20.2746 27.7306C20.2295 27.8014 20.1356 28.5471 20.0657 29.3877C19.9958 30.2283 19.9217 30.9327 19.9009 30.953C19.8802 30.9733 19.2031 31.2595 18.3963 31.5889C16.4046 32.4022 16.4038 32.4283 18.3457 33.2118C19.1595 33.5402 19.8533 33.8534 19.8878 33.9079C19.9222 33.9624 20.0138 34.7085 20.0913 35.5659C20.169 36.4232 20.234 37.1364 20.2358 37.1505C20.2376 37.1646 20.3313 37.1762 20.444 37.1762C20.5748 37.1762 21.0188 36.7564 21.6691 36.018C22.2301 35.3811 22.7644 34.8489 22.8563 34.8356C22.9483 34.8222 23.6854 34.9675 24.4945 35.1584C26.5235 35.6372 26.5226 35.6385 25.4069 33.8428C24.9339 33.0817 24.547 32.4343 24.547 32.4041C24.547 32.3739 24.9285 31.7395 25.3947 30.9943C25.8609 30.249 26.217 29.5747 26.186 29.4957C26.107 29.294 25.9229 29.3114 24.4393 29.6607C23.7184 29.8303 23.0459 29.9882 22.9448 30.0113C22.8145 30.0411 22.4497 29.6961 21.6931 28.8276C21.1056 28.1535 20.5647 27.6019 20.4908 27.6019C20.4169 27.6019 20.3196 27.6599 20.2746 27.7306ZM29.4329 38.5692C29.2596 38.7085 28.7537 38.9415 28.309 39.087C27.357 39.3983 27.1255 39.5608 26.5156 40.3467L26.0588 40.9351L27.6058 44.2632C28.4566 46.0936 29.1783 47.6163 29.2096 47.6469C29.3451 47.7798 29.6163 47.5241 30.4246 46.5014L31.2855 45.4122L32.1455 45.4225C32.6184 45.428 33.6201 45.4649 34.3714 45.5042C35.8206 45.5801 36 45.5654 36 45.3701C36 45.2605 34.7729 43.843 31.7584 40.4706C31.227 39.8761 30.5853 39.1464 30.3325 38.8491C30.0797 38.5519 29.8448 38.3103 29.8105 38.3124C29.7762 38.3144 29.6063 38.43 29.4329 38.5692ZM21.0271 41.4144C20.7135 41.541 20.2374 41.6321 19.8459 41.6404C19.4852 41.6481 19.1896 41.6777 19.189 41.706C19.1884 41.7343 19.0707 43.0778 18.9273 44.6915C18.4496 50.0682 18.3999 50.8578 18.5309 50.9862C18.621 51.0745 19.0972 50.7509 20.4383 49.6902L22.2256 48.2765L23.5822 48.646C25.1486 49.0725 25.2826 49.0862 25.2826 48.8201C25.2826 48.6624 24.054 42.6165 23.8684 41.8604C23.8308 41.7069 23.6187 41.5956 23.035 41.4229C22.082 41.1409 21.709 41.1394 21.0271 41.4144Z" fill="#EA4033"/>
</svg>
