<svg width="79" height="25" viewBox="0 0 79 25" fill="none" xmlns="http://www.w3.org/2000/svg">
<path d="M60.3244 7.53086V8.03086H60.8244H66.1172V24V24.5H66.6172H72.9149H73.4149V24V8.03086H78H78.5V7.53086V1V0.5H78H60.8244H60.3244V1V7.53086ZM0.5 24V24.5H1H8.44275H8.94565L8.94274 23.9971L8.89571 15.8669L14.8523 24.2887L15.0018 24.5H15.2606H23.1387H23.6387V24V15.0227C23.7175 11.6287 23.6771 7.9625 23.6527 5.75539C23.6449 5.04562 23.6387 4.48675 23.6387 4.13636V1V0.5H23.1387H15.5992H15.0992V1V8.94077C14.5361 8.21392 13.7238 7.17141 12.7071 5.88312L8.8436 0.701137L8.69364 0.5H8.44275H1H0.5V1V24ZM36.1374 15.2088V15.7088H36.6374H50.3121V17.5H36.6374H36.1374V18V24V24.5H36.6374H57.9859H58.4859V24V9.51852V9.01852H57.9859H44.5802V7.34568H44.894H57.9393H58.4353L58.4392 6.84967L58.4859 1.00399L58.4899 0.5H57.9859H36.6374H36.1374V1V15.2088ZM25.7958 23.9984L25.7942 24.5H26.2958H33.6901H34.1901V24V1V0.5H33.6901H26.3321H25.8321V1L25.8321 12.6404L25.8321 12.642L25.7958 23.9984Z" stroke="#EA4033"/>
</svg>
