<svg width="48" height="15" viewBox="0 0 48 15" fill="none" xmlns="http://www.w3.org/2000/svg">
<path d="M40.815 4.25926V4.15926H40.715H38.8613H37.1076V0.1H42.5038H47.9V4.15926H46.3728H44.7455H44.6455V4.25926V9.07407V14.9H42.5954H40.815V9.07407V4.25926ZM9.26344 6.19627L9.34351 6.13636L9.26345 6.19628L9.44351 6.43691V6.13636V0.1H11.831H14.0688V2.04545C14.0688 2.27918 14.0728 2.64861 14.0779 3.11616C14.0935 4.5582 14.1192 6.93356 14.0688 9.1392L14.0688 9.1392V9.14148V14.9H11.493H9.17908L4.47652 8.1248L4.2973 8.20588L4.63246 9.55794L4.66279 14.9H2.38168H0.1V7.30944V0.1H2.38168H4.71262L7.15795 3.4422L7.15792 3.44222L7.15959 3.44438C7.82067 4.298 8.3467 4.98607 8.70743 5.46068C8.8878 5.69799 9.02683 5.88193 9.12076 6.00653L9.22735 6.14816L9.25439 6.18419L9.26119 6.19326L9.26289 6.19553L9.26331 6.19609L9.26341 6.19623L9.26344 6.19627ZM31.2398 5.65556H35.731V10.2273V14.9H28.7324H22.2679V12.5022V10.2852H26.5497H30.8606L31.1455 11.0872L31.3398 11.0537V10.266V9.26662V9.16662H31.2398H26.7042H22.2679V4.81481V0.1H29.0704H35.731V2.38636V4.52963H31.6036H27.5477L27.3133 3.98808L27.3133 3.98805L27.0529 3.38622L26.8612 3.42453L26.8463 4.48933L26.8313 5.55414L26.8299 5.65556H26.9313H31.2398ZM15.6725 7.59291V7.59259V0.1H17.9155H20.1824L20.2359 7.59186V7.59331L20.1824 14.9H17.9155H15.6496L15.6725 7.59291Z" stroke="white" stroke-width="0.2"/>
</svg>
