<svg width="117" height="28" viewBox="0 0 117 28" fill="none" xmlns="http://www.w3.org/2000/svg">
<path fill-rule="evenodd" clip-rule="evenodd" d="M100.74 9.24691H103.482H106.224V16.3086V25H109.006H112.186V16.3086V9.24691H114.593H117V3H108.87H100.74V9.24691ZM46 13.7205V25H49.5229H53.0458L53 17L52.5 15L59.5 25H63H66.958V16.4075C67.0566 12.1219 66.958 7.39496 66.958 6V3H63.5H59.8206V12C59.8206 12 58.6635 10.4667 56.7072 7.96195L53.0458 3H49.5229H46V13.7205ZM78.7901 10.0617V16.591H85.5H92.2088V18.0568V19.2121L91.7525 17.9383H85.2714H78.7901V21.3366V25H88.5H99V18V11.1481H92.2088H85.8359L85.8581 9.58642L85.88 8.02469L86.2651 8.90741L86.6505 9.79012H92.747H99V6.5V3H89H78.7901V10.0617ZM69.0344 14.1358L69 25H72.5H76L76.0802 14.1358L76 3H72.5H69.0344V14.1358Z" fill="white"/>
<rect width="39" height="28" fill="#EA4033"/>
<path d="M6.75 25.9832V26.2321L6.99895 26.2332L10.999 26.25L11.001 26.25L15.3343 26.2332L15.5833 26.2322V25.9832V17.36V17.3106L15.5645 17.2649L15.4065 16.8809L22.8047 26.1393L22.8794 26.2327L22.9991 26.2332L27.4991 26.25L27.5009 26.25L32.0009 26.2332L32.256 26.2322L32.2499 25.9772L32.0379 17.0707C32.1545 12.1619 32.25 6.83664 32.25 5.23529V2V1.75H32H27.5H23.5H23.25V2V11.12V11.1683L23.268 11.2131L23.4195 11.5905C23.2935 11.4383 23.158 11.2745 23.0145 11.1006C22.1593 10.065 21.0156 8.6713 19.8601 7.23794L15.6979 1.84722L15.6228 1.75H15.5H11H7H6.75V2V13.9916V25.9832Z" fill="white" stroke="black" stroke-width="0.5"/>
</svg>
