<svg width="245" height="77" viewBox="0 0 245 77" fill="none" xmlns="http://www.w3.org/2000/svg">
<path d="M187.851 22.2963V22.7963H188.351H197.735H206.62V46.3704V76V76.5H207.12H216.639H227.524H228.024V76V46.3704V22.7963H235.762H244H244.5V22.2963V1V0.5H244L216.176 0.5L188.351 0.5H187.851V1V22.2963ZM0.5 76V76.5H1H13.0573H25.1145H25.6174L25.6145 75.9971L25.4577 48.7244L25.4574 48.6641L25.4427 48.6056L24.3879 44.4029L46.7951 76.2875L46.9445 76.5H47.2042H59.1831H72.7295H73.2295V76V46.7133C73.4846 35.6661 73.3541 23.7512 73.2751 16.5463C73.2496 14.2194 73.2295 12.3838 73.2295 11.2273V1V0.5L72.7295 0.5L60.8944 0.5L48.3015 0.5L47.8015 0.5V1V30.2004C47.3338 29.5882 46.6891 28.7465 45.8807 27.6959C44.0536 25.3217 41.3902 21.8809 38.0434 17.6127L25.5163 0.702371L25.3664 0.5H25.1145L13.0573 0.5L1 0.5H0.5V1L0.5 37.5472L0.5 76ZM112.725 47.3331V47.8331H113.225L136.19 47.8331H158.651V52.3299V53.401L158.06 51.7567L157.941 51.4259H157.589H135.408L113.225 51.4259H112.725V51.9259V63.5111V76V76.5H113.225H146.458H182.394H182.894V76V52.1364V28.7778V28.2778H182.394L159.151 28.2778H137.847L137.916 23.4608L137.958 20.4432L138.351 21.3395L138.351 21.3396L139.67 24.3489L139.801 24.6481H140.128H160.993L182.394 24.6481H182.894V24.1481V12.9318V1V0.5H182.394L148.169 0.5L113.225 0.5H112.725V1V25.0741V47.3331ZM79.2183 75.9984L79.2167 76.5H79.7183H91.6972H103.676H104.172L104.176 76.0037L104.45 38.9667L104.45 38.9594L104.176 0.996387L104.172 0.5L103.676 0.5L91.6972 0.5L79.8359 0.5L79.3359 0.5V1V38.9614V38.963L79.2183 75.9984Z" stroke="white"/>
</svg>
