<svg width="65" height="47" viewBox="0 0 65 47" fill="none" xmlns="http://www.w3.org/2000/svg">
<rect width="65" height="47" fill="#EA4033"/>
<path d="M10.75 43.9713V44.2202L10.9989 44.2213L17.7189 44.25L17.721 44.25L25.001 44.2213L25.25 44.2203V43.9713V29.24V29.1913L25.2317 29.1462L24.5093 27.3611L37.6834 44.1258L37.7581 44.2208L37.8791 44.2213L45.4391 44.25L45.441 44.25L53.0009 44.2213L53.2559 44.2203L53.2499 43.9654L52.8936 28.7457C53.0895 20.3582 53.25 11.2605 53.25 8.52696V3V2.75H53H45.44H38.72H38.47V3V18.58V18.6276L38.4875 18.6718L39.1503 20.3511C38.7745 19.8908 38.308 19.3182 37.7745 18.6612C36.3374 16.8914 34.4149 14.5093 32.4727 12.0594L25.4791 2.84882L25.4041 2.75H25.28H17.72H11H10.75V3V23.4856V43.9713Z" fill="white" stroke="black" stroke-width="0.5"/>
</svg>
