<svg width="74" height="74" viewBox="0 0 74 74" fill="none" xmlns="http://www.w3.org/2000/svg">
<circle cx="37" cy="37" r="37" fill="white"/>
<path fill-rule="evenodd" clip-rule="evenodd" d="M53.4885 33.3951H55.767H58.0455V39.4938V47H60.3569H62.9997V39.4938V33.3951H64.9999H67V28H60.2443H53.4885V33.3951ZM8 37.2586V47H10.9275H13.855L13.8169 40.0909L13.4014 38.3636L19.2183 47H22.1268H25.4158V39.5792C25.4978 35.878 25.4158 31.7956 25.4158 30.5909V28H22.5423H19.4847V35.7727C19.4847 35.7727 18.5232 34.4485 16.8975 32.2853L13.855 28H10.9275H8V37.2586ZM35.2481 34.0988V39.7377H40.8239H46.3989V41.0036V42.0014L46.0196 40.9012H40.634H35.2481V43.8361V47H43.3169H52.0423V40.9545V35.037H46.3989H41.1031L41.1215 33.6883L41.1398 32.3395L41.4598 33.1019L41.78 33.8642H46.8461H52.0423V31.0227V28H43.7324H35.2481V34.0988ZM27.1412 37.6173L27.1127 47H30.0211H32.9296L32.9962 37.6173L32.9296 28H30.0211H27.1412V37.6173Z" fill="#EA4033"/>
</svg>
