<?xml version="1.0" encoding="utf-8"?><svg viewBox="0 0 100 100" xmlns="http://www.w3.org/2000/svg" xmlns:xlink="http://www.w3.org/1999/xlink"><style>:root>svg{display:none}:root>svg:target{display:block}</style><svg fill="none" viewBox="0 0 14 8" id="sprite--Arrow-down" xmlns="http://www.w3.org/2000/svg"><path d="M1 1l6 6 6-6" stroke="#fff" stroke-width="2" stroke-linecap="round" stroke-linejoin="round"/></svg><svg fill="none" viewBox="0 0 36 51" id="sprite--License" xmlns="http://www.w3.org/2000/svg"><path fill-rule="evenodd" clip-rule="evenodd" d="M2.752.191a5.382 5.382 0 00-.954.401c-.549.33-1.21 1.077-1.52 1.72L0 2.887v36.22l.342.674c.424.836 1.25 1.598 2.087 1.926l.6.236 7.445.028 7.444.029v-.322c0-.235-.12-.456-.444-.813-.244-.27-.602-.673-.795-.897-.238-.276-.49-.444-.783-.52-.293-.078-2.368-.12-6.389-.13-6.48-.016-6.258.004-6.64-.602-.198-.317-.202-.674-.202-17.732V3.578l.238-.345c.136-.197.394-.397.6-.466.523-.174 27.474-.174 27.987 0 .196.067.455.25.575.408l.219.286v17.466c0 9.607-.039 17.584-.085 17.727-.076.23.016.376.783 1.246l.869.984.299-.332c.164-.183.422-.584.574-.89l.276-.559V2.887l-.278-.576C34.389 1.623 33.74.913 33.12.56c-1.03-.586-.416-.564-15.72-.558C4.128.007 3.31.017 2.752.19zm7.45 9.855c-1.302.506-1.761 2.13-.888 3.138.15.172.452.402.673.511.386.192.66.199 7.513.199 6.773 0 7.131-.01 7.5-.192 1.452-.72 1.47-2.79.032-3.528l-.46-.236-7.062.006c-4.164.004-7.163.046-7.308.102zM6.896 19.67c-.65.26-.826 1.128-.326 1.613l.278.27h21.327l.252-.285a1.027 1.027 0 000-1.358l-.252-.285-10.535-.02c-5.795-.01-10.63.019-10.744.065zm-.02 5.485c-.607.237-.778 1.148-.302 1.61l.274.266 3.24.03 3.24.029.517-.55a7.436 7.436 0 011.198-.98c.374-.236.68-.447.68-.468 0-.083-8.632-.021-8.848.063zm-.097 5.57c-.613.362-.673 1.133-.124 1.582l.309.252h4.766l.112-.616c.062-.338.184-.756.273-.928.088-.172.16-.351.16-.399 0-.047-1.163-.085-2.586-.085-2.357 0-2.614.017-2.911.193z" fill="#fff"/><path fill-rule="evenodd" clip-rule="evenodd" d="M19.03 24.145c-.354.155-.674.48-1.253 1.272-.426.583-.724.777-1.57 1.02-1.45.417-1.756.822-1.85 2.441-.07 1.231-.065 1.214-.776 2.252-.504.733-.662 1.226-.544 1.696.04.156.352.692.695 1.19l.623.908v.894c.002 1.658.338 2.165 1.72 2.59 1 .307 1.293.511 1.932 1.35.7.918 1.081 1.15 1.812 1.1.318-.021.944-.15 1.392-.285l.814-.247.815.246c1.742.524 2.248.397 3.148-.795.655-.868.953-1.078 1.943-1.37.798-.235 1.306-.602 1.516-1.094.08-.188.146-.712.148-1.189.006-1.039.124-1.383.791-2.298.494-.679.518-.743.518-1.386 0-.64-.025-.708-.505-1.366-.705-.968-.809-1.262-.809-2.288 0-1.442-.332-1.895-1.692-2.31-.958-.292-1.322-.553-1.921-1.376-.534-.733-1.107-1.102-1.707-1.1-.223 0-.774.116-1.224.257-.45.141-.933.256-1.073.256-.14 0-.623-.115-1.073-.256-.916-.286-1.404-.316-1.87-.113zm4.204 2.273a6.395 6.395 0 014.799 4.3c.278.859.298 2.459.042 3.318-.668 2.24-2.52 3.965-4.75 4.428-3.342.694-6.602-1.354-7.459-4.685-.126-.491-.157-.93-.116-1.647.096-1.664.74-3.016 1.989-4.174a6.202 6.202 0 015.495-1.54zm-2.96 1.313c-.044.07-.138.816-.208 1.657-.07.84-.144 1.545-.165 1.565-.02.02-.698.306-1.505.636-1.991.813-1.992.84-.05 1.623.814.328 1.507.641 1.542.696.034.054.126.8.203 1.658l.145 1.584c.002.015.095.026.208.026.13 0 .575-.42 1.225-1.158.561-.637 1.095-1.17 1.187-1.182.092-.014.83.132 1.638.322 2.03.48 2.029.48.913-1.315-.473-.761-.86-1.409-.86-1.439 0-.03.381-.665.848-1.41.466-.745.822-1.42.791-1.498-.079-.202-.263-.185-1.747.165-.72.17-1.393.327-1.494.35-.13.03-.495-.315-1.252-1.183-.587-.674-1.128-1.226-1.202-1.226a.293.293 0 00-.216.129zm9.159 10.838c-.173.14-.68.372-1.124.518-.952.311-1.184.474-1.793 1.26l-.457.588 1.547 3.328c.85 1.83 1.572 3.353 1.604 3.384.135.133.406-.123 1.215-1.146l.86-1.089.86.01a69.56 69.56 0 012.226.082c1.45.076 1.629.061 1.629-.134 0-.11-1.227-1.527-4.242-4.9a117.572 117.572 0 01-1.425-1.62c-.253-.298-.488-.54-.522-.538-.035.002-.205.118-.378.257zm-8.406 2.845a3.69 3.69 0 01-1.181.226c-.36.008-.656.038-.657.066 0 .028-.118 1.372-.262 2.985-.477 5.377-.527 6.167-.396 6.295.09.089.566-.235 1.907-1.296l1.788-1.413 1.356.369c1.567.426 1.7.44 1.7.174 0-.158-1.228-6.203-1.414-6.96-.037-.153-.25-.264-.833-.437-.953-.282-1.326-.284-2.008-.009z" fill="#EA4033"/></svg><svg viewBox="0 0 50 50" id="sprite--search" xmlns="http://www.w3.org/2000/svg"><path d="M21 3C11.602 3 4 10.602 4 20s7.602 17 17 17c3.355 0 6.46-.984 9.094-2.656l12.281 12.281 4.25-4.25L34.5 30.281C36.68 27.421 38 23.88 38 20c0-9.398-7.602-17-17-17zm0 4c7.2 0 13 5.8 13 13s-5.8 13-13 13S8 27.2 8 20 13.8 7 21 7z"/></svg></svg>