<svg width="60" height="60" fill="none" xmlns="http://www.w3.org/2000/svg"><circle cx="30" cy="30" r="30" fill="#EA4033"/><path fill-rule="evenodd" clip-rule="evenodd" d="M31.031 15.5h.113c1.824.027 2.86 2.098 1.787 3.573a9.652 9.652 0 01-.068.09l-1.897 2.53-.02.026c-.26.35-.485.648-.642.898-.155.247-.319.555-.335.912a1.75 1.75 0 00.763 1.526c.295.201.64.255.93.28.295.024.668.024 1.105.024h9.283c.712 0 1.197 0 1.565.033.363.032.524.09.62.148.261.158.456.407.546.7.033.106.05.277-.007.636-.058.365-.175.836-.347 1.527L41.4 40.508c-.341 1.368-.473 1.833-.722 2.166-.24.32-.56.571-.93.726-.384.162-.867.176-2.277.176h-12.77c-.572 0-.956 0-1.252-.025-.287-.023-.424-.065-.515-.111a1.25 1.25 0 01-.546-.547c-.046-.09-.088-.227-.112-.515-.024-.295-.024-.68-.024-1.252V27.912c0-.645.003-.865.045-1.07.04-.195.105-.385.195-.564.093-.186.227-.361.625-.868l7.707-9.81.004-.005h.001a.25.25 0 01.194-.095h.008zm.136-1.5h-.153a1.75 1.75 0 00-1.359.66l-.01.014-7.707 9.809-.044.056c-.338.43-.573.728-.742 1.065-.15.298-.26.614-.326.941-.075.37-.074.748-.074 1.296v13.315c0 .535 0 .98.03 1.345.03.38.098.736.27 1.073.263.518.684.939 1.201 1.202.337.172.694.24 1.074.27.364.03.81.03 1.344.03h12.963c1.181 0 1.996 0 2.695-.293a3.75 3.75 0 001.55-1.21c.454-.607.651-1.397.937-2.544l.04-.157 3.026-12.105.008-.034c.163-.65.296-1.184.366-1.623.071-.451.09-.887-.042-1.313a2.75 2.75 0 00-1.202-1.54c-.382-.232-.81-.319-1.265-.36-.442-.038-.993-.038-1.663-.038h-9.286c-.476 0-.787-.001-1.012-.02a1.142 1.142 0 01-.222-.033.25.25 0 01-.097-.193c.006-.016.03-.075.107-.198.12-.191.306-.44.592-.821l1.897-2.53.006-.008.075-.1c1.788-2.459.062-5.91-2.977-5.956zM16.5 26.252a.75.75 0 00-1.5 0v18.074a.75.75 0 101.5 0V26.252z" fill="#fff"/><path d="M31.144 15.5l-.004.3.004-.3zm-.113 0v-.3.3zm1.9 3.573l.243.177-.243-.177zm-.068.09l-.24-.18.24.18zm-1.897 2.53l.24.18-.24-.18zm-.02.026l.24.18-.24-.18zm-.642.898l.254.16-.254-.16zm-.335.912l-.3-.013.3.014zm.763 1.526l-.17.247.17-.247zm.93.28l.025-.3-.024.3zm1.105.024v-.3.3zm10.848.033l-.026.299.026-.3zm.62.148l.155-.257-.155.256zm.546.7l-.286.088.286-.088zm-.007.636l.296.047-.296-.047zm-.347 1.527l.29.073-.29-.073zM41.4 40.508l-.29-.073.29.073zm-.722 2.166l.24.18-.24-.18zm-.93.726l-.116-.276.116.276zm-16.299.151l.025-.299-.025.3zm-.515-.111l.136-.268-.136.268zm-.546-.547l.267-.136-.267.136zm-.112-.515l-.299.025.3-.025zm.02-15.535l-.293-.06.294.06zm.196-.565l-.268-.135.268.135zm.625-.868l.236.185-.236-.185zm7.707-9.81l-.236-.185.236.186zm.004-.005l-.235-.185.235.185zm.001 0l-.235-.187.235.186zm.194-.095v-.3h-.001l.001.3zm.002 0v-.3.3zm.142-1.5l.004-.3-.005.3zm-.136 0v-.3.3zm-.017 0v-.3h-.001l.001.3zm-1.359.66l-.234-.186h-.001l.235.187zm-.01.014l-.236-.186.236.186zm-7.707 9.809l.236.185-.236-.185zm-.044.056l.236.185-.236-.185zm-.742 1.065l-.268-.135.268.135zm-.326.941l.294.06-.294-.06zm-.074 1.296h.3-.3zm0 .07h.3-.3zm0 13.215h.3-.3zm0 .03h-.3.3zm0 0h.3-.3zm.03 1.345l.299-.025-.3.025zm.27 1.073l.267-.136-.267.136zm1.201 1.202l-.136.267.136-.267zm1.074.27l-.024.3.024-.3zm1.344.03v-.3.3zm12.8 0v-.3.3zm.163 0v-.3.3zm2.695-.293l.116.277-.116-.277zm1.55-1.21l.24.18-.24-.18zm.937-2.544l-.29-.072.29.072zm.04-.157l-.291-.073.29.073zm3.026-12.105l-.291-.073.29.073zm.008-.034l-.29-.073.29.073zm.366-1.623l.296.047-.296-.047zm-.042-1.313l-.286.088.286-.088zm-1.202-1.54l.155-.257-.155.257zm-1.265-.36l-.026.3.026-.3zm-1.663-.038v.3-.3zm-10.298-.02l.025-.299-.025.3zm-.222-.033l-.185.236c.03.023.063.04.1.051l.085-.287zm-.097-.193l-.28-.104a.3.3 0 00-.02.11l.3-.006zm.107-.198l-.254-.16.254.16zm.592-.821l.24.18-.24-.18zm1.897-2.53l-.24-.18.24.18zm.006-.008l-.24-.18.24.18zm.075-.1l.243.176-.243-.176zM16.5 26.252h-.3.3zm-.75 18.824v-.3.3zm.75-.75h.3-.3zM31.149 15.2h-.118v.6h.109l.009-.6zm2.025 4.05c1.215-1.672.041-4.02-2.025-4.05l-.009.6c1.58.023 2.478 1.819 1.548 3.097l.486.353zm-.07.094l.07-.094-.486-.353c-.007.01-.02.029-.065.087l.48.36zm-1.898 2.53l1.897-2.53-.48-.36-1.897 2.53.48.36zm-.02.025l.02-.025-.48-.36-.02.025.48.36zm-.628.877c.15-.237.364-.524.629-.877l-.48-.36c-.259.345-.492.655-.657.918l.508.32zm-.29.767c.013-.276.14-.53.29-.767l-.508-.319c-.161.257-.36.62-.38 1.059l.599.027zm.633 1.264a1.45 1.45 0 01-.632-1.264l-.6-.027a2.05 2.05 0 00.894 1.787l.338-.496zm.786.228c-.279-.023-.558-.073-.786-.228l-.338.495c.362.248.773.306 1.075.331l.05-.598zm1.08.024c-.441 0-.8 0-1.08-.024l-.049.598c.31.026.697.026 1.128.026v-.6zm.031 0h-.032v.6h.032v-.6zm9.252 0h-9.252v.6h9.252v-.6zm1.592.034c-.385-.034-.886-.034-1.592-.034v.6c.718 0 1.187 0 1.539.032l.053-.598zm.748.19c-.153-.093-.367-.156-.748-.19l-.053.598c.344.03.452.082.49.105l.311-.513zm.678.868a1.55 1.55 0 00-.678-.868l-.31.513a.95.95 0 01.415.532l.573-.177zm.002.772c.06-.378.05-.601-.002-.772l-.573.177c.013.043.037.16-.017.501l.592.094zm-.352 1.553c.171-.686.292-1.172.352-1.553l-.592-.094c-.055.35-.168.805-.342 1.501l.582.146zM41.69 40.58l3.027-12.106-.582-.145-3.027 12.105.582.146zm-.773 2.273c.153-.204.26-.438.372-.782.11-.341.231-.81.401-1.491l-.582-.146a24.666 24.666 0 01-.39 1.451c-.102.314-.184.48-.281.609l.48.36zm-1.054.823a2.55 2.55 0 001.054-.823l-.48-.36a1.95 1.95 0 01-.806.63l.232.553zm-2.393.199c.702 0 1.187-.004 1.544-.028.36-.025.614-.072.85-.171l-.233-.553c-.15.062-.33.103-.658.125-.333.023-.795.027-1.503.027v.6zm-12.77 0h12.77v-.6H24.7v.6zm-1.276-.026c.31.026.71.026 1.277.026v-.6c-.578 0-.948-.001-1.228-.024l-.05.598zm-.627-.143c.14.071.321.118.627.143l.049-.598c-.27-.022-.362-.059-.404-.08l-.272.535zm-.677-.677c.148.291.385.528.677.677l.273-.535a.95.95 0 01-.416-.415l-.534.273zm-.143-.627c.024.305.071.487.143.627l.534-.273c-.02-.041-.058-.134-.08-.403l-.598.049zm-.026-1.277c0 .567 0 .966.025 1.277l.599-.049c-.023-.28-.024-.65-.024-1.228h-.6zm0-13.214v13.214h.6V27.912h-.6zm.05-1.129c-.048.24-.05.497-.05 1.129h.6c0-.658.005-.842.038-1.01l-.587-.119zm.222-.64a2.547 2.547 0 00-.221.64l.587.12c.035-.17.092-.335.17-.49l-.536-.27zm.657-.919c-.39.497-.547.7-.657.92l.536.269c.077-.153.186-.3.593-.818l-.472-.37zm7.707-9.809l-7.707 9.81.472.37 7.707-9.809-.471-.37zm.005-.005l-.005.005.472.371.004-.005-.471-.371zm0-.002v.002l.47.371h.002l-.471-.373zm.429-.208a.55.55 0 00-.427.208l.47.373a.05.05 0 01-.04.019l-.003-.6zm.002 0h-.001l.001.6h.001v-.6zm.007 0h-.006v.6h.007v-.6zm.01-.9h.121l.009-.6h-.13v.6zm-.01 0h.01v-.6h-.01v.6zm-.016 0h.017l-.001-.6h-.017v.6zm-1.125.547a1.45 1.45 0 011.126-.547l-.003-.6a2.05 2.05 0 00-1.592.774l.47.373zm-.01.013l.011-.014-.471-.371-.01.013.47.372zm-7.706 9.808l7.707-9.809-.472-.37-7.707 9.809.472.37zm-.044.056l.044-.056-.472-.37-.044.056.471.37zm-.71 1.015c.153-.305.366-.578.71-1.015l-.472-.37c-.333.423-.588.746-.774 1.115l.536.27zm-.3.866c.061-.301.162-.592.3-.866l-.536-.27a4.05 4.05 0 00-.352 1.016l.588.12zm-.068 1.235c0-.555 0-.901.068-1.235l-.588-.12c-.082.405-.08.817-.08 1.356h.6zm0 .072v-.072h-.6v.072h.6zm0 13.214V27.912h-.6v13.214h.6zm0 .03v-.03h-.6v.03h.6zm0 0h-.6.6zm.029 1.32c-.029-.35-.03-.781-.03-1.32h-.6c0 .53 0 .99.032 1.369l.598-.049zm.238.962c-.147-.288-.209-.6-.238-.962l-.598.049c.032.398.104.799.301 1.186l.535-.273zm1.07 1.07a2.45 2.45 0 01-1.07-1.07l-.535.273a3.05 3.05 0 001.333 1.332l.273-.534zm.963.24c-.362-.03-.675-.092-.962-.24l-.273.535c.387.197.787.27 1.186.302l.049-.598zm1.32.028c-.54 0-.971 0-1.32-.029l-.05.598c.38.031.84.03 1.37.03v-.6zm.03 0h-.03v.6h.03v-.6zm12.77 0h-12.77v.6h12.77v-.6zm.162 0h-.163v.6h.163v-.6zm2.579-.27c-.631.266-1.377.27-2.58.27v.6c1.162 0 2.045.006 2.812-.316l-.232-.553zm1.425-1.112a3.45 3.45 0 01-1.425 1.113l.232.553a4.05 4.05 0 001.674-1.307l-.48-.36zm.887-2.437c-.29 1.166-.476 1.889-.887 2.437l.48.36c.5-.667.708-1.525.99-2.652l-.583-.145zm.04-.158l-.04.158.582.145.04-.157-.582-.146zm3.026-12.105l-3.026 12.105.582.146 3.026-12.106-.582-.145zm.008-.034l-.008.034.582.145.008-.033-.582-.146zm.36-1.596c-.066.422-.196.942-.36 1.596l.582.146c.162-.645.3-1.194.371-1.649l-.593-.093zm-.031-1.179c.112.363.1.745.031 1.178l.593.094c.074-.47.1-.958-.051-1.449l-.573.177zm-1.072-1.372c.513.311.895.8 1.072 1.372l.573-.177A3.05 3.05 0 0045.167 24l-.31.513zm-1.135-.317c.437.04.81.12 1.135.317l.311-.513c-.439-.266-.92-.36-1.393-.401l-.053.598zm-1.637-.037c.674 0 1.21 0 1.637.038l.053-.598c-.459-.04-1.025-.04-1.69-.04v.6zm-.034 0h.034v-.6h-.034v.6zm-9.252 0h9.252v-.6h-9.252v.6zm-1.037-.02c.24.02.566.02 1.037.02v-.6c-.482 0-.778-.001-.987-.019l-.05.598zm-.282-.046c.04.012.121.032.282.045l.05-.598a1.46 1.46 0 01-.157-.02l-.004-.002h-.001l-.17.575zm-.312-.474a.55.55 0 00.212.423l.369-.473a.05.05 0 01.02.039l-.6.01zm.153-.363c-.086.136-.12.214-.134.253l.563.209v-.001l.002-.005a1.4 1.4 0 01.077-.138l-.508-.319zm.606-.842c-.283.377-.478.637-.606.841l.508.32c.112-.178.289-.415.578-.801l-.48-.36zm1.897-2.53l-1.897 2.53.48.36 1.897-2.53-.48-.36zm.006-.008l-.006.008.48.36.006-.008-.48-.36zm.072-.097l-.072.098.48.36.078-.105-.486-.353zM31.162 14.3c2.796.042 4.384 3.218 2.74 5.48l.485.352c1.93-2.655.066-6.383-3.216-6.432l-.009.6zM15.75 25.802a.45.45 0 01.45.45h.6c0-.58-.47-1.05-1.05-1.05v.6zm-.45.45a.45.45 0 01.45-.45v-.6c-.58 0-1.05.47-1.05 1.05h.6zm0 18.074V26.252h-.6v18.074h.6zm.45.45a.45.45 0 01-.45-.45h-.6c0 .58.47 1.05 1.05 1.05v-.6zm.45-.45a.45.45 0 01-.45.45v.6c.58 0 1.05-.47 1.05-1.05h-.6zm0-18.074v18.074h.6V26.252h-.6z" fill="#fff"/></svg>