<svg width="60" height="60" fill="none" xmlns="http://www.w3.org/2000/svg"><circle cx="30" cy="30" r="30" fill="#EA4033"/><path fill-rule="evenodd" clip-rule="evenodd" d="M30.167 14.578c-8.61 0-15.589 6.98-15.589 15.589 0 3.616 1.231 6.944 3.298 9.59 1.994-3.23 5.156-5.57 8.632-6.555a7.285 7.285 0 117.314 0c3.477.984 6.64 3.325 8.635 6.555a15.519 15.519 0 003.298-9.59c0-8.61-6.979-15.589-15.588-15.589zm11.255 26.374c-2.36-4.148-6.82-6.762-11.243-6.768h-.028c-4.422.006-8.88 2.62-11.24 6.767l.045.048a15.54 15.54 0 0011.21 4.756 15.54 15.54 0 0011.256-4.803zM30.18 32.684a5.785 5.785 0 10-.028 0h.027zm-17.1-2.517c0-9.438 7.65-17.089 17.088-17.089 9.437 0 17.088 7.65 17.088 17.089 0 4.613-1.829 8.8-4.8 11.874a17.04 17.04 0 01-12.288 5.214c-4.825 0-9.183-2-12.29-5.214a17.034 17.034 0 01-4.799-11.874z" fill="#fff"/><path d="M17.876 39.756l-.236.185.265.34.226-.367-.255-.158zm8.632-6.554l.082.288.68-.193-.611-.355-.151.26zm7.314-.001l-.15-.26-.611.356.68.193.081-.29zm8.635 6.556l-.255.157.226.367.266-.34-.237-.184zm-1.035 1.195l.217.207.154-.161-.11-.195-.26.149zM30.18 34.184v-.3.3zm-.028 0v-.3.3zm-11.24 6.767l-.26-.148-.112.194.155.162.217-.208zm.045.048l-.215.208.215-.208zm22.421 0l-.216-.209.216.209zm-11.199-8.315v.3h.001v-.3zm-.027 0v.3-.3zm12.305 9.357l.215.209-.215-.209zm-24.578 0l-.216.209.216-.209zm-3-11.874c0-8.444 6.845-15.289 15.289-15.289v-.6c-8.775 0-15.889 7.114-15.889 15.889h.6zm3.234 9.405a15.219 15.219 0 01-3.234-9.405h-.6c0 3.686 1.255 7.078 3.362 9.774l.472-.37zm.02.342c1.953-3.165 5.054-5.459 8.458-6.424l-.164-.577c-3.548 1.006-6.772 3.393-8.805 6.686l.51.315zm4.447-13.015a7.582 7.582 0 003.778 6.562l.302-.519a6.982 6.982 0 01-3.48-6.043h-.6zm7.585-7.585a7.585 7.585 0 00-7.585 7.585h.6a6.985 6.985 0 016.985-6.986v-.6zm7.586 7.585a7.585 7.585 0 00-7.586-7.585v.6a6.985 6.985 0 016.986 6.985h.6zm-3.777 6.561a7.582 7.582 0 003.776-6.56h-.6a6.983 6.983 0 01-3.479 6.043l.302.518zm-.233.03c3.406.964 6.507 3.258 8.462 6.424l.51-.315c-2.034-3.294-5.26-5.681-8.808-6.687l-.164.578zm11.715-3.323c0 3.547-1.207 6.81-3.234 9.405l.473.37a15.819 15.819 0 003.361-9.775h-.6zM30.167 14.878c8.443 0 15.288 6.845 15.288 15.289h.6c0-8.775-7.113-15.889-15.888-15.889v.6zm11.516 25.925c-2.412-4.237-6.968-6.913-11.503-6.919v.6c4.309.005 8.671 2.557 10.981 6.616l.522-.297zm-11.519-6.319h.016l-.001-.6h-.015v.6zm-.013 0h.013v-.6h-.012l-.001.6zm0-.6c-4.535.007-9.09 2.683-11.5 6.919l.52.297c2.31-4.058 6.672-6.61 10.98-6.616v-.6zM19.172 40.79l-.045-.046-.433.415.047.048.431-.417zm10.995 4.665a15.24 15.24 0 01-10.995-4.665l-.431.417a15.84 15.84 0 0011.426 4.848v-.6zM41.16 40.79a15.24 15.24 0 01-10.994 4.665v.6a15.84 15.84 0 0011.426-4.848l-.432-.417zm.044-.046l-.044.046.432.417.046-.048-.434-.415zM35.65 26.9a5.485 5.485 0 01-5.472 5.485l.001.6a6.085 6.085 0 006.07-6.085h-.6zm-5.486-5.486A5.485 5.485 0 0135.65 26.9h.6a6.085 6.085 0 00-6.086-6.085v.6zM24.68 26.9a5.485 5.485 0 015.485-5.486v-.6A6.085 6.085 0 0024.08 26.9h.6zm5.473 5.485A5.485 5.485 0 0124.68 26.9h-.6a6.085 6.085 0 006.072 6.085l.001-.6zm0 .6h.014v-.6h-.015v.6zm.014 0h.012v-.6h-.012v.6zm0-20.206c-9.603 0-17.388 7.785-17.388 17.389h.6c0-9.272 7.517-16.789 16.789-16.789v-.6zm17.39 17.389c0-9.604-7.786-17.389-17.39-17.389v.6c9.273 0 16.79 7.517 16.79 16.789h.6zM42.67 42.249a17.334 17.334 0 004.884-12.082h-.6c0 4.532-1.796 8.645-4.715 11.666l.431.416zm-12.504 5.306A17.34 17.34 0 0042.67 42.25l-.431-.416a16.74 16.74 0 01-12.073 5.122v.6zM17.662 42.25a17.34 17.34 0 0012.505 5.306v-.6a16.74 16.74 0 01-12.074-5.122l-.431.416zm-4.884-12.082a17.33 17.33 0 004.884 12.082l.431-.416a16.734 16.734 0 01-4.715-11.666h-.6z" fill="#fff"/></svg>