<svg width="60" height="60" fill="none" xmlns="http://www.w3.org/2000/svg"><circle cx="30" cy="30" r="30" fill="#EA4033"/><path fill-rule="evenodd" clip-rule="evenodd" d="M17.833 19.444v.122a.771.771 0 01-.02.44v.122c.015.311.15.583.283.852l.03.061.09.18c.152.297.302.593.407.912a1.01 1.01 0 01-.024.734 10.24 10.24 0 01-.4.892l-.027.052c-.166.317-.332.633-.36 1.003v.123a.861.861 0 010 .407v.122c.045.33.098.656.306.933a3.2 3.2 0 00.754.71c.137.094.277.183.416.271.205.13.409.26.603.405a.88.88 0 01.366.587c.05.257.073.518.097.778.017.192.035.384.062.575.086.598.257 1.157.705 1.589.46.44 1.019.664 1.642.737.33.04.33.05.232.363-.207.659-.423 1.315-.64 1.971l-.419 1.28-.686 2.1v.002c-.23.7-.459 1.399-.687 2.1l-.21.644a368.526 368.526 0 00-1.591 4.938l-.078.25c-.131.42-.263.843-.338 1.282-.06.342.05.554.35.725.225.127.47.175.722.192.684.04 1.296-.155 1.862-.538.22-.148.43-.307.642-.466.255-.193.51-.385.78-.557.469-.297.6-.26.82.249.127.295.237.598.348.9.136.374.273.748.442 1.108.269.567.697 1.003 1.206 1.353.29.2.631.192.961.11.222-.056.288-.236.355-.415.02-.051.038-.103.061-.151a.53.53 0 00.01-.029l.01-.028a84.654 84.654 0 001.184-3.409 650.45 650.45 0 001.516-4.562h.001l.164-.496c.073-.22.159-.436.248-.656.13.354.25.709.363 1.063.301.933.596 1.867.89 2.801a262.69 262.69 0 001.534 4.753c.11.324.221.649.367.958.094.196.22.334.449.359h.326a.978.978 0 01.178-.043.804.804 0 00.229-.063c.46-.228.84-.546 1.112-.986.3-.476.477-1.005.653-1.532l.02-.057c.102-.302.208-.603.362-.885.147-.269.249-.301.526-.167.045.02.086.045.126.07.338.195.641.435.945.675l.078.062a6.5 6.5 0 00.925.632c.444.237.922.233 1.404.228h.067c.636-.008 1.055-.51.93-1.137a16.79 16.79 0 00-.294-1.186 201.17 201.17 0 00-1.439-4.86 646.803 646.803 0 00-2.167-6.883c-.176-.541-.352-1.082-.514-1.626-.112-.373-.106-.375.27-.449l.015-.003c.628-.126 1.194-.37 1.614-.876.338-.408.477-.893.55-1.402.028-.19.046-.383.065-.575.028-.288.056-.576.114-.86a.813.813 0 01.29-.476c.169-.14.354-.258.538-.376.096-.061.192-.122.285-.186.668-.457 1.263-.966 1.349-1.85v-.041c-.013-.277-.014-.302-.004-.32l.004-.006v-.081a2.957 2.957 0 00-.294-1.068 7.181 7.181 0 00-.379-.697c-.269-.428-.269-.872-.102-1.328.082-.224.196-.432.31-.64.24-.444.46-.892.444-1.418v-.26c0-.212-.02-.42-.098-.62a2.375 2.375 0 00-.929-1.153 23.046 23.046 0 00-.81-.511l-.102-.064c-.363-.22-.526-.534-.559-.953a23.193 23.193 0 00-.118-1.214c-.106-.811-.51-1.435-1.198-1.867-.382-.239-.819-.28-1.255-.323l-.073-.007a21.614 21.614 0 00-.266-.022 6.683 6.683 0 01-.904-.116.717.717 0 01-.44-.27 7.767 7.767 0 01-.465-.68 14.052 14.052 0 00-.248-.383c-.4-.59-.876-1.051-1.642-1.08h-.856c-.248.033-.48.115-.704.229-.326.167-.652.326-.987.476-.334.155-.676.2-1.022.05a8.281 8.281 0 01-.695-.339c-.364-.193-.726-.385-1.151-.415h-.082a.318.318 0 01-.244 0h-.49l-.053.01c-.213.04-.423.08-.619.193-.342.196-.594.469-.81.787-.094.137-.18.278-.266.42-.147.24-.293.482-.476.7a.812.812 0 01-.473.29 7.62 7.62 0 01-1.033.142 15.24 15.24 0 00-.52.053c-1.103.143-1.873.848-2.106 1.94-.076.372-.097.747-.118 1.122l-.008.133c-.029.505-.204.908-.676 1.145a5.5 5.5 0 00-.473.277c-.49.301-.921.664-1.186 1.198-.088.17-.117.351-.146.534-.01.062-.02.125-.033.187zm14.474 13.5c.121.055.245.111.375.122.203-.017.346-.127.485-.261.158-.165.266-.36.374-.556l.07-.125c.493-.855 1.198-1.43 2.192-1.58a8.91 8.91 0 01.847-.076c.151-.009.302-.018.453-.03.55-.045.852-.33.908-.88.02-.194.037-.387.053-.581.02-.232.04-.464.066-.695.093-.823.468-1.48 1.181-1.92.121-.074.243-.144.366-.215.146-.085.293-.17.437-.261.579-.367.668-.68.359-1.296-.07-.136-.144-.269-.218-.401-.075-.133-.15-.265-.218-.401-.457-.893-.444-1.785-.008-2.678.062-.125.126-.25.19-.374.134-.26.268-.521.384-.791a.495.495 0 00-.077-.55c-.13-.163-.29-.29-.46-.4-.12-.078-.24-.154-.36-.23a14.11 14.11 0 01-.53-.344 2.317 2.317 0 01-1.022-1.597 9.902 9.902 0 01-.088-.801 9.57 9.57 0 00-.095-.837c-.078-.444-.204-.587-.652-.68-.272-.06-.546-.076-.82-.092-.125-.008-.25-.015-.374-.027-1.01-.094-1.805-.534-2.323-1.43a9.35 9.35 0 01-.145-.257c-.064-.115-.127-.23-.197-.342-.346-.554-.693-.664-1.288-.395-.205.094-.403.203-.6.311-.075.042-.15.084-.227.125-.77.415-1.556.456-2.371.134-.355-.14-.694-.313-1.033-.486-.136-.07-.272-.139-.41-.207a.5.5 0 00-.5.017c-.164.09-.29.22-.392.375-.114.175-.22.358-.322.542-.558 1.026-1.414 1.572-2.587 1.625l-.06.003c-.339.015-.677.03-1.012.107-.412.098-.554.257-.623.669-.066.395-.09.794-.115 1.194-.069 1.022-.509 1.796-1.45 2.257-.18.085-.35.18-.522.277-.599.338-.737.81-.411 1.418.06.112.123.223.185.335.076.136.152.272.226.41.473.901.469 1.806.029 2.714l-.127.261c-.142.291-.283.581-.415.876-.139.314-.094.485.155.726.146.142.317.252.493.354.067.04.136.079.206.118.101.057.204.115.303.175.685.408 1.117.99 1.255 1.785.071.423.099.849.126 1.273l.013.186c.032.497.44.929.88.925.171 0 .343.015.515.03.16.015.32.029.479.031.974.016 1.695.456 2.2 1.275.084.137.163.275.242.413.086.15.172.3.264.447.248.4.505.49.965.375a2.4 2.4 0 00.595-.253c.163-.093.33-.187.497-.277.82-.428 1.655-.485 2.506-.11.222.096.44.201.658.306.154.075.308.15.463.22l.057.026zm1.912 15.108l-.19-.582c-.223-.684-.442-1.355-.658-2.025l-.307-.96a850.715 850.715 0 01-3.278-10.38c-.106-.35.024-.493.395-.412.295.067.56.201.825.336.108.055.217.11.328.161.35.16.709.302 1.088.38.526.105.99-.009 1.41-.347a4.52 4.52 0 00.92-1.027l.059-.086c.09-.134.18-.268.28-.399.216-.281.244-.277.379.04.2.47.358.95.513 1.431 1.133 3.566 2.258 7.135 3.293 10.729.094.332.183.667.27 1l.031.116.008.03c.017.064.036.14-.02.178-.058.044-.126-.003-.183-.043l-.02-.014a5.058 5.058 0 01-.492-.37 9.47 9.47 0 00-.267-.213c-.477-.358-.974-.676-1.589-.717-.966-.065-1.414.192-1.821.925-.255.45-.432.936-.608 1.42a53.154 53.154 0 01-.13.349c-.06.163-.119.323-.236.48zm-8.784-.995c.092.263.185.528.32.788a.42.42 0 00.091-.168 379.973 379.973 0 002.297-6.856c.353-1.076.706-2.153 1.064-3.228a.35.35 0 00-.004-.233 525.78 525.78 0 00-.205-.64c-.226-.707-.452-1.415-.671-2.126-.045-.139-.094-.16-.225-.118-.468.146-.94.187-1.422.049-.729-.208-1.23-.693-1.601-1.329a8.813 8.813 0 01-.047-.082 2.387 2.387 0 00-.344-.496c-1.198 3.4-2.303 6.81-3.407 10.214-.345 1.066-.69 2.131-1.039 3.195.09.037.141 0 .19-.034l.014-.01c.192-.135.387-.273.579-.412l.143-.104c.375-.272.75-.544 1.173-.74.933-.431 1.784-.19 2.35.673.278.424.461.888.637 1.357.037.099.072.2.107.3z" fill="#fff"/><path fill-rule="evenodd" clip-rule="evenodd" d="M36.45 18.07c-1.536-2.314-3.704-3.569-6.528-3.585-.762 0-1.5.102-2.22.347-4.218 1.41-6.508 5.892-5.106 10.109.982 2.954 3.052 4.763 6.108 5.358 1.862.363 3.634-.008 5.248-1.006 2.156-1.337 3.451-3.276 3.773-5.79a7.837 7.837 0 00-1.275-5.432zm-7.52-1.967c-3.055.57-5.203 3.23-5.223 6.356.008.807.147 1.593.44 2.343 1.068 2.706 3.936 4.71 7.371 3.883 2.665-.643 4.71-3.23 4.747-6.075.029-2.408-.982-4.299-2.995-5.627-1.32-.868-2.803-1.165-4.34-.88z" fill="#fff"/></svg>