<svg width="60" height="60" fill="none" xmlns="http://www.w3.org/2000/svg"><circle cx="30" cy="30" r="30" fill="#EA4033"/><path fill-rule="evenodd" clip-rule="evenodd" d="M28.935 48.532c-.128-.057-.264-.065-.4-.074a1.917 1.917 0 01-.227-.022 10.507 10.507 0 01-4.61-2.018c-2.144-1.647-3.472-3.817-3.976-6.469-.479-2.522.257-4.925 1.35-7.066a10.158 10.158 0 012.874-3.126.3.3 0 00.145-.29c-.007-.871-.004-1.743 0-2.614a.532.532 0 00-.096-.308c-.825-1.241-1.653-2.48-2.48-3.72-1.858-2.78-3.716-5.56-5.54-8.365A28.98 28.98 0 0115 12.87v-.15a.775.775 0 01.37-.519h4.893c.184.028.37.024.555.02.11-.002.22-.005.328 0h1.958a.723.723 0 01.117 0 .428.428 0 00.191-.02h.037c.286-.022.434.164.586.368a271.556 271.556 0 013.51 4.835v.001l1.041 1.454.19.264c.34.474.68.948 1.053 1.398l.062.076.008.01c.09.1.167.103.253-.015.153-.206.3-.414.446-.623l.221-.312c.469-.667.935-1.336 1.402-2.004l.001-.001v-.001a529.154 529.154 0 012.919-4.145c.235-.326.47-.654.697-.986.144-.21.322-.315.57-.296.03.003.064.007.086-.019h.334a.35.35 0 00.176.02.601.601 0 01.095-.001h.853a7.69 7.69 0 01.372 0c.208.003.416.007.622-.019h5.56c.2.119.326.29.37.52v.148c-.981 1.659-2.053 3.262-3.124 4.864-.337.503-.673 1.007-1.007 1.512a1537.507 1537.507 0 01-3.536 5.308l-.002.003-1.325 1.985a.532.532 0 00-.096.307c.003.876.003 1.755 0 2.63 0 .119.037.19.133.256 2.248 1.632 3.606 3.839 4.229 6.524.103.444.114.897.125 1.348v.05l.006.2c.018.695.037 1.394-.105 2.074-.757 3.624-2.827 6.22-6.195 7.764-.956.437-1.958.738-3.023.793-.025 0-.048.008-.051.037h-.371c-.049-.026-.099-.023-.15-.02a.493.493 0 01-.08.002.646.646 0 01-.11 0 .38.38 0 00-.18.018h-.148a.42.42 0 00-.192-.02.769.769 0 01-.101.002.557.557 0 01-.1 0 .314.314 0 00-.163.018c-.126.004-.249.004-.375.004zm13.981-34.898l-.049.077c-1.046 1.572-2.094 3.142-3.141 4.713l-.001.002-.001.002-.002.002-.002.003a8511.04 8511.04 0 00-4.401 6.606c-.074.111-.145.155-.278.155-1.784-.01-3.568-.014-5.356-.018h-.994c-.015-.1.024-.148.06-.191.007-.01.015-.018.021-.028l3.04-4.355.002-.002c1.013-1.45 2.026-2.9 3.038-4.352l.535-.765c.433-.619.866-1.237 1.297-1.857.052-.074.093-.126.2-.126 2.03.003 4.054.003 6.117.003l-.084.13v.001zm-25.872-.13h-.17l.05.078.03.047 1.526 2.29 6.108 9.157c.056.081.108.115.208.115a197.12 197.12 0 012.092 0c.089 0 .144-.026.196-.1.227-.333.457-.665.688-.996.413-.595.827-1.19 1.223-1.797.137-.212.118-.353-.02-.55-1.261-1.795-2.538-3.58-3.815-5.367-.66-.923-1.32-1.846-1.978-2.77-.063-.09-.13-.108-.23-.108h-5.908zm12.892 12.985h1.085c1.084.001 2.166.002 3.251-.004.185 0 .223.052.219.227a34.97 34.97 0 00-.007.73c-.002.38-.003.76-.023 1.139-.015.256-.018.26-.245.167-.975-.408-1.97-.742-3.023-.876a9.675 9.675 0 00-4.291.408 15.95 15.95 0 00-1.276.486c-.17.075-.197.06-.208-.13-.03-.47-.03-.94-.028-1.41 0-.208.001-.417-.001-.626 0-.125.068-.12.136-.114a.472.472 0 00.042.003h4.369zm9.068 12.08c.23-5.237-3.868-9.525-9.095-9.45-4.848-.108-8.757 3.853-9.024 8.4-.323 5.48 3.757 9.56 8.653 9.737 4.86.178 9.229-3.301 9.466-8.687z" fill="#fff"/><path d="M15.37 12.205c-.114.178-.296.308-.37.52v-.52h.37z" fill="#FAFAFA"/><path d="M44.875 12.724c-.074-.207-.256-.34-.371-.519.122 0 .297-.048.356.015.063.063.015.234.015.356v.148z" fill="#FBFBFB"/><path d="M38.942 12.205c-.112.074-.238.03-.356.034-.215.007-.43 0-.646 0-.01-.008-.015-.015-.01-.023.003-.007.007-.01.01-.01h1.002z" fill="#333334"/><path d="M21.152 12.242h-.72c-.059 0-.126.022-.17-.037h.89c.011.008.015.015.011.022-.004.011-.007.015-.011.015z" fill="#343335"/><path d="M22.043 12.235h-.593c-.015-.008-.019-.015-.015-.022.004-.008.007-.012.011-.012h.593c.012.008.015.015.012.023 0 .007-.004.01-.008.01z" fill="#606163"/><path d="M22.045 12.235c0-.011-.004-.022-.004-.034h.482c.011.008.015.011.011.019-.003.007-.007.011-.01.011-.157.004-.316.004-.48.004z" fill="#787A7D"/><path d="M37.643 12.239h-.334c-.01-.008-.014-.015-.01-.023.003-.007.007-.01.01-.01h.334c.011.007.015.014.011.021-.003.008-.007.011-.01.011z" fill="#58595B"/><path d="M21.451 12.205c0 .011 0 .022.004.034-.1 0-.2.003-.297.003v-.037h.293z" fill="#4A4A4C"/><path d="M22.525 12.235c0-.011-.003-.022-.003-.03h.296c.011.008.015.011.011.019-.003.007-.007.01-.01.01h-.294z" fill="#939597"/><path d="M22.824 12.235v-.03h.297c.011.008.015.015.011.019-.004.007-.007.01-.011.01h-.297z" fill="#AEB0B2"/><path d="M23.12 12.235v-.03h.296c-.093.082-.2.019-.297.03z" fill="#C9CACC"/><path d="M37.645 12.239v-.034h.296v.037c-.1-.004-.196-.004-.297-.004z" fill="#49494B"/><path d="M29.565 48.495c.1.011.208-.037.297.033h-.297c-.01-.007-.015-.015-.01-.022.003-.007.006-.011.01-.011z" fill="#434244"/><path d="M30.012 48.532c.092-.07.2-.026.3-.033.011.007.015.014.011.022-.003.007-.007.011-.01.011h-.301z" fill="#424244"/><path d="M37.088 12.235c-.085-.011-.182.048-.256-.034h.26c.01.008.014.015.01.023-.003.01-.01.01-.014.01z" fill="#87898C"/><path d="M29.567 48.495l.003.033h-.26c.075-.074.171-.015.257-.033z" fill="#5F6062"/><path d="M37.088 12.235c0-.011.004-.022.004-.034h.222c0 .011 0 .023-.004.034a2.231 2.231 0 01-.222 0z" fill="#6D6F71"/><path d="M30.309 48.532c0-.01 0-.022.003-.033.075.015.156-.037.22.033h-.223z" fill="#5F6062"/><path fill-rule="evenodd" clip-rule="evenodd" d="M29.941 45.272c3.457.193 7.17-3.05 7.11-7.085.1-3.497-3-7.184-7.28-7.132-3.546.04-6.955 3.264-6.959 7.117-.003 4.032 3.654 7.289 7.13 7.1zm5.815-7c.063-3.248-2.574-5.964-5.708-5.9-2.585-.175-5.894 1.828-5.946 5.667-.044 3.334 2.43 5.916 5.705 5.98 3.019.055 5.879-2.219 5.95-5.746z" fill="#fff"/><path fill-rule="evenodd" clip-rule="evenodd" d="M27.309 40.402c-.076.34-.15.673-.186.986-.014.475.353.757.768.646.152-.045.297-.115.438-.193l.181-.103c.418-.236.832-.47 1.247-.713.115-.07.208-.067.323-.004.4.219.8.434 1.205.645l.062.033c.24.127.48.255.747.324a.542.542 0 00.697-.527 1.802 1.802 0 00-.048-.423 52.692 52.692 0 00-.364-1.51c-.052-.215-.003-.352.175-.493.511-.4.994-.83 1.431-1.313.286-.315.134-.816-.278-.938-.12-.035-.25-.051-.374-.067a11.372 11.372 0 00-.82-.075c-.277-.018-.555-.036-.831-.077-.167-.026-.274-.082-.352-.245a37.825 37.825 0 01-.216-.455c-.21-.444-.42-.89-.66-1.318-.24-.426-.82-.33-1.009-.033a5.296 5.296 0 00-.211.37c-.184.36-.336.73-.488 1.102l-.154.371c-.044.104-.096.167-.222.178-.324.03-.647.07-.97.108l-.243.03-.177.02c-.303.035-.607.07-.895.172-.352.126-.46.49-.248.798.103.152.24.282.381.4.401.342.802.68 1.21 1.01.1.085.152.155.107.292-.051.167-.086.34-.12.513l-.017.08c-.029.138-.059.274-.09.41zm1.56-.97c-.043.197-.087.396-.084.61.165-.057.309-.142.455-.227l.101-.059c.393-.233.779-.233 1.172-.003.106.061.216.118.328.176l.11.057c.089.049.126.015.111-.081a5.263 5.263 0 01-.02-.12 2.148 2.148 0 00-.065-.314c-.13-.4-.023-.72.293-.99.144-.127.274-.268.404-.409.082-.092.067-.166-.07-.193a1.346 1.346 0 00-.386-.022c-.442.037-.724-.167-.901-.56a5.564 5.564 0 00-.204-.392l-.097-.179c-.044-.089-.096-.082-.133.007a36.918 36.918 0 00-.23.546.78.78 0 01-.605.49 4.177 4.177 0 01-.22.031 6.152 6.152 0 00-.147.02c-.055.008-.11.014-.165.02-.145.015-.292.03-.44.091.131.153.28.271.428.388.061.048.122.096.18.147.223.192.286.419.238.708-.015.086-.034.172-.053.258z" fill="#fff"/></svg>