<svg width="60" height="60" fill="none" xmlns="http://www.w3.org/2000/svg"><circle cx="30" cy="30" r="30" fill="#EA4033"/><path fill-rule="evenodd" clip-rule="evenodd" d="M30.944 12.188h-.146c-.048.023-.097.021-.148.02a.463.463 0 00-.091.002H29.5a.56.56 0 00-.083 0c-.052.002-.104.005-.154-.019h-.254c-.04.028-.086.024-.132.02-.02 0-.04-.003-.06-.001l-.221.009a8.237 8.237 0 00-.667.045 17.969 17.969 0 00-3.849.883 17.86 17.86 0 00-3.744 1.829 18.07 18.07 0 00-3.995 3.515 17.411 17.411 0 00-2.253 3.377 17.366 17.366 0 00-1.222 3.046 17.375 17.375 0 00-.625 3.166c-.01.112-.014.225-.018.338-.005.165-.01.329-.037.49v.255c.03.047.03.098 0 .145v.182c.03.11.03.218 0 .327v.4c.03.12.03.244 0 .364v.508c.023.173.03.347.037.52.007.163.013.325.033.487.17 1.382.48 2.73.96 4.039a17.719 17.719 0 001.773 3.551 18.017 18.017 0 003.428 3.904 17.445 17.445 0 003.395 2.29 17.697 17.697 0 006.3 1.872c.122.012.245.015.367.019a3.6 3.6 0 01.497.035h.473a.545.545 0 01.214-.018c.043.002.085.004.127 0h.696c.024.003.047.001.071 0 .045-.004.09-.008.132.019h.255c.022-.02.05-.02.076-.019a17.557 17.557 0 007.786-2.25 17.914 17.914 0 004.777-3.95 17.616 17.616 0 002.191-3.2 17.343 17.343 0 001.422-3.55c.265-.971.461-1.956.56-2.96.012-.117.015-.235.018-.352.004-.16.009-.32.036-.477v-.472a.624.624 0 010-.327v-.4a.562.562 0 01-.019-.21 1.043 1.043 0 000-.11c.003-.025.001-.05 0-.077-.004-.05-.007-.1.019-.148v-.073a.382.382 0 010-.255v-.036c-.025-.04-.023-.083-.02-.124.002-.018.003-.036.002-.054-.006-.097-.01-.193-.014-.29a7.438 7.438 0 00-.04-.579 19.048 19.048 0 00-.695-3.246 17.816 17.816 0 00-2.021-4.31 18.107 18.107 0 00-3.173-3.694 17.536 17.536 0 00-9.986-4.402 6.397 6.397 0 00-.408-.021c-.17-.006-.342-.011-.511-.033zM45.4 30.01c.018-8.474-6.91-15.413-15.397-15.42-8.47-.007-15.383 6.9-15.405 15.39-.019 8.47 6.91 15.409 15.397 15.42 8.47.007 15.383-6.9 15.405-15.39z" fill="#fff"/><path d="M30.401 12.22h-.621c-.011-.007-.015-.014-.011-.022.004-.007.007-.01.01-.01h.619c.01.007.014.014.01.021 0 .008-.003.011-.007.011zm-.621 35.55h.44c.01.007.015.015.01.022-.003.007-.006.01-.01.01h-.436c-.011-.007-.015-.014-.011-.021 0-.007.003-.011.007-.011zM12.191 30.213a.4.4 0 010 .364v-.364zm0-.727a.328.328 0 010 .327v-.327zm35.616.364c-.069-.106-.025-.222-.032-.331.01-.01.021-.01.032.004v.327zm.001.727c-.062-.11-.05-.218 0-.328v.328z" fill="#fff"/><path d="M29.782 47.77v.033h-.327c.102-.08.218-.018.327-.033zm-.002-35.582v.032h-.29c-.011-.007-.011-.014-.007-.022.003-.007.007-.01.01-.01h.288zm.437 35.615v-.033c.098 0 .196 0 .29.004.011.007.011.014.008.021-.004.008-.007.011-.011.011-.095-.003-.19-.003-.287-.003zm17.59-18.571c-.05-.084-.07-.171 0-.255v.255z" fill="#fff"/><path d="M29.49 12.188c0 .01 0 .021-.004.029-.073-.008-.153.043-.215-.03h.219zm1.309 0c-.062.076-.142.021-.215.029-.014-.008-.018-.011-.014-.019.003-.007.007-.01.01-.01h.219zm17.009 17.334l-.033-.003c.01-.073-.04-.153.033-.215v.218z" fill="#fff"/><path d="M30.578 12.188c0 .01 0 .021.004.029-.062 0-.12 0-.182.003l-.003-.033h.181zM12.191 29.16c.062.046.051.097 0 .145v-.146zm8.841-.041c.396 0 .687.142.93.389 1.07 1.072 2.142 2.14 3.21 3.213.502.502 1.003 1 1.501 1.505.106.11.157.12.273.004 3.62-3.628 7.244-7.248 10.865-10.872.098-.099.196-.2.298-.295a1.196 1.196 0 011.672.011 1.2 1.2 0 01.033 1.672c-.037.04-.077.08-.113.116L27.749 36.814c-.458.458-.992.567-1.497.305a1.28 1.28 0 01-.32-.236c-1.89-1.894-3.784-3.787-5.678-5.678-.345-.345-.476-.756-.334-1.228.138-.458.454-.727.916-.836.08-.018.16-.018.196-.022z" fill="#fff"/></svg>