<svg width="24" height="24" fill="none" xmlns="http://www.w3.org/2000/svg"><path fill-rule="evenodd" clip-rule="evenodd" d="M9.2 1.25h-.033c-1.232 0-2.203 0-2.984.064-.796.065-1.462.2-2.066.508a5.25 5.25 0 00-2.295 2.295c-.308.604-.443 1.27-.508 2.066-.064.781-.064 1.752-.064 2.984v5.666c0 1.232 0 2.203.064 2.984.065.796.2 1.462.508 2.066a5.25 5.25 0 002.295 2.295c.604.308 1.27.443 2.066.508.781.064 1.752.064 2.984.064h5.666c1.232 0 2.203 0 2.984-.064.796-.065 1.462-.2 2.066-.508a5.25 5.25 0 002.295-2.295c.308-.604.443-1.27.508-2.066.064-.781.064-1.752.064-2.984V9.167c0-1.232 0-2.203-.064-2.984-.065-.796-.2-1.462-.508-2.066a5.25 5.25 0 00-2.295-2.295c-.604-.308-1.27-.443-2.066-.508-.781-.064-1.752-.064-2.984-.064H9.2zM4.798 3.159c.357-.183.803-.293 1.507-.35.713-.058 1.623-.059 2.895-.059h5.6c1.273 0 2.182 0 2.895.059.703.057 1.15.167 1.508.35a3.75 3.75 0 011.638 1.639c.183.357.293.803.35 1.507.058.713.059 1.623.059 2.895v5.6c0 1.273 0 2.182-.059 2.895-.057.703-.167 1.15-.35 1.508a3.75 3.75 0 01-1.639 1.638c-.358.183-.804.293-1.508.35-.712.058-1.621.059-2.894.059H9.2c-1.272 0-2.182 0-2.895-.059-.704-.057-1.15-.167-1.507-.35a3.75 3.75 0 01-1.64-1.639c-.182-.358-.292-.804-.35-1.508-.057-.712-.058-1.621-.058-2.894V9.2c0-1.272 0-2.182.059-2.895.057-.704.167-1.15.35-1.507a3.75 3.75 0 011.639-1.64zm12.012 9.293l-.53-.53-4.307-4.312a.75.75 0 00-1.061 1.06l3.029 3.032H7.135a.75.75 0 000 1.5h6.806l-3.03 3.032a.75.75 0 101.062 1.06l4.304-4.308.008-.008.525-.526z" fill="#EA4033"/><path d="M9.167 1.25v.3-.3zm-2.984.064l.025.299-.025-.3zm-2.066.508l-.137-.267.137.267zM1.822 4.117l-.267-.137.267.137zm-.508 2.066l.299.025-.3-.025zM1.25 9.167h.3-.3zm0 5.666h.3-.3zm.064 2.984l-.3.024.3-.024zm.508 2.066l.268-.136-.268.136zm2.295 2.295l.136-.268-.136.268zm2.066.508l-.024.3.024-.3zm2.984.064v-.3.3zm5.666 0v-.3.3zm2.984-.064l.024.3-.024-.3zm2.066-.508l-.136-.268.136.268zm2.295-2.295l-.268-.136.268.136zm.508-2.066l.3.024-.3-.024zm.064-2.984h-.3.3zm0-5.666h-.3.3zm-.064-2.984l.3-.024-.3.024zm-.508-2.066l-.268.136.268-.136zm-2.295-2.295l-.136.268.136-.268zm-2.066-.508l.024-.3-.024.3zm-2.984-.064v.3-.3zM6.305 2.809l.025.299-.025-.3zm-1.507.35l.136.267-.136-.267zm12.897-.35l-.025.299.024-.3zm1.508.35l.136-.268-.136.268zm1.638 1.639l.268-.137-.268.137zm.35 1.507l-.299.025.3-.025zm0 11.39l-.299-.025.3.024zm-.35 1.508l.268.136-.268-.136zm-1.639 1.638l.137.268-.136-.268zm-1.508.35l-.024-.299.024.3zm-11.389 0l.025-.299-.025.3zm-1.507-.35l-.137.268.137-.268zm-1.64-1.639l-.267.137.268-.136zm-.35-1.508l-.298.025.299-.024zm0-11.389l-.298-.024.299.024zm.35-1.507l.268.136-.267-.136zm13.123 7.124l-.212.212.212-.212zm.53.53l.212.212a.3.3 0 000-.424l-.213.212zM11.972 7.61l-.212.212.212-.212zm-1.061 1.06l.212-.212-.212.212zm3.029 3.032v.3a.3.3 0 00.212-.512l-.212.212zm0 1.5l.212.212a.3.3 0 00-.212-.512v.3zm-3.03 3.032l.213.212-.212-.212zm1.062 1.06l.212.212-.212-.212zm4.304-4.308l.212.212-.212-.212zm.008-.008l-.213-.212.213.212zM9.167 1.55H9.2v-.6h-.033v.6zm0 0v-.6.6zm-2.96.063c.767-.063 1.723-.063 2.96-.063v-.6c-1.228 0-2.212 0-3.008.065l.049.598zm-1.954.477c.555-.283 1.177-.414 1.955-.477l-.05-.598c-.814.066-1.524.207-2.178.54l.273.535zM2.09 4.253A4.95 4.95 0 014.253 2.09l-.273-.535A5.55 5.55 0 001.555 3.98l.535.273zm-.477 1.955c.063-.778.194-1.4.477-1.955l-.535-.273c-.333.654-.474 1.364-.54 2.179l.598.049zM1.55 9.167c0-1.237 0-2.193.063-2.96l-.598-.048C.95 6.955.95 7.939.95 9.167h.6zm0 .033v-.033h-.6V9.2h.6zm0 5.6V9.2h-.6v5.6h.6zm0 .033V14.8h-.6v.033h.6zm.063 2.96c-.063-.767-.063-1.723-.063-2.96h-.6c0 1.228 0 2.212.065 3.008l.598-.049zm.477 1.954c-.283-.555-.414-1.177-.477-1.955l-.598.05c.066.815.207 1.524.54 2.178l.535-.273zm2.163 2.163a4.95 4.95 0 01-2.163-2.163l-.535.273a5.55 5.55 0 002.425 2.425l.273-.535zm1.955.477c-.778-.063-1.4-.194-1.955-.477l-.273.535c.654.333 1.364.474 2.179.54l.049-.598zm2.959.063c-1.237 0-2.193 0-2.96-.063l-.048.598c.796.065 1.78.065 3.008.065v-.6zm.033 0h-.033v.6H9.2v-.6zm5.6 0H9.2v.6h5.6v-.6zm.033 0H14.8v.6h.033v-.6zm2.96-.063c-.767.063-1.723.063-2.96.063v.6c1.228 0 2.212 0 3.008-.065l-.049-.598zm1.954-.477c-.555.283-1.177.414-1.955.477l.05.598c.815-.066 1.524-.207 2.178-.54l-.273-.535zm2.163-2.163a4.95 4.95 0 01-2.163 2.163l.273.535a5.55 5.55 0 002.425-2.425l-.535-.273zm.477-1.955c-.063.778-.194 1.4-.477 1.955l.535.273c.333-.654.474-1.363.54-2.179l-.598-.049zm.063-2.959c0 1.237 0 2.193-.063 2.96l.598.048c.065-.796.065-1.78.065-3.008h-.6zm0-.033v.033h.6V14.8h-.6zm0-5.6v5.6h.6V9.2h-.6zm0-.033V9.2h.6v-.033h-.6zm-.063-2.96c.063.767.063 1.723.063 2.96h.6c0-1.228 0-2.212-.065-3.008l-.598.049zm-.477-1.954c.283.555.414 1.177.477 1.955l.598-.05c-.066-.814-.207-1.524-.54-2.178l-.535.273zM19.747 2.09a4.95 4.95 0 012.163 2.163l.535-.273a5.55 5.55 0 00-2.425-2.425l-.273.535zm-1.955-.477c.778.063 1.4.194 1.955.477l.273-.535c-.654-.333-1.363-.474-2.179-.54l-.049.598zm-2.959-.063c1.237 0 2.193 0 2.96.063l.048-.598C17.045.95 16.061.95 14.833.95v.6zm-.033 0h.033v-.6H14.8v.6zm-5.6 0h5.6v-.6H9.2v.6zm-2.919.96c-.722.059-1.212.174-1.62.381l.273.535c.308-.157.71-.262 1.396-.318l-.05-.598zM9.2 2.45c-1.267 0-2.191 0-2.919.06l.049.598c.698-.057 1.592-.058 2.87-.058v-.6zm5.6 0H9.2v.6h5.6v-.6zm2.919.06c-.728-.06-1.652-.06-2.919-.06v.6c1.277 0 2.172 0 2.87.058l.049-.598zm1.62.381c-.408-.207-.898-.322-1.62-.381l-.049.598c.686.056 1.088.16 1.396.318l.273-.535zm1.77 1.77a4.05 4.05 0 00-1.77-1.77l-.273.535a3.45 3.45 0 011.508 1.508l.535-.273zm.381 1.62c-.059-.722-.174-1.212-.381-1.62l-.535.273c.157.308.262.71.318 1.396l.598-.049zm.06 2.919c0-1.267 0-2.191-.06-2.919l-.598.049c.057.698.058 1.592.058 2.87h.6zm0 5.6V9.2h-.6v5.6h.6zm-.06 2.919c.06-.728.06-1.652.06-2.919h-.6c0 1.277 0 2.172-.058 2.87l.598.049zm-.381 1.62c.207-.408.322-.898.381-1.62l-.598-.049c-.056.686-.16 1.088-.318 1.396l.535.273zm-1.77 1.77a4.05 4.05 0 001.77-1.77l-.535-.273a3.451 3.451 0 01-1.508 1.508l.273.535zm-1.62.381c.722-.059 1.212-.174 1.62-.381l-.273-.535c-.308.157-.71.262-1.396.318l.049.598zm-2.919.06c1.267 0 2.191 0 2.919-.06l-.049-.598c-.698.057-1.593.058-2.87.058v.6zm-5.6 0h5.6v-.6H9.2v.6zm-2.919-.06c.728.06 1.652.06 2.919.06v-.6c-1.278 0-2.172 0-2.87-.058l-.049.598zm-1.62-.381c.408.207.898.322 1.62.381l.049-.598c-.686-.056-1.088-.16-1.396-.318l-.273.535zm-1.77-1.77a4.05 4.05 0 001.77 1.77l.273-.535a3.45 3.45 0 01-1.508-1.508l-.535.273zm-.381-1.62c.059.722.174 1.212.381 1.62l.535-.273c-.157-.308-.262-.71-.318-1.396l-.598.049zM2.45 14.8c0 1.267 0 2.191.06 2.919l.598-.049c-.057-.698-.058-1.593-.058-2.87h-.6zm0-5.6v5.6h.6V9.2h-.6zm.06-2.919c-.06.728-.06 1.652-.06 2.919h.6c0-1.278 0-2.172.058-2.87l-.598-.05zm.381-1.62c-.207.408-.322.898-.381 1.62l.598.049c.056-.686.16-1.088.318-1.396l-.535-.273zm1.77-1.77a4.05 4.05 0 00-1.77 1.77l.535.273a3.45 3.45 0 011.508-1.508l-.273-.535zm11.408 9.243l.529.53.425-.424-.53-.53-.424.424zM11.76 7.822l4.308 4.312.424-.424-4.308-4.312-.424.424zm-.637 0a.45.45 0 01.637 0l.424-.424a1.05 1.05 0 00-1.485 0l.424.424zm0 .636a.45.45 0 010-.636l-.424-.425a1.05 1.05 0 000 1.485l.424-.424zm3.029 3.032l-3.029-3.032-.424.424 3.029 3.032.424-.424zm-7.018.512h6.806v-.6H7.135v.6zm-.45.45a.45.45 0 01.45-.45v-.6c-.58 0-1.05.47-1.05 1.05h.6zm.45.45a.45.45 0 01-.45-.45h-.6c0 .58.47 1.05 1.05 1.05v-.6zm6.806 0H7.135v.6h6.806v-.6zm-2.817 3.544l3.029-3.032-.425-.424-3.028 3.032.424.424zm0 .636a.45.45 0 010-.636l-.424-.424a1.05 1.05 0 000 1.485l.424-.425zm.637 0a.45.45 0 01-.637 0l-.424.425c.41.41 1.075.41 1.485 0l-.424-.425zm4.304-4.308l-4.304 4.308.424.424 4.304-4.308-.424-.424zm.007-.008l-.007.008.424.424.008-.008-.425-.424zm.526-.526l-.526.526.425.424.526-.526-.425-.424z" fill="#EA4033"/></svg>