<svg width="183" height="183" fill="none" xmlns="http://www.w3.org/2000/svg"><circle cx="91.5" cy="91.5" r="91.5" fill="#EA4033"/><path fill-rule="evenodd" clip-rule="evenodd" d="M131.697 83.14h11.307v32.76h12.293V83.141h9.926V70.15h-33.526v12.99zM18.823 92.445V115.9h14.529l-.095-16.637-1.03-4.159L46.66 115.9h15.378V98.031c.204-8.912 0-18.742 0-21.643V70.15H47.321v18.716s-2.386-3.189-6.42-8.397l-7.55-10.32H18.824v22.295zm67.613-7.609v13.578h27.668v5.45l-.94-2.649H86.436V115.9h41.672V87.094h-27.144l.046-3.247.045-3.248.794 1.836.794 1.835h25.465V70.15H86.436v14.685zm-20.117 8.472l-.07 22.593h14.433l.166-22.593-.166-23.157H66.32v23.157z" fill="#fff"/></svg>