<svg width="204" height="204" fill="none" xmlns="http://www.w3.org/2000/svg"><circle cx="102" cy="102" r="102" fill="#EA4033"/><path fill-rule="evenodd" clip-rule="evenodd" d="M130.85 163.628h7.26v20.766h7.894v-20.766h6.373v-8.234H130.85v8.234zm-72.473 5.897v14.869h9.328l-.06-10.546-.662-2.636 9.267 13.182h9.874v-11.327c.13-5.649 0-11.88 0-13.719v-3.954h-9.449v11.863s-1.532-2.021-4.122-5.323l-4.848-6.54h-9.328v14.131zm43.412-4.823v8.607h17.766v3.455l-.604-1.679h-17.162v9.309h26.757v-18.26h-17.429l.03-2.058.029-2.059.51 1.164.51 1.163h16.35v-8.95h-26.757v9.308zm-12.916 5.371l-.045 14.321h9.267l.106-14.321-.106-14.679h-9.222v14.679z" fill="#fff"/><path d="M106.562 13c.919.306 1.894.264 2.84.375 9.106 1.14 17.307 4.505 24.477 10.206 9.495 7.535 15.524 17.254 18.044 29.113.014.07.028.14.028.209.097 1.112.417 1.877 1.615 2.461 2.074 1.015 3.132 3.03 3.801 5.172 1.378 4.394 1.155 8.676-1.142 12.736-.891 1.57-2.13 2.794-3.954 3.295-.07.014-.139.07-.195.055-1.114-.166-1.323.57-1.615 1.433-5.319 15.265-15.594 25.721-30.742 31.394-.362.139-.543.292-.668.667a3.589 3.589 0 01-4.803 2.141c-1.936-.806-2.743-3.045-1.796-4.922a3.572 3.572 0 015.04-1.46c.389.237.696.237 1.086.084 14.41-5.478 24.044-15.517 28.736-30.185 2.075-6.465 2.465-13.11 1.448-19.826-2.673-17.769-15.162-32.187-32.329-37.4-24.921-7.564-51.57 7.507-57.89 32.756-1.908 7.605-1.894 15.21.069 22.802.125.459.055.765-.306 1.084-2.228 2.086-5.068 2.114-7.282.014-1.74-1.654-2.645-3.768-3.105-6.076-.752-3.767-.431-7.424 1.462-10.83.989-1.794 2.339-3.226 4.497-3.615.348-.07.334-.32.376-.556.627-3.546 1.545-6.994 2.966-10.303C63.067 30.2 72.952 20.786 86.93 15.74c4.024-1.46 8.2-2.252 12.475-2.586.125-.014.292.056.348-.14h1.114c.278.154.571.043.863.07.362-.041.738.084 1.086-.07h2.645a.507.507 0 00.557 0c.167-.013.362-.013.543-.013zm54.425 136.227c-.042-.042-.084-.112-.14-.14-1.782-.597-2.589-1.89-2.673-3.726-.181-3.976-.863-7.855-2.144-11.623-2.617-7.716-7.101-14.182-13.115-19.632-3.425-3.114-7.212-5.714-11.32-7.855-.18-.098-.361-.209-.584-.334 2.158-1.404 4.177-2.906 6.07-4.574.223-.195.39-.139.599-.014 13.491 8.175 22.889 19.465 26.592 35.051.683 2.892 1.003 5.839 1.142 8.801.098 2.057-.835 3.364-2.826 3.948-.028.014-.056.07-.084.098h-1.517z" fill="#fff"/><path d="M102.803 13c-.348.264-.752.083-1.128.125-.042-.028-.042-.056-.028-.083.014-.028.028-.042.042-.042h1.114z" fill="#fff"/><path d="M101.692 13c0 .042 0 .083-.014.125-.279-.042-.585.153-.822-.125h.836zm4.317 0c-.181.25-.376.18-.557 0h.557zM41 143.804c.167.028.125.153.111.264-.041.07-.07.07-.111.014v-.278z" fill="#fff"/><path d="M41 144.082c.042 0 .083 0 .111-.014.028.125.028.237-.111.292v-.278z" fill="#fff"/><path fill-rule="evenodd" clip-rule="evenodd" d="M41.224 142.011c-.14.54-.223 1.098-.223 1.098 0 .237 0 .459.014.695.073.073.072.157.07.242v.073c.002.085.003.169-.07.242v2.085c.32 1.543 1.239 2.461 2.785 2.781h1.531c2.102-.681 2.98-2.155 2.966-4.338-.014-1.738.25-3.462.57-5.172 1.546-8.44 5.291-15.808 11.11-22.065 10.944-11.762 24.742-17.365 40.6-18.172 7.295-.375 14.438.598 21.399 2.781.334.097.599.083.919-.07a46.306 46.306 0 006.906-4.268c.029-.02.061-.039.092-.058.12-.07.242-.142.242-.317-2.868-1.224-5.806-2.183-8.869-3.045 20.495-11.165 25.841-37.818 11.974-55.99-12.879-16.879-37.425-19.868-53.784-6.423-8.465 6.965-13.338 15.961-13.867 26.89-.766 15.696 6.223 27.403 19.492 35.564-10.387 2.823-19.618 7.717-27.428 15.141-9.287 8.829-15.01 19.493-16.43 32.326zm62.011-111.13c-16.804-.056-30.463 13.57-30.546 30.42-.07 16.726 13.589 30.449 30.393 30.518 16.861.07 30.561-13.514 30.645-30.393.083-16.781-13.603-30.504-30.492-30.546z" fill="#fff"/></svg>