<svg width="47" height="47" viewBox="0 0 47 47" fill="none" xmlns="http://www.w3.org/2000/svg">
<circle cx="23.5" cy="23.5" r="23.5" fill="#EA4033"/>
<path d="M21.744 19.2L22.6964 19.5048L23.114 18.2H21.744V19.2ZM18.608 29V30H19.338L19.5604 29.3048L18.608 29ZM15.066 29L14.1087 29.2892L14.3235 30H15.066V29ZM13.484 23.764L14.4413 23.4748L13.5087 20.3883L12.5311 23.4608L13.484 23.764ZM11.818 29V30H12.5492L12.7709 29.3032L11.818 29ZM8.276 29L7.32358 29.3048L7.54605 30H8.276V29ZM5.14 19.2V18.2H3.77005L4.18758 19.5048L5.14 19.2ZM8.542 19.2L9.49809 18.9069L9.28139 18.2H8.542V19.2ZM10.25 24.772L9.29391 25.0651L10.2234 28.0973L11.2013 25.0803L10.25 24.772ZM12.056 19.2V18.2H11.3289L11.1047 18.8917L12.056 19.2ZM15.094 19.2L16.0511 18.9103L15.8361 18.2H15.094V19.2ZM16.802 24.842L15.8449 25.1317L16.7754 28.2054L17.7544 25.1469L16.802 24.842ZM18.608 19.2V18.2H17.8781L17.6556 18.8951L18.608 19.2ZM20.7916 18.8952L17.6556 28.6952L19.5604 29.3048L22.6964 19.5048L20.7916 18.8952ZM18.608 28H15.066V30H18.608V28ZM16.0233 28.7108L14.4413 23.4748L12.5267 24.0532L14.1087 29.2892L16.0233 28.7108ZM12.5311 23.4608L10.8651 28.6968L12.7709 29.3032L14.4369 24.0672L12.5311 23.4608ZM11.818 28H8.276V30H11.818V28ZM9.22842 28.6952L6.09242 18.8952L4.18758 19.5048L7.32358 29.3048L9.22842 28.6952ZM5.14 20.2H8.542V18.2H5.14V20.2ZM7.58591 19.4931L9.29391 25.0651L11.2061 24.4789L9.49809 18.9069L7.58591 19.4931ZM11.2013 25.0803L13.0073 19.5083L11.1047 18.8917L9.29872 24.4637L11.2013 25.0803ZM12.056 20.2H15.094V18.2H12.056V20.2ZM14.1369 19.4897L15.8449 25.1317L17.7591 24.5523L16.0511 18.9103L14.1369 19.4897ZM17.7544 25.1469L19.5604 19.5049L17.6556 18.8951L15.8496 24.5371L17.7544 25.1469ZM18.608 20.2H21.744V18.2H18.608V20.2ZM22.4777 19.2V18.2H21.4777V19.2H22.4777ZM25.7817 19.2H26.7817V18.2H25.7817V19.2ZM25.7817 29V30H26.7817V29H25.7817ZM22.4777 29H21.4777V30H22.4777V29ZM22.4777 20.2H25.7817V18.2H22.4777V20.2ZM24.7817 19.2V29H26.7817V19.2H24.7817ZM25.7817 28H22.4777V30H25.7817V28ZM23.4777 29V19.2H21.4777V29H23.4777ZM31.3622 25.752L32.1606 25.1498L31.4295 24.1807L30.6183 25.0837L31.3622 25.752ZM30.6202 26.578L29.8763 25.9097L29.6202 26.1948V26.578H30.6202ZM30.6202 29V30H31.6202V29H30.6202ZM27.3722 29H26.3722V30H27.3722V29ZM27.3722 19.2V18.2H26.3722V19.2H27.3722ZM30.6202 19.2H31.6202V18.2H30.6202V19.2ZM30.6202 22.756H29.6202V25.3502L31.3615 23.4272L30.6202 22.756ZM33.8402 19.2V18.2H33.3967L33.099 18.5288L33.8402 19.2ZM37.4382 19.2L38.1782 19.8727L39.6988 18.2H37.4382V19.2ZM33.5182 23.512L32.7783 22.8393L32.2224 23.4508L32.7182 24.112L33.5182 23.512ZM37.6342 29V30H39.6342L38.4342 28.4L37.6342 29ZM33.8122 29L33.0139 29.6022L33.3139 30H33.8122V29ZM30.6183 25.0837L29.8763 25.9097L31.3641 27.2463L32.1061 26.4203L30.6183 25.0837ZM29.6202 26.578V29H31.6202V26.578H29.6202ZM30.6202 28H27.3722V30H30.6202V28ZM28.3722 29V19.2H26.3722V29H28.3722ZM27.3722 20.2H30.6202V18.2H27.3722V20.2ZM29.6202 19.2V22.756H31.6202V19.2H29.6202ZM31.3615 23.4272L34.5815 19.8712L33.099 18.5288L29.879 22.0848L31.3615 23.4272ZM33.8402 20.2H37.4382V18.2H33.8402V20.2ZM36.6983 18.5273L32.7783 22.8393L34.2582 24.1847L38.1782 19.8727L36.6983 18.5273ZM32.7182 24.112L36.8342 29.6L38.4342 28.4L34.3182 22.912L32.7182 24.112ZM37.6342 28H33.8122V30H37.6342V28ZM34.6106 28.3978L32.1606 25.1498L30.5639 26.3542L33.0139 29.6022L34.6106 28.3978ZM38.0773 19.2V18.2H37.0773V19.2H38.0773ZM41.3813 19.2H42.3813V18.2H41.3813V19.2ZM41.3813 29V30H42.3813V29H41.3813ZM38.0773 29H37.0773V30H38.0773V29ZM38.0773 20.2H41.3813V18.2H38.0773V20.2ZM40.3813 19.2V29H42.3813V19.2H40.3813ZM41.3813 28H38.0773V30H41.3813V28ZM39.0773 29V19.2H37.0773V29H39.0773Z" fill="white"/>
</svg>
