<svg width="590" height="88" viewBox="0 0 590 88" fill="none" xmlns="http://www.w3.org/2000/svg">
<path d="M139.736 2L113.344 86H83.5354L70.2215 41.12L56.2008 86H26.392L0 2H28.6306L43.0048 49.76L58.2038 2H83.771L98.1452 50.36L113.344 2H139.736ZM145.911 2H173.717V86H145.911V2ZM220.681 58.16L214.437 65.24V86H187.102V2H214.437V32.48L241.536 2H271.816L238.826 38.96L273.465 86H241.3L220.681 58.16ZM277.194 2H305V86H277.194V2Z" fill="#EA4033"/>
<path d="M525.855 25.8519V26.8519H526.855H537.166H546.477V52.8148V86V87H547.477H557.937H569.897H570.897V86V52.8148V26.8519H578.949H588H589V25.8519V2V1H588H557.427H526.855H525.855V2V25.8519ZM320 86V87H321H334.248H347.496H348.502L348.496 85.9944L348.324 55.4489L348.323 55.3305L348.295 55.2155L347.72 52.8824L370.944 86.5676L371.242 87H371.768H384.93H399.814H400.814V86V53.2035C401.094 40.8232 400.951 27.4638 400.864 19.3972C400.836 16.7957 400.814 14.7447 400.814 13.4545V2V1H399.814H386.81H372.973H371.973V2V33.3601C371.597 32.8591 371.163 32.2839 370.676 31.6384C368.668 28.9792 365.742 25.1261 362.066 20.3466L348.305 1.4121L348.006 1H347.496H334.248H321H320V2V42.9329V86ZM443.309 50.7742V51.7742H444.309H468.683H493.771V58.0612L493.763 58.037H493.055H468.683H444.309H443.309V59.037V72.0124V86V87H444.309H480.824H520.31H521.31V86V59.2727V36.3636V35.3636H520.31H494.771H482.704H471.963L471.889 27.151L471.906 25.8936L472.95 28.3209L473.21 28.9259H473.869H496.795H520.31H521.31V27.9259V15.3636V2V1H520.31H482.704H444.309H443.309V2V28.963V50.7742ZM406.493 85.9969L406.49 87H407.493H420.655H433.817H434.81L434.817 86.0073L435.118 44.5258L435.118 44.5186L435.118 44.5114L434.817 1.99291L434.81 1H433.817H420.655H407.622H406.622V2L406.622 44.5154L406.622 44.5185L406.493 85.9969Z" stroke="#EA4033" stroke-width="2"/>
</svg>
