<svg width="292" height="304" viewBox="0 0 292 304" fill="none" xmlns="http://www.w3.org/2000/svg">
<rect x="1" width="290" height="208" fill="#EA4033"/>
<path d="M52.75 193.874V194.123L52.9989 194.124L82.9189 194.25H82.921L115.334 194.124L115.583 194.123V193.874V129.2V129.151L115.565 129.105L110.066 115.708L172.484 194.03L172.559 194.123L172.679 194.124L206.339 194.25H206.341L240.001 194.124L240.25 194.123V193.874V126.826V38.2647V14V13.75H240H206.34H176.42H176.17V14V82.4V82.4482L176.188 82.4929L181.166 94.9297C180.686 94.3521 180.044 93.5791 179.26 92.6331C177.4 90.3907 174.74 87.1765 171.539 83.2896C165.138 75.5162 156.574 65.0527 147.921 54.2911C147.921 54.2905 147.92 54.2898 147.92 54.2892L116.778 13.8475L116.703 13.75H116.58H82.92H53H52.75V14V103.937V193.874Z" fill="white" stroke="black" stroke-width="0.5"/>
<path d="M224.088 242.2V242.7H224.588H235.787H246.486V270.8V302.7V303.2H246.986H258.5H271.338H271.838V302.7V270.8V242.7H281.169H291H291.5V242.2V218.314V217.814L291 217.814L257.593 217.814H224.588H224.088V218.314V242.2ZM0.5 302.7V303.2H1H15.3893H29.7786H30.2786V302.7V271.2V271.09L30.232 270.99L27.6307 265.396L40.8434 281.556L55.5881 302.983L55.7371 303.2H56H71H86H86.4905L86.4999 302.71L87.103 271.212C87.103 271.211 87.103 271.211 87.103 271.21C87.5059 253.855 87.8359 235.027 87.8359 229.371V218.243V217.743H87.3359H72.0826H72.0784L57.4587 217.5L56.9504 217.492V218V233.028V247V247.078L56.974 247.152L59.273 254.358C58.4404 253.333 57.3315 251.964 56.0283 250.349C53.0732 246.687 49.12 241.757 45.1263 236.687L30.5976 218.241L30.4514 218.055L30.2153 218.05L15.6123 217.743L15.6123 217.743H15.6018H1H0.5V218.243V260.318V302.7ZM134.431 273V273.5H134.931H162.603H189.766L189.687 278.217C189.67 279.264 189.652 280.084 189.624 280.699C189.572 280.562 189.517 280.413 189.458 280.253L189.458 280.252L188.345 277.227L188.225 276.9H187.876H161.404H134.931H134.431V277.4V291.163V302.7V303.2H134.931H175H215H215.491L215.5 302.709L215.975 277.134L215.975 277.13L216.272 249.905L216.277 249.4H215.772H189.74H164.203L164.043 238.417L164.994 240.998L164.999 241.012L165.006 241.026L166.58 244.601L166.711 244.9H167.037H191.938H216.84H217.34V244.4V231.2V218V217.5H216.84H175.885H134.931H134.431V218V245.5V273ZM94.0001 302.693L93.9928 303.2H94.5H109.5H123.863H124.363V302.7V262V218.243V217.743H123.863H109.75H95.084H94.584V218.243V261.997V262L94.0001 302.693Z" stroke="#4E4E4E"/>
</svg>
