<svg width="37" height="37" viewBox="0 0 37 37" fill="none" xmlns="http://www.w3.org/2000/svg">
<circle cx="18.5" cy="18.5" r="18.5" fill="white"/>
<path fill-rule="evenodd" clip-rule="evenodd" d="M9.5 16.3864C9.5 12.5831 12.5831 9.5 16.3864 9.5C20.1896 9.5 23.2727 12.5831 23.2727 16.3864C23.2727 20.1896 20.1896 23.2727 16.3864 23.2727C12.5831 23.2727 9.5 20.1896 9.5 16.3864ZM16.3864 8C11.7547 8 8 11.7547 8 16.3864C8 21.018 11.7547 24.7727 16.3864 24.7727C18.4322 24.7727 20.3068 24.0402 21.7625 22.8231L27.9469 29.0076C28.2398 29.3005 28.7147 29.3005 29.0076 29.0076C29.3005 28.7147 29.3005 28.2398 29.0076 27.9469L22.8231 21.7625C24.0402 20.3068 24.7727 18.4322 24.7727 16.3864C24.7727 11.7547 21.018 8 16.3864 8Z" fill="#18191A"/>
<path d="M21.7625 22.8231L22.116 22.4696C21.9329 22.2865 21.6404 22.2735 21.4417 22.4395L21.7625 22.8231ZM27.9469 29.0076L27.5934 29.3612H27.5934L27.9469 29.0076ZM29.0076 27.9469L29.3612 27.5934V27.5934L29.0076 27.9469ZM22.8231 21.7625L22.4395 21.4417C22.2735 21.6404 22.2865 21.9329 22.4696 22.116L22.8231 21.7625ZM16.3864 9C12.307 9 9 12.307 9 16.3864H10C10 12.8593 12.8593 10 16.3864 10V9ZM23.7727 16.3864C23.7727 12.307 20.4657 9 16.3864 9V10C19.9135 10 22.7727 12.8593 22.7727 16.3864H23.7727ZM16.3864 23.7727C20.4657 23.7727 23.7727 20.4657 23.7727 16.3864H22.7727C22.7727 19.9135 19.9135 22.7727 16.3864 22.7727V23.7727ZM9 16.3864C9 20.4657 12.307 23.7727 16.3864 23.7727V22.7727C12.8593 22.7727 10 19.9135 10 16.3864H9ZM8.5 16.3864C8.5 12.0308 12.0308 8.5 16.3864 8.5V7.5C11.4786 7.5 7.5 11.4786 7.5 16.3864H8.5ZM16.3864 24.2727C12.0308 24.2727 8.5 20.7419 8.5 16.3864H7.5C7.5 21.2942 11.4786 25.2727 16.3864 25.2727V24.2727ZM21.4417 22.4395C20.0727 23.5842 18.3106 24.2727 16.3864 24.2727V25.2727C18.5537 25.2727 20.541 24.4962 22.0832 23.2067L21.4417 22.4395ZM28.3005 28.654L22.116 22.4696L21.4089 23.1767L27.5934 29.3612L28.3005 28.654ZM28.654 28.654C28.5564 28.7517 28.3981 28.7517 28.3005 28.654L27.5934 29.3612C28.0815 29.8493 28.873 29.8493 29.3612 29.3612L28.654 28.654ZM28.654 28.3005C28.7517 28.3981 28.7517 28.5564 28.654 28.654L29.3612 29.3612C29.8493 28.873 29.8493 28.0815 29.3612 27.5934L28.654 28.3005ZM22.4696 22.116L28.654 28.3005L29.3612 27.5934L23.1767 21.4089L22.4696 22.116ZM24.2727 16.3864C24.2727 18.3106 23.5842 20.0727 22.4395 21.4417L23.2067 22.0832C24.4962 20.541 25.2727 18.5537 25.2727 16.3864H24.2727ZM16.3864 8.5C20.7419 8.5 24.2727 12.0308 24.2727 16.3864H25.2727C25.2727 11.4786 21.2942 7.5 16.3864 7.5V8.5Z" fill="black"/>
</svg>
