<svg width="140" height="49" viewBox="0 0 140 49" fill="none" xmlns="http://www.w3.org/2000/svg">
<path d="M0 2H116.5C129.479 2 140 12.5213 140 25.5C140 38.4787 129.479 49 116.5 49H0V2Z" fill="white"/>
<path d="M25.5789 17H47V32H25.7719L25 24.2115L25.5789 17Z" fill="white"/>
<path d="M21.8963 12.1242L21.75 12.1909L21.75 12.3517L21.7502 17.381C21.7503 23.1382 21.7636 23.5665 22.0175 25.1325C23.1137 31.8919 27.5376 37.8445 33.3824 40.3926L33.4823 40.1635L33.3824 40.3926C33.9803 40.6533 34.9361 40.9941 35.5246 41.1561C35.5478 41.1624 35.5702 41.1687 35.592 41.1749C35.7717 41.2254 35.9131 41.2651 36.1021 41.2441C36.266 41.226 36.4753 41.161 36.8255 41.0524C36.8689 41.039 36.9144 41.0249 36.9623 41.0101L36.8885 40.7712L36.9623 41.0101C39.1953 40.3205 41.3081 39.1098 43.2826 37.3943C43.7933 36.9506 44.7147 36.0145 45.1829 35.4642C45.8584 34.67 46.3667 33.9827 46.9352 33.0946C48.5365 30.5932 49.6161 27.6949 50.0344 24.7732C50.074 24.4965 50.1054 24.2822 50.1302 24.0671C50.2273 23.2277 50.2263 22.377 50.2372 17.7579L50.25 12.3538L50.2504 12.1925L50.1036 12.1257L43.1464 8.9582L43.0428 9.18573L43.1464 8.9582C41.6534 8.27847 40.4822 7.64594 39.5152 7.12372C39.2489 6.97987 38.998 6.84438 38.7602 6.71859C37.6759 6.1451 36.8256 5.75 36.0333 5.75C35.2093 5.75 34.3572 6.13597 33.2724 6.70506C33.0167 6.83918 32.7464 6.98454 32.4579 7.13964C31.5055 7.65174 30.3558 8.26988 28.8868 8.9392L21.8963 12.1242ZM38.9264 24.9177L32.8915 31.0999L29.9636 28.1006L27.9302 26.0176C27.428 25.5032 27.4279 24.6821 27.93 24.1675C28.4293 23.6558 29.2536 23.6563 29.7544 24.168C30.0351 24.4549 30.3534 24.7807 30.6885 25.1241L32.6951 27.1806L32.874 27.3639L33.0529 27.1806L38.1843 21.9237L42.2249 17.7843C42.725 17.2719 43.5489 17.2718 44.0491 17.7841C44.5611 18.3083 44.5612 19.1453 44.0493 19.6697L38.9264 24.9177Z" fill="#00D261" stroke="white" stroke-width="0.5"/>
<path d="M68.744 20.8L63.864 32H61.816L56.92 20.8H59.176L62.904 29.44L66.664 20.8H68.744ZM77.1253 27.776C77.1253 27.9147 77.1146 28.112 77.0933 28.368H70.3893C70.5066 28.9973 70.8106 29.4987 71.3013 29.872C71.8026 30.2347 72.4213 30.416 73.1573 30.416C74.0959 30.416 74.8693 30.1067 75.4773 29.488L76.5493 30.72C76.1653 31.1787 75.6799 31.5253 75.0933 31.76C74.5066 31.9947 73.8453 32.112 73.1093 32.112C72.1706 32.112 71.3439 31.9253 70.6293 31.552C69.9146 31.1787 69.3599 30.6613 68.9653 30C68.5813 29.328 68.3893 28.5707 68.3893 27.728C68.3893 26.896 68.5759 26.1493 68.9493 25.488C69.3333 24.816 69.8613 24.2933 70.5333 23.92C71.2053 23.5467 71.9626 23.36 72.8053 23.36C73.6373 23.36 74.3786 23.5467 75.0293 23.92C75.6906 24.2827 76.2026 24.8 76.5653 25.472C76.9386 26.1333 77.1253 26.9013 77.1253 27.776ZM72.8053 24.96C72.1653 24.96 71.6213 25.152 71.1733 25.536C70.7359 25.9093 70.4693 26.4107 70.3733 27.04H75.2213C75.1359 26.4213 74.8746 25.92 74.4373 25.536C73.9999 25.152 73.4559 24.96 72.8053 24.96ZM80.9504 24.704C81.5264 23.808 82.5397 23.36 83.9904 23.36V25.264C83.8197 25.232 83.665 25.216 83.5264 25.216C82.7477 25.216 82.1397 25.4453 81.7024 25.904C81.265 26.352 81.0464 27.0027 81.0464 27.856V32H79.0464V23.456H80.9504V24.704ZM85.687 23.456H87.687V32H85.687V23.456ZM86.695 22.048C86.3323 22.048 86.0283 21.936 85.783 21.712C85.5377 21.4773 85.415 21.1893 85.415 20.848C85.415 20.5067 85.5377 20.224 85.783 20C86.0283 19.7653 86.3323 19.648 86.695 19.648C87.0577 19.648 87.3617 19.76 87.607 19.984C87.8523 20.1973 87.975 20.4693 87.975 20.8C87.975 21.152 87.8523 21.4507 87.607 21.696C87.3723 21.9307 87.0683 22.048 86.695 22.048ZM93.784 21.632C92.9413 21.632 92.52 22.0907 92.52 23.008V23.52H94.872V25.12H92.584V32H90.584V25.12H89.176V23.52H90.584V22.976C90.584 22.0587 90.8507 21.3387 91.384 20.816C91.9173 20.2827 92.6693 20.016 93.64 20.016C94.408 20.016 95.0107 20.1707 95.448 20.48L94.888 21.984C94.5467 21.7493 94.1787 21.632 93.784 21.632ZM97.496 23.456H99.496V32H97.496V23.456ZM98.504 22.048C98.1413 22.048 97.8373 21.936 97.592 21.712C97.3467 21.4773 97.224 21.1893 97.224 20.848C97.224 20.5067 97.3467 20.224 97.592 20C97.8373 19.7653 98.1413 19.648 98.504 19.648C98.8667 19.648 99.1707 19.76 99.416 19.984C99.6613 20.1973 99.784 20.4693 99.784 20.8C99.784 21.152 99.6613 21.4507 99.416 21.696C99.1813 21.9307 98.8773 22.048 98.504 22.048ZM110.157 27.776C110.157 27.9147 110.146 28.112 110.125 28.368H103.421C103.538 28.9973 103.842 29.4987 104.333 29.872C104.834 30.2347 105.453 30.416 106.189 30.416C107.127 30.416 107.901 30.1067 108.509 29.488L109.581 30.72C109.197 31.1787 108.711 31.5253 108.125 31.76C107.538 31.9947 106.877 32.112 106.141 32.112C105.202 32.112 104.375 31.9253 103.661 31.552C102.946 31.1787 102.391 30.6613 101.997 30C101.613 29.328 101.421 28.5707 101.421 27.728C101.421 26.896 101.607 26.1493 101.981 25.488C102.365 24.816 102.893 24.2933 103.565 23.92C104.237 23.5467 104.994 23.36 105.837 23.36C106.669 23.36 107.41 23.5467 108.061 23.92C108.722 24.2827 109.234 24.8 109.597 25.472C109.97 26.1333 110.157 26.9013 110.157 27.776ZM105.837 24.96C105.197 24.96 104.653 25.152 104.205 25.536C103.767 25.9093 103.501 26.4107 103.405 27.04H108.253C108.167 26.4213 107.906 25.92 107.469 25.536C107.031 25.152 106.487 24.96 105.837 24.96ZM120.446 20.128V32H118.526V30.896C118.195 31.3013 117.784 31.6053 117.294 31.808C116.814 32.0107 116.28 32.112 115.694 32.112C114.872 32.112 114.131 31.9307 113.47 31.568C112.819 31.2053 112.307 30.6933 111.934 30.032C111.56 29.36 111.374 28.592 111.374 27.728C111.374 26.864 111.56 26.1013 111.934 25.44C112.307 24.7787 112.819 24.2667 113.47 23.904C114.131 23.5413 114.872 23.36 115.694 23.36C116.259 23.36 116.776 23.456 117.246 23.648C117.715 23.84 118.115 24.128 118.446 24.512V20.128H120.446ZM115.934 30.4C116.414 30.4 116.846 30.2933 117.23 30.08C117.614 29.856 117.918 29.5413 118.142 29.136C118.366 28.7307 118.478 28.2613 118.478 27.728C118.478 27.1947 118.366 26.7253 118.142 26.32C117.918 25.9147 117.614 25.6053 117.23 25.392C116.846 25.168 116.414 25.056 115.934 25.056C115.454 25.056 115.022 25.168 114.638 25.392C114.254 25.6053 113.95 25.9147 113.726 26.32C113.502 26.7253 113.39 27.1947 113.39 27.728C113.39 28.2613 113.502 28.7307 113.726 29.136C113.95 29.5413 114.254 29.856 114.638 30.08C115.022 30.2933 115.454 30.4 115.934 30.4Z" fill="#00D261"/>
</svg>
