<svg width="317" height="41" fill="none" xmlns="http://www.w3.org/2000/svg"><path d="M44.795 25.512c-3.064 3.766-9.455 6.365-16.85 6.365-10.407 0-18.806-5.145-18.806-11.457 0-6.311 8.452-11.456 18.805-11.456 7.131 0 13.365 2.44 16.534 5.993l6.55-5.887C46.01 3.607 37.559.053 27.892.053 12.52.053 0 9.229 0 20.526 0 31.825 12.467 41 27.891 41c10.037 0 18.859-3.925 23.771-9.76m85.736-22.117v31.453h-8.874V9.123h-15.161V.213h39.196v8.91" fill="#939598"/><path d="M60.43 18.776V.212h8.98V18.83c0 7.267 5.916 13.207 13.153 13.207S95.716 26.15 95.716 18.83V.212h8.875v18.564c0 12.253-9.878 22.171-22.08 22.171-12.203 0-22.081-9.919-22.081-22.17z" fill="#B2C891"/><path d="M165.656.16c-2.483 0-4.437 2.015-4.437 4.455v31.452a4.439 4.439 0 004.437 4.456h33.438v-8.911h-28.948v-6.736h28.737v-8.964h-28.737V9.07h28.895V.16m44.533 29.755c9.033-2.175 15.425-7.85 15.425-14.48C258.999 6.895 248.381 0 235.281 0c-13.101 0-23.719 6.895-23.719 15.435v25.14h8.928v-25.14c0-3.501 6.656-6.365 14.791-6.365 8.188 0 14.791 2.864 14.791 6.365 0 3.5-6.656 6.364-14.791 6.364-1.849 0-3.592-.106-5.23-.37-.211-.054-.37 0-.581 0a4.495 4.495 0 00-4.49 4.508c0 1.326.581 2.546 1.532 3.341l16.904 11.298h16.006m17.641-7.479l-4.596 7.479h-10.459l23.771-38.56A4.415 4.415 0 01289.477 0c1.531 0 2.905.796 3.697 2.016l23.771 38.56h-10.459l-4.596-7.479m-19.281-8.964h13.84l-6.92-11.244-6.92 11.244zM312.615.53a4.382 4.382 0 014.384 4.403 4.382 4.382 0 01-4.384 4.402 4.383 4.383 0 01-4.385-4.402A4.383 4.383 0 01312.615.53zm0 8.328a3.908 3.908 0 003.909-3.925 3.908 3.908 0 10-7.818 0 3.908 3.908 0 003.909 3.925zm-1.69-6.524h2.007c1.003 0 1.69.318 1.69 1.432 0 .902-.528 1.273-1.32 1.379l1.584 2.387h-.528l-1.585-2.387H311.4v2.387h-.475V2.334zm.475 2.44h1.109c.951 0 1.638-.106 1.638-1.008 0-.796-.528-1.061-1.215-1.061H311.4v2.069z" fill="#939598"/></svg>