<svg width="144" height="45" viewBox="0 0 144 45" fill="none" xmlns="http://www.w3.org/2000/svg">
<path d="M122.395 12.7778V12.5278H122.145H116.584H111.273V0.25H127.511H143.75V12.5278H139.118H134.237H133.987V12.7778V27.2222V44.75H127.786H122.395V27.2222V12.7778ZM27.8303 18.5588L28.0305 18.4091L27.8304 18.5589L28.2805 19.1605V18.4091V0.25H35.493H42.2564V6.13636C42.2564 6.83693 42.2684 7.94465 42.2835 9.34674C42.3303 13.6727 42.4075 20.8008 42.2564 27.4187H42.2564V27.4244V44.75H34.4789H27.5111L13.3885 24.4029L12.9404 24.6056L13.9474 28.6676L14.0387 44.75H7.14504H0.25V21.9283V0.25H7.14504H14.1632L21.5142 10.2971L21.5141 10.2971L21.5183 10.3025C23.5017 12.8635 25.0798 14.9278 26.1621 16.3518C26.7032 17.0638 27.1204 17.6157 27.4022 17.9895C27.5431 18.1764 27.6502 18.3188 27.722 18.4145L27.8032 18.5226L27.8236 18.5498L27.8287 18.5566L27.83 18.5583L27.8303 18.5587L27.8303 18.5588ZM93.7193 16.9167H107.243V30.6818V44.75H86.1972H66.7538V37.5067V30.8056H79.649H92.6172L93.4837 33.2448L93.9693 33.1611V30.7979V27.7999V27.5499H93.7193H80.1127H66.7538V14.4444V0.25H87.2113H107.243V7.15909V13.6389H94.8108H82.6102L81.8939 11.9841L81.8939 11.984L81.1129 10.1785L80.6335 10.2743L80.589 13.4687L80.5439 16.6631L80.5403 16.9167H80.7939H93.7193ZM46.9676 22.7786V22.7778V0.25H53.7465H60.5968L60.7576 22.7759V22.7796L60.5969 44.75H53.7465H46.8987L46.9676 22.7786Z" stroke="white" stroke-width="0.5"/>
</svg>
