<svg width="47" height="47" fill="none" xmlns="http://www.w3.org/2000/svg"><circle cx="23.5" cy="23.5" r="23.5" fill="#EA4033"/><path d="M21.744 19.2l.952.305.418-1.305h-1.37v1zM18.608 29v1h.73l.222-.695-.952-.305zm-3.542 0l-.957.29.214.71h.743v-1zm-1.582-5.236l.957-.29-.932-3.086-.978 3.073.953.303zM11.818 29v1h.731l.222-.697-.953-.303zm-3.542 0l-.952.305.222.695h.73v-1zM5.14 19.2v-1H3.77l.418 1.305.952-.305zm3.402 0l.956-.293-.217-.707h-.739v1zm1.708 5.572l-.956.293.93 3.032.977-3.017-.951-.308zm1.806-5.572v-1h-.727l-.224.692.951.308zm3.038 0l.957-.29-.215-.71h-.742v1zm1.708 5.642l-.957.29.93 3.073.98-3.058-.953-.305zm1.806-5.642v-1h-.73l-.222.695.952.305zm2.184-.305l-3.136 9.8 1.904.61 3.136-9.8-1.904-.61zM18.608 28h-3.542v2h3.542v-2zm-2.585.71l-1.582-5.235-1.914.578 1.582 5.236 1.914-.578zm-3.492-5.25l-1.666 5.237 1.906.606 1.666-5.236-1.906-.606zM11.818 28H8.276v2h3.542v-2zm-2.59.695l-3.136-9.8-1.904.61 3.136 9.8 1.904-.61zM5.14 20.2h3.402v-2H5.14v2zm2.446-.707l1.708 5.572 1.912-.586-1.708-5.572-1.912.586zM11.2 25.08l1.806-5.572-1.902-.616-1.806 5.572 1.902.616zm.855-4.88h3.038v-2h-3.038v2zm2.08-.71l1.709 5.642 1.914-.58-1.708-5.642-1.914.58zm3.618 5.657l1.806-5.642-1.904-.61-1.806 5.642 1.904.61zm.854-4.947h3.136v-2h-3.136v2zm3.87-1v-1h-1v1h1zm3.304 0h1v-1h-1v1zm0 9.8v1h1v-1h-1zm-3.304 0h-1v1h1v-1zm0-8.8h3.304v-2h-3.304v2zm2.304-1V29h2v-9.8h-2zm1 8.8h-3.304v2h3.304v-2zm-2.304 1v-9.8h-2V29h2zm7.884-3.248l.799-.602-.732-.97-.81.904.743.668zm-.742.826l-.744-.668-.256.285v.383h1zm0 2.422v1h1v-1h-1zm-3.248 0h-1v1h1v-1zm0-9.8v-1h-1v1h1zm3.248 0h1v-1h-1v1zm0 3.556h-1v2.594l1.741-1.923-.74-.671zm3.22-3.556v-1h-.443l-.298.329.741.671zm3.598 0l.74.673 1.52-1.673h-2.26v1zm-3.92 4.312l-.74-.673-.556.612.496.661.8-.6zM37.634 29v1h2l-1.2-1.6-.8.6zm-3.822 0l-.798.602.3.398h.498v-1zm-3.194-3.916l-.742.826 1.488 1.336.742-.826-1.488-1.336zm-.998 1.494V29h2v-2.422h-2zm1 1.422h-3.248v2h3.248v-2zm-2.248 1v-9.8h-2V29h2zm-1-8.8h3.248v-2h-3.248v2zm2.248-1v3.556h2V19.2h-2zm1.741 4.227l3.22-3.556L33.1 18.53l-3.22 3.556 1.482 1.342zm2.48-3.227h3.597v-2H33.84v2zm2.857-1.673l-3.92 4.312 1.48 1.346 3.92-4.312-1.48-1.346zm-3.98 5.585l4.116 5.488 1.6-1.2-4.116-5.488-1.6 1.2zM37.634 28h-3.822v2h3.822v-2zm-3.023.398l-2.45-3.248-1.597 1.204 2.45 3.248 1.597-1.204zm3.466-9.198v-1h-1v1h1zm3.304 0h1v-1h-1v1zm0 9.8v1h1v-1h-1zm-3.304 0h-1v1h1v-1zm0-8.8h3.304v-2h-3.304v2zm2.304-1V29h2v-9.8h-2zm1 8.8h-3.304v2h3.304v-2zm-2.304 1v-9.8h-2V29h2z" fill="#fff"/></svg>