<svg width="590" height="88" fill="none" xmlns="http://www.w3.org/2000/svg"><path d="M139.736 2l-26.392 84H83.535L70.222 41.12 56.2 86H26.392L0 2h28.63l14.375 47.76L58.204 2H83.77l14.374 48.36L113.344 2h26.392zm6.175 0h27.806v84h-27.806V2zm74.77 56.16l-6.244 7.08V86h-27.335V2h27.335v30.48L241.536 2h30.28l-32.99 36.96L273.465 86H241.3l-20.619-27.84zM277.194 2H305v84h-27.806V2z" fill="#EA4033"/><path d="M525.855 25.852v1h20.622V87h24.42V26.852H589V1h-63.145v24.852zM320 86v1h28.502l-.006-1.006-.172-30.545-.001-.118-.028-.116-.575-2.333 23.224 33.686.298.432h29.572V53.203c.28-12.38.137-25.74.05-33.806-.028-2.601-.05-4.652-.05-5.942V1h-28.841v32.36l-1.297-1.722a1615.09 1615.09 0 00-8.61-11.291L348.305 1.412 348.006 1H320v85zm123.309-35.226v1h50.462v6.287l-.008-.024h-50.454V87h78.001V35.363h-49.347l-.074-8.212.017-1.257 1.044 2.427.26.605h48.1V1h-78.001v49.774zm-36.816 35.223L406.49 87h28.32l.007-.993.301-41.481v-.015l-.301-42.518L434.81 1h-28.188v43.519l-.129 41.478z" stroke="#EA4033" stroke-width="2"/></svg>